<?xml version="1.0" standalone="no"?>
<!DOCTYPE svg PUBLIC "-//W3C//DTD SVG 1.1//EN" "http://www.w3.org/Graphics/SVG/1.1/DTD/svg11.dtd" >
<svg xmlns="http://www.w3.org/2000/svg">
<metadata>
This is a custom SVG webfont generated by Font Squirrel.
Copyright   : Pierre Huyghebaert Typography initiative testingPierre Marchand Development and typography Fonzie softwareDelphine Platteeuw Design and testingGregoire Vigneron Scanning and assemblingOSP December 2010  Version 10 httpospublishconstantvzworgfoundryuniverselseUnivers Else is released under the OFL 11  httpscriptssilorgOFLFor information on what youre allowed to change or modify consult the OFL11txt and OFLFAQtxt files  The OFLFAQ also gives a very general rationale and various recommendations regarding why you would want to contribute to the project or make your own version of the font
</metadata>
<defs>
<font id="UniversElseRegularSlanted" horiz-adv-x="283" >
<font-face units-per-em="1000" ascent="800" descent="-200" />
<missing-glyph horiz-adv-x="278" />
<glyph unicode=" "  horiz-adv-x="278" />
<glyph unicode="&#x09;" horiz-adv-x="278" />
<glyph unicode="&#xa0;" horiz-adv-x="278" />
<glyph unicode="!" horiz-adv-x="427" d="M253 106q10 4 11 4q5 0 12 -3q10 -2 11 -5q1 0 7 -14q4 -17 4 -22q0 -7 -0.5 -9.5t-3.5 -8.5q-4 -10 -8 -22q-3 -10 -4.5 -12.5t-8.5 -8.5t-12.5 -7t-29.5 -1q-37 0 -43 1q-12 1 -14 5q-2 5 1 21q3 18 2 22q-3 7 -1 17q1 4 4 11q7 10 13 14q6 6 11.5 8t20.5 4q23 4 28 6z M381 731q6 2 16 2q12 0 17 -4l6 -6q-1 -1 1 -4.5t3 -5.5q1 -6 -10 -63q-10 -53 -17 -74q-5 -16 -6 -26q1 -12 -3 -30q-1 -11 -2 -16q-2 -8 -6 -16q-6 -12 -8 -21q-2 -10 -1 -12q1 -1 2 -8q1 -6 -4 -13q-6 -18 -8 -21q-3 -10 -6 -25q-1 -7 -2 -13l-11 -56q-2 -8 -6.5 -30 t-6.5 -31q-8 -33 -12 -43q-3 -7 -9 -19q-3 -8 -5 -15q-1 -8 -7 -12q-4 -3 -14.5 -5t-11.5 -2q-3 0 -17 5q-2 1 -7.5 3t-9 3.5t-5.5 2.5q-8 4 -8 9q-1 4 5 37q6 34 5 38q-2 4 1 29q3 23 1 26q-1 4 0 10q2 7 5 10q3 6 7 24q4 21 2 25q-2 6 2 27q1 6 2 11q3 14 7 28q5 12 14 49 q6 33 6 42q-1 9 0 17q2 10 4 15q3 7 3 17q-1 5 6 45q7 43 7 48q0 10 3 17q4 8 9 13q5 6 16 11q14 6 30 6q6 0 14 0.5t9 0.5z" />
<glyph unicode="&#x22;" horiz-adv-x="638" d="M280 720q4 2 11 2h7q25 -3 29 -4q9 -1 20 -4q6 -1 11 -11q2 -4 14 -15q8 -8 8 -13q1 -3 3 -19q1 -10 -7 -48l-7.5 -36.5t-7.5 -37.5q-10 -40 -14 -48q-4 -14 -5 -19q-2 -8 -7 -16q-7 -9 -9 -15t-8 -11q-5 -3 -12 -3q-5 0 -15 1q-19 2 -30 8q-12 9 -13 11l-6 12q-1 3 -4 8 l-2 5q-3 3 -2 17q1 16 1 18q-2 4 0 12q1 6 5 16q3 8 2 17q0 10 4 27q1 9 3 33q-1 11 2 24q1 9 0 21q-2 9 -1 12t4 10l8 20q4 10 8 16q4 8 10 10zM568 725q5 2 22 2q11 0 18 -7q6 -8 17 -15q12 -8 16 -12q5 -5 5 -12q1 -6 -2 -22q-1 -9 -1 -13q-2 -6 -6 -14q-5 -8 -6 -16 q-1 -5 -4 -25q-4 -25 -5 -46q-1 -8 -1 -11q-1 -5 -4 -11q-5 -8 -6 -15q-2 -8 -6 -14q-4 -10 -8 -29q-4 -22 -8 -26q-2 -4 -10 -9t-18 -5q-11 -2 -17 0q-9 0 -24 9q-10 6 -12.5 8t-2.5 7q-2 14 -2 15q-2 13 -3 16q0 15 2 25q1 12 2 29q0 1 -1 29q2 20 5 32q-1 4 1 16.5 t3 17.5q2 21 1 28q-2 7 2 29q4 17 5 20.5t6 7.5t19 7q7 1 23 4z" />
<glyph unicode="#" horiz-adv-x="550" d="M361 400q-7 3 -14 5q-12 0 -17 -1q-7 0 -14 -4q-6 -3 -8 -6q-4 -1 -7 -8q-2 -3 -8 -28q-4 -16 -9 -31q-5 -8 -11 -30q-4 -12 -5 -17t0 -6q1 -2 27 -2q25 0 30 3q7 3 22 2q16 0 19 3q7 7 10 17q5 11 8 27q3 18 5 22q5 9 9 12q7 6 7 9q2 3 2 12q-1 4 2 15q2 7 -2 9 q-3 1 -10 -1q-7 -4 -18 -4q-10 -1 -18 2zM353 686q7 2 24 2q14 0 16.5 -1t6.5 -6l7 -12q2 -5 0 -18q-3 -14 -9 -22q-6 -10 -7 -18q-2 -9 -5 -15q-4 -5 -8 -17q-6 -15 -9 -21q-6 -18 -6 -20q-2 -4 -7 -13q-4 -6 -6 -17q-4 -11 -4 -18q0 -3 1 -9q2 -2 15 -2q10 0 20 2 q11 3 15 1q7 -2 19 -2q14 0 19 3t9 9q2 3 8 24q5 19 12 29l12 20q4 7 6 15q1 6 7 16q5 10 9 22q6 15 7 29q3 18 9 25q5 6 21 11q13 5 18 5t13 -3q3 -1 9 -2.5t8 -2.5q5 -1 6.5 -3t4.5 -13q4 -15 3 -23q-2 -9 -7 -17q-9 -13 -9 -14q-1 -1 -3 -5.5t-3 -5.5q-1 -5 -5 -10 q-3 -10 -9 -27q-3 -18 -9 -26q-1 -2 -10 -26q-5 -21 -4 -25q4 -5 6 -5q3 -1 12 1q7 3 15 5q4 1 24 1t21 -1q3 -1 7 -15q1 -11 -3 -32t-8 -26t-18 -11q-12 -4 -19 -4q-4 0 -12 1q-16 0 -28 4q-10 3 -16 2l-13 -3q-3 -1 -7 -4l-2 -14q-2 -12 -10 -25q-9 -13 -12 -28 q-2 -14 -8 -21l-4 -8t-5 -8q-3 -9 -2 -12l9 -5q7 -4 13 -4q5 -2 19 0q13 2 21 0q8 0 19 -6q10 -5 11 -10q2 -4 0 -15q-2 -8 -7 -18q-5 -6 -7 -17q-2 -10 -5 -13q-2 -3 -12 -3l-18 -1h-32q-42 0 -45.5 -3t-6.5 -19q-6 -19 -7 -21q-2 -2 -7 -16q-4 -13 -7 -17q-4 -6 -8 -26 q-4 -21 -7 -25q-5 -6 -9 -12q-6 -6 -8 -17q-3 -12 -7 -17q-2 -6 -10 -10q-6 -4 -39 -4t-36 3q-3 4 -2 9l5 12q6 8 12 40q7 31 11 37l9 10q5 4 10 26q7 27 10 32q3 9 3 13q0 5 -9 8q-7 3 -13 3q-7 0 -13 -4q-8 -4 -22 -2q-13 2 -20 0q-6 0 -13 -3q-4 -2 -7 -7q0 -1 -2.5 -5.5 t-3.5 -5.5q-7 -9 -9 -17q-7 -12 -11.5 -36t-13.5 -39q-11 -19 -11 -20q-3 -6 0 -14q2 -8 1 -14q-1 -4 -4 -8l-12 -10q-8 -5 -12 -6t-23 -2q-26 0 -36 5q-12 3 -15 9t-1 14q1 8 5 16q4 6 10 16q7 12 9 27q4 13 9 22l9 9q4 4 11 33q5 28 8 30q1 1 0 6q-2 3 -12 2q-8 0 -18 -4 q-13 -4 -18 -4q-6 0 -13 6q-4 5 -13 7q-7 1 -10 9q-2 7 -3 21q-1 10 0 16q1 3 8 16q2 5 11 12q7 5 11 7q4 1 21 1h18q34 -2 37 -6t5 -4q4 0 7 4q4 3 8 15q5 15 7 18q5 6 7 19q2 11 5 17q3 3 7 14l7 16q4 6 6 13q1 3 0 11q-1 4 -8 7q-2 1 -10 1q-1 0 -5.5 -1.5t-6.5 -2.5 q-13 -3 -21 -3q-13 0 -17 3q-7 2 -10 6q-4 4 -6 7q-1 6 -0.5 8t-1.5 12q-1 8 1 13l8 15q6 10 13 14q10 5 36 6q31 2 45 2q17 1 22 5q3 4 5 16q3 14 7 19q5 12 6 18q5 13 7 15q2 3 6 17q2 9 7 18q4 5 6 18q2 10 9 22q4 7 6 15q1 6 4 10q1 4 16 16q12 10 18 14z" />
<glyph unicode="$" horiz-adv-x="581" d="M410 295q-15 4 -16 4q-2 0 -8 -3q-6 -2 -9 -6q-4 -8 -7 -16q-2 -6 -3 -14q-3 -13 -5 -34q-2 -15 -5 -29.5t-5 -20.5l-3 -12.5l-2.5 -10.5t0 -17t-2.5 -29q-2 -19 -1 -24q2 -4 14 -7q7 -2 10 -2q4 0 19 7q18 8 31 18q14 9 22 16q8 6 14.5 16t10.5 18l6 18q2 6 7 18 q4 6 5 12t-1 18q-2 13 -7 24q-4 9 -8 17q-2 4 -10 10q-4 1 -12 8q-1 2 -9 8q-6 3 -8 6q-4 3 -17 7zM377 639q-1 0 -5 0.5t-6 0.5q-2 1 -5.5 1t-5.5 -1q-2 0 -11 -6q-6 -7 -12 -7q-6 -2 -19 -12q-16 -11 -23 -19q-10 -10 -11 -13q-4 -9 -9 -15q-6 -10 -6.5 -15t-1.5 -19 q-1 -16 -2 -22q-2 -8 4 -17q8 -12 9 -20q4 -9 11 -15q11 -6 16 -6q8 -2 13 -8q6 -6 12 -8q5 -2 12 0q10 2 11 3t5 12q4 12 6 23q1 13 6 21q5 10 15 65q11 54 10 62q-2 6 -5 9q-2 3 -8 6zM440 810q5 2 11 2h7q12 0 14 -4q2 -2 -1 -17l-7 -22q-2 -9 1 -15q5 -9 9 -13 q8 -7 12 -8q5 -3 15 -3q8 0 17 -4q9 -3 21 -3q10 0 17 -3q5 -4 20 -6q14 -1 18 -6q4 -6 8 -8q4 -4 5 -10q0 -5 4 -10q3 -4 11 -7q7 -5 12 -13q3 -8 9 -14q4 -6 7 -16q3 -13 2 -20q-1 -11 1 -18q3 -10 -2 -26q-3 -13 -7 -22q-4 -5 -11 -7q-2 -1 -14 -4q-17 0 -30 1 q-24 2 -34 5q-13 5 -14 5q-4 2 -3 9q-1 10 -3 16q0 1 -1.5 9t-2.5 11q0 2 -1.5 9t-2.5 10q-6 12 -8 14q-6 7 -12 10q-9 5 -21 8q-15 4 -21 4q-6 2 -12 -2q-6 -2 -9 -7q-2 -3 -2 -12l-3 -14q-3 -8 -5 -18q-3 -13 0 -21q1 -9 -3 -23q-6 -18 -8 -20q-2 -4 -4 -13l-3 -21 q-2 -8 -4.5 -24t-3.5 -20q-3 -17 -1 -22t9 -9q6 -3 13 -12t12 -9q7 0 19 -5q6 -2 19 -9q6 -5 16 -7q3 -1 11 -3t11 -3q15 -5 22 -10q12 -7 16 -17q3 -10 13 -16q10 -7 16 -18q7 -12 11 -25q3 -10 4 -24q-3 -11 -1 -25q0 -14 -4 -34q-8 -30 -13 -44q-9 -23 -13 -28 q-3 -3 -7 -9q-3 -3 -5 -12q-2 -8 -10 -18q-8 -9 -13 -11q-2 -1 -13 -15q-7 -12 -23 -25q-18 -13 -20 -14t-9 -1q-12 -4 -17 -6q-11 -6 -27 -7q-16 -3 -32 -9q-14 -7 -28 -7q-11 0 -24 -5q-11 -3 -16 -9q-6 -5 -7 -19q-4 -20 -5 -27q-1 -14 -4 -19q-2 -3 -8 -8q-6 -3 -18 -3 q-13 1 -17 4q-5 6 -6 10q-2 6 2.5 27t3.5 26q-4 8 -5 9q-1 0 -3 2t-4 3q-3 2 -18 4q-8 0 -16 3q-2 1 -19 3q-14 0 -21 4q-4 2 -12 5l-4 1q-3 2 -8 4.5t-10 5.5q-19 10 -24 15q-7 6 -10 6q-2 0 -5 2q-8 9 -12 17q-8 14 -9 21q-1 8 -9 13q-7 5 -7 15q1 11 -2 15q-2 10 0 17 q2 10 -1 17q-3 5 -4 12v5q1 5 6 14q0 1 3.5 9.5t5.5 10.5q3 6 10 11t22 8q14 3 26 2q16 -2 23 -5q9 -1 16 -7l7 -9q3 -5 2 -17q-1 -19 -1 -20q0 -2 2 -9t3 -11q4 -15 4 -21q0 -8 10 -17q11 -11 17 -15q10 -7 15 -8q7 -3 10 -7q3 -6 8 -7q4 -3 12 -3q5 0 11 3q6 4 11 9t7 16 l4 23l9 48l6 30l6 32q1 9 8 46q4 22 4 26.5t-6 11.5q-4 6 -14 15q-7 5 -16 8q-3 1 -18 5q-9 0 -13 5q-6 4 -9 4q-5 0 -16 5q-14 4 -17 8q-5 4 -9 9q-3 3 -16 13q-3 3 -9.5 8t-8.5 6q-10 9 -15 17q-8 10 -12 20q-5 11 -4 20q0 9 -2 16v3q-2 10 -2 15q-2 10 4 42t10 38l7 14 q5 10 14 22q14 20 17 23q1 2 7 10q1 3 2 4q4 7 20 21q15 12 30 20q23 14 24 15q14 7 17 7q13 3 18 4q13 4 21 4q11 0 21 3q22 6 25 7q6 1 19 4q7 3 13 10q5 8 10 28q7 22 11 30q4 10 8 12z" />
<glyph unicode="%" horiz-adv-x="860" d="M731 289q-5 6 -15 6q-13 0 -21 -4q-12 -3 -19 -7q-1 0 -7 -4t-10 -5q-10 -7 -14 -12q-3 -5 -9 -10t-11 -15q-6 -12 -13 -47q-7 -37 -5 -43v-17q-1 -13 3 -17t5 -12t9 -10q10 -5 14 -8q7 -6 13 -6l12 -3h11q7 2 12 5q7 4 9 10q6 7 13 10q11 7 19 15q11 11 16 21q6 15 8 21 q1 10 1 18q-2 7 2.5 13t6 15t-0.5 15v19q2 15 -2 20q-1 1 -8 13q-3 8 -8 9q-2 1 -6 5zM693 360q5 2 40 2l33 -1q2 -3 2 -6q3 -5 14 -9q14 -5 19 -6q9 -2 11 -7q2 -3 8 -6q1 0 4 -7q2 -3 6 -10q3 -3 3 -5q8 -7 8 -20q0 -12 7 -20q4 -4 4 -9t-4 -30q-6 -33 -4 -38q1 -4 -1 -12 q-2 -9 -6 -12q-5 -5 -8 -19q-3 -17 -9 -28q-7 -15 -12 -21q-7 -7 -10 -14q-1 -5 -9 -10q-7 -6 -10 -14q-1 -9 -6 -13q-7 -6 -11 -7t-8 -7t-22 -13q-12 -6 -19.5 -7t-39.5 -1q-44 0 -44 -2q-2 -1 -5 -2t-5 -2q-4 -1 -13 -1q-7 3 -11 7.5t-13 6.5q-6 2 -11 7q-5 6 -16 12 q-9 8 -11 13q-3 7 -5 7q-1 0 -9 10q-7 9 -7 16l-2 12q-2 6 -2 14q1 7 -3 17q-3 6 -2.5 11.5t5.5 32.5q2 11 4 19q3 17 6 24q1 2 5.5 10t5.5 12q8 16 8.5 20t4.5 12q3 5 7 10q4 3 8 15q2 13 3.5 15t12.5 10q14 7 20 11q9 5 10 9q3 3 8 5q1 0 6 0.5t7 0.5q7 0 15 6q6 6 20 8 q20 2 23 4zM355 642h-5l-2 1l-16 -2q-18 -2 -19 -3q-4 -2 -21 -15q-15 -13 -25 -26q-8 -12 -14 -41q-4 -16 -9 -39q-3 -19 -4 -30q-3 -22 -3 -23q-1 -5 7 -12q9 -11 17 -16q11 -6 29 -5q11 0 23 3q5 2 15 5q8 1 19.5 11t14.5 18q5 8 8 11q5 4 6 17q2 12 5 19q2 3 10 36 q3 14 4 19q2 11 -2 17q-4 8 -5 15q1 5 -1 11q-1 4 -6.5 6t-13.5 12q-10 10 -12 11zM340 715q9 0 15 1q1 0 19 -3q4 -2 18 -7q11 -4 20 -4t15 -2q7 -2 11 -10q11 -14 17 -20q12 -14 13 -17q3 -10 3 -14q0 -9 4 -15q3 -5 3 -16q-1 -7 0 -11q0 -2 4 -10q4 -7 3 -12 q-1 -4 -5 -12t-2 -16q0 -15 -1 -24q-2 -11 -9 -25q-6 -10 -8 -18q-4 -11 -9 -15q-5 -8 -11 -21q-7 -18 -10 -20q-7 -6 -10 -7q-7 -3 -11 -7l-6 -9q-2 -5 -14 -13q-9 -6 -23 -13q-9 -3 -19 -10t-12 -7q-5 -2 -15 1q-10 4 -23 0q-15 -4 -31 -3q-19 2 -24 4q-8 3 -13 3 q-7 0 -13 2t-8 5q-2 2 -14 10q-13 9 -20 18q-10 13 -11 17q-3 7 -4 7q-3 0 -6 12q-3 14 -3 16q2 6 -1 10q-1 8 2.5 26t2.5 27q-3 8 -0.5 21t7 19t6.5 16t6 16l7 16q2 6 10 21q5 10 16 21q2 2 27 25q18 16 32 23q16 8 17 8q4 0 12 4q11 5 17 5q13 3 16 4q11 2 13 3zM748 733 q4 1 31 1q24 0 26 -3q1 -1 -1 -10t-14 -24q-8 -12 -19 -23q-7 -6 -10 -12q-2 -3 -4 -16q-3 -12 -7 -16q-2 -5 -12.5 -10t-15.5 -16q-4 -9 -10 -19q-8 -10 -11 -13q0 -1 -5 -6t-7 -8q-7 -9 -16 -23q-5 -11 -20 -24q-13 -11 -24 -27q-8 -12 -13 -21q-2 -7 -9 -11 q-7 -5 -8.5 -13t-4.5 -14q-2 -5 -20 -20q-18 -14 -22 -24q-3 -8 -14 -19q-5 -5 -13 -12q-3 -1 -12 -16q-5 -12 -12 -22q-9 -14 -12 -18q-6 -10 -6 -11q-1 -3 -8 -8q-7 -8 -8 -10q-1 -3 -9 -10q-10 -7 -12 -12q-5 -8 -6 -13q-2 -7 -5 -13q-2 -7 -10 -11q-7 -4 -21 -21 q-4 -4 -20 -24q-2 -3 -9.5 -13t-10.5 -15q-10 -16 -21 -27q-9 -7 -12 -11q0 -3 -4 -11q-2 -9 -8 -11q-5 -3 -11 -13q-11 -12 -13 -15q-7 -5 -9 -10q-2 -3 -4 -13q-1 -6 -6 -15q-3 -6 -5 -6q-1 0 -8 -8q-9 -9 -16 -12q-6 -4 -9 -4q-2 0 -6 1q-3 0 -9 0.5t-7 0.5q-5 -1 -18 1 q-7 2 -12 4q-3 2 -2 7q0 3 4 14q2 10 7 16q3 6 5 6l8 8q1 3 5 7l4 5q5 4 14 16q10 13 16 22q4 8 10 11q2 1 5 3t4 2q2 1 6 13q3 11 10 19t14.5 20t14.5 16q6 5 8 11q4 6 9 12q9 9 11 16q8 14 12 17q1 2 6 8t7 8q9 10 13 15q4 4 11 13q3 6 8 10q4 3 9 11q3 3 9 14q1 3 10 17 q9 12 11 14l7 6q6 2 11 8q4 5 5 11t5 9q2 4 8 6l9 4q2 2 6 14q3 11 11 17q3 3 11 12q4 6 8 14q1 5 13 17l12 12q1 3 7 10q5 4 19 27q7 16 17 26q9 10 14 17q4 5 12 20q4 10 11 18l15 16q6 5 10 15q4 9 13 12q6 3 16 18l9 16q0 1 7.5 7t10.5 15q1 7 5 13q2 3 9 7q8 3 12 13 q5 10 10 13z" />
<glyph unicode="&#x26;" horiz-adv-x="758" d="M345 342q-6 5 -12 5q-3 0 -13 -4q-11 -6 -14 -8l-8 -9q-4 -7 -11.5 -10t-21.5 -18q-20 -18 -21 -19q-7 -4 -11 -14q-7 -10 -9 -19q-4 -11 -8 -15q-4 -7 -6 -13q0 -3 -1 -7q-2 -12 -1 -26q0 -6 3 -21q2 -11 4 -16q1 -1 2 -5t2 -6q0 -6 3 -9q1 -4 8 -8q6 -4 6 -10 q1 -9 3 -15q2 -8 4 -11q1 -1 6 -2t8 -2q13 -2 46 -2h18q18 0 30 -3q10 -2 16 -2h4q6 0 19.5 6t18.5 6q8 3 15 7q1 1 11 6.5t16 8.5q18 10 25 16q6 5 9 12q4 9 8 13q4 5 5 10t-8 17q-11 14 -14 15q-4 1 -5 9q0 6 -9 18q-8 11 -18 14q-8 4 -17 12q-7 6 -9 15q-3 6 -5 9 q-4 1 -8 11q-9 15 -10 16q-1 2 -6.5 7t-6.5 7l-9 8q-3 0 -11 10t-17 16zM475 669q-8 5 -18 5t-16 -2q-5 -2 -12 -6q-4 -4 -8 -4q-2 0 -9 -2q-5 -1 -19 -11q-13 -8 -16 -13q-3 -3 -12 -13q-3 -3 -14 -19q-7 -13 -6 -24q2 -16 3 -23q0 -5 6 -22q3 -9 10 -14q8 -4 8 -6 q3 -3 9 -6q10 -8 11 -8q4 -3 11 -3t15 2q5 1 23 10q14 9 22 18q12 13 16 15q8 7 12 13q5 9 10 14l12 15q5 9 7 19t0 19q-5 12 -14 24q-11 14 -18 16q-10 4 -13 6zM434 755q10 2 36 2q27 0 49 -2q19 -2 38 -13q21 -11 30 -13t21 -9q10 -8 14 -18q3 -8 4 -17q0 -9 3 -20 q3 -16 4 -25q0 -12 3 -21q2 -9 -1 -16q-4 -6 -9 -24q-7 -19 -13 -25q-7 -8 -8 -12q-1 -5 -5 -11q-2 -6 -17 -23l-11.5 -12t-8.5 -9l-12 -7q-5 -2 -9 -9q-4 -8 -6 -8l-14 -10q-11 -9 -22 -14q-7 -1 -17 -11q-8 -7 -11 -11q-1 -2 -2 -8q1 -5 6 -10q1 -2 4 -5l4 -4q4 -5 4 -10 q2 -5 9 -12q8 -5 11 -14q3 -8 12 -21q8 -10 7 -13q0 -1 5 -10q7 -8 22 -17l18 -10l1 -8q1 -6 2 -7t13 -5q12 -2 15 -2q6 3 11 7q6 5 9 12q4 6 6 18q3 14 7 23q5 8 10 24l8 24q3 6 9 21q4 8 9 32t9 29q2 3 12 17q6 8 8 9.5t11 3.5q11 3 19 3q5 0 15 2q9 2 29 -2q19 -6 21 -7 q3 -4 -1 -24q-1 -5 -2 -11q-2 -11 -5 -21q-5 -12 -5 -23q0 -10 -6 -22q-3 -8 -10 -30q-3 -18 -10 -28q-8 -10 -10 -11q-4 -1 -6 -6q-3 -4 -5 -11q-1 -9 -6 -15q-5 -12 -7 -20q-4 -12 -11 -17q-7 -6 -14 -19q-10 -14 -18 -22q-7 -7 -8 -19q-1 -15 0 -19q1 -7 3 -7l1 -4 q1 -3 3 -5q3 -7 9 -10q5 -2 10 -9q4 -7 5 -7t11 -13q12 -15 13 -17q4 -5 7 -7q1 0 4.5 -2.5t4.5 -3.5q7 -5 14 -16q8 -12 6 -21t-4 -13l-9 -9q-6 -5 -21 -6q-5 -1 -13.5 -3t-9.5 -2q-6 -2 -22 -2q-17 2 -21 4q-10 3 -19 4t-12 3t-12 13q-13 16 -18 19q-8 9 -10 15 q-6 10 -13 14q-7 5 -15 5q-5 0 -11 -3q-8 -5 -23 -16t-22 -19q-5 -6 -12 -8q-5 -3 -12 -3q-8 0 -25 -10t-28 -14q-9 -3 -12 -3q-1 0 -12 -4t-21 -4q-3 -1 -14 -3t-15 -3q-16 -5 -23 -5h-6q-4 1 -51 3q-34 1 -51 5q-8 3 -20 5q-3 0 -22 5q-12 4 -20 11t-10 7l-9 9l-11 8l-9 6 q-5 7 -11 9q-7 5 -10 12l-5 8q-2 0 -6 5t-5 16q0 5 -2 18q-5 7 -4 20t0 17t1 29q2 8 4 19q1 10 1 11q2 11 5 18q4 13 8 18q4 6 13 24q10 20 14 26q8 9 10 13q8 6 8 10q1 1 2 3q4 7 7 10q6 9 24 20q22 14 23 15l5 6l8 6q1 1 8.5 5.5t10.5 6.5l20 14q5 3 12 12q4 8 5 13 q1 6 1 14q-1 6 -6 11q-7 6 -6 9q-2 4 -6 9t-9 19q-6 16 -6 20q-1 2 -4 22q-2 18 -2 22q1 2 0 14q-2 8 3.5 36t9.5 37q2 2 5 7t3 6q5 8 13 14q10 10 13 16q6 10 15 18q10 10 15 14q7 6 10 7q6 1 16 10q13 8 15 9q7 3 26 3q20 0 26 4q11 4 15 4q9 0 16 3z" />
<glyph unicode="'" horiz-adv-x="741" d="M537 727q5 2 40 3q31 0 37 -2q4 -2 6 -10q1 -6 -2 -22q-4 -15 -14 -28q-13 -16 -18 -20q-12 -10 -17 -16q-12 -12 -33 -29q-23 -20 -33 -30q-11 -11 -15 -13q-4 -3 -8 -10q-7 -10 -11 -13t-10 -11q-2 -5 -16 -15q-15 -9 -24 -12q-13 -5 -19 -5q-5 0 -18 6q-10 4 -15 12 q-5 7 -2 21q3 15 6 20q8 11 11 14q8 10 12 16q2 2 7.5 8t6.5 8q12 10 13 14q1 2 2.5 5.5t2.5 5.5q5 8 12 16q3 3 9 10.5t7 8.5q6 5 15 19q6 12 12 15q6 7 8 14q6 9 10 11q3 3 18 5q12 0 20 4z" />
<glyph unicode="(" horiz-adv-x="368" d="M370 784q21 5 26 5q9 0 15 -2q4 -1 7 -7q1 -3 -4 -27q-4 -22 -7 -28q-4 -8 -11 -14q-9 -9 -10 -13q-4 -8 -5 -13q0 -2 -3 -9.5t-4 -9.5q-4 -13 -11 -23q-5 -9 -9 -21t-11 -22q-9 -12 -9 -16q-1 -3 -6 -12q-4 -6 -11 -37q-7 -29 -14 -42q-5 -10 -12 -18q-5 -5 -7 -17 l-9 -30q-8 -26 -8 -28q-5 -9 -3 -16q0 -3 -1.5 -16.5t-2.5 -21.5q-2 -17 -6 -39l-3 -16l-7 -32q-3 -27 -2 -30q1 -4 -1 -14q-2 -7 0 -21q3 -10 0 -25q-1 -5 -2 -11v-6q1 -5 1 -13q0 -10 1 -17q2 -6 0 -16q-2 -9 -1 -15q1 -7 1.5 -15t3.5 -18q1 -5 4 -26q1 -22 0 -29 q-2 -11 1 -28q3 -14 2 -19t4 -17q4 -11 2 -26q-3 -16 -5 -20q-5 -8 -11 -12q-5 -4 -13 -6q-2 -1 -6.5 -1t-8.5 1q-8 2 -17 2q-11 0 -13 1q-4 2 -8 13q-5 11 -6 18q-2 6 -6 15q-5 6 -3 17q0 14 -2 18l-4 14q0 7 -3 20l-6 18q-5 7 -3 18q1 10 -3 23q-4 9 -2 24q1 8 1 20 q-3 12 -3 19q0 8 -2 17q-3 7 -2 20q1 16 0 18l-2 15q-2 6 -1 21q1 21 0 31q-1 19 2 35q4 21 4 26v20q0 6 1 10q1 6 8 24q9 20 11 28q1 6 1 18q-1 10 4 19q4 12 6 19q1 8 5 16q2 4 6 13q1 5 12 21q11 17 13 25q1 6 7 18q2 2 9 18q4 8 9 20q2 10 7 14q5 7 9 16q7 14 9 17 q5 9 8 13q2 5 9 15q5 4 9 18q5 12 10 22q0 1 2.5 8t4.5 11q3 9 13 20q9 11 9 12q1 3 5 9q2 2 20 23q13 14 28 19z" />
<glyph unicode=")" horiz-adv-x="347" d="M247 777l6 1h11q16 0 20 -2q6 -1 7 -8q5 -8 7 -9l2 -5q2 -4 2 -7q4 -10 3 -18q0 -9 3 -21q3 -13 3 -28q1 -7 5 -29q4 -16 4 -19l3 -15q3 -10 7 -20q3 -11 0.5 -24t-0.5 -27q3 -10 4 -24q4 -9 3 -21l2 -24q-1 -11 0 -27q0 -8 3 -20q0 -8 -3 -23t-1 -21q0 -8 -1 -16 q-3 -16 -6 -25q-2 -7 -13 -50q-5 -28 -12 -46q-4 -10 -5 -20q-1 -8 -6 -16l-7 -10q-1 -2 -6 -20q-3 -15 -9 -21q-3 -6 -4 -12q-1 -4 -11 -21q-9 -12 -12 -26q-3 -15 -7 -22q-1 -3 -4 -10t-4 -10q-4 -12 -15 -27q-13 -18 -15 -29q-2 -10 -12 -24q-8 -12 -14 -17q-2 -2 -9 -13 q-7 -12 -9 -18q-4 -11 -8 -15q-8 -9 -11 -12q-8 -9 -10 -14q-5 -11 -10 -14q-5 -4 -18 -5q-15 0 -26 4q-10 4 -12.5 5.5t-3.5 9.5q-2 10 -1 16t8 18q13 19 15 21q10 13 12 19q6 10 10 16t6 19q3 14 7 20q0 1 2.5 6.5t4.5 8.5q1 2 4 7.5t3 7.5l2 7q4 7 5 10q4 10 12 26 q10 17 14 32q6 13 12 32q2 13 8 21q5 9 6 23q1 4 2.5 13.5t0.5 12.5q2 8 6.5 22t8.5 20q4 8 6 19t3 23v16q1 8 5 14q3 5 7 25t3 25q-2 8 2 28q2 23 1 34q0 10 -1 23q-2 9 1 23q2 11 1 27q0 12 2 21q1 6 -2 24q-3 11 -3 26v12v6q0 5 -1 9v22l-3 22v8.5v8.5q1 3 -2 11 q-2 5 -3 16q-2 15 -2 21q-2 10 -1 15q0 1 5 10q3 5 12 11t11 7z" />
<glyph unicode="*" horiz-adv-x="538" d="M468 722q7 2 16 2q10 0 20 -5q11 -5 17 -14q6 -8 8 -12q1 -2 0 -11q-2 -8 -9.5 -21t-25.5 -27q-18 -15 -20 -18q-2 -5 -13 -16q-9 -8 -10 -14t4 -8q8 -3 22 -2q16 2 26 5q14 3 32 3q20 0 27 -5q6 -5 7 -10q-1 -3 1 -15q1 -9 -1 -18q-1 -2 -3.5 -7.5t-3.5 -7.5t-4 -6.5 t-4 -6.5q-3 -5 -11 -8q-4 -3 -18 -3q-13 0 -17 2q-6 2 -13 2q-10 0 -17 3q-12 2 -15 2q-4 0 -13 2q-9 3 -13 0q-6 -2 -6 -6q-1 -5 3 -15q4 -14 4 -17q0 -5 7 -11q4 -3 10 -11q2 -4 10 -11q7 -6 9 -12q-1 -1 0 -5.5t0 -5.5q-1 -6 -5 -15q-3 -7 -8 -14q-3 -5 -15 -10 q-11 -5 -27 -5q-15 0 -20.5 2t-7.5 7q-2 6 -2 10v5t1 5q-2 6 -5 10q-5 8 -6 23q-1 4 -2 13.5t-1 11.5q-2 10 -6 11q-5 0 -13 -5q-8 -4 -22 -25q-11 -15 -19 -32q-3 -7 -12 -22q-8 -10 -12 -13q-4 -5 -13 -7q-4 -1 -16 -1q-10 1 -21 14q-11 14 -12 16q-1 4 2 17q2 12 6 18 t15 17q15 14 24 21q9 8 14 16q3 6 8.5 14t6.5 12q0 4 -6 4q-4 0 -26 -2q-23 -2 -34 -5q-16 -4 -17 -3l-12 4q-5 2 -9 2q-3 0 -8 4q-5 2 -5 11q-1 4 -5 13q-3 4 -1 14q2 11 10 22q8 13 14 18q4 4 14 6q4 2 14 2q10 -2 14 -5q9 -4 18 -4q10 0 14 -2q4 -3 13 -3t12 3q1 1 3 3.5 t2 3.5q2 7 1 10q0 4 -4 9q-2 2 -5 12q1 6 -2 14q-5 6 -7 8q-4 2 -6 9q-2 9 -4 12q-3 6 -4 12q0 6 4 12q3 7 17 17q14 11 20 12q10 2 14 1q9 -2 15 -5t11 -13q0 -4 8 -20q6 -9 7 -18q4 -6 5 -15q0 -4 3 -14q3 -7 5 -7q2 -1 7 1q1 1 5 3t6 4q9 5 12 9q3 6 3.5 10t8.5 14l8 15 q1 4 5 12q5 6 6 7q5 4 8 8q4 6 10 9z" />
<glyph unicode="+" horiz-adv-x="610" d="M406 580q12 2 18 2q7 0 11 -3q2 -6 12 -9q9 -6 12 -17q4 -9 3.5 -11.5t-3.5 -8.5q-8 -20 -8 -21q-5 -15 -10 -21q-3 -8 -4 -14t0 -10q2 -5 1 -10t-5 -15q-4 -8 -13 -45q-5 -26 -5 -32t3 -16q6 -13 11 -14q4 -1 49 -1q22 1 30 1q15 0 21 -3q11 -3 12 -3q7 -2 19 3 q10 3 33 3q22 -1 30 -6q9 -5 10 -9q1 -2 -5 -30q-5 -26 -8 -29t-19 -9q-11 -5 -21 -5.5t-60 -0.5q-67 0 -73 3q-7 4 -14 3q-9 0 -20 -5q-13 -9 -14 -11q-4 -3 -8 -25q-4 -21 -4 -29q1 -8 -3 -20q-6 -18 -13 -54l-12 -55q-2 -11 -9 -22q-8 -11 -13 -14q-1 -1 -8 -4.5 t-10 -5.5q-9 -4 -12 -4q-2 0 -7 2t-14 5q-8 3 -12 5q-6 4 -8 7q-1 1 1 8v19t2 22q2 10 0 17q-1 9 0 16q1 4 4 8t6 20q3 10 11 52l3 16q4 19 4 25t-8 16q-7 9 -13 11h-5h-12.5h-15.5h-29q-53 0 -65 -2t-17 -1q-1 1 -8.5 2t-9.5 1q-11 2 -15 5q-2 0 -7 7q-1 6 4 28q1 7 2 12 q2 11 5 15q3 5 11 8q9 5 17 4q16 0 23 2q15 2 24 1q10 0 32 -2q10 -2 23 -2q5 0 13 3q9 2 18 1q7 -3 28.5 -1t24.5 4q3 3 5 10q1 4 6 13q0 1 2 5.5t3 5.5q2 3 2 16q-1 10 2 17q3 10 16 77q16 70 23 81q8 11 12 13q3 1 18 5z" />
<glyph unicode="," horiz-adv-x="251" d="M188 127q5 1 14 1q8 -3 13 -7q9 -6 11 -10q1 -6 -1 -19q-3 -14 -8 -22q-5 -7 -12 -13q-7 -4 -9 -11q0 -1 -3 -7t-4 -9l-8 -15q-1 -4 -8 -12q-6 -5 -12 -18q-4 -13 -8 -16t-7.5 -16t-23.5 -38l-26 -35q-11 -12 -14 -13q-3 -3 -12 -3q-7 0 -22.5 4t-18.5 5t-4 13v9.5v6.5 q1 6 6 17q5 13 8 17q4 7 8 21q5 18 11 25q5 9 8 21q2 11 9 29q4 14 9 21q0 1 2 6t3 9q4 8 7 15q2 3 17 16q14 11 32 17q16 5 26 7z" />
<glyph unicode="-" d="M127 325q9 2 19 2q12 0 18 -4q8 -3 17 -3q5 1 32 1h12q14 0 25 2q15 2 20 1q8 -2 16 -2q9 0 12 -3q5 -2 5 -8q1 -7 0 -23q-2 -18 -3 -25q-2 -9 -7 -14q-4 -5 -9 -8q-10 -3 -16 -4q-17 -3 -18 -3q-6 -2 -12 -2t-12 -2q-4 -2 -8 -2t-9 2q-2 0 -11.5 1.5t-14.5 2.5 q-7 1 -10 1q-8 0 -24 -4q-15 -3 -20 -3t-17 3q-17 4 -21 8q-4 3 -4 15q1 11 2 20l2 10q6 20 8 22q2 3 12 11q10 6 16 8z" />
<glyph unicode="." horiz-adv-x="344" d="M184 141q21 1 42 1h1q4 0 13 -5q7 -4 9 -7t4 -17q3 -18 -2 -47q-6 -30 -14 -40q-8 -11 -11 -13q-7 -3 -48 -3q-22 -1 -29 -1q-15 0 -23 5q-10 5 -12 10q-1 6 3 26t2 28q0 7 -1 17q3 11 6 19q4 7 10 14q6 8 11 10q3 3 39 3z" />
<glyph unicode="/" horiz-adv-x="322" d="M449 834q7 2 21 2q6 0 14 -3q7 -2 9 -9q2 -6 -1 -20q-2 -13 -8 -21q-4 -6 -6 -14q0 -4 -6 -12q-2 -3 -15 -21q-11 -15 -14 -30q-2 -14 -6 -24q-5 -7 -9 -16q-3 -7 -6.5 -9t-11.5 -13q-7 -12 -8 -16q0 -2 -2.5 -7.5t-3.5 -6.5q-6 -12 -7 -19q-2 -8 -10 -25q-2 -2 -7.5 -12 t-7.5 -14l-11 -19q-4 -9 -8 -16q-2 -4 -12 -21q-8 -13 -11 -22t-16 -28t-16 -28q-2 -8 -7 -12q-1 -2 -9 -10q-6 -6 -10 -22q-2 -12 -8 -24q-3 -8 -3 -9q-1 -2 -6 -4q-6 -3 -12 -13q-1 -3 -4.5 -11.5t-5.5 -11.5q-4 -11 -11 -18q-6 -7 -11 -26q-4 -20 -8 -22l-7 -6 q-4 -3 -5 -10q-2 -8 -4 -12q-1 -5 -10 -10t-13 -13q-1 -2 -4 -7t-5 -7l-5 -15q-1 -4 -6 -13q-4 -5 -8 -16q-5 -8 -6 -17q-2 -7 -8 -15q-6 -7 -7 -16q-2 -10 -12 -23q-10 -16 -11 -19q-3 -7 -9 -10q-7 -6 -9 -14q-4 -10 -5 -13q-3 -4 -9.5 -7t-11.5 -9q-4 -4 -10 -6h-3 q-3 0 -7 2q-8 3 -14 3q-8 1 -12 6t-5 12q0 5 1 7q0 3 5 10q5 10 6 16v6.5t-1 5.5q2 7 8 13q4 5 10 17q0 2 10 20q8 10 10 19q4 10 8 16q5 6 7 18q4 12 12 19t8.5 9t6.5 9q8 8 10 16q3 10 5 11q3 5 7 16q2 12 7 18q5 4 8 8q2 2 6 13q2 9 7 13q4 8 7 18q5 12 13 17t9 7 q0 1 6 19q6 20 8 23q4 4 5 10q1 4 4 10q2 3 8 8q5 3 10 22q5 20 17 38q14 21 19 30q9 18 9 21q3 8 10 15q8 7 12 13q5 8 8 24q6 19 9 22q6 9 8 11q5 8 6 12q0 2 1.5 6t1.5 5q5 8 8 10q8 8 10 15q4 10 8 13q5 6 5 9q3 4 9 10q6 5 7 10t5 13q4 9 7 12q5 3 11 15t7 19q0 5 1 13 q1 4 7 9t9 9q3 7 4 15q1 13 5 16q3 4 4 11t4 11q2 4 9 8l12 7q4 4 16 6z" />
<glyph unicode="0" horiz-adv-x="625" d="M451 663q-9 4 -20 4q-7 1 -18 1q-2 -1 -10.5 -2.5t-11.5 -2.5q-20 -7 -25 -10q-14 -10 -15 -11q-4 -4 -12 -9q-10 -7 -17 -17q-11 -12 -20 -26q-10 -14 -14 -29q-4 -12 -8 -19q-4 -8 -8 -28q-5 -23 -14 -40q-9 -14 -11 -26l-11 -57l-11 -57l-6 -28q-2 -25 -2 -27 q1 -5 3 -14q0 -2 4 -10q1 -3 2 -5q3 -11 1 -19l-3 -16q-2 -9 -1 -20q0 -4 1 -15t1 -12q2 -12 7 -20q5 -10 5 -13q0 -4 13 -20q11 -15 19 -16q12 -3 15 -5q8 -3 24 -3q14 2 25 0q4 -1 6 -1q5 0 11 4q10 3 29 6q21 4 24 5q4 3 6 10q2 5 9 11q11 6 14 10q11 9 18 18 q12 16 14 19q5 9 9 19q9 17 13 22q7 10 10.5 30t9.5 29q5 8 5 19q1 10 3 19q4 10 13 54q9 45 8.5 53t3.5 32q5 25 4 32q-2 6 0 16q1 8 0 24q0 12 2 25q3 12 0 21q-1 6 -2.5 16t-1.5 11q-2 4 -5 8q-1 3 -13 18q-10 13 -11 18q0 2 -4 6q-4 2 -17 4q-16 1 -24 6q-9 6 -16 8z M399 754q7 3 22 3q14 0 21 -3q8 -3 43 -3q28 -1 33.5 -2t13.5 -6q9 -6 18 -6q2 0 8.5 -1.5t8.5 -1.5q15 -4 17 -6q5 -4 14 -9q9 -9 10 -12q2 -3 12 -13q9 -6 11 -14q0 -5 8 -17q1 -3 3.5 -7.5t2.5 -5.5q2 -1 2 -10q0 -10 -1 -16q-1 -8 1 -12q1 -4 4 -8q4 -2 3 -9q0 -6 5 -12 q3 -5 3.5 -9.5t-3.5 -27.5q-6 -32 -4 -34q0 -1 3 -17q2 -11 1 -19t-9 -48q-12 -80 -13 -84q-4 -24 -6 -35q-1 -6 -2 -9q-2 -10 -8 -32q-6 -19 -11 -27q-5 -9 -7 -20q-3 -14 -7 -20q0 -2 -4 -11.5t-6 -15.5q-7 -19 -12 -27q-8 -8 -9 -11q0 -3 -7 -11q-3 -4 -13 -12 q-6 -4 -14 -17q-6 -10 -16 -20q-17 -14 -25 -20q-3 -2 -8.5 -6l-9.5 -7t-7 -5q-9 -8 -10 -8q-2 0 -11 -5q-4 -3 -19 -8q-9 -1 -23 -9q-14 -5 -24 -5q-3 0 -22 -3q-13 -2 -30 -4h-10q-9 0 -18 3q-11 4 -30 4q-22 0 -31 4q-11 4 -15 4t-11 2q-6 2 -12 9q-4 6 -17 12 q-16 7 -20 10q-8 4 -11 8t-5 10q-3 5 -7 9q-5 4 -8 15q-4 12 -8 15q-5 3 -8 19q-4 14 -6 24q-2 9 -2 20v19q-2 8 -1 14q2 8 1 18q-2 11 2 32q4 19 4 29q0 3 0.5 13.5t1.5 13.5q1 18 5 36q4 16 3 26q-1 5 3 27q3 11 6 27q3 11 3 17v7q1 5 5 10q5 8 8 29q3 26 4 30q0 5 5 19 q3 11 13 26q9 14 10 18q0 3 10 23q11 20 13 22q1 2 5 7t5 7l11 17q1 7 11 14q10 10 14 16q7 10 10 12q5 5 14 8q12 2 17 9q6 7 15 12l14 9q4 3 18 7q8 2 24 5q11 0 20 4q7 3 18 7z" />
<glyph unicode="1" horiz-adv-x="567" d="M449 730q15 7 20 7q2 0 11 -3q4 -3 4 -4q0 -2 6 -13q7 -10 5 -20q0 -3 -2 -11l-5 -27l-5 -25q-1 -12 -1 -26q1 -4 -1 -29q-3 -13 -3 -31q1 -8 -4 -18q-5 -9 -20 -87q-16 -79 -21 -86q-5 -11 -8 -31q-3 -19 -3 -31q0 -7 -11 -73q-10 -65 -10 -72q1 -5 0.5 -8t-3.5 -10 q-6 -8 -9 -23l-4 -27q-8 -39 -6 -48q2 -5 1 -9l-2 -4q-3 -6 -11 -11q-8 -7 -17 -10q-8 -4 -27 -4q-16 0 -24 3q-7 4 -12 4q-6 0 -16 4q-9 5 -9 9q-1 4 1.5 16t0.5 21q-1 10 2 25q4 19 6 23q3 8 4 23q1 8 0.5 23t0.5 19t6 16q5 8 19 80q14 73 13 82q-1 8 0 11q3 4 8 8 q5 5 5 13q0 5 2 17l4 17q2 7 -2 13q-3 7 -2 12l5 12q4 9 10 29q0 4 2 14l3 15q2 8 3 13q3 17 3 29q-1 7 0 14q1 6 5 9q3 6 4 9q1 5 -1 7t-4 2t-8.5 -4t-14.5 -6q-5 0 -17 -9q-11 -9 -21 -12q-10 -2 -11 -2q-2 0 -7 -7q-8 -8 -12 -9q-4 -3 -17 -5q-13 -1 -21 0q-11 2 -11 6 q-2 4 4 38q8 34 13 38t18 12q15 11 18 14q4 5 22 14q5 2 12 6l7 4q3 3 20 11q18 9 23 15q5 7 21 14q11 6 23 10q13 3 15 4l13 3q7 0 20 7z" />
<glyph unicode="2" horiz-adv-x="616" d="M462 753q4 3 9 3t20 -7q11 -5 14.5 -5t11.5 3q13 4 21 3q7 -2 14 -5q4 -5 19 -11q14 -5 24 -13q14 -7 22 -10q8 -4 9.5 -6t1.5 -9q2 -15 5 -20q3 -10 5 -10l3 -8q0 -6 6 -11t6 -11q0 -10 2 -15q1 -6 -2 -17v-16q1 -3 4 -7q3 -1 1.5 -7t-5.5 -13q-3 -7 -5 -22 q-2 -12 -8 -23q-5 -9 -5 -17t-4 -14q-5 -10 -10 -19q-7 -14 -16 -26t-24 -26q-12 -11 -15 -21q-2 -9 -10 -16q-9 -7 -12 -15q-4 -8 -14 -15q-9 -5 -17 -15q-9 -9 -13 -11q-4 -3 -9 -11q-3 -8 -7 -11q-5 -4 -10 -12q-7 -9 -17 -14q-13 -6 -17 -6q-2 -1 -7 -3q-1 -1 -2 -1 q-4 -5 -6 -11q-4 -7 -13 -12t-10 -7q0 -1 -12 -11q-13 -11 -16 -12q-7 -4 -9 -6q-4 -3 -11 -6q-6 -3 -14 -15q-7 -9 -13 -14q-6 -2 -9 -7q-2 -4 -12 -10q-10 -5 -16 -7l-7 -4q0 -1 -11 -6t-17 -15q-4 -7 -6.5 -8.5t-7.5 -3.5q-6 -1 -7.5 -2.5t-2.5 -5.5q-1 -7 6 -9 q8 -2 17 0q12 2 22 2q12 0 18 4q6 5 13 4h28h31h56h54q7 1 26 -1q12 -1 21 -4q4 -3 4 -5q-1 -2 8 -4q9 -4 10 -7l-2 -6q-1 -6 -2 -15t-3 -17q-3 -19 -4 -24q-1 -10 -6 -13q-7 -3 -22 -2q-17 1 -23 -2q-9 -4 -13 -4q-1 0 -12 3q-4 2 -41 3q-33 0 -40 -3q-4 -2 -10 -2t-10 2 q-4 3 -21 3q-16 0 -26 -3q-7 -3 -17 -3q-9 0 -12 3q-7 3 -48.5 3t-55.5 -4q-10 -3 -13 -3t-9 2q-8 3 -21 5q-12 1 -21 7t-18 11q-10 6 -11 9q-3 4 -2 11q1 5 4 11q4 8 2 14q0 10 2 20q2 13 9 24q8 13 18 18q11 6 21 17q16 13 20 15t34 25q26 22 32.5 25t18.5 13q8 6 15 15 q3 6 7 6q7 3 20 14q5 3 13 8.5t9 6.5q5 2 8 9q3 6 15 14q12 9 16 15q7 9 10 9q10 4 12 6q11 6 13 12q4 7 9 10q5 2 8 6q1 3 9 13q9 8 14 11q7 3 15 11q7 6 11 16t7 10q2 1 9 7q1 1 6 5.5t7 6.5q8 10 10 19q1 3 2.5 9.5t1.5 7.5q3 7 9.5 10t9.5 13q1 6 6 15q4 4 7 20 q0 3 2.5 17t3.5 21q3 18 2 23t-10 15q-10 14 -13 24q-2 8 -8 14q-8 6 -9 7q-3 4 -11 6q-5 0 -13 3q-4 2 -40 2q-35 0 -40 -5q-4 -5 -18 -7q-13 -2 -21 -8q-8 -7 -11 -9q-7 -5 -13 -12q-4 -8 -15 -23q-11 -16 -15 -29q-5 -14 -9 -21t-10 -9l-6 -1h-11q-13 0 -23 -5 q-9 -4 -20 -2q-15 3 -25 8q-12 6 -15 6t-6 3q-2 4 0 13q2 11 6 19q6 8 9 22q2 13 5 19q4 7 11 12q8 6 13.5 20t15.5 21q8 6 20 19q13 12 28 18q14 5 21 11q18 11 25 14q18 8 39 9q24 2 26 4q6 3 38 3q34 2 37 3z" />
<glyph unicode="3" horiz-adv-x="610" d="M412 767q4 2 11 2q3 0 12 -3q1 0 6.5 -2t8.5 -3q13 -4 19 -4q5 0 15 3q12 3 13 3q6 0 14 -6q7 -6 22 -7q5 0 11 -1q5 -1 6 -1l3 -2q2 -2 2 -3q3 -3 12 -7q10 -2 15 -8q6 -5 14 -7l6 -2t4 -1l8 -5q7 -1 10 -5q1 -2 5 -14q4 -11 8 -14q3 -1 6 -12q1 -9 1 -21q-1 -11 3 -17 q4 -8 4 -16q-1 -6 0 -20q2 -12 -1 -23q-5 -15 -8 -18q-4 -8 -5 -18q-1 -6 -1 -18q1 -7 -3 -12q-5 -4 -10 -12q-2 -2 -6 -8.5t-6 -9.5q-10 -17 -10 -18q-3 -6 -5.5 -8t-8.5 -3q-3 -1 -7.5 -3t-5.5 -2q-4 -3 -13 -9q-5 -3 -15 -12q-8 -6 -14 -8t-9 -4q-6 -5 -7 -8q-3 -4 -4 -8 t1 -6l6 -4q4 0 11 -6q5 -6 13 -7q10 -1 19 -10q10 -10 10 -11q1 -4 5 -5q5 -4 10 -10q6 -5 7 -11q1 -4 0 -8q-1 -5 3 -16q2 -13 3 -22q-1 -13 1 -19q0 -8 -2 -18q-1 -6 1 -15q1 -4 0 -10q-2 -7 -4 -10q-2 -2 -7 -20q-3 -16 -12.5 -29t-11.5 -20q-2 -11 -3 -14l-8 -14 q-6 -10 -12 -15l-28 -23l-21 -18q-2 0 -12 -7q-13 -9 -21 -13q-8 -3 -14 -8q-13 -6 -16 -7q-9 -4 -25 -9q-7 -2 -23 -8q-10 -3 -20 -3q-11 0 -23 -3q-10 -2 -19 -2q-5 0 -17 1q-24 2 -27 3q-7 1 -15 -2l-10 -2h-3q-5 0 -12 4l-15 4q-10 3 -18 4q-15 2 -18 4q-11 3 -17 3 q-10 1 -13 6q-5 6 -16 14q-17 12 -18 14q-5 3 -7 8q-4 6 -6 6q-3 3 -9 19q-7 18 -11 22q-5 4 -4 14q0 6 -2.5 15t-6.5 15q-3 11 -2 16q1 4 4 12l10 18q2 8 16 16q10 8 20 10q3 1 20 -1q2 -1 12 -2.5t13 -1.5q10 0 15 -3q4 -2 5 -12q1 -8 5 -16q4 -5 6 -17q6 -16 8 -17 q3 -6 5 -12q3 -9 11 -14l15 -13q5 -5 14 -7q12 -2 19 -6q9 -4 21.5 -2t25.5 2q12 0 18 2q4 3 16 3q10 0 14 3q2 2 11 6q10 5 17 6q7 0 18 6q11 5 20 15q12 13 16 21l4 9l6 15q5 15 8 18q5 4 8 8t4 9q0 3 -3 17q-5 11 -3 21q0 12 -3 16l-4 12q-4 9 -8 13q-8 10 -10 14 q-3 6 -16 14q-13 7 -24 7q-13 1 -17 5t-14 3q-7 -1 -14.5 1t-10.5 5q0 1 -3 3.5t-5 4.5q-3 4 -10 10q-8 6 -11 17q-3 13 -1 23t10 20q9 11 11 16q4 7 10 8q7 2 21 2q13 0 19 3q9 3 23 4q16 0 25 4l12 3q7 2 16 10q13 9 17 10q4 0 7.5 3t5.5 12q4 11 8 14q6 5 7 8q4 5 9 30 q4 13 5 18q2 10 -1 18q-1 7 0 13v10q-3 8 -9 12q-7 6 -7 12q0 8 -1 8q-1 3 -13 9q-15 7 -19 7q-8 2 -14 6q-7 4 -24 4q-20 0 -24 -1q-5 -1 -16 2q-4 2 -12 2q-10 -5 -13 -6q-14 -7 -16 -7q-8 -1 -20 -11q-13 -11 -18 -19q-8 -10 -9 -19q-4 -8 -7 -13q-1 -1 -5 -5.5t-6 -6.5 q-6 -7 -13 -13q-4 -1 -12 -8q-5 -5 -12 -8q-3 -1 -16 -1q-11 0 -16.5 -3t-13.5 -3t-12 3q-2 2 -11 8q-7 5 -13 18q-4 13 -3 21q2 9 6 12q2 3 7 17q2 12 7 17q4 6 11 14q8 10 12.5 12t7.5 7q4 6 12 15q7 10 16 15l20 12q14 10 17 13q3 4 15 7q10 2 16 7q2 1 5.5 3.5t4.5 2.5 q2 1 20 3q15 0 26 4q5 1 21 6q3 1 9.5 3.5t7.5 2.5z" />
<glyph unicode="4" horiz-adv-x="577" d="M457 562q-2 3 -7 3t-10 -2q-4 -4 -5 -6q0 -3 -7 -9q-6 -6 -10 -11q0 -2 -18 -22q-16 -19 -19 -25q0 -3 -7 -13q-5 -7 -12 -11t-15 -14q-7 -10 -10 -16q-1 -5 -22 -24q-21 -20 -32 -37q-11 -15 -17 -22q-5 -4 -19 -24q-14 -19 -19 -22t-8 -9q0 -1 -2 -4.5t-3 -5.5 q-4 -6 -14 -12q-12 -6 -15 -13q-1 -2 -2 -5.5t0 -4.5q1 -5 13 -4q15 1 19 -1q5 -4 14 -4q10 0 15 3q4 1 14 1q8 -2 26 -2q18 -1 23 2q10 3 26 3q5 0 17 0.5t16 1.5q3 0 9 0.5t7 0.5q5 2 9 10q6 9 6 19q-1 5 2 19l4 21l4 20q1 5 10 42l12 44q5 9 8 24t1 21q-2 7 1.5 24 t7.5 23q5 6 8 21q1 5 2 8q1 8 -1 12zM521 717l5 1h6q9 0 20 -5q7 -3 19 -5q4 0 9 -3q2 -2 2 -11q-2 -9 1 -15q1 -5 -3 -26q-2 -14 -7 -31q-4 -12 -2 -21q2 -5 3 -14q-2 -9 -8 -24q-6 -18 -11 -42q-6 -25 -12 -35t-9 -25q-3 -12 -4 -30q-3 -14 -1 -20q3 -6 1 -15q0 -11 1 -18 q2 -5 -1 -17q-4 -11 -7 -14q-2 -3 -5 -19q-3 -12 -2 -20q2 -4 0.5 -11t-4.5 -11q-4 -4 -2 -20q3 -15 6 -16q4 -2 21 0q20 2 27 1q12 0 19 -5q7 -3 10 -6q2 -5 3 -17q2 -12 0 -24q-3 -13 -4 -16q-1 -5 -7 -10q-5 -4 -12 -8q-5 -3 -15 -3q-8 0 -13 2q-4 3 -11 3q-3 0 -9 -4 q-4 -5 -17 -6q-11 -1 -16 -4q-3 -4 -5 -14l-7 -39q-4 -23 -3 -32q1 -6 0 -12q-2 -9 -5 -12q-1 -1 -3 -5t-4 -6q-3 -17 -3 -18q-2 -12 -8 -21q-5 -9 -12 -12q-6 -3 -22 -9q-14 -4 -18 -4h-2q-5 3 -7 6q-1 4 -6 6q-1 0 -6 1.5t-8 2.5l-18 5q-5 1 -11 9q-6 7 -4 17q2 11 6 15 q4 7 13 52q7 35 7.5 41.5t-1.5 13.5q-4 11 -7 13q-4 3 -17 5q-9 1 -23 1h-13q-8 0 -22 -0.5t-17 -0.5q-16 0 -21 1q-18 0 -28 -1q-22 -2 -26 -4q-10 -3 -17 0q-9 3 -25 3q-17 0 -29 -4q-12 -3 -19 -2q-10 0 -16 5q-5 3 -9 7q-1 1 -5 15q-2 13 0 31q3 22 4 28t6 20q3 11 9 20 q10 10 12 11q5 2 12 13l8 15q1 4 7 9q5 3 9 10q2 4 3 12q1 4 6 10q4 5 11 7t10 6q0 1 2.5 5.5t4.5 6.5q2 5 8 10q9 8 14 13q3 3 7.5 9.5t6.5 7.5q2 7 10 11q8 5 8 8q3 4 4 9q3 7 20 20q17 15 19 22q4 8 8 11q5 4 5.5 7t5.5 7q8 7 14 11q10 8 17 18q3 4 8 10l4 6q3 3 7 11 l11 17q13 15 19 19q14 13 15 16q7 7 12 16q5 7 12 13q5 3 8 9q4 4 8 13q6 10 8 11q1 0 10 10q6 9 13 12q5 5 13.5 7t28.5 2q22 0 22 1z" />
<glyph unicode="5" horiz-adv-x="613" d="M408 743q7 4 12 4t10.5 -2t29.5 -2t31 -3q4 -3 13 -3t17 3q9 4 17 3q9 0 15 -4q5 -2 14 -2t14 2q5 3 10 3l12 -3q7 -3 20 1q14 4 23 3q11 0 14 -4q3 -3 -1 -25q-5 -24 -8 -30q-4 -7 -6 -13q0 -3 -3 -9q-7 -6 -12 -9q-7 -4 -19 -6q-11 -2 -16 -4q-4 -2 -9 -2t-10 3 q-3 2 -14 4q-2 0 -9 1t-8 2q-6 0 -16 2q-9 0 -13 -2t-26 -2q-4 0 -14.5 0.5t-11.5 1.5q-5 1 -16 -2q-10 -2 -25 -2h-19q-33 1 -39 4l-12 3q-4 0 -10 -3q-7 -4 -12 -8q-10 -13 -12 -18q-5 -11 -6 -21q-2 -11 -4 -14q-3 -4 -10 -38q-2 -10 -3 -17q-3 -15 -6 -22q-5 -9 -8 -23 q-4 -17 -2 -26q2 -10 6 -11q3 -3 19 4t23 12q7 4 27 7q5 1 26 6q6 3 18 3h14q25 -1 30 3q5 3 9 3t22 -4q15 -5 31 -7q4 -1 12.5 -2.5t9.5 -2.5q5 -3 9 -3t5 -5q3 -7 6 -8q8 -6 12 -11q2 -2 12 -10q10 -7 11 -8q4 -5 10 -7q7 -3 7 -12q0 -8 2 -19q1 -4 6 -15q5 -5 4 -18 q-2 -14 3 -22q4 -8 2 -24q-2 -21 -1 -24q1 -12 0 -16q-1 -5 -6 -17q-4 -6 -6 -14q-1 -3 -1.5 -9.5t-0.5 -8.5q0 -8 -7 -20q-7 -9 -12 -28q-4 -18 -11 -24q-5 -4 -8 -10q-1 -1 -2 -5.5t-2 -7.5q-3 -11 -11 -19q-6 -6 -11 -15q-1 -7 -7 -8q-7 -6 -11 -10l-12 -15 q-8 -9 -15 -12q-8 -2 -8 -5q-4 -3 -17 -10q-11 -4 -26 -14q-10 -9 -15 -10q-2 -1 -8 -1q-4 0 -11 -4q-6 -3 -13 -3q-6 0 -15 -4t-28 -3q-20 0 -27 -5q-7 -4 -11 -4t-11 4q-1 0 -5 1.5t-5 1.5q-6 0 -13 -3q-10 -2 -21 -2q-3 0 -8.5 0.5t-6.5 0.5q-4 1 -9 7q-4 6 -9 6t-13 2 q-4 2 -19 6q-13 2 -14 2q-3 0 -7 7q-11 10 -13 11t-7 5t-7 6q-6 4 -10 9q-4 2 -7 8q-6 8 -10 12q-5 4 -5.5 6.5t0.5 9.5q2 9 -3 13q-4 5 -3 11l-3 15q-1 5 -2 14q0 2 -2 10q1 3 -3 13q-2 10 -1 14q4 5 9 8q6 4 24 5h13.5h16.5h16q26 0 31.5 -2t6.5 -6q1 -2 7 -9q3 -4 5 -14 q0 -7 3 -16q1 -7 14 -25q9 -12 12 -14t11 -3q11 -2 22 -8q6 -4 18 -8q5 -2 15 0q9 1 17 10q14 10 15 10q7 2 24 2q13 0 17.5 2t17.5 13q16 14 22 20q1 4 9 9q11 6 12 7q6 4 11 14q6 10 12 27q3 14 6 26l2 10q3 19 6 23q4 6 6 16q3 14 1 23q-3 17 -3 18q1 7 -6 13q-6 6 -5 12 q1 5 0 11l-5 11q-9 8 -15 10q-8 6 -14 6q-4 0 -7 4q-1 2 -4 4t-3 3q-6 2 -21 2q-3 0 -11 -0.5t-10 -1.5q-9 -2 -10 -2q-2 0 -7 4q-4 5 -8 5q-1 0 -6.5 -1.5t-7.5 -1.5q-8 -3 -18 -5q-1 -1 -15 -4q-6 0 -10 -3q0 -1 -2 -4t-2 -4q-6 -9 -11 -11q-8 -5 -9 -7q-6 -8 -13 -15 l-17 -21q-3 -3 -7 -8q-3 -4 -5 -5q-5 -5 -18 -8q-13 -5 -32 -5q-18 0 -30 6q-10 4 -15 14q-5 11 -5 15q-1 5 2 10q0 1 5.5 27.5t11.5 49.5q17 81 18 84q2 10 5 16q4 6 6 15v18q-2 6 2 27q4 19 8 24q4 4 6 11q0 4 -2 9q-1 4 0 10t5 11q4 6 6 21q2 7 4 18q6 32 11 37l3 4l1 2 q1 2 12 10q16 9 19 10q7 1 32 1h27q52 0 60 -4q3 -2 9 -2q7 2 11 6z" />
<glyph unicode="6" horiz-adv-x="598" d="M409 398q-22 0 -27 2h-4q-3 0 -10 -3q-7 -4 -14 -6q-6 0 -15 -6q-9 -5 -15 -5q-3 0 -10 -2q-4 -2 -10 -9t-13 -11t-17 -16q-4 -7 -12 -14q-6 -2 -6 -5q-2 -2 -3.5 -7t-1.5 -7q-1 -7 -8 -17q-3 -6 -4 -10q-1 -3 -2 -12q-1 -13 0 -23q1 -9 -1 -16t-2 -19q2 -15 0 -25 q-1 -12 4 -18q4 -7 4 -15q-1 -4 2 -17q1 -8 6 -14q6 -7 7 -8l5 -1q4 -1 7 -1q12 -2 12 -3q3 -3 5 -9q3 -7 4 -7q2 -2 17 -2q15 -2 20 -4q6 -3 19 -3q12 0 25 6q13 7 16 7q4 0 9 3q6 1 6 4q1 2 11 6q8 5 12 12q4 8 11 10l8 3q3 1 8 9q5 6 7 15l7 16q3 6 4 11q1 3 7 15 q5 7 7 20q2 12 7 19q3 8 4 13q1 4 0 10q1 1 0 9t-1 13q-1 18 -0.5 20t-0.5 8q-1 5 -2 11q1 3 -3 11l-5 11q0 3 -8 10q-5 3 -12 12q-4 5 -12 11q-7 6 -9 8q0 1 -3 3.5t-4 3.5q-6 3 -26 3zM458 763q4 1 28 1q21 -1 26 -4q8 -3 20 -3q16 -1 27 -9q17 -9 20 -10q10 -2 15 -7 q5 -3 12 -9q4 -4 11 -8q5 -3 9 -11q1 -4 5 -9q2 0 9 -6q6 -3 8 -10q-1 -2 -0.5 -6t0.5 -5q0 -6 4 -7q5 -4 4 -11v-11t1 -6.5t1 -8.5q2 -9 3 -19q1 -8 -3 -15q-2 -7 -12 -18q-10 -8 -15 -14q-4 -4 -12 -3q-6 0 -36 2q-21 1 -25.5 1.5t-7.5 5.5l-10 8q-5 2 -9 13q-2 4 -4 11.5 t-2 9.5q-4 10 -3 16q-1 9 -3 15q-2 7 -11 14q-5 5 -13 8q-12 3 -16 3q-4 1 -13 4q-3 2 -7 2q-3 1 -21 1q-16 -1 -24 -7q-10 -6 -19 -7q-11 -1 -17 -6q-5 -3 -24 -19q-14 -12 -27 -28q-15 -18 -16 -19q-5 -4 -8 -12q-4 -9 -8 -13q-3 -7 -8 -20q-3 -13 -10 -21q-6 -6 -11 -28 q-5 -21 -9 -27q-6 -8 -8 -19q-3 -10 -2 -17q1 -4 6 -6q5 -3 10 -1q7 3 10 6q14 8 18 10q13 7 21 18q5 7 8 9t14 7q14 5 18 5t10 7q7 6 13 5q6 -2 12 -2q6 -1 17 2q13 4 20 7q7 2 19 1q4 -1 9 -2q4 -1 5 -1q2 -2 21 -2q18 0 34 -6q14 -6 18 -9q5 -6 13 -9l13 -5q6 0 9 -1 q4 -2 5 -10q1 -7 11 -21q8 -9 13 -20q3 -7 7 -11q5 -1 5 -9q0 -1 3 -20q5 -12 4 -19q-2 -8 0 -12q2 -5 0 -24q-3 -14 -2 -28q1 -12 -5 -43t-12 -43q-4 -7 -9 -24q-3 -16 -11 -24q-8 -11 -12 -22q-2 -7 -11 -22q-3 -3 -9 -12q-1 -3 -3 -4q-2 -6 -8 -11q-5 -1 -16 -11 q-3 -3 -11.5 -9.5t-10.5 -8.5l-17 -17q-7 -8 -9 -9q-3 0 -9 -5l-5 -2.5t-4 -2.5q-3 0 -20 -4q-15 -1 -22 -6q-3 -3 -12 -6q-9 -2 -21 -2q-13 0 -17 -3q-5 -2 -10 -2q-8 0 -12 2q-6 2 -16 -2q-7 -4 -14 -4q-3 0 -10 1q-13 0 -22 3q-8 2 -13 6q-1 1 -5.5 4t-6.5 4q-5 5 -12 3 q-2 0 -6.5 -0.5t-5.5 -0.5q-5 2 -9 7q-5 6 -22 13q-14 5 -24 11l-5.5 5.5t-5.5 6.5q-9 8 -11 9q-3 2 -3 9q-2 10 -6 17q-9 14 -10 15q-2 4 -2 13q-2 12 -3 19q-2 12 -6 16q-2 2 -6 10q-1 11 0 20q1 14 -3 22t-1 16q1 3 10 41q7 35 6 43q0 2 -1 9t-1 10q-2 8 -1 15q1 8 6 16 q4 8 6 20q2 11 6 21t4 24q0 13 -1 17t0 10q1 7 4 11q3 5 7 16q4 7 6 22q2 12 9 21q8 12 11 15q5 5 10 25t12 29l12 23q6 13 12 18l9 13q2 3 10 16q5 9 8 10q1 0 10 10q6 8 11 9q8 2 12 5q6 5 8 8q5 7 8 8q7 4 9 7q1 2 9 15q6 11 10 12q2 1 17 1q16 2 25 4q13 4 22 4 q11 0 18 5q6 5 12 7q3 1 14 1q7 0 14 2z" />
<glyph unicode="7" horiz-adv-x="537" d="M216 744h8h8h7q11 0 16 -3q6 -4 62 -4q58 0 63.5 -3t31.5 -3q38 0 54 1q38 0 50 -1q19 -2 30 -4q4 -2 23 -4q10 -1 24 -9q12 -8 12 -12q2 -4 0 -12q-2 -10 -1 -21q0 -8 -1 -15q-1 -5 -4 -17q-11 -29 -14 -33q-10 -22 -10 -25q-3 -11 -11 -21q-7 -12 -9 -17 q-5 -12 -12 -24q-9 -17 -13 -22q-4 -6 -17 -24t-16 -24q-4 -8 -5 -14q-2 -6 -11 -12q-10 -7 -14 -18q-4 -13 -11 -21q-4 -5 -12 -20q-2 -8 -8 -15q-2 -2 -19 -26q-19 -32 -25 -43l-9 -17.5t-6 -13.5q-6 -10 -6.5 -13t-12.5 -21q-2 -4 -9 -12.5t-8 -10.5q-5 -4 -11 -16 q-6 -11 -12 -17q-7 -9 -14 -25q-6 -16 -11 -20l-3 -4q-3 -3 -4 -5q-4 -6 -6 -17q-2 -8 -5 -16q-3 -5 -7 -10q-5 -4 -9 -17l-4 -14q-5 -5 -11 -10q-9 -7 -15 -8t-34 -2q-38 0 -44 1q-2 1 -7 3t-7 3q-7 4 -7 10l5 27q4 21 11 26q5 3 11 14q9 15 10 17q7 10 8 12q1 4 8 11 q5 4 11 16l15 26q2 3 7.5 13t7.5 13q5 12 11 19q0 1 4.5 6.5t6.5 8.5l13 21q7 13 11 24q2 3 4 8l2 4q2 2 7 8t14 19l10 20q3 4 20 30l16 24q1 5 7 13q1 2 5 9t6 10q3 8 14 25q13 20 15 27q3 8 9 17q2 5 12 19l12 18q7 7 8 7q3 3 8 10q3 8 12 23l15 21q6 5 9 11q4 5 3 10 q1 3 -3 11q-3 5 -9 5t-12 -2q-8 -1 -19 2q-11 4 -19 4q-9 0 -16 3q-10 3 -74 3q-37 1 -88 1q-23 0 -25 2q-4 2 -6 5q-7 4 -12 5q-12 2 -14 2q-5 3 -8 6q-5 4 -6 10q-2 4 3 31q5 25 8 29q1 3 13 8q16 5 25 6z" />
<glyph unicode="8" horiz-adv-x="584" d="M363 343q-5 2 -30 4q-8 1 -15.5 1t-10.5 -1q-5 0 -9 -4t-14 -6q-9 -2 -19 -6q-8 -4 -20 -14q-15 -12 -23 -25q-8 -11 -13 -25q-3 -8 -14 -24q-9 -13 -11 -21q-1 -7 1 -13v-20q-1 -4 -1 -8v-9v-7q2 -7 0 -16q-1 -7 4 -15q6 -7 10 -15q2 -2 14 -15q12 -7 22 -11 q14 -4 20 -10q11 -7 12 -9q3 -1 6 -1t15 2q14 4 29 2q14 -2 25 0q13 2 22 5t17 8q11 6 15 8q10 6 11 7q5 4 12 12q8 11 11 12q3 2 15 19q3 4 18 29q7 15 11 35q5 23 3 36q0 1 -1 11t-1 14q-1 12 -5 15q-5 2 -6 11q-1 8 -11 10q-9 2 -17 10q-9 7 -15 9q-10 3 -22 4 q-15 2 -22 5q-10 5 -13 6zM420 678q-6 3 -18 3q-11 0 -17 -2t-14 -6q-6 -3 -16 -5q-13 -2 -20 -6q-13 -7 -18 -12q-4 -3 -11 -13q-4 -7 -13 -15q-7 -6 -15 -16q-6 -9 -11 -27q-9 -21 -8 -30q-1 -14 2 -20q2 -10 6 -15q3 -4 4 -10t9 -23q11 -18 23 -26q14 -7 20 -9 q2 0 8.5 -2t9.5 -3l18 -6q4 -2 17 0q12 2 20 1q7 -2 18 1q3 1 18 8q8 5 17 14q11 11 14 17q5 8 11 10q7 3 11 6q2 2 10 14q7 10 10 12q2 0 6 7q5 8 10 35q4 22 4 27.5t-3 16.5q-4 18 -5 20q1 2 -5 12q-5 8 -8 14q-1 6 -8 12q-9 6 -12 6q-9 3 -12 5q-9 3 -26 3q-21 0 -26 2z M449 761q9 3 13 3q3 0 12 -2q6 -3 27 -5q20 -1 39 -9q25 -11 26 -12q2 -1 15 -7q9 -3 12 -9q4 -9 8 -11q5 -3 8 -6q2 -1 13 -12q9 -11 9 -18q1 -8 2 -25q3 -21 7 -32t4 -15.5t-3 -21.5q-2 -6 -3 -11q-2 -12 -7 -21q-1 -3 -5.5 -12.5l-6.5 -13.5t-7 -13t-7 -12 q-10 -15 -18 -24q-17 -18 -22 -25q-7 -8 -10 -10.5t-10 -3.5q-10 -3 -22 -12q-14 -10 -16 -14q-4 -5 -3 -12q0 -7 6 -12q4 -7 11 -9q5 -1 10 -8t13 -9q10 -4 14 -9q1 -1 3 -3.5t4.5 -6t4.5 -5.5q6 -10 5 -18q0 -5 4 -17q1 -1 7 -18q2 -11 -2 -35q-2 -7 -4 -24.5t-3 -23.5 q-3 -26 -4 -32q-1 -8 -10 -20q-2 -3 -6.5 -10.5t-6.5 -9.5q-1 -3 -4.5 -9.5t-3.5 -7.5q-2 -5 -10 -14q-8 -7 -19 -20l-12 -14q-2 0 -11 -7l-13 -8q-9 -4 -21 -14q-15 -12 -23 -14q-3 0 -19 -5q-13 -4 -19 -7q-2 -1 -6.5 -2.5t-5.5 -1.5q-5 -2 -16 0q-12 1 -24 -1 q-12 -3 -31 -5q-18 -2 -32 -2q-15 0 -22 -2q-10 0 -16 2q-15 3 -18 3q-10 0 -18 3q-13 5 -22 6q-6 2 -20 5q-10 2 -16 7q-11 8 -12 8q-7 2 -11 5q-3 2 -10 13q-3 8 -6 12l-8 9q-5 7 -11 23q-7 13 -9 24q-2 7 -5 11q-2 2 -5 8q-1 6 1 16q3 11 1 17q-1 5 2 20q6 19 8 22 q3 9 2 16q-2 6 -1 13q2 6 5 12q3 3 8 15l7 17q3 6 8 10q7 8 15 21l12 18l6 10q5 9 13 11q8 4 16 10q10 9 15 11q2 1 19 13q12 10 13.5 16t-0.5 8q-1 1 -3 4.5t-2 4.5q-5 8 -12 11q-9 5 -21 19q-12 18 -18 29q-8 17 -8 22v16q-1 15 0 22q-1 11 5 30q2 13 7 25q5 6 8 23t15 36 q9 18 17 26q3 4 9 9q3 3 8 9q7 8 9 10q11 6 16 10l29 13l22 11q6 5 10 6q6 3 26 9q15 5 22.5 5.5t38.5 0.5q38 0 50 4z" />
<glyph unicode="9" horiz-adv-x="600" d="M438 658q-15 3 -29 3h-22l-5 -2l-8 -4q-12 -6 -19 -7l-13 -4q-1 -1 -6 -4.5l-9 -6.5q-8 -7 -21 -21q-4 -4 -9 -10l-4 -6q-2 -2 -7 -18q-5 -15 -10 -23q-7 -10 -15 -48q-5 -17 -7 -29t-2 -15q1 -6 4 -10t4 -18q-1 -14 2 -18q1 -1 3 -5.5t3 -5.5q2 -2 5.5 -8t4.5 -8 q6 -7 11 -16q3 -9 15 -15q11 -7 28 -9q16 0 25 -4q8 -4 23 -4q13 0 23 4q9 3 21 13q14 10 18 11q6 1 11 7l17 17q12 11 18 25q5 8 11 20q1 1 4.5 7.5t5.5 9.5q3 7 3.5 10.5t-0.5 8.5q1 9 5 18q2 7 2.5 10l1.5 9q-2 5 1 26q1 13 -3 30q-2 16 -2 18q1 4 -1.5 12t-8.5 15 q-8 10 -10 14q-4 6 -10 11q-1 1 -14 10q-11 6 -18 6q-11 3 -17 4zM365.5 755q4.5 2 19.5 2q14 -2 62 -2q36 -1 43 -1.5t15 -4.5l13 -10q1 -2 4 -4.5t4 -3.5t10 -4q12 -3 18 -4q10 -3 13 -7q1 -4 9 -6q6 -4 17 -12q9 -9 11 -15q2 -7 11 -16t10 -13t0 -9q-1 -7 6 -25 q5 -15 5.5 -20t-2.5 -19q-3 -15 -3 -18t3 -7q4 -4 5 -15v-19q2 -6 2 -28q-1 -20 -8 -60q-3 -23 -9 -54q-2 -10 -10 -40q-6 -26 -10 -33q-4 -4 -6 -14q-1 -3 -3 -20q-2 -16 -3 -21q-2 -9 -8 -18q-6 -10 -11 -29t-13 -31l-16 -22q-8 -8 -11 -20q-6 -12 -12 -18l-13 -14 q-4 -8 -16 -18q-5 -3 -27 -24q-14 -14 -16 -15q0 -1 -15 -9q-12 -6 -27 -15q-11 -8 -22 -11q-10 -2 -20 -6l-20 -4q-12 -2 -24 -6q-15 -3 -19 -3q-12 0 -24 3q-9 1 -27 6q-14 2 -18 2q-3 -1 -16 1q-3 1 -16 4q-7 3 -9 5q-2 3 -16 7q-8 4 -26 6q-10 1 -18 4q-4 1 -9 10t-5 13 q-3 5 -6 18l-5 16q-2 1 -8 20q-4 18 -4 20q1 3 -2 11q-2 10 2 25q3 16 9 23q1 3 15 16q8 8 12 9t18 1q20 0 25 -3q4 -4 16 -8q11 -4 15 -7q4 -2 5 -11q0 -9 3 -13q2 -5 4.5 -14t5.5 -18q5 -10 7 -15q5 -8 10 -14q5 -8 13 -10q8 -3 24 -3q12 0 31 -4q12 -3 20 -3q7 0 16.5 3 t14.5 9q5 7 16.5 9t16.5 5q6 4 14 15q4 6 15 18q9 9 13 16q4 6 5 10q1 3 10 13q2 3 7 9t5 7q3 6 4 11q1 7 6 14q1 3 5 11.5l5 10.5l9 28q4 18 3 25q0 9 -4 11q-2 3 -6 3l-5 -3q-4 -3 -7 -5q-4 -4 -14 -10l-16 -10q-7 -7 -14 -7q-6 -2 -15 -6q-9 -5 -20 -7q-15 -2 -16 -3 q-9 -3 -19 -3q-20 -3 -29 -5q-17 -3 -24 0q-10 2 -24 4q-15 1 -27 7q-10 7 -19 7q-7 1 -11.5 7t-17.5 13q-16 7 -21 9q-4 2 -8 6q-1 5 -2 11q0 6 -8 17l-8 11l-4 16q-8 19 -9 25l-2 21q-1 4 -2.5 12t-1.5 10q-3 8 -2 24q2 17 4 21q5 26 10 48q8 42 11 48q2 7 10 19 q7 10 11 22q8 16 15 24q8 12 14 24q5 10 23 25q17 16 31 23q13 6 19 11q7 6 20 13q15 8 26 9q15 2 17 2q4 2 9 5q4 4 8.5 6z" />
<glyph unicode=":" horiz-adv-x="326" d="M160 141q15 5 27 5t20 -2q5 -3 10 -3q3 0 14 -5q10 -6 12 -11q1 -6 0 -10q-1 -7 1 -14q1 -12 1 -16l-6 -15q-6 -10 -8 -19q-4 -10 -6 -12q-5 -6 -7 -8q-4 -3 -12 -7q-6 -2 -42 -2t-38 2q-1 0 -9 9q-1 3 -6 16q-3 8 -2 15q1 1 7 16q4 8 5 20q-1 10 2 14q0 1 13 13 q10 9 24 14zM230 519q7 2 13 2h6q6 -1 18 -1q11 0 17 1q9 0 20 -6q10 -5 12 -10q2 -6 -6 -46q-7 -39 -11 -45q-3 -5 -10 -8q-7 -4 -41 -5q-22 -1 -27 -1q-8 0 -16 3q-7 3 -11 8q-3 7 -5 13q0 15 1 24q1 20 1 22q-1 7 5 19q7 11 17 19q8 9 17 11z" />
<glyph unicode=";" horiz-adv-x="276" d="M158 130q13 4 18 4q7 0 15 -2q8 -3 19 0q9 3 16 1q4 0 13 -9q7 -8 5 -15q-1 -8 -7 -15q-5 -8 -7 -17q-1 -6 -6 -15l-13 -15q-8 -10 -10 -10q-1 0 -6 -4q-2 -4 -8 -22q-3 -10 -4 -13t-2.5 -5t-5.5 -4q-8 -3 -11 -8q-1 -1 -2.5 -5t-2.5 -5q-3 -9 -11 -20q-6 -14 -16 -28 t-13 -22q-6 -9 -8 -10l-19 -8q-14 -5 -22 -5q-10 0 -22 5q-14 5 -16 9q-3 7 0 18q1 6 5 14q5 9 6 14q1 3 6 9q4 4 6 11q0 1 3.5 7.5t4.5 9.5t7 16.5t10 21.5q13 30 16 34q5 8 6 14q1 7 4 13q4 8 9 12q6 5 8 16q4 13 7 15q3 5 10 7q10 4 18 6zM293 533q9 3 12 3q7 0 11 -2 q5 -3 5 -7q4 -4 -2 -32q-5 -27 -6 -43q-1 -12 -1.5 -18.5t-0.5 -7.5q-1 -4 -3 -8q-3 -5 -5 -5q-3 0 -13 -10q-10 -9 -21 -12q-8 -2 -15 -2q-5 0 -17 2q-10 2 -18 1q-7 -1 -13 0q-6 2 -11 5q-4 4 -7 9q-3 6 -2 12v6q-1 5 -1 7q-1 6 1 15q1 8 4 12t7 14q6 11 6 21q2 9 8 14 t8 5q3 0 3 2q1 3 7 5q6 3 25 3q21 0 26 3q6 2 7 4q0 1 6 4z" />
<glyph unicode="&#x3c;" horiz-adv-x="683" d="M697 652q3 1 19 1t20 -2q5 -2 6 -6q3 -4 0 -15q-2 -12 -9 -17q-7 -6 -10 -13q-2 -2 -5 -8.5t-5 -8.5q-3 -7 -5.5 -9t-13.5 -6q-14 -4 -20 -4q-7 0 -12 -4t-5 -5q-1 -2 -11 -7q-13 -7 -18 -9q-5 -3 -10 -3q-3 0 -12 -6q-7 -5 -20 -8q-8 -1 -17 -7q-7 -6 -18 -7 q-7 -1 -10.5 -2.5t-13.5 -9.5q-2 -2 -8.5 -6.5t-7.5 -5.5t-14 -3q-9 -1 -19 -9q-6 -5 -21 -13q-11 -5 -19 -5q-10 0 -17 -6q-8 -7 -17 -8q-11 -2 -12 -2q-5 -2 -7 -6q-4 -5 -6 -5q-1 0 -19 -10q-19 -10 -24 -10q-1 0 -6 -1t-7 -2q-3 -1 -12 -6q-6 -5 -14 -8q-13 -6 -19 -7 q-8 -3 -15 -9q-5 -4 -5 -6.5t8 -12.5q10 -13 15.5 -16t13.5 -5q7 0 11 -2q5 0 7 -5q5 -4 17 -11q15 -8 18 -12t8 -4q7 0 10 -1q7 -2 16 -14q10 -12 19 -13q10 -1 20 -10q12 -10 16 -11q4 0 31 -15q28 -16 34 -21q7 -6 9 -6t19 -13q24 -13 25 -13t3 -1q7 -3 10 -4 q12 -5 14 -6q6 -2 16 -8q10 -7 18 -11q9 -3 9 -5q-1 -2 5 -4q4 -2 10 -13l4 -7q4 -8 4 -11q4 -8 7 -11q4 -5 3 -10v-5q-1 -6 -4 -9q-2 -8 -13 -16q-13 -9 -17 -10q-12 -3 -16 -3q-7 0 -17 4q-4 3 -13 6q-4 1 -7 8t-16 14q-13 6 -18 12q-6 7 -11 7q-8 0 -10 1q-5 2 -11 7 t-11 5t-11 2q-6 3 -10 10q-4 8 -10 9q-4 1 -10 6q-3 4 -8 8q-4 4 -14 4q-9 0 -10 1q-3 3 -5 9q-2 9 -10 14t-14 7q-12 4 -19 7q-11 7 -18 7q-8 3 -12 4l-15 4q-8 3 -8 9q-3 6 -7 11q-5 4 -7 4q-3 0 -14 7q-9 5 -15 11q-4 5 -15 7q-11 1 -15 6q-3 2 -8 5q-2 0 -12 2 q-9 1 -10 6q-1 4 -6 8q-4 6 -8 13q-5 9 -7 10q-2 2 -6 2q-5 0 -14 6q-13 6 -16 9q-4 4 -12 7q-9 4 -17 12q-7 9 -10 9q-2 0 -4 3q-1 2 0 17q-1 8 0 14q1 3 2 5q3 4 10 7q6 2 12 2q2 0 7 0.5t6 0.5q7 2 17 12q9 10 23 16q14 7 21.5 8t17.5 6q4 2 13 5q13 4 18 6l21 11 q11 6 22 11q3 1 9 4l5 3q5 4 9 5q2 0 13 7q1 1 6.5 4t7.5 4q1 0 4 0.5t5 0.5q4 0 15 4l14 9q2 4 17 10q13 7 26 9q10 3 21 9q8 5 20 7q12 4 16 6q1 1 11 7q8 3 12 10q7 7 14 11q8 5 19 7q7 3 17 5q4 3 12 3q6 0 22 7q17 6 26 16q11 11 19 13q13 5 21 5q10 1 17 6q10 6 12 7z " />
<glyph unicode="=" horiz-adv-x="713" d="M451 306h3.5h3.5h4t10 -3q2 -3 8 -3q1 0 14 3q9 3 17 0q6 -3 60 -4h61h21q12 1 27 0q15 -4 22 -8q9 -4 12 -4t6 -4q2 -3 0 -13q-2 -11 -3 -13l-8 -9q-2 -2 -9 -12q-3 -7 -12 -16q-12 -10 -18 -12q-10 -4 -25 -4q-20 -2 -22 -4q-5 -2 -10 -2q-7 0 -9 3q-6 2 -11 2 q-6 0 -10 -2q-5 -3 -13 -3q-7 0 -14 5q-7 4 -24 1q-14 -1 -24 -4q-5 -3 -20 -1q-14 0 -20 3q-3 1 -34 1q-27 0 -49 -3q-17 -2 -25 -2h-6q-4 0 -8 1l-5 1q-7 4 -14 5q-12 3 -22 1q-10 -3 -33 -3q-25 0 -29 -2q-7 -3 -31 -3q-13 -1 -17 -1q-8 0 -12 5t-13 3q-11 -2 -34 -2 q-25 1 -29 4q-7 4 -12 4q-5 1 -6 6q-1 4 3 25q4 20 12 36q3 4 11 17q3 2 10 4q4 1 15 1q10 0 17 -3q9 -4 17 -4q5 0 15 3q6 3 21 5q4 0 11 1t8 1q5 1 12 -1q3 -2 15 -4q3 0 10.5 -0.5t9.5 -1.5q7 0 15 2q5 2 64 2q61 0 65 -2q8 -1 16 2q3 1 8 3t7 3zM196 518q8 3 13 3h3 q10 -3 10 -4q6 -2 27 -2t27 2q8 3 28 2q6 0 11.5 -0.5t8.5 -0.5h4q-1 -1 8 1q4 1 16 -1q5 -3 16 -3q10 0 16 3q8 2 22 2t22 -2q8 -3 34 -3t35 3q6 2 11 2t13 -2q5 -2 20 1q10 2 12.5 2t9.5 -2q8 -3 34 -3q29 0 34 2q6 2 11 2q4 0 10 -2q2 -3 16 -3t18 3q6 2 10 2q5 0 11 -2 q5 -3 16 -3q15 -2 20 -5q8 -7 9 -12q3 -7 4 -7q2 0 3 -5q2 -4 1 -10q-1 -3 -17 -27q-14 -20 -21 -23q-9 -3 -17 -4q-8 -3 -31 -3q-19 0 -26 2q-6 3 -23 0q-19 -2 -27 1q-7 3 -17 1q-9 -1 -15 0q-7 2 -41 2q-36 0 -47 -4q-10 -3 -13 -3t-11 3q-9 3 -14 3t-26 -2 q-20 -2 -25.5 -2t-10.5 2q-5 3 -17 3q-6 0 -24 -1q-10 0 -29.5 -0.5t-24.5 -0.5q-26 0 -30 1q-9 1 -15 -1q-7 -4 -15 -4q-6 -1 -17 2q-11 4 -36 4q-26 0 -30 2q-3 2 -2 19l1 28q0 11 5 19l8 14q1 4 6 6q6 2 16 2q14 0 22 3z" />
<glyph unicode="&#x3e;" horiz-adv-x="669" d="M192 645q6 5 11 5q3 0 15 -2q11 -2 27 -7q16 -6 27 -15q7 -7 21 -14q5 -4 15 -7q7 -3 13 -11q9 -9 22.5 -10t18.5 -5q2 -3 13 -9q8 -7 13 -7q4 -2 8 -7q2 -5 9 -7q5 -2 9 -7q4 -7 13 -7q4 -1 18 -6l17 -11q2 -2 7.5 -5.5t7.5 -5.5q7 -5 14 -12q6 -7 13 -9q6 0 9.5 -4 t12.5 -9q13 -7 16 -7q11 -4 14 -6q8 -3 13.5 -10t14.5 -10l16 -9q3 -3 15 -7q11 -2 21 -9q10 -5 14 -10q1 -2 10 -7q7 -2 12 -8q2 -1 5 -3.5t4 -2.5t4 -0.5t5 -0.5q7 -2 8 -4q0 -1 -1 -20q-4 -18 -10 -22q-6 -5 -16 -11q-5 -6 -17 -11q-13 -7 -19 -11q-5 -4 -19 -12 q-7 -2 -18 -10q-7 -6 -14 -8q-3 -1 -11 -1q-4 0 -10 -5q-3 -3 -14 -8t-14 -7q-4 -4 -12 -6q-7 -2 -27 -9t-28 -13q-7 -4 -16 -7q-6 -2 -16 -9q-10 -8 -21 -11q-5 -1 -14 -4l-6 -5q-5 -4 -11 -5q-10 -4 -16 -7q-4 -4 -11 -6q-4 -2 -9 -2q-7 0 -11 -3q-4 -1 -12 -11 q-5 -8 -14 -13q-11 -4 -18 -7q-8 -2 -25 -9q-12 -5 -38 -17t-35.5 -15t-20.5 -7q-2 -1 -21 -10q-13 -5 -13 -7q-1 -1 -9 -8t-20.5 -9t-24.5 -2q-11 0 -18 4t-10 9q-3 4 -2 10q1 5 5 13q4 7 6 16q3 8 15 18q10 9 21 12q7 3 16 9q5 6 17 9q12 4 22 9q8 5 10 5q1 0 6 4t18 7 q10 1 20 6q7 2 13 7q4 3 12 6q8 2 14 7q6 6 14 8q10 2 16 5q2 1 20 6l16 6q4 2 21 12q11 7 23 12q8 2 14 7q8 6 17 7q2 0 6.5 0.5t5.5 1.5q2 0 7 8q6 7 12 10q8 2 14 8q7 6 14 7q6 0 19 6q6 3 24 8q13 3 16 7q6 5 13 8q4 2 14 5q9 2 15 6q8 4 10 7q2 4 2 8q-1 5 -6.5 7 t-11.5 2t-16 9l-19 11q-9 5 -13 8q-2 3 -11 6q-7 3 -14 8l-13 12q-6 6 -14 9q-10 5 -16 7q-2 0 -11 6q-4 4 -11 7q-1 0 -17 5q-13 5 -22 16q-10 11 -20 15q-11 4 -17 7q-2 1 -13 5q-6 2 -12 9q-7 9 -16 12q-7 4 -15 7q-7 1 -14 10q-8 10 -14 11q-4 0 -17 4q-11 4 -17 9 q-5 5 -18 12q-10 5 -15 12l-3 6q-2 6 -3 8q-4 10 -2 20q2 11 8 19q8 9 11 11z" />
<glyph unicode="?" horiz-adv-x="488" d="M205 131q9 2 16 2h4q9 0 16 -4q5 -3 17 -7q10 -3 13 -9q4 -5 5 -12q0 -3 -2 -11q-1 -7 -4 -20q-6 -23 -12 -35q-6 -10 -13 -17q-5 -5 -21 -6q-5 0 -16 -0.5t-15 -0.5h-9q-8 0 -21 3q-15 6 -17 8q-3 3 -7 16q-4 9 -2 17q1 5 3 9q2 2 7 20q5 17 11 26q7 10 16 14q9 3 15 3 q4 0 16 4zM301 761q8 3 53 3q44 -1 49 -4q6 -3 21 -3q13 0 23 -2q3 -3 15 -5q8 -3 17 -7q11 -6 16 -9q9 -5 12 -5q4 -2 21 -22q18 -22 18 -27q1 -3 2 -17q1 -12 4 -25q4 -11 1 -36l-3 -26q-3 -8 -5 -17t-11 -31q-8 -15 -17 -29q-10 -14 -13 -22q-4 -7 -11 -13q-4 -3 -32 -26 q-26 -22 -29 -28q-2 -6 -10 -12q-6 -4 -16 -12q-13 -11 -16 -14q-4 -6 -16 -11q-13 -6 -36 -25l-18 -16l-10 -9q-4 -5 -6 -16q-2 -12 -6 -15q-3 -6 -4 -10q-1 -7 1 -13q2 -8 1 -15l-6 -15q-6 -10 -8 -21q-5 -13 -8 -15q-8 -4 -19 -5q-16 -2 -38 -2q-17 0 -21 1t-8 7 q-6 10 -5 12q-2 3 5 18q6 18 8 30q4 22 5 30q4 23 7 32q7 18 12 24q2 3 7 8.5t7 7.5q15 16 16 17q10 10 17 16q5 3 23 18q13 10 21 12q7 2 11 7q3 1 15 14q10 10 14 17t13 11t13 12q2 5 11 14q0 1 4 6t5 7q2 5 6 8l6 5q4 8 7 16q1 8 6 17q4 5 6 15q2 9 0 11q-1 1 0 15 q0 11 -2 23q-2 4 -4.5 11t-2.5 8q-7 9 -11 12q-8 6 -23 14q-13 8 -21 6q-4 -2 -15 -2q-2 0 -8.5 1t-7.5 2q-11 0 -17 -2q-8 -3 -20 -3q-7 1 -24 1q-6 -1 -26 -1q-15 -1 -24 4q-8 5 -11 10q-2 7 -1 16q-1 10 1 20q1 6 1 8q1 5 8 15q9 12 21 17q13 6 33 7q17 0 27 2z" />
<glyph unicode="@" horiz-adv-x="1244" d="M762 389l-8 1l-11 -2q-10 -3 -23 -5q-11 0 -21 -4q-8 -1 -13 -4q-4 -2 -9 -6q-6 -3 -15 -5q-7 0 -21 -5q-6 -2 -14 -6q-5 -3 -8 -11q-7 -12 -9 -14q-3 -3 -10 -17l-8 -24q-3 -13 0 -20q3 -5 3 -16q1 -10 6 -15l7 -9q3 -1 2 -4q0 -2 5 -4q3 -3 22 -3q17 0 21 -3q3 -3 8 -3 q2 -1 6 -1t7 1q5 1 21 14q9 7 20 19q7 7 9 7t9 6q8 7 12 13q8 12 8 16q4 8 7 12q4 5 6 20q3 16 7 22q3 8 4 13q2 7 -1 17q-3 11 -8 14q-6 4 -11 6zM750 822q3 3 10 3t10 -3q5 -2 16 -2t20 2q4 3 10 3q1 0 16 -6q11 -6 31 -6q19 0 25 -3q3 -2 17 -4q9 -2 13 -4q3 -2 12 -4 q7 -1 12 -7q5 -5 14 -8q6 -1 17 -6q7 -6 15 -6q9 -2 13 -7t10 -7q6 -1 17 -13q7 -9 15 -15q6 -5 6 -8q1 -6 5 -8q0 -1 4 -3t4 -3q5 -1 9 -6q3 -6 9 -13q6 -10 13 -13q4 -3 11 -9q5 -9 6 -13q4 -10 6 -12q3 -4 6 -14t7 -18q3 -5 5 -17q0 -2 2 -22q4 -14 4 -17q1 -6 4 -12 q2 -3 4 -15q1 -8 2 -15q1 -8 0 -13l1 -7t2 -11q3 -10 2 -32q-2 -22 -2 -25q1 -6 -1 -14q0 -3 -5 -12q-3 -4 -4 -9v-10q2 -6 1 -11q-1 -8 -5 -13q-4 -6 -6 -15q-6 -15 -7 -17q-5 -8 -6 -16q1 -8 0 -14q-1 -7 -8 -20q-7 -11 -12 -24q-4 -12 -9 -18q-5 -4 -12 -18 q-6 -12 -16 -26t-13 -20q-1 -4 -10 -16q-6 -6 -18 -22q-12 -12 -16 -14q-3 -1 -9 -8q-3 -4 -19 -18q-15 -13 -24 -15q-13 -5 -16 -8q-10 -6 -16 -6q-4 -1 -54 -1q-47 1 -52 5q-6 5 -16 5q-12 1 -18 9l-12 15q-7 8 -9 8t-5 3l-7 12q-1 12 1 22q1 13 -4 18q-5 7 -6 11 q-1 6 -3 6q-7 0 -11 -1q-9 -4 -12 -6q-5 -6 -12 -12q-9 -9 -16 -10q-3 -1 -10 -3q-2 -1 -3 -1q-1 -1 -12 -4q-7 -2 -13 -5q-4 -3 -41 -3q-34 0 -53 5q-5 1 -13.5 4t-9.5 3q-2 1 -16 7q-9 2 -13 10q-2 6 -5 10t-3 12q0 10 -5 13q-4 6 -3 18q1 10 -3 17q-2 3 -5 11q-2 6 -1 20 t6 24q4 12 5.5 20t7.5 18q2 3 4.5 9.5t3.5 8.5q5 11 6 13q2 4 9 14q4 8 12 11q4 3 11 10q2 5 10 11q15 9 19 11q9 4 20 10q7 6 18 9q13 6 23 12q12 7 19 7t19 -2q8 -1 21 2q17 5 32 6q22 2 33 2q15 0 22 4l15 9q7 3 11 8q3 2 8 20q4 20 3 24q-1 6 -1 18q0 3 -1 9.5t-1 7.5 q-1 7 -6 10q-2 2 -8 9q-2 5 -10 9q-8 3 -22 3q-13 0 -22 -2q-6 -4 -12 -2q-5 0 -11 2q-4 2 -9 0q-2 -1 -16 -9q-10 -6 -19 -18q-6 -10 -15 -19q-1 -2 -4 -5t-7.5 -7t-6.5 -6q-9 -7 -13.5 -8t-26.5 -1q-28 0 -33 3q-5 2 -8 8q-3 5 1 27q4 20 8 26q8 9 12 14q7 9 17 14t17 14 q5 6 7.5 8t13.5 5q17 5 38 5q16 0 20 1t9 5q6 6 18 7q13 3 19 5q9 3 18 -1q11 -3 21 0q9 3 12 3t10 -3q14 -4 28 -4q15 -1 25 -5l12 -7l12 -7q8 -5 8 -8t11 -17q10 -14 10 -22q-1 -4 0 -24q1 -16 4 -27q3 -12 3 -16t-4 -14q-4 -6 -5 -12q-1 -3 0 -11q1 -5 -6 -40 q-6 -31 -11 -41.5t-9 -30.5q-5 -22 -3 -31q-1 -12 -1 -15q-1 -5 -4 -11q-4 -3 -8 -22q-2 -10 -6 -39q-8 -42 -9.5 -50.5t1.5 -16.5q3 -10 3 -18l1 -12q1 -5 7 -8q8 -4 10 -7q4 -3 9 -3q7 0 25 8t21 11q1 1 5 8q3 6 11.5 10t15.5 16q3 5 9 19q3 8 10 14t10 12q1 7 11 21 q10 21 12 29q3 13 9 25q2 3 5.5 9.5t3.5 7.5q3 4 8 31q6 28 5 33q-1 8 3 18q5 10 3 21q-1 9 0 14q1 2 -3 14q-3 11 -2 29q1 13 0.5 18t-5.5 24q-9 26 -8 31q0 6 -7 16q-3 3 -7 9t-6 8l-9 16q0 2 -3 7.5t-4 7.5q-3 5 -7 9q-6 3 -9 11q-4 7 -10 10q-6 1 -9 9q-5 7 -17 14 q-18 10 -24 13l-16 11q-5 7 -9 8q-3 1 -11 7q-7 6 -9 6q-5 0 -8 3q-9 2 -20 4q-13 2 -23 6q-11 5 -18 5q-8 1 -22 -2q-11 -2 -18 0q-9 4 -15 4q-9 1 -20 -3q-10 -3 -22 -3q-15 0 -20 1q-6 2 -12 -2q-8 -5 -13 -6q-9 -2 -14 -6q-4 -5 -14 -7q-11 -3 -21 -11t-18 -11 q-9 -2 -11 -6q-5 -4 -14 -9q-14 -5 -18 -6q-9 -1 -16 -9q-13 -9 -17 -10q-14 -7 -21 -13q-9 -8 -21 -20q-14 -15 -16 -19q-7 -9 -13 -16q-10 -10 -15 -20q-8 -13 -14 -16q-6 -2 -18 -15q-10 -14 -11 -18q-1 -7 -5 -12q-5 -11 -8 -20q-4 -11 -7 -16q-5 -6 -8 -8q-4 -5 -9 -17 q-4 -10 -10 -33q-4 -18 -2.5 -25.5t-2.5 -27.5q-3 -20 -2 -24q2 -6 -1 -20q-1 -17 1 -22q1 -3 -1 -15q-3 -7 -2 -9t5 -4q7 -3 7 -13q0 -7 2 -21q0 -11 5 -14q3 -3 8 -15q5 -14 7 -16q4 -5 5 -13q3 -13 3 -16q0 -7 2 -10q1 -1 7 -6q5 -2 8 -9q2 -7 10 -12q7 -4 10 -8 q2 -2 14 -10q12 -4 13 -9q-1 -3 4 -7q6 -4 7 -9q2 -4 14 -8q4 -2 11 -4t9 -3q9 -2 14 -5q2 0 5.5 -1.5l8.5 -3.5t8 -3q16 -6 19 -9q3 -2 22 -4q17 -2 21 -4q7 -2 14 -1q6 2 18 7q8 4 18.5 11t18.5 10q11 5 25 6q18 0 23 -3q7 -2 7 -4q2 -3 5 -4q4 -2 11 -13q5 -14 6 -15 q3 -5 0 -10q-1 -4 -9 -14q-7 -10 -7.5 -13t-3.5 -9q-1 -1 -5.5 -5t-6.5 -6q-11 -7 -15 -8t-24 -10q-18 -9 -22 -9q-6 0 -11 3q-7 2 -8 1l-3 -1q-4 0 -9.5 -0.5t-10.5 -0.5q-22 -2 -29 0q-8 3 -18 -1q-8 -2 -12 -2q-3 0 -6 1q-5 2 -10 6q-4 5 -10 4q-6 -2 -14 -2 q-10 -1 -15 4q-9 8 -19 13q-10 7 -18 9q-7 2 -13 8q-7 5 -13 5q-4 0 -10 2q-5 0 -12 9q-10 10 -12 11q-4 1 -12 9q-5 6 -18 14q-8 4 -19 15q-4 5 -15 11q-7 2 -7 9q0 8 -7 16q-8 12 -8 14q-4 7 -6 8q-3 2 -8 18q-4 8 -9 26q-1 2 -4 7.5t-4 6.5q-5 6 -7 6q-2 6 -2 12 q1 9 -4 15q-4 3 -3 11q1 6 1 14q-1 7 -4 9q-5 3 -4 8q0 2 2 25q1 16 2 28l-5 21q-4 14 -3 18q2 7 5 10q3 6 6 21q3 16 2 26q-2 6 -1 21l2 6q1 6 5 15q5 10 11 27q5 15 8 22l9 15q0 3 3 9t4 9q3 8 7 16q4 4 8 15q2 2 5 8.5t5 8.5q3 6 8 13q5 3 26 33q19 28 30 37q14 10 16 17 q2 3 15 16q13 11 19 19q8 11 14 12q8 1 22 13q13 11 22 15q6 3 19 14q11 11 16 11q6 2 16 8q15 7 20 8q2 1 8.5 3t8.5 3q4 2 14 8q8 5 14 6q3 1 17 6q15 4 25 9q18 6 20 6q4 0 9 -3q6 -2 12 -2q1 0 6.5 1.5t8.5 2.5l17 6q9 3 14 3q13 3 15 3z" />
<glyph unicode="A" horiz-adv-x="739" d="M487 611q-9 3 -11 3q-4 0 -10 -5q-6 -7 -8 -11l-10 -20q-8 -16 -14 -25l-9 -18t-5 -14t-7 -18q-8 -10 -13 -14q-6 -7 -8 -12q-1 -3 -8 -15q-2 -3 -6 -9.5t-6 -8.5q-4 -11 -10 -16q-4 -6 -5 -10q0 -2 -7 -14q-2 -2 -15 -23l-14 -22q-5 -5 -11 -17q-3 -9 -11 -21t-9 -20 q-2 -7 1 -10l12 -7q14 -5 19 -5h6q8 0 19 1q17 2 29 2q16 2 23 2q11 2 50 2q38 0 55 -2q17 -1 27 4q11 5 13 10q4 5 7 19q2 13 -1 18q-3 6 -1 13q0 11 -2 13q-1 5 -3 7q-4 4 -3 11q-1 11 -5 14q-3 8 -9 29q-5 16 -10 41l-3 31q0 5 -1 18q-5 5 -5 7q0 1 -1.5 8l-2.5 12 q-4 16 -4 28q1 10 -3 18q-4 7 -4 9q1 4 -1 8q0 3 -5 9zM504 739q2 0 7 1t7 2q8 0 13 -3q9 -2 23 -2q15 0 20 -3q2 -2 3 -9q-1 -5 1 -15q0 -8 6 -15q5 -4 6 -11q1 -6 0 -12q-2 -6 3 -16q5 -7 4 -13q0 -2 1 -10.5t1 -13.5q5 -21 5 -22q3 -7 2 -14q0 -8 5 -25q5 -12 5 -23 q-2 -8 2 -15q4 -6 6 -17q3 -13 7 -15q3 -8 3 -11v-18q1 -14 7 -19q5 -7 7 -13l3 -13q2 -12 3 -21q5 -28 11 -47q2 -6 4 -14l2 -8q2 -2 2 -21q2 -17 5 -32q2 -5 5 -23q1 -6 2 -18q-1 -8 5 -11q1 -1 3.5 -3t3.5 -2q1 -2 1 -12q1 -13 1 -16q1 -6 1 -16t2 -15q3 -4 6 -12 q3 -18 4 -21q1 -14 3 -15q1 -7 3 -16q0 -2 2 -8.5t2 -8.5q1 -1 8 -13q5 -13 5 -14q2 -4 0 -16q-6 -15 -8 -19q-1 -3 -7 -12q-4 -3 -29 -5q-35 -5 -36 -5q-5 -1 -7 -1q-5 0 -9 2q-8 3 -11 6q-6 4 -8 11q-3 8 -8 14q-6 10 -6 11q-1 4 0 10q2 7 -2 15q-1 8 -7 15q-4 6 -1.5 24 t0.5 26q-2 6 -6 16q-3 5 -4 22q-3 16 -3 17q-1 5 -13 10q-13 7 -20 7q-10 0 -18 3q-12 2 -19 1q-10 0 -23 -2q-10 -1 -20 3q-11 3 -23 3q-11 0 -31 -2q-17 -2 -27 -2h-10q-10 1 -24 1q-4 1 -15 -3q-10 -5 -14 -3l-8 4q-5 4 -9 4q-5 0 -9 -2q-7 -2 -35 -2q-29 -2 -33 -3 q-4 -2 -12 -10q-6 -7 -14 -21q-9 -16 -10 -19q-5 -9 -12 -19q-5 -8 -17 -31q-7 -16 -13 -27q-6 -8 -10 -19l-9 -13q-3 -3 -16 -21q-10 -15 -17 -18q-5 -2 -40 -2q-26 1 -30.5 2t-10.5 5q-3 2 -5 5t-3 5q-1 6 0 11q1 2 3.5 7.5t2.5 6.5q4 5 9 19q3 11 9 17q6 5 10 13l3 7 q0 2 6 7q6 6 11 14q5 9 10 14q5 6 10 15q4 10 10 17q7 12 10 19q8 14 14 22q3 3 5.5 7.5t6 9.5t5.5 7q7 13 11 24q3 8 11 22q5 6 10 20q4 12 10 19q8 8 9 8q2 0 5 5q4 5 5 12q1 2 2.5 7.5t1.5 7.5q4 8 14 21q12 16 14 20q4 10 11 19q10 16 10 18q2 6 10 17q6 11 13 16 q5 8 9 11q4 5 8 17q4 13 10 19q7 7 12 16q4 6 10 19q3 12 8 15q4 5 10 7q3 2 9 15q4 13 11 21q6 8 10 18q1 6 11 20q8 12 11 21q3 10 9 15t10 14q4 8 11 16q1 2 4 5.5t4 5.5q3 3 19 9.5t30 8.5l12.5 3t10.5 2z" />
<glyph unicode="B" horiz-adv-x="684" d="M343 347q-5 2 -22 2q-18 0 -25 -2q-2 0 -8 -3q-5 -2 -7 -6q0 -1 -3 -5t-4 -6q-3 -5 -13.5 -58t-8.5 -57q1 -12 -1 -21l-1 -8q-3 -11 -9 -28q-6 -18 -9 -29q-1 -10 0 -18q0 -5 2 -13q2 -2 8 -2q7 0 14 3q9 2 20 0q5 -1 17 -1q10 1 17 -3q8 -4 13 -4h4q1 0 10.5 1.5 t14.5 2.5q16 2 23 2q7 -2 27 0q23 3 41 9q24 8 31 13t20 12q9 3 23 14q13 11 16 20q4 10 4.5 12t8.5 20q7 15 10 31q3 15 1 19q-1 6 -4 8q-2 4 -2 13q1 6 -2 16q-2 6 -16 23q-13 16 -32 27q-20 11 -33 11q-10 1 -24 4q-8 3 -21 3q-7 0 -31 -1q-25 -2 -39 -2q-8 0 -10 1z M498 659q-5 3 -14 3q-7 0 -10 -2q-1 -2 -8 -4q-5 -1 -18 2q-12 3 -30 -1q-13 -3 -25 -3q-5 2 -9 4q-6 2 -17 2q-13 0 -23 -9q-13 -11 -12 -16q1 -4 -2 -20q-1 -4 -2 -12t-1 -11q-1 -10 -5 -16q-4 -10 -6 -20q-3 -14 -1 -21q0 -8 -3 -15q0 -1 -2 -6t-3 -7q-2 -6 -1 -14 q2 -10 -1 -15q-1 -6 -6 -14q-2 -5 -2 -7q-1 -3 2 -11q4 -11 7 -13q5 -4 11 -6q8 -2 19 -2q13 0 22 3q10 4 21 4q5 0 21 -1q14 -1 28 -1t25 1q22 2 30 4q1 0 8 2.5l10 3.5q16 9 25 15q14 10 26 20q3 3 10.5 9.5t8.5 7.5q8 11 11 21q5 10 10 39q6 26 3 31q-5 8 -9 17 q-9 15 -10 16q-6 7 -11 10l-8 5q-1 1 -11 9q-9 6 -26 11q-17 4 -22 7zM514 746q10 2 12 3q1 0 12 -4q13 -3 24 -4q15 0 36 -8q23 -8 32 -13q13 -6 14 -6t15 -8q14 -9 21 -21q5 -7 13 -25l11 -20q5 -5 5.5 -8.5t-2.5 -17.5q-2 -19 1 -26q3 -3 4 -12q-2 -10 -5 -15l-8 -24 q-2 -12 -6 -20q-3 -6 -7 -18q-9 -18 -17 -30q-13 -19 -23 -26q-17 -12 -26 -17q-2 -1 -26 -14q-8 -3 -14 -8t-8 -10q-2 -4 -3 -10q1 -4 3 -5l19 -2q5 -1 13 -2t9 -1q2 -2 4 -8q3 -7 10 -11q7 -3 12 -9q8 -9 10 -15q5 -9 8 -11q2 -2 5 -10q4 -10 4 -13q1 -4 2 -10 q2 -8 -1 -24q-1 -18 0 -26q2 -7 -5 -39q-5 -29 -11 -37q-5 -9 -9 -17q-13 -24 -16 -29q-6 -13 -19 -28q-8 -9 -19 -17q-6 -3 -20 -15q-11 -9 -19 -12q-11 -5 -17 -5q-11 -3 -15 -6q-10 -4 -26 -9q-19 -5 -37 -7q-22 -2 -35 -2q-15 0 -25 -5q-11 -5 -27 -4q-4 0 -9 -0.5 t-8 -0.5h-3h-2q-4 0 -14 2q-13 2 -34 2h-24q-14 0 -39.5 -0.5t-31.5 -0.5q-14 -1 -47 -1q-22 -1 -26 3q-5 4 -11 7q-6 4 -8 7q-1 5 0 17q0 14 2 21q0 3 2 9t2 8q2 5 5 30q1 15 2 19.5t4 11.5q6 11 8 30q2 22 4 30q0 3 2.5 13.5t3.5 15.5q6 20 20 91q5 25 10 57l6 31 q5 24 8 37q6 24 4 29q-1 8 1 18q3 11 7 21q5 14 23 104q18 94 22 99q6 7 11 10q7 5 14 8q10 3 61 4q53 0 58 3q6 2 24 2q22 0 33 -3q13 -3 27 1q17 4 23 4q5 0 17 2z" />
<glyph unicode="C" horiz-adv-x="695" d="M509 759q9 3 16 3q3 0 21 -2q18 -3 30 -1q12 3 20 0q5 -1 17 -8q11 -7 22 -8q6 -1 28 -6q14 -4 21 -11q6 -6 14 -9q11 -9 13 -12q3 -5 13 -15q8 -6 11 -12q1 -1 4.5 -7t5.5 -10q9 -13 13 -27q4 -13 3 -25q1 -18 1 -19q1 -5 1 -18q0 -10 -3 -20q-1 -2 -4 -7.5t-3 -6.5 q-6 -5 -10 -7q-5 -3 -34 -4q-15 -1 -30 -1q-1 0 -6 2.5t-7 4.5q-11 6 -13 13q-1 4 -5 13q-4 5 -3 10l-1 7q0 8 -2 13q-1 14 -5 18q-3 3 -4 9q-1 3 -4 13q-2 4 -7 10q-3 2 -15 12q-15 9 -22 10q-9 2 -18 5q-10 4 -32 4t-35 2q-12 1 -21 -4q-10 -6 -22 -7q-12 -2 -23 -7 t-19 -7q-7 0 -21 -8l-7 -4.5t-8 -5.5t-6 -4q-13 -15 -19 -21q-2 -2 -16 -19q-4 -4 -10 -15q-7 -13 -13 -19q-8 -9 -14 -23q-2 -5 -7 -14q-4 -8 -4 -9q-1 -3 -4.5 -10.5t-5.5 -9.5l-4 -12.5t-4 -13.5q-2 -6 -12 -49q-5 -19 -12 -54q-3 -19 -1 -29q0 -9 -4.5 -21t-1.5 -20 q1 -7 0 -14t0 -13v-16q0 -9 4 -13q3 -6 2 -15q-1 -12 3 -21q3 -12 5 -12q3 -3 3 -8q1 -6 11 -16q11 -9 15 -16q8 -10 11 -16q3 -7 10 -15q1 -2 23 -12q19 -7 27 -7h8q11 1 22 -3q9 -3 32 -3q22 1 33 6q11 6 22 8q12 4 18 7q6 5 8 5t8 6l8 6q7 5 11 7q13 8 16 14q2 4 11 15 q9 9 17 26q3 5 8 14.5l6 11.5q4 8 12 15q7 7 15 9q4 2 37 2q32 -1 37 -4q4 -2 11 -10q3 -6 2 -16q0 -2 -1 -5q-1 -8 -4 -15q-6 -12 -9 -23q-1 -4 -3 -10.5t-2 -7.5q-5 -7 -13 -12q-8 -6 -13 -15q-4 -10 -14 -17l-14 -12q-4 -3 -7 -9t-18 -15q-17 -11 -21 -16q-3 -3 -13 -7 q-7 -1 -16 -10t-16 -13q-9 -4 -16 -4t-19 -4q-4 -1 -11 -3.5t-8 -2.5q-2 0 -5.5 -1.5t-4.5 -2.5l-13 -3q-9 -3 -19 -2q-5 1 -14.5 1t-17.5 -1q-18 -2 -23 -4q-1 -1 -10 -3q-4 -1 -7 -1t-10 2q-10 4 -31 4q-24 0 -32 3q-3 1 -9 3.5t-7 2.5q-7 2 -10 5q-3 4 -9 6q-1 1 -10 5.5 t-14 7.5q-18 10 -32 22q-10 9 -22 26l-10.5 14l-10.5 14q-12 15 -12 18q-1 9 -3 13q0 9 -3 13l-5 11q0 1 -5 11q-4 5 -3 16q2 12 -4 20q-4 10 -3 18q1 9 0 23l-3 28q-2 16 2 38q1 12 2 17q2 8 4 11q5 6 14 54q10 50 14 58q6 15 11 34q5 23 12 30q5 7 7 17q2 8 8 20 q2 2 5.5 7.5t5.5 7.5q1 1 9 13q2 5 8 13l14 18q10 13 18 18q9 6 15 18q8 13 15 19l6 4q7 4 9 5l12 9q1 4 17 14q17 12 24 18q11 8 16 8q13 3 20 5q13 5 17 5t11 3q12 3 25 3q19 1 27 7t19 6q13 0 25 3z" />
<glyph unicode="D" horiz-adv-x="747" d="M404 637q-15 3 -24 3h-8t-16 -1q-14 -3 -15 -3q-7 0 -12 -4q-7 -6 -10 -13q-1 -7 -5 -19q-3 -7 -3 -10q-1 -6 -1 -18q1 -3 2 -23q-1 -5 -5 -15q-5 -7 -6 -16q-1 -5 -3 -17q-4 -21 -2 -35q-1 -12 -6 -25q-7 -12 -11 -35q-2 -12 -9 -50q-6 -39 -15 -83l-6 -31l-7 -34 l-6 -31l-5 -28l-5 -24q-2 -8 -3 -24q0 -3 0.5 -9.5t0.5 -8.5q3 -7 6 -8q1 -2 15 -6q10 -2 14 -2t18 2q16 3 26 3q5 0 28 4q14 2 18 2t15 -2q12 -4 24 -1q14 4 25 4q12 0 24 5q4 1 9.5 4t7.5 4q6 3 16 3q17 2 20 3q10 3 20 13q3 3 8 7l5 5q1 1 6 7q5 7 17 12q14 9 16 11 q5 6 11 11t9.5 13t3.5 10q1 5 8 12q5 5 10 13q6 7 16 28q12 24 14 35q2 10 9 24q6 13 15 63q9 51 8 58q-2 9 1 22q2 12 -2 31q-5 16 -8 40q-2 20 -8 27q-9 7 -12 14q-6 7 -7 13q0 7 -5 13q-12 10 -15 12q-9 5 -16 11q-3 4 -8 7q-4 2 -13 2q-10 0 -15 3q-2 0 -9.5 2.5 t-11.5 3.5q-15 3 -23 7t-54 5q-48 1 -56 4zM286 721q2 1 7.5 1.5t7.5 0.5t10 -1.5t9 -1.5q8 -2 16 -2q6 0 21 1q28 2 36 2q13 0 24 -3q3 0 11.5 -1.5t12.5 -2.5q11 -1 19 2q7 2 18 2q8 0 29.5 -2t24.5 -3q2 -2 10 -2q9 0 19 3q12 2 20 1q7 -3 18 -5q10 -4 20 -6q10 -3 17 -9 q1 0 7.5 -3.5t10.5 -4.5q4 -3 15 -6q2 -1 6 -2.5t5 -1.5q2 -3 11 -5q8 -1 10 -7q8 -9 13 -13q9 -8 11.5 -16t14.5 -20q9 -9 12 -17q3 -4 3 -13q-2 -8 2 -12q2 -5 4 -7q3 -4 4 -15q1 -7 6 -20q4 -9 6 -18q0 -3 1 -8t1 -7q2 -4 0 -13q-1 -9 0 -18q1 -14 3 -20q1 -7 -4 -40 q-5 -39 -11 -66q-6 -35 -13 -45q-6 -11 -11 -32q-7 -24 -10 -28q-4 -10 -5 -16q-1 -3 -6 -15q0 -2 -3 -7.5t-5 -8.5q-6 -10 -11 -15q-8 -9 -14 -20q-10 -17 -16 -23q-8 -9 -12 -19q-4 -9 -7 -12q-4 -4 -11 -6q-7 -1 -33 -24q-31 -24 -41 -30q-13 -7 -22 -9q-11 -2 -22 -8 q-16 -7 -28 -10q-15 -4 -20 -4t-13 -5q-7 -4 -13 -7q-5 -2 -32 -2q-26 0 -36 -3q-11 -4 -94 -4q-81 0 -106 -2l-22 -1q-1 1 -24 3q-23 1 -25 5q-3 3 -7 11q-4 5 -5 12q0 1 1.5 9l2.5 13q0 8 2.5 21t5.5 24q8 27 12 35t6 18t1 18q-1 7 11 79l21 111q3 13 4 21q4 18 3 25 q-2 5 0 16t6 17t6 17q2 10 5 18q3 7 4 19q0 12 19 108t23 104q3 2 6.5 7.5t4.5 6.5q7 8 9 10t15 4q17 3 18 3z" />
<glyph unicode="E" horiz-adv-x="663" d="M259 749q4 2 16 0h27q15 0 21 -3q8 -2 21 -2h16q32 2 48 2q21 0 30 3q5 1 7 1q4 0 13 -3q12 -3 56 -3q42 0 46 2q7 3 10 3q5 1 15 -2q8 -3 14 -3q7 0 19 3t38 3q22 0 34 -3q13 -5 14 -5q4 -2 6 -6q2 -2 5 -12q0 -12 -5 -27q-4 -18 -9 -25q-6 -8 -12 -12q-5 -3 -31 -4h-14 q-11 0 -21 2t-22 0q-15 -3 -25 -2q-17 0 -23 -1q-10 -2 -71 -2q-65 0 -73 -2l-21 -4q-11 0 -19 3q-11 4 -16 4q-4 1 -13 -1q-4 -2 -10 -6q-5 -9 -7 -14q-1 -3 -3 -10t-3 -9q-4 -9 -6 -31q-1 -24 -11 -73q-7 -39 -8 -47t1 -18q4 -12 7 -16q6 -3 18 -1q4 0 12.5 0.5t10.5 0.5 q3 0 10.5 -0.5t11.5 -0.5q13 0 19 4q5 6 12 6q6 1 17 -4q7 -5 10 -5.5t14 1.5q10 2 35 2h22q47 0 56 -4q12 -3 27 -2q8 1 34 1q17 0 22 -3q4 -5 6 -11q3 -9 -1 -26q-4 -20 -9 -29q-8 -12 -10 -14q-3 -2 -10 -2t-17 -4q-11 -3 -25 -3q-15 0 -29 -3l-15 -3l-15 -3 q-14 -1 -22 1q-5 1 -22 6q-12 2 -20 -1q-10 -3 -22 -3q-7 0 -21 3q-12 3 -29 3q-33 0 -50 2q-20 1 -26 1q-7 0 -15 -3q-10 -4 -11 -7q-4 -4 -10 -29q-5 -24 -11 -48q-8 -29 -9 -32q-3 -8 -2 -21q2 -9 -1 -21q-2 -13 -7 -23q-5 -8 -5 -11q-1 -4 2 -20q3 -20 7 -22q3 -3 5 -3 t11 3q12 4 15 4q5 0 11 -3q9 -2 27 -2q29 2 31 3q10 2 19 0q10 -3 18 -2q8 2 15 0q3 -1 19 -1q12 0 21 2q6 3 14 3t12 -3q5 -2 30 -2h32q39 1 46 1q14 0 16 -1q6 -2 12 -9q6 -6 9 -13q2 -6 -1 -22q-1 -5 -3 -12.5t-2 -8.5q-4 -6 -13 -13q-7 -6 -13 -9q-4 -1 -28 -3 q-18 0 -37 -4q-10 -2 -14 -2h-4q-1 0 -8.5 1t-12.5 1q-6 1 -48 3h-18q-15 0 -24 -2q-10 -3 -34 -3h-54h-61q-33 0 -39 2q-8 2 -21 -1q-9 -2 -13 -2t-11 1q-9 1 -20 6q-9 3 -13 7q-1 4 -4 8q-1 5 0 20q1 16 2 24q2 6 10 40q7 33 7 38q-2 6 2 29q2 12 6 34q1 13 7 24 q6 12 4 20q-1 7 0 14q1 5 5 11q4 8 7 27q5 23 5 41q1 22 2 30l7 21q5 9 8 25q4 17 2 25q-1 10 4 34q4 22 10 31q5 11 5 15l1 10q2 10 3 17q2 11 4 38q0 12 3 29q2 9 7 29q8 41 12 49q6 15 7 19q6 15 6 16q2 4 10 8z" />
<glyph unicode="F" horiz-adv-x="617" d="M627 739h4q1 -2 32 -2q29 -1 37 -5l9 -5q3 -3 6.5 -15t-0.5 -31q-3 -18 -7 -22q-3 -4 -11 -8l-20 -8q-8 -3 -16 -3q-5 0 -16 1q-25 2 -27 4q-7 2 -44 2t-50 -4t-24 -2q-4 0 -14.5 0.5t-13.5 0.5q-17 0 -22 2q-7 2 -19 1q-12 -2 -36 -4q-28 -2 -32 -4q-7 -2 -11 -7 q-5 -3 -9 -12q0 -2 -2.5 -6.5t-3.5 -6.5q-4 -5 -6 -14q-1 -6 -3 -26q-1 -17 -1 -23q2 -7 -2 -24q-1 -3 -4.5 -15t-5.5 -17q0 -4 -2 -9l-4.5 -11t-2.5 -8q-5 -11 -5 -19q0 -5 4 -10q4 -3 10 -5q8 -2 11 -3q1 -2 13 -4q5 0 16 -3q10 -3 15 -1q3 1 26 3q27 5 29 6q13 3 18 2 q6 0 10 -5q4 -4 8 -4q3 0 11 2q13 3 18 5q10 2 36 2q22 0 53 -2q27 -2 33.5 -4t8.5 -9q4 -7 8 -11q6 -3 7 -7t-2.5 -22t-6.5 -24q-2 -5 -9 -10q-3 -3 -19 -7q-11 -3 -19 -3q-6 0 -11 3q-7 4 -27 4q-21 0 -34 -4t-20 -4q-8 0 -16 5q-9 6 -18 6q-4 0 -19 -3q-13 -4 -40 -4 t-41 4q-12 3 -22 0q-7 -2 -19 -5q-7 0 -12 -4q-7 -6 -11 -10l-13 -19q-6 -11 -12 -44q-6 -32 -3 -36q0 -6 -2 -20q-3 -8 -5 -20l-3 -15q-2 -15 -4 -26q-2 -16 -4 -25q-3 -14 -6 -20q0 -2 -2.5 -8.5t-3.5 -8.5q-1 -4 -1 -16q2 -8 -2 -18q-2 -10 -7 -16q-6 -9 -9 -10 q-9 -3 -18 -3q-17 -2 -29 -5q-11 -3 -15 -3q-3 0 -10 1q-9 2 -13 4q-4 1 -7 13t2 37t3 30q-2 9 -1 14q1 3 6 15q5 7 14 55q8 53 8 59q2 14 6 22q4 10 6 23q3 15 2 23t2 17q5 9 3 18q0 7 2 20q1 4 2 9q4 19 7.5 27t6.5 22q0 3 2.5 13l3.5 14q3 13 2 24q-1 7 0 12q0 2 2 9 q4 11 5 25q1 11 10 55l7 38q15 75 19 87q2 4 8 19q4 12 8 15q3 5 9 7t34 4q8 0 22 0.5t17 0.5q2 0 11 1t12 2q9 1 17 0q10 -2 18 -1t16 -1q5 -1 60 -3q53 0 63 3q12 4 31 4q18 0 28 -2t19 0l7.5 2.5t5.5 1.5z" />
<glyph unicode="G" horiz-adv-x="791" d="M558 761q2 1 7 1q3 0 13 -2q8 -3 28 -3q19 0 29 -2q3 -1 9 -2.5t8 -1.5q5 0 22 -4q12 -3 21 -6q7 -4 15 -4q11 -2 14 -5l12 -4q6 -2 15 -10q7 -6 16 -17q1 -1 6.5 -9.5l8.5 -13.5q11 -20 14 -23q7 -7 6 -20v-21q2 -6 -1 -20q-1 -10 -6 -14q-6 -5 -17 -7q-6 -3 -23 -7 q-22 -3 -26 -3q-14 0 -18 4q-4 1 -14 12q-10 10 -13 22q-1 11 -12 25t-20 18q-10 7 -13 11q-2 5 -6 8q-7 3 -20 4q-4 1 -29 4q-12 2 -20 0q-1 0 -9 -0.5t-13 -0.5q-12 0 -36 -2q-22 0 -27 -2q-4 0 -14 -9q-13 -9 -16 -9q-1 0 -7.5 -2.5t-9.5 -3.5q-15 -6 -20 -10t-12 -7 q-2 -1 -22 -16q-14 -12 -25 -26q-4 -7 -15 -23q-3 -4 -13 -16q-5 -6 -11 -14q-9 -15 -12 -22q-7 -14 -8.5 -23t-5.5 -17q-4 -6 -7 -18q-2 -12 -7 -22q-6 -10 -5 -22q0 -13 -4 -21q-5 -7 -7 -20q-1 -7 -4 -25q-7 -34 -6 -53q0 -19 1 -20v-5q0 -4 1 -7q1 -9 3 -19q5 -13 6 -14 q3 -3 3 -10q-1 -4 3 -9q5 -3 8 -17q5 -14 8 -17q1 -1 12 -8.5t17 -15.5q5 -6 14 -21q6 -9 14 -11q8 -3 14.5 -11t12.5 -7q7 2 18 2q8 1 22 -1q5 -2 25 -7q19 -4 50 -4q34 0 41 4q11 4 17 4q9 0 15 4q4 2 20 7q12 2 19 6q6 3 9 7q4 6 9 15q4 6 11 22q6 13 6 19q1 7 1 15 q-1 8 3 20q3 5 11 34q6 24 3 30q-3 7 -1 18q3 12 0 15q-2 3 -14 7q-11 3 -64 3h-33q-19 0 -23 5q-7 6 -7 10q-2 4 2 26q4 20 10 25q7 5 11 7q9 2 21 2q14 0 24 4q6 3 14 3q7 0 14 -3q9 -2 17 1q6 3 38 3q28 0 50 3q19 3 32 3q13 -2 16 -3q4 -4 11 -14q8 -14 8 -16 q0 -1 -6.5 -37.5l-11.5 -66.5l-21 -108l-11 -52q-9 -41 -16 -51q-6 -8 -22 -19q-15 -11 -23 -13q-7 -2 -27 -4q-5 0 -19.5 -1t-19.5 -2q-13 -1 -32 -6q-13 -5 -21 -5q-9 0 -20 -3q-14 -2 -18 -4q-7 -3 -20 -3q-5 -1 -16.5 -2.5t-14.5 -1.5q-7 -1 -11 -1q-6 0 -12 2 q-10 3 -31 3q-20 0 -29 2l-27 3q-17 1 -28 6l-19 10q-7 5 -22 7q-15 3 -19 7q-3 2 -13 11q-12 8 -13 9q-4 1 -10 6l-10 7q-7 6 -12 12q-10 12 -13 15q-5 5 -9 12q-2 4 -5 17q-1 11 -9.5 22t-12.5 25q-3 16 -3 22q1 8 -2 14q-2 6 -3 17q0 2 -3 22q-3 8 0 30q4 19 4 41 q2 20 -1 29v10q1 2 3 7q2 8 3 19q0 8 0.5 11t4.5 10q3 6 12 44q8 31 12 43q5 10 8 14q2 2 6.5 10t5.5 11q4 10 21 36q6 7 12.5 17t6.5 11q3 9 7 13q8 9 14 14q8 7 16.5 19t19.5 21l24 21q9 9 20 15q10 6 17 12q11 9 11 11q0 1 8 3q12 4 25 9q26 11 30 13q14 6 21 7 q14 3 19 5q11 4 14 4q6 0 16 3q12 3 22 0q7 -3 17 -3q9 0 15 4q1 1 5 3q2 2 3 2z" />
<glyph unicode="H" horiz-adv-x="782" d="M734 738q17 6 24 6q9 0 14 -3q12 -4 16 -5q13 -4 16 -5q6 -3 6 -7q0 -7 3 -11q0 -2 -2 -22t-3 -29q-1 -3 -3.5 -13t-3.5 -15q-3 -17 -2 -28q1 -8 0.5 -12t-5.5 -15q-6 -20 -7 -23q0 -1 -1 -20q-3 -14 -6 -20q-4 -6 -5 -13q1 -4 1 -12q2 -9 -2 -20q-6 -13 -6 -27 q0 -13 -5 -24q-7 -12 -12 -37q-4 -24 -4 -36q3 -9 -1 -29t-9 -31q-5 -12 -6 -28q1 -13 -3 -23q-2 -4 -5 -21q-3 -11 -4 -25q0 -11 -7 -30q-8 -23 -9 -27q-1 -5 -1 -13q1 -6 -4 -30q-2 -18 -5 -31q-1 -6 -1 -10q-4 -17 -8 -25q-3 -7 -9 -12t-20 -10q-14 -6 -22 -6q-4 0 -17 1 q-20 1 -32 6q-10 4 -12 10t0.5 20t1.5 20q-2 6 1 17q1 9 7 16q6 5 4 9q-1 4 -3.5 7t-0.5 12t5 13q5 8 8 16q0 3 3 10t3 9q1 3 0 12t-1 11q0 1 2 7.5t3.5 16t3.5 18.5l7 28q2 11 1 16q-1 3 0 23q3 17 1 21q-1 4 -5 7q-6 2 -26 1q-4 0 -24.5 -0.5t-31.5 -0.5q-52 3 -57 3 q-31 3 -32 3q-15 0 -22 -2q-9 -3 -28 -3h-29q-22 0 -39 -1q-33 -1 -38 -5q-5 -1 -11 -9q-4 -5 -11 -34q-8 -30 -8 -32q-1 -4 -1 -16q-1 -14 -9.5 -57t-7.5 -53q1 -7 -5 -22q-2 -7 -3.5 -15.5t-2.5 -16.5q-2 -19 -8 -30q-6 -12 -7 -17q-3 -7 -6 -9q-1 -1 -7 -4l-6 -3 q-8 -3 -14 -3t-12 -3q-9 -2 -14 -2q-6 0 -13 2q-2 0 -6.5 1.5t-6.5 1.5q-5 2 -9 6t-6 9q-1 13 -1 18q-1 14 9 62q7 50 7 54q-1 6 0 10q1 5 5 13q3 9 2 19q1 18 1 19q1 7 8 21q5 9 10 35q5 25 4 34q-3 10 2 24q6 18 6 25q2 8 6 40q2 9 3 16q2 13 6 23q5 11 4 20q-1 6 2 20 l7 30l7 31q3 17 4 18q1 6 2 24q3 17 8 27q7 14 8 29q3 15 5 37q4 19 9 35q5 15 8 19q2 4 7 6q4 3 13 5q11 4 32 4q10 1 19 1t13 -1q6 -1 14 -6q6 -4 8 -10q0 -3 -4 -33q-5 -25 -10 -37q-5 -9 -7 -27q-1 -5 -2 -14.5t-1 -10.5q0 -8 -8 -52q-7 -37 -14 -59q-5 -13 -7 -21 q-1 -4 1 -14q3 -12 2 -17q0 -10 1 -11q2 -2 21 -1h10q11 0 22 -2q11 -3 26 -3q11 0 34 4q14 3 24 3q6 0 16 -1q14 0 28 -3q9 -2 21.5 1t24.5 2q7 -2 17 -2q6 0 15 1q22 2 41 2q16 -1 20 -0.5t9 4.5q8 3 16 16q7 12 13 43q2 9 5.5 29t4.5 27q5 26 3 31q0 7 1 15q2 8 6 22 q8 31 9 34q3 4 10 40q7 35 10 39q4 6 7 9q3 2 10 6t9 5z" />
<glyph unicode="I" horiz-adv-x="343" d="M287 730q8 5 16 5q5 0 10 -4q1 0 5.5 -2t6.5 -3q8 -2 18 -9q10 -6 15 -15q5 -8 5 -16q-1 -7 -1 -19q-3 -13 -6 -19l-5 -12q-1 -2 -1 -14q0 -9 -4 -21q-6 -11 -15 -58q-7 -30 -11 -45t-4 -16q-2 -7 -4 -32q0 -20 -5 -54q-4 -23 -12 -42q-6 -12 -7 -18q0 -4 -1 -13 q-1 -8 -2.5 -15.5t-4.5 -17.5q-5 -19 -8 -23q-2 -3 -4 -16q-2 -11 -1 -20q2 -8 -1 -27q-2 -10 -10 -42q-12 -59 -17 -70q-3 -7 -7 -23q0 -5 -1.5 -15t-4.5 -19q-5 -22 -10 -27l-13 -10q-9 -6 -15 -6q-8 0 -15 -3q-13 -4 -17 -4q-5 0 -15 2q-9 2 -14 11q-3 3 -5 7.5t-2 7.5 q-1 8 4 33q5 24 3 33q-1 4 1 16q4 10 5 15q2 3 2 14q-2 7 -1 11q1 3 3 7q4 10 4.5 18t4.5 16q5 7 4 11q1 1 -1 10q0 4 3 18q2 10 5 18q6 7 5 15q1 2 1 5.5v8v6.5q0 12 6 26q8 24 8 26q2 9 2 21q-1 8 6 30q7 24 12 51l11 57q5 25 4 34q-1 8 0.5 16t5.5 16q5 11 11 44l15 74 q7 30 9 36.5t12 15.5q12 12 22 15z" />
<glyph unicode="J" horiz-adv-x="531" d="M513 737h9.5h9.5h7h12q4 0 7 -4q3 -3 2 -9q-2 -8 1 -21q1 -15 -4 -27q-2 -8 -7 -33q-3 -24 -1 -31q-1 -3 -0.5 -8t0.5 -6t-2.5 -5.5t-2.5 -5.5q-3 -4 -20 -84q-6 -22 -12 -51t-6 -30t-7.5 -49t-9.5 -57l-4 -21q-1 -4 -4 -29q-3 -22 -7 -28q-3 -6 -6 -25q0 -9 -5 -35 q-4 -16 -10 -27q-5 -12 -8 -25q-2 -14 -8 -23q-2 -2 -9 -16q-3 -7 -13 -16q-11 -11 -13 -12q0 -3 -6 -11q-4 -6 -20 -19q-22 -12 -25 -13q-11 -5 -13 -8q-7 -4 -23 -11t-43 -8q-31 -2 -35 -4q-3 -1 -8 -1q-2 2 -28 2q-25 1 -36 5q-11 5 -19 5t-25 8q-4 2 -14 6.5t-13 5.5 q-10 6 -13 13q-5 6 -8 14q-2 8 -8 13q-5 4 -6 11q-1 1 -1.5 6t-0.5 7q-1 2 -2.5 9.5t-3.5 10.5q-3 14 -4 26q-1 9 0 13q0 2 4 8q4 10 4 15q2 7 5 11q6 5 10 6q11 4 20 4q11 0 17 2l6 4q0 2 8 4q7 3 11 2q1 0 6.5 -2t8.5 -3q8 -3 12 -8q1 -1 7 -11q3 -15 5 -24q2 -13 1 -20 q-1 -5 2 -13q1 -10 10 -18q7 -9 21 -12q12 -3 37 -5h13q10 0 20 3q9 4 19 13q14 11 17 12q10 6 14 10q8 7 9 14q1 1 4 8.5t4 11.5q5 16 8 27q3 15 7 24q5 12 8 27q2 14 3 26q-1 12 13 83l9 53q5 27 9 37q5 15 6 27t4 27q0 4 2 13l3.5 17.5t3.5 18.5q2 11 4 18q2 14 1 19 q-2 4 0 13t6 15q3 8 2 17q-1 11 5 39q9 38 11 44q5 13 8 20q4 6 10 8q1 0 7.5 2.5t9.5 4.5q15 5 31 6z" />
<glyph unicode="K" horiz-adv-x="733" d="M262 742q4 3 13 3q5 0 21 -1q21 0 35 -3l7 -4q0 -3 8 -8q10 -9 10 -10q1 -5 -10 -68q-12 -66 -10 -72q1 -7 -5 -24t-4 -21q0 -8 -3 -26q-4 -20 -8 -26q-2 -1 -6 -11q-4 -7 -3 -12q0 -5 3 -9q5 -2 11 -1q7 2 15.5 11t20.5 14t21 12q6 3 16 9q9 5 12 10q6 6 16 11 q2 1 10.5 6t13.5 7q15 9 19 16l6 7q5 4 8 8q4 7 12 10q6 2 13 8q4 3 14 9q6 2 14 9q6 7 6.5 9t6.5 5l13 11q8 10 16 11q8 2 14 9q4 6 19 19q15 12 23 13q8 2 13 7q7 6 10 12q0 5 8 11l26 22q14 12 19 14.5t14 2.5h11h36h25q13 2 19 -2q4 -2 6 -6q1 -6 -1 -15q-2 -11 -6 -15 q-3 -5 -5 -5t-8 -10q-7 -10 -19 -20q-13 -11 -17 -17q-7 -7 -17 -12t-15 -12q-5 -6 -15 -10q-11 -4 -18 -10q-9 -7 -14.5 -14t-10.5 -9q-4 -2 -9 -7q-2 -3 -10 -5q-9 -3 -10 -4q-4 -2 -9 -9q-3 -3 -12 -11q-5 -2 -19 -14q-11 -9 -24 -13q-11 -3 -16 -7q-6 -5 -9 -6 q-6 -3 -14 -15t-13 -12q-7 -2 -11 -2q-5 0 -12.5 -9t-13.5 -13q-6 -5 -6 -6q-1 -3 -4 -6q-6 -5 -11 -6q-8 -2 -18.5 -11t-12.5 -18t4 -16q5 -6 12 -18q6 -6 10 -15q3 -6 12 -11q11 -8 14 -12q2 -6 10 -16q4 -7 8 -15q2 -4 9 -8q8 -3 12 -20q2 -5 6 -12l3 -7q1 -1 10 -3 q10 -1 11 -6q2 -6 9 -7q7 -2 10 -11q5 -8 9 -9q5 -2 8 -2q5 -1 5 -9q1 -8 6 -14q6 -7 11 -10q5 -2 15 -15q12 -17 12 -19q4 -7 10 -8q7 -3 8 -8q2 -6 8 -14q8 -9 13 -13q4 -2 8 -7q0 -2 9 -10q6 -4 22 -24q14 -17 17 -23q2 -4 1 -10q-2 -7 -7 -12q-1 -2 -5 -7.5t-6 -7.5 q-8 -10 -10 -12q-5 -3 -20 -3q-16 0 -21 3q-6 2 -19 2h-15q-28 0 -41 6q-10 4 -12.5 6t-4.5 12q-5 14 -7 17q-2 6 -5 9q-4 2 -9 6q-5 3 -6 7l-10 10q-9 7 -11.5 15t-13.5 16q-12 9 -14 9t-3 5q-1 6 -6 6q-3 2 -10 2q-8 2 -8 6v4q-1 9 -5 10q-4 3 -5 11q-1 11 -10 21 q-10 11 -16 12q-4 1 -7 11q-3 9 -8 10t-8 10q-5 10 -13 22q-12 14 -17 26q-7 13 -12 16q-3 2 -12 7q-7 3 -7 9q-1 8 0 11q0 2 -2 5l-12 12q-9 8 -12 16q-2 7 -11.5 11t-13.5 4q-3 1 -9 -2q-4 -2 -7.5 -9t-2.5 -15t1 -15q-1 -7 -5 -14t-3 -15q0 -12 -1 -17q0 -5 -12 -77 q-3 -16 -5.5 -33.5t-5 -28.5t-2.5 -12q-1 -4 -13 -56q-10 -48 -15 -53l-10 -8q-5 -4 -28 -5q-18 0 -27 -3q-5 -1 -11 0q-7 2 -11 7q-2 1 -5.5 4.5t-4.5 5.5q-5 4 -8 17q-2 12 1 19t6 9q2 4 2 7q1 6 -1 11q-1 4 0 10q1 5 4 11q5 8 8.5 27t2.5 27q-2 6 1 23q2 16 6 26 q2 4 4.5 15.5t5.5 31.5q4 39 3 44q-1 6 0 11l5 24l7 22q4 5 15 62q11 60 10 64q-2 6 -1 13q2 8 5 11q4 6 8 28q4 24 2 28q-2 6 0.5 17t6.5 17t4 16q0 5 2 14q1 2 6 19q5 14 8 21q4 5 6 14t0 13q-2 9 -1 13q0 6 5 16q6 10 7 15q2 7 5 10z" />
<glyph unicode="L" horiz-adv-x="655" d="M281 745q4 1 11 3q6 1 7 1q7 0 10 -3q8 -2 15 -2t12 -2q7 -3 9 -9q5 -6 6 -13t5 -11q5 -4 6 -18q2 -14 -7 -56l-4 -20.5t-3 -16.5q-2 -6 -2 -7q-1 -2 -8 -10q-5 -6 -6.5 -9t-4.5 -15q-3 -17 1 -23q3 -7 4 -12t-3 -20q-4 -14 -2 -23q3 -8 0 -14q-1 -2 -7 -20 q-7 -18 -10 -21q-3 -6 -5 -18q0 -10 -3 -23q-1 -14 3 -20q3 -5 1 -15q-2 -11 -7 -19q-4 -9 -3 -17q1 -7 0 -14q-1 -6 -7 -14q-4 -8 -6 -22q-1 -16 1 -22q1 -9 -1 -16q-5 -11 -7 -13q-3 -6 -5 -14q-2 -10 0 -16q1 -8 -3 -17q-6 -8 -7 -16q-4 -7 -1 -16v-20q-2 -10 1 -14 q2 -3 11 -5q7 -3 15 1q2 1 8 2.5t8 1.5q2 1 9 1.5t10 0.5q15 0 23 3q8 2 16 0q7 -3 12 -3q3 0 12 2q5 3 25 3q18 0 22 -4q1 -3 4 -3t10 4q9 4 18 4q10 1 27 -3q16 -4 70 -4q40 0 47.5 -0.5t12.5 -4.5q7 -4 11 -16q2 -6 2 -19q-1 -9 -7 -15q-7 -7 -8 -13q-2 -9 -3 -12 q-3 -4 -16 -12q-13 -6 -17 -6q-7 0 -14 -3q-6 -2 -21 -2q-14 2 -17 4q-5 3 -15 3q-5 0 -18 -3q-2 -2 -18 -4q-18 0 -28 1q-17 3 -26 0q-9 -1 -16 1q-10 3 -15 2q-5 0 -11 -2q-9 0 -13 2q-8 2 -14 0q-10 -3 -20 -3q-6 0 -20 3q-7 3 -14 0l-13 -3q-1 0 -9 3q-5 3 -22 2 q-15 0 -25 -4q-7 -2 -30 -2q-23 1 -33 6q-9 6 -20 8q-9 0 -15 5q-2 1 -5 3l-2 2q-2 2 0 10q-1 11 -2 12q-1 6 0.5 12t4.5 12q4 6 14 58q10 51 9 61q0 8 3 22q5 11 11 38q1 7 2 13q3 13 3 27q1 18 4 31q6 18 7 20q2 6 6 22q1 9 3 17q7 34 3 45q-3 10 -2 15q0 4 3 10 q3 4 10 27q1 6 3.5 15.5t2.5 10.5t1 8t3 18.5l4 22.5l5 22q4 24 8 40q5 20 6 31q0 7 5 22q5 11 4 20q0 10 1 17q2 9 7 23q7 16 9 17q3 3 14 6z" />
<glyph unicode="M" horiz-adv-x="897" d="M284 727q7 2 20 1h27q13 0 18 -3q6 -2 18 -2q14 0 19 -3q5 -2 6 -4l7 -6q7 -6 7 -8t5 -10q3 -8 1 -20q0 -10 1 -25q1 -13 1 -14q0 -2 3 -14q4 -16 4 -19q-1 -1 0 -5.5t1.5 -10t1.5 -9.5q3 -22 5 -25q1 -6 0 -11q-2 -8 -1 -17q1 -3 1.5 -9.5t0.5 -7.5q-1 -6 3 -14 q3 -6 3 -21q-1 -15 1 -21q2 -8 0 -16q-1 -7 1 -17q2 -6 0 -13q-1 -6 1 -10q1 -5 10 -16q7 -8 8 -11t-2 -11q-3 -10 -1 -15q1 -5 1 -16q-2 -9 1 -19q2 -6 2 -19q-1 -13 0 -14q2 -5 1 -14q0 -10 2 -15l2 -3q1 -4 1 -6q1 -6 -1 -19q-1 -15 0 -20q2 -5 0 -16t1 -20q2 -8 7 -9 q5 0 7 3q1 1 6 16q4 14 10 19l9 11q3 8 5 17q2 11 7 16q5 6 12 16q9 12 10 19q2 9 6 15q2 4 10 19q1 3 5 12t5 12q5 12 10 18l11 16q7 8 10 22q3 16 7 22q2 1 6 11q2 8 4 11q2 5 8 10t11 16q5 10 5 17v9q0 3 7 9q6 4 10 12q0 1 4 9.5t7 13.5q8 15 14 24q5 7 7 16q0 2 2 9.5 t3 10.5q3 11 9 16q3 2 8 8q0 2 2.5 8t3.5 8q6 13 6 20q1 7 7 12q6 7 8 11q7 14 7 17q5 12 10 17q5 7 10 9t10 2t12 6q6 5 13 7q11 3 12 4q5 3 13 1q4 -1 14 -1t15 1q10 2 17 -1q6 -3 15 -3t16 3q11 4 16 4q6 0 9 -3q5 -2 6 -8t0 -11q-2 -7 0 -16q1 -7 -1 -16q0 -2 -2.5 -6 t-3.5 -5q-3 -6 -5 -19q-3 -14 -2 -24q1 -8 0 -15v-6v-7q2 -6 0 -20q-1 -3 -2 -8q-2 -11 -5 -29q-1 -13 -2 -17q-2 -9 -7 -16q-5 -8 -10.5 -38t-3.5 -35q2 -6 -4 -34q-2 -9 -3 -15q-2 -14 -6 -21q-4 -6 -10 -36l-7 -38l-7 -36l-9 -43q-1 -16 -4 -23q-1 -3 -4 -33 q-2 -12 -3 -19q-2 -8 -5 -14q-4 -10 -7 -24q-3 -18 -2 -22q2 -8 -1 -15q-3 -8 -6 -23t-7 -23q-3 -7 -8 -11q-2 -2 -15 -7q-12 -5 -33 -6q-11 -1 -15 -1q-7 0 -16 5q-10 6 -11 10q0 2 1 9q1 3 -2 19t-2 22q-1 7 5 14q4 6 6 18q2 11 0 16q-1 4 0 10q1 5 5 11q3 3 6 20 q2 9 6 34q9 48 15 54q5 8 6 13v5t-1 5q-2 6 -1 10q0 2 2.5 6.5t2.5 6.5q3 4 5 14q0 12 -1 14q-1 8 3 24q3 17 1 22q-1 4 0 9q1 7 2 9q1 0 4 3.5t5 4.5q5 6 6 10q1 5 -0.5 9t-0.5 18q1 17 0 20q-2 4 0 17q2 10 6 20q2 3 4.5 11.5t2.5 10.5q4 12 2 18l-1 9q0 3 6 11q4 6 10 35 q6 31 5 33q-1 5 -3 5q-1 0 -9 -12q-7 -10 -8 -15q-1 -4 -5 -10q-3 -4 -11 -19q-6 -12 -7 -16q-1 -7 -10 -19q-7 -14 -11 -24q-5 -12 -10 -19q-4 -5 -12 -14q-6 -5 -7 -9l-3 -16q-3 -13 -11 -23q-7 -10 -12 -23q0 -2 -4 -9.5t-5 -9.5q-2 -6 -13 -22q-7 -11 -11 -22 q-1 -8 -6 -14q-1 -2 -5 -8q-2 -3 -3 -4q-4 -4 -11 -19q-1 -3 -8 -19q-6 -10 -6 -11q-4 -6 -5 -16q-3 -11 -7 -20q-2 -3 -5 -9t-3 -7q-4 -8 -10 -12q-8 -9 -12 -15q-5 -8 -6 -11q0 -2 -4 -12q-5 -7 -9 -20q-1 -7 -12 -23q-10 -18 -12 -25q-5 -13 -10 -20q-8 -10 -13 -19 l-9 -18q-3 -8 -11 -15q-9 -7 -12 -7q-2 0 -10 -5t-21 -3q-11 3 -24 3q-10 0 -17 2q-11 6 -16 10q-9 8 -9 10l2 15q5 11 2 28q-5 23 -4 24q-4 7 -3 11q0 2 -1 8q0 2 -1 15q0 12 -2 17q-3 9 -6 12q-4 4 -2 13t-2 14q-3 3 -1 17q3 13 0 17q-2 8 -1 17q1 10 -3 19q-5 9 -4 19 q1 12 -1 13q-5 3 -5 4q-3 1 0 23q4 23 1 34q-2 9 -7 27q-5 12 -5 28q3 14 1 22q-1 4 -2 12q-1 2 0 3q-2 9 -2 14q1 3 -1 18q-1 9 -6 15q-4 5 -3 16q-2 20 -2 21q0 3 -1 9q-2 4 -1 5q-1 6 -0.5 9t-1.5 11q-3 4 -2 10q1 2 0 8q-1 4 -5 9t-2 19q3 12 2 16q-2 3 -5 3q-4 0 -7 -3 q-5 -5 -6 -12q0 -11 2 -15q2 -6 1 -14q-1 -5 -5 -20q-4 -12 -6 -24t-3 -21q-2 -18 -1 -25q1 -6 -1 -15q-2 -10 -6 -14q-3 -6 -6 -22q-1 -7 -4 -20q-8 -42 -12 -51q-4 -11 -4 -14t3 -8q4 -8 2 -15q0 -9 -6 -20q-6 -12 -6 -19q-2 -6 1 -16q1 -9 -5 -20q-6 -9 -9 -25 q-3 -15 -1 -18q1 -6 0 -11q-1 -6 -4 -10q-4 -6 -11 -44q-8 -37 -6 -48q2 -9 -4 -38q-6 -28 -8 -32q-2 -2 -11 -12q-2 -2 -7 -6l-5 -5q-3 -5 -7 -7t-8 -2q-8 0 -14 3q-7 4 -17 4q-10 2 -13 4q-6 5 -10 15q-7 10 -7 18q0 7 6 16q5 10 6 19q-2 8 2 16t6 19t2 23q-1 6 4 38 q3 17 3 35q-1 6 0 8q0 3 5 10q6 11 7 21l4 23l5 22l12 61l12 62l6 32q4 21 8 28q4 10 5 13q1 4 0 10q-2 6 1 22q3 18 3 20q-1 1 9 51q9 49 13 59q3 10 4 18q0 5 3 21q3 11 10 18q2 2 5 6t5 6q5 6 11 11q7 6 15.5 8t15.5 5z" />
<glyph unicode="N" horiz-adv-x="805" d="M771 742l12 1q6 -1 13 -4l15 -4q3 0 12 -11q8 -13 8 -16l-20 -102q-19 -95 -17 -104q2 -4 -2 -24q-4 -18 -9 -36q-5 -17 -7 -19q-1 -5 1 -14q1 -7 -1 -20q-2 -9 -6 -19q-5 -8 -4 -14q1 -4 0 -13q-1 -1 -7 -19q-6 -11 -6 -20l-2 -24q2 -16 2 -23q1 -6 0.5 -9t-3.5 -8 q-5 -6 -7 -17t-6 -19q-7 -12 -13 -42q-5 -30 -4 -38q1 -9 1 -13q-1 -3 -6 -12q-4 -5 -4 -11q-1 -6 1 -14q0 -10 -1 -14q-1 -5 -9 -13q-8 -9 -11 -21q-4 -13 -10 -23q-7 -10 -12 -12q-3 -2 -39 -2t-44 -3q-7 -2 -11 -2h-3q-4 2 -7 5q-5 6 -6 9q-1 1 -5.5 6t-7.5 8 q-9 9 -11 22q-5 12 -10 17q-6 3 -6 20q-1 16 -3.5 19t-6.5 11q-5 7 -7 17q-1 8 -4 16q-3 6 -6 19t-6 16q-4 4 -7 9q-3 10 -3 15q-1 5 -5 16q-3 5 -3 15q0 11 -3 17q-3 8 -10 11q-5 2 -6.5 3.5t-1.5 8.5q0 6 -3 24l-7 25q-3 8 -9 14q-6 5 -8 13t-2 21t-5 17q-3 7 -3 10 q2 6 0 10q0 4 -4 7q-5 2 -7 9q0 1 -3 6t-5 7q-4 6 -6 16q-2 11 -14 25q-8 12 -9 15.5t1 13.5q2 11 -2 23q-4 11 -7 12q1 1 -1 4.5t-3 5.5q-3 7 -4 15q0 5 -6 18l-5.5 8.5t-2.5 6.5q-3 5 -8 4q-4 0 -8 -5q-3 -5 0 -10q1 -6 -2 -24q-2 -17 -9 -29q-5 -11 -6 -18q-1 -4 -3 -18 q-2 -18 -5 -33q-2 -7 -3 -12q-4 -19 -3 -27q3 -5 0 -23q-3 -23 -1 -27q0 -9 -5 -18q-5 -8 -18 -77q-13 -72 -12 -81q0 -13 -4 -21q-4 -7 -13 -54t-8 -50q2 -4 1 -11q-2 -8 -6 -13q-3 -8 -5 -19q-3 -13 -6 -17q-3 -7 -11 -10q-8 -5 -19 -9q-8 -1 -20 -4h-4q-6 0 -14 4 q-13 6 -15 7q-2 3 -8 15q-5 14 -8 17q-3 8 -2 16q1 5 5 13q4 9 4 19t1.5 18t7.5 16q6 10 5 17q1 2 1.5 7.5t1.5 8.5q1 9 1 15q0 7 3 18q4 12 4 22q-1 11 3 20q5 10 13 48q6 40 5 43q-2 6 1 19q1 8 6 20q4 8 9 34q5 25 4 36q-2 6 -1.5 8.5t5.5 10.5q6 14 7 18q2 8 0 13 q-1 8 1 17q2 8 5 16q4 7 9 24q4 15 3 26q-1 6 1 28q4 20 9 29q4 8 4 19q-1 10 2 19q5 6 6 16q2 8 0 20q0 12 1 16q1 3 7 10q10 11 11 13q3 7 10 11q6 3 16 5q8 2 14 4q4 2 9 2q7 0 10 -3q3 -2 9 -2t15 -4q5 -1 22 -6q18 -3 26 -4q11 -1 19 -5q4 -4 6 -11q4 -6 4 -16 q1 -4 4 -21q3 -12 8 -18q0 -2 2 -6t2 -6q3 -5 10 -9q7 -5 8 -15q1 -12 5 -16q3 -8 2 -12q2 -12 5 -18q1 -7 8 -19q4 -3 7 -13q0 -8 3 -12q4 -10 5 -12q2 -8 0 -20q-2 -13 4 -17q6 -5 9 -10q0 -2 2.5 -8t3.5 -9q2 -5 8 -27q3 -18 7 -20q6 -2 5 -6q1 -4 5 -6q4 -3 9 -14 q4 -8 5 -16q1 -1 1.5 -5.5t0.5 -5.5q4 -7 4 -19q4 -14 8 -18q4 -3 7 -11q4 -9 5 -10q3 -4 1 -17q-1 -11 4 -17q5 -8 5 -11q-1 -4 4 -12q3 -9 4 -14q0 -8 2 -11q0 -1 1 -11q0 -6 5 -10q5 -7 6 -10q0 -1 6 -18q5 -12 7 -15t4 -5q5 -1 8.5 2t6.5 24q2 6 3.5 18.5t2.5 16.5t2 12 t1 11q-1 9 3 13q3 6 6 20q2 19 1 22q-2 5 0 13l5 23q3 15 9 35l4.5 13.5t3.5 8.5q2 5 0 12q-1 3 -1 8.5v6.5q-2 8 3 19q7 18 8 22q2 7 6 25q2 11 0.5 20t2.5 24q6 18 9 34q3 18 1.5 31t3.5 21q3 8 3 19q-1 12 3 33q2 9 5 25q9 45 14 50q2 2 13 6q7 1 14 7q3 5 16 6z" />
<glyph unicode="O" horiz-adv-x="801" d="M568 672q-5 2 -39 2t-38 -2q-3 -1 -18 -3q-13 -1 -19 -7q-9 -6 -17 -7q-8 -2 -18 -7q-10 -7 -12 -11q-3 -6 -6 -8q-1 -1 -10 -3q-7 0 -18 -5q-10 -5 -13 -11q-4 -8 -11 -18q-9 -12 -15 -14t-7 -5q-1 -1 -4 -7.5t-5 -9.5q-7 -15 -13 -20q-7 -6 -12 -15q-6 -14 -11 -27 q-5 -17 -10 -26q-5 -8 -7 -20q0 -1 -2.5 -16.5t-4.5 -26.5l-4 -25q-2 -11 -7 -20q-5 -8 -5 -10q-1 -4 2 -15q3 -16 3 -17q-1 -2 -4 -10q-4 -4 -6 -14q-2 -9 0.5 -12t6.5 -5q2 -2 -2 -30t-2 -32q3 -3 7 -14l7 -14q4 -5 5 -8q1 -4 1 -12q-1 -7 2 -10q0 -1 8 -3q5 -2 6 -3.5 t1 -7.5q0 -8 1 -13q2 -5 8 -10q12 -6 15 -7q9 -3 10 -7q2 -6 6 -7q8 -6 10 -9q7 -5 23 -5q14 1 20 -2q6 -2 5.5 -4t1.5 -2h3q3 0 17 1q9 1 26 5q10 3 19 -1q8 -3 14 -3q3 0 10 2q7 4 15 4q7 1 27.5 10t25.5 17q5 7 18 13q12 6 16 11q6 7 25 22q21 19 25 25q0 2 3 7t3 7 q4 8 8 18q2 11 9 18l11 16q5 6 11 27q4 17 8 24q4 4 10 35t4 35q-1 9 1 14q1 9 5 15t5 10q0 3 -4 13q-4 8 -3 17q2 7 5 13q4 4 6 14q1 8 1 16q-1 7 -1 17q1 13 -2 16q-1 3 -6 13q-3 6 -4 14q0 5 2 16q2 7 -8 22q-9 14 -16 23q-5 7 -5 16q1 8 -8 16q-1 2 -8 7.5t-9 8.5 q-11 8 -25 10q-12 0 -17 3q-3 2 -13 4q-10 0 -13 4zM533 762q6 2 13 2q5 0 15 -1q6 0 16.5 -0.5t11.5 -0.5t8 0.5t11 0.5q13 0 23 -6q17 -8 18 -8q5 0 10 -3l11 -3q13 -3 19 -6q15 -7 17 -10q4 -2 12 -5q7 -2 15 -7q9 -6 11 -9q5 -3 6 -8q0 -2 8 -18q7 -13 13 -13q4 0 9 -2 q4 -2 5 -8t3 -13q5 -7 6 -16q3 -9 3 -15q2 -7 5 -9q6 -3 5 -9q1 -9 2 -11q2 -5 3 -18q2 -9 0 -22q-2 -10 2 -16q3 -4 5 -14q0 -11 4 -21q3 -12 2 -27q-4 -16 -2 -21q2 -4 1 -9t-4 -11q-3 -7 -3 -17q1 -8 0.5 -11t-4.5 -10q-5 -10 -4 -16v-18q-1 -4 -2 -7q-1 -5 -5 -15 q-1 -3 -8 -19q-6 -14 -8 -17q-3 -8 -10 -37q-4 -22 -6 -26.5t-8 -8.5q-7 -6 -7 -9q-2 -7 -6 -11q-5 -12 -8 -18q-3 -9 -10 -17l-8 -8q0 -1 -8 -9q-9 -6 -10 -11q-3 -5 -17 -20q-16 -17 -16 -18q-1 -3 -4 -11q-3 -9 -10 -12l-17 -11q-13 -9 -15 -12q-7 -6 -16 -10 q-11 -5 -14 -9q0 -3 -6.5 -5t-8.5 -2q-4 0 -10 -5q-12 -7 -13 -7q-7 -4 -10 -8q-7 -6 -15 -8l-16 -5q-4 -2 -26 -2t-36 -6q-13 -5 -18 -5q-4 0 -12 2q-9 2 -18 5q-11 1 -20 0q-10 -3 -26 -1q-19 0 -23 3q-9 3 -21 3q-17 1 -30 7q-22 9 -23 9q-7 3 -16 5q-14 6 -22 11 q-14 9 -24 22l-15 15q-4 1 -8 11q-5 7 -13 10q-5 1 -6.5 3t-1.5 7q0 10 -3 15q-3 8 -5.5 11t-6.5 13t-9 16q-5 7 -4 14q-1 9 -4 17q-1 12 -1 13q0 2 -3 8q-2 4 -5 14q-1 5 1 14q1 2 3 7t3 7q2 10 -1 17q-2 4 -5 12q0 2 16 95l17 96q2 6 6 14q6 9 5 14q-1 6 0 11t6 13 q5 6 12.5 14t7.5 9q0 2 4 8q1 5 8 12q6 6 9 16q4 12 8 17q2 2 6.5 9.5t5.5 10.5q6 12 15 19q8 5 8 8q1 1 7 11q5 8 33 31q26 23 36 27q13 5 15 7q9 5 18 8q13 6 15 6t11 4q15 7 23 9q13 4 24 7q8 2 15 5q5 1 42 3q35 1 42 4z" />
<glyph unicode="P" horiz-adv-x="600" d="M418 649q-9 4 -21 4t-24 -2q-20 -4 -21 -4q-9 -2 -18 -6q-8 -4 -12 -9q-2 -6 -1 -12q0 -12 -1 -18q-1 -8 -6 -25q-5 -14 -6 -23q-2 -10 0 -22q2 -14 1 -18q-1 -5 -5 -15q-3 -4 -11 -19q-5 -11 -6 -17t0 -10q2 -6 -2 -25q-4 -21 -2 -24q0 -6 3 -6q3 -1 16 -5q15 -3 48 -3 q35 0 41 3q6 2 26 4q20 1 24 5q3 4 8 8q3 3 10 5q9 2 15 7t17 10q9 4 17 11q7 5 9 8t5 12q3 10 13 25q8 11 10 22q1 4 3 16q5 24 4 30q-1 1 -2 11q-1 9 -1 13q-3 8 -2 13q2 7 -1 11q-1 6 -10 12q-5 4 -16 10q-8 2 -11 8q-5 6 -11 6q-1 1 -4.5 2.5t-5.5 1.5q-2 2 -33 2 q-27 0 -37 3zM289 742q4 1 10.5 1t11.5 -1q11 0 16 -3q3 -2 41 -2q39 -1 44 -3q2 -1 15 -4q12 0 16 2q8 4 28 5q12 1 17 1q8 0 16 -2q11 -4 12 -5q1 0 3.5 -2t4.5 -3q6 -3 15 -3q8 0 14 2q4 3 11 3q5 0 14 -5q6 -5 10 -5q1 0 4.5 -3t6.5 -4q9 -7 10 -10q0 -1 7 -7 q5 -3 8 -11q2 -6 8 -9q10 -8 12 -10q2 -4 10 -10q5 -4 7 -16q2 -7 2 -20q0 -12 2 -17q0 -6 2 -18q2 -9 6 -15q1 -2 2.5 -5.5t1.5 -5.5q1 -2 0 -5q-1 -5 -5 -12q-5 -8 -13 -48q-7 -35 -15 -47l-12 -18q-6 -5 -10 -13q-2 -7 -16 -20l-29 -24q-11 -9 -24 -16q-9 -4 -16 -10 q-8 -7 -12 -11q-11 -9 -20 -13q-11 -5 -28.5 -6t-27.5 -6q-7 -5 -17 -7q-9 -1 -25 3t-26 1q-9 -3 -39 -4q-17 -1 -46 -1q-17 0 -19 -2q-2 0 -8 -5q-3 -3 -17 -70l-14 -75q-2 -8 -6 -18q-5 -10 -4 -14q0 -7 2 -11q2 -3 0 -13q-1 -7 -6 -26q-7 -33 -9 -37q-2 -3 -12 -15 q-9 -9 -21 -14q-10 -4 -29 -4q-15 0 -24 2q-9 5 -11 8q-5 4 -8 16q-3 11 0 27q1 15 -2 21q-3 10 -3 15q-1 9 2 14q0 1 2 3q3 6 5 9q4 6 5 19q1 14 4 30q1 10 5 28q0 2 2.5 11.5t3.5 14.5q3 20 3 25q3 13 5 18q3 10 2 15q-2 6 1.5 25t8.5 25q3 6 5 17q2 12 1 16q-2 6 2 25 t8 25q3 4 6 22q3 15 2 23q1 6 3 13q3 6 4 12q2 7 0 15q0 8 3 16q5 7 19 83t13 79q-2 6 -1 11q-1 5 5 13q3 8 5 8t8 10q7 10 11 13t7 3q2 0 14 8q9 8 20 8z" />
<glyph unicode="Q" horiz-adv-x="799" d="M502 644q-2 2 -17 2q-12 0 -19 -2l-13 -4q-8 -2 -13 -6q-6 -5 -13 -7q-6 -1 -18 -7t-15 -9q-2 -3 -16 -15q-11 -9 -17 -11q-5 0 -8 -4q-1 -1 -11 -14q-5 -7 -16 -19q-9 -8 -16 -21l-3 -9q-4 -10 -5 -14q-8 -17 -12 -22q-7 -10 -12 -31q-6 -21 -9 -25q-4 -5 -15 -56 q-10 -50 -8 -55t1 -10q-1 -7 -5 -13q-5 -9 -4 -18q3 -8 0 -20q0 -12 3 -22q1 -2 2.5 -10t1.5 -12q0 -8 1 -20q-1 -8 1 -13q4 -4 9 -7q7 -5 12 -13q6 -10 7 -10q3 -4 4 -8q2 -7 8 -11q7 -4 16 -15q11 -11 17 -14q5 -2 13 -8q4 -5 8 -5q3 0 10 -4q5 -3 44 -3h20q18 0 27 2 q1 0 8 1.5l12 2.5q6 0 15 3q2 2 12 4q9 3 13 6q2 1 17 8q10 2 23.5 9t29.5 19q12 10 16 16q3 6 9 11q7 5 9 15q2 8 8 16t10 10q5 3 8 11q4 9 8 13q5 9 6 15q4 10 5 13q5 6 7 20q5 14 9 23q4 5 10 37t4 38q0 8 3 16q5 8 6 12q1 5 -1 14q0 2 -0.5 9.5t-1.5 10.5q-1 4 0 21 q2 8 1 20q-1 4 1 16q3 10 -3 20q-5 11 -8.5 13t-2.5 13q0 13 -1 19q0 2 -1 6v4l-6 4q-2 1 -5 2t-3 2q-3 3 -2 7q-1 7 -2 8q-1 3 -9 9q-9 7 -14 14q-7 9 -11 11q-8 3 -12 4q-7 0 -18 6l-11 8q-3 1 -14 1q-9 -1 -15 2q-8 3 -11 3q-11 -3 -12 -3q-6 -2 -13 -2q-9 0 -13 2z M478 735h11q3 -1 17 -1q9 0 35 2q12 1 16 1q9 0 14 -4q8 -3 39 -3q30 0 38 -4q6 -3 15 -5t12 -7q4 -5 12 -6q7 0 18 -5q6 -4 10 -4q4 -5 9 -9q7 -7 12 -16q3 -7 8 -9q5 -3 13 -5t8.5 -10t7.5 -12q6 -3 8 -10q2 -6 5 -12q4 -5 9 -23l14 -44q7 -27 8 -45q0 -22 -3 -34 q-3 -15 2 -27q4 -14 2 -27q-3 -14 -9 -25t-4 -19v-17q-1 -4 -10 -24q-7 -16 -9 -18q-3 -4 -5 -16q-3 -14 -7 -20q-5 -11 -8 -20q-5 -14 -12 -25q-7 -10 -11 -20q-5 -12 -8 -17q-7 -9 -12 -12q-7 -4 -9 -10q-4 -8 -4 -10q-1 -3 -10 -14q-8 -9 -20 -18q-3 -3 -9.5 -8t-7.5 -6 q-7 -4 -10 -9q-5 -5 -8 -7q-5 -2 -8 -6l-1 -8q-1 -5 3 -7q5 -2 31 -2q29 1 35 4q7 3 23 3q8 1 11 1q8 0 20 -5q13 -5 18 -12q4 -5 5 -12q-1 -5 0 -13q0 -6 -1 -11q0 -4 -6 -12q-4 -6 -8 -9q-4 -2 -17 -2q-14 -2 -23 -5q-8 -2 -35 -2h-36q-14 0 -32.5 0.5t-28 1t-10.5 0.5 t-10 -0.5t-15 -0.5q-18 -2 -25 -4q-4 -3 -23 -5q-18 -1 -25 2q-7 2 -21 0l-22 -6q-7 -2 -23 -1q-9 1 -33 1q-10 0 -28 -3q-6 -2 -14 -2q-1 1 -22 5t-27 2q-8 -1 -15 2q-2 1 -7 3t-7 2q-6 2 -13 8l-23 12q-15 7 -19 14q-6 8 -11 10q-7 4 -9 8t-8 8q-8 3 -14 12q-4 7 -14 16 q-8 9 -10 15q-3 9 -4 9q-3 0 -7 17q-6 18 -8 20q-2 4 0 20q1 19 -2 24q-2 9 -6 16q-3 3 -4 11q-1 6 -4 19q-3 12 0 28l4 23l4 21l4 19l5 25l2 10q2 9 4 13q4 4 12 38q5 19 9 40l3 16q0 9 7 19l17 28q9 19 18 31q5 8 10 17q2 7 13 21q10 13 16 16l10 3q5 2 8 7q4 6 5 13 q2 9 4 13q2 3 10 8q14 9 17 12q11 9 26.5 16t20.5 7q6 0 11 6q1 2 5 5.5t5 4.5q4 5 19 11q13 6 25 6q13 0 22 2q8 3 20 5q12 3 17 6z" />
<glyph unicode="R" horiz-adv-x="704" d="M447 635q-8 4 -42 5h-38q-1 -1 -4 -2t-4 -1q-7 -3 -12 -3q-8 -2 -13 -4q-6 -2 -9 -8q-4 -4 -7 -21q-2 -9 -6 -37q-2 -9 -6.5 -34t-3.5 -28q-2 -12 -7 -16q-3 -4 -7 -11q-1 -2 -1.5 -5.5t-0.5 -6.5q1 -7 4 -11t1 -15q-2 -10 0 -13q4 -2 8 -2q2 0 7.5 -1.5t7.5 -1.5 q8 -2 17 -2h8q12 0 21 4q5 3 27 3q21 0 27 -3t29.5 -3t32.5 3q6 2 12 2q5 0 11 -2q5 -3 20 -3q14 -1 19 3q3 1 4 5q0 1 9 7q7 2 21 11q20 14 21 15q9 9 15 18q6 11 8 22q1 5 0 12t4 19q4 8 4 11q1 3 1 7q-3 5 -2 17q0 10 -5 21q-7 13 -10 14q-4 1 -11 9q-4 5 -20 15 q-17 9 -26 9q-3 0 -10.5 1.5t-10.5 2.5q-10 3 -17 0q-8 -3 -31 -4h-13q-11 0 -22 2zM345 730q6 2 18 2q4 -1 18 -1h21q27 0 46 -1q34 -1 39.5 -4t16.5 -3q10 0 26 2q15 3 22 1q5 0 12 -6q7 -4 11 -4q5 0 12 2q6 1 12 5q3 3 9 3q4 0 10 -5t10 -6q9 -2 28 -14q20 -11 29 -14 q3 0 12 -5l6 -6q0 -3 8 -13q1 -3 5.5 -8.5t5.5 -7.5q3 -6 8 -10q7 -4 6 -12q1 -3 5 -20q4 -13 0 -40q-5 -24 -3 -34q1 -9 -2 -20q-3 -14 -14 -28l-10 -12.5t-7 -9.5q-6 -5 -8 -11q-1 -5 -4 -11q-3 -5 -16 -18q-10 -8 -21 -20q-6 -7 -20 -11q-13 -5 -15 -5l-7 -4q-6 -5 -7 -7 q-3 -4 -5 -12q-1 -7 2 -11t4 -4q2 0 6 -4q2 -3 9.5 -7t10.5 -11q3 -4 8 -18q3 -10 5 -20q1 -5 1 -18q1 -18 0 -21l3 -18q0 -10 -1 -25q-2 -17 2 -22q3 -4 1.5 -11t-4.5 -11q-2 -6 -1 -15q2 -11 -3 -37t-1 -33q3 -4 4 -17q0 -12 2 -18q1 -4 1 -7l-7 -14q-5 -11 -10 -15 q-4 -2 -16 -2q-14 0 -23 -4q-10 -3 -23 -3q-12 0 -17 2q-4 1 -11 12q-6 10 -7 10q-2 3 -2 7q-2 6 0 16t0 16q-2 5 2 31q4 24 2 41q0 4 -2 19q-1 3 3 22q4 14 4 17.5t-3 10.5l-7 14q-3 2 -3 18q2 14 -3 20t-4.5 8t-2.5 16q-4 12 -8 17t-12 7q-1 1 -8 4t-10 4q-20 6 -29 8 q-12 3 -20 3q-4 0 -14 -2q-9 -3 -18 -3q-7 0 -18 4q-10 3 -28 3q-17 0 -23 -2q-6 -3 -11 -3t-10 2q-1 1 -10 4q-7 2 -14 0q-7 -1 -13 -5q-5 -4 -9 -12q-5 -25 -8 -46q-6 -39 -5 -47q2 -7 -3 -19q-7 -12 -9 -25q-5 -15 -8 -20q-3 -3 -7 -14q-3 -8 0 -15q1 -2 2 -11t2 -11 q2 -17 -3 -26t-6 -13q-1 -7 -1 -13q-1 -11 -8 -20q-7 -7 -10 -15q-1 -4 -8 -10q-7 -4 -9 -4q-1 0 -10 -3q-7 -3 -26 -3h-9q-9 0 -20 4q-9 4 -14 10q-4 7 -4 12q-1 6 10 61t16 64q5 7 8 25q4 19 2 26t2 24q5 18 7 24q1 5 3 25q-1 13 2 28q2 3 5.5 18.5t4.5 21.5q2 10 3 16 q2 13 2 23q-1 9 3 16q6 12 6 13l13 68q12 65 11 77t1 18q1 5 3 11q1 4 3 13t3 12q1 9 4 31q1 6 2 11q2 9 7 20q4 9 6 19q1 3 2.5 8t1.5 6q6 8 9 11l8 8q0 1 3.5 4t14.5 3q10 0 19 4q7 4 18 6q13 0 18 -1q10 -2 22 0z" />
<glyph unicode="S" horiz-adv-x="637" d="M417 768q6 2 11 2h4q5 0 10 -3t10 -3q1 0 13 3q9 3 16 0q15 -3 20 -3q9 0 20 -2q7 -3 23 -5q17 -2 26 -7q2 -1 11 -5t13 -5q11 -4 18 -4q6 -2 15 -8q7 -7 9 -7q2 -2 3 -5q1 -7 12 -18q7 -12 12 -27q5 -16 4 -21q1 -1 2 -5t0 -6q2 -5 4 -5q3 -3 3 -8q1 -6 -1 -12 q-1 -5 1 -15t-4 -21q-6 -14 -8 -16q0 -3 -3 -7q-4 -2 -14 -4q-6 -1 -19 -1q-8 0 -16 2q-5 3 -20 5q-14 0 -19 4q-8 6 -13 12q-6 8 -8 23q-2 18 -1 19q0 5 -9 14l-12 12q-1 0 -10 7q-3 4 -12 6t-11 4q-2 1 -14 3q-10 2 -12 4q-3 1 -18 3q-6 1 -17.5 1t-22.5 -1 q-19 -1 -23.5 -2t-10.5 -6q-8 -7 -13 -7q-5 -1 -10 -6q-4 -6 -10 -6q-8 -2 -18 -7q-7 -2 -13 -7q-3 -2 -9 -14l-5 -10.5t-5 -11.5q-2 -7 -7 -15q-3 -4 -1 -12q0 -12 -1 -18q-1 -11 2 -24q4 -9 5 -20q0 -5 7 -17q10 -11 17 -13q3 -1 9 -4q3 -1 4 -1q4 -4 16 -9 q4 -2 11.5 -4.5t8.5 -3.5q2 0 10 -2.5t13 -3.5q16 -3 24 -9q5 -5 14 -8q3 -1 25 -3q21 -2 24 -6q4 -5 6 -5q1 0 5 -4q3 -3 2 -6q0 -2 3.5 -4t9.5 -2q9 0 12 -1q4 -1 15 -5q8 -3 10 -9q3 -6 6 -6q4 -2 5 -6q2 -6 9 -7q4 -1 15 -6q11 -4 13 -9q0 -1 3 -3.5t4 -3.5q4 -3 4 -10 q2 -9 7 -12q7 -4 8 -12q0 -2 1 -7t1 -6q1 -1 1.5 -4.5t-0.5 -5.5q1 -10 2 -11l3 -18q1 -13 -4 -44q-5 -34 -5 -36q1 -2 0 -4q0 -3 -5 -7q-6 -7 -11 -15q-2 -3 -5 -9.5t-3 -7.5q-2 -4 -7 -13l-7 -14q-3 -9 -11 -17q-1 -2 -5 -6t-4 -5q0 -2 -6 -4q-5 -3 -9 -8l-12 -15l-20 -16 q-11 -7 -30 -14q-16 -6 -26 -9q-6 -2 -16 -8q-8 -5 -16 -7q-3 0 -12 -3q-6 -2 -33 -4q-30 -2 -34 -4q-8 -3 -30 -3h-41q-22 2 -31 5l-16 6q-4 3 -11 3t-14 3q-11 4 -16 4q-10 0 -14 1q-8 1 -10 6q-2 4 -21 15t-21 19l-6 10l-8 16q-9 18 -11 23q-1 6 0 10q1 5 -1 18l-5 23 q0 3 -0.5 8t-0.5 6q1 8 8 25q4 18 11 29q6 8 11 11q4 1 42 1q36 -1 44 -5q8 -5 9 -12q4 -8 1 -25q-2 -18 3 -24q3 -6 3 -15q-1 -8 7 -17q8 -12 8 -13q6 -7 13 -12q11 -10 17 -12q4 -2 22 -4q14 -3 25.5 -1t25 0t24 0t18.5 2t12 2t14 8q7 5 16 8q10 2 12 4q6 3 19 15 q14 12 24 22q8 8 10 13.5t6 27.5q6 30 4 37q-1 5 -2 15q1 8 -6 15q-7 6 -11 21l-6 16q-4 2 -10 4q-3 1 -9.5 3t-8.5 3l-14 8q-5 5 -18 6q-12 2 -18 4l-14 6q-1 0 -7.5 1.5t-10.5 2.5q-8 1 -26 11q-15 10 -20 10q-3 0 -16 6q-3 2 -19 9q-7 2 -23 9q-13 4 -22 12q-6 5 -8 5 t-11 11l-12 10l-9 9q-8 10 -10 18q-2 7 -1 20q1 11 -4 15q-3 4 -6 17q-2 15 0 25q2 12 1 21q-1 12 -0.5 17t9.5 27q8 23 13 30q4 9 7 22q2 12 6 17q3 6 16 15q12 10 15 10q2 0 5 4q4 5 6 11q2 7 11 14q13 11 20 16q10 8 19 10q10 3 16 5q10 5 11 9q3 5 8 5q7 3 19 3 q11 0 26 6q11 5 22 7z" />
<glyph unicode="T" horiz-adv-x="667" d="M632 740q4 2 9 2q2 0 11 -3q4 -3 55 -3q54 2 56 2q7 2 11 0q3 0 6 -6q2 -3 7 -9q6 -4 7 -13q2 -9 -1 -25q-3 -14 -6 -20q0 -3 -6 -8q-1 -1 -5 -4.5t-6 -5.5q-6 -5 -13 -9q-9 -4 -17 -4q-9 -2 -17 1q-7 3 -13 2q-2 -1 -13 -1h-17h-18q-6 0 -28 2q-18 1 -22 0q-7 -3 -10 -4 q-10 0 -15 1q-9 1 -21 -1q-11 -4 -23 -2q-11 1 -15 -3q-3 -3 -7 -18q-3 -14 -7 -20q-3 -6 -4.5 -14t-1.5 -14q3 -3 2 -9t-6 -12q-3 -5 -14.5 -66t-10.5 -65q2 -3 1 -10q-1 -6 -5 -11q-3 -5 -13 -54q-8 -54 -9 -59q-2 -10 -2 -18q1 -8 -4 -14q-3 -5 -7 -23q-2 -19 0 -23 q1 -7 -2.5 -26.5t-8.5 -27.5q-1 -2 -6 -13q-1 -5 0 -11t-1 -18q-5 -24 -6 -37q-1 -8 -2 -18t-1 -11q0 -5 -7 -16q-7 -10 -7 -13q-1 -1 -10 -9q-8 -7 -16 -9q-1 0 -7 -1.5t-9 -2.5q-6 -2 -8.5 -2t-9.5 2q-9 3 -14 2q-4 0 -15 -2q-4 -1 -6 -1q-3 0 -4 3q-1 1 -2.5 4t-2.5 4 l-5 7q-2 9 2 31q1 8 3 20.5t2 13.5q1 6 9 36t9 34q3 15 4 26q1 17 1 27q-1 7 3 17q6 11 4 22q-1 12 5 25q7 16 9 26q2 12 1 21q-3 8 0 23t7 22t6 19q0 9 3 16q4 7 2 14q0 10 3 24l12 67q4 27 5 35q4 16 10 26q4 8 11 41q6 30 3 33q-3 4 -8 4q-6 0 -11 3q-7 4 -12 4 q-7 2 -15 0q-9 -1 -13 -6t-9 -5q-4 0 -12 2q-10 2 -24 1q-11 0 -23 -3q-9 -3 -17 -1q-5 3 -18 5q-5 1 -17 4q-6 3 -31 3q-27 0 -35 4q-7 4 -8 9q-2 4 2 24q4 18 8 32q9 16 10 18q2 3 15 10q13 6 27 6q15 0 31 -2q14 -2 29 1q12 4 23 2q7 0 18 -4q7 -3 14 -3q5 0 9.5 2 t17.5 2t25 2q9 1 19 -3q9 -4 19 -1q9 3 22 3t16 -3q6 -2 13 -2q10 0 15.5 4t12.5 4q1 0 19 -3q15 -2 17 -3t22 -3q20 -1 25 3q7 4 27 5q21 0 25 3z" />
<glyph unicode="U" horiz-adv-x="804" d="M777 743q11 2 14 2q7 0 15 -3q12 -3 16 -8q5 -6 7 -6q2 -3 2 -7q3 -8 6 -12q4 -4 3 -11q-1 -6 -5 -12q-3 -4 -10 -36q-5 -30 -4 -40q1 -8 -5 -23q-6 -14 -10 -37q-4 -22 -3 -29q2 -4 0 -16l-8 -40l-6 -35q-1 -3 -6 -12q-4 -5 -8 -18q-4 -14 -5 -29q-2 -16 -5 -33 q-2 -9 -4 -19t-8 -38t-8 -39q-6 -29 -7.5 -35t-6.5 -14q-2 -2 -12 -19q-4 -8 -10 -15t-7 -9q-3 -4 -4 -11q-3 -9 -8 -11q-6 -3 -9 -9q-3 -8 -4 -9q0 -3 -10 -13t-14 -16q-6 -8 -12 -11q-10 -4 -12 -10q-5 -5 -18 -12q-14 -6 -16 -11q-4 -5 -10 -6q-5 0 -12 -3q-2 -2 -12 -4 q-6 0 -11 -2q-4 0 -7 -8q-5 -8 -10 -10q-2 -1 -19 -1q-15 0 -21 -3q-2 -2 -20 -4q-16 -2 -23 -5q-8 -2 -26 -1t-24 -3q-6 -3 -12 -3q-4 0 -10 2t-23 4q-6 0 -16 0.5t-11 0.5h-18q-9 -1 -15 3q-6 2 -14 6q-8 3 -10 3q-3 0 -9 2q-6 1 -8 8q-2 4 -13 15q-2 2 -5 4l-6 6 q-3 2 -4 2q-5 3 -13 5q-6 2 -7 3.5t-2 8.5q-1 4 -3 9q-2 3 -1 4q-2 1 -10 3q-6 0 -12 8q-8 7 -12 26q-5 12 -8 28q0 9 -4 16q0 2 -4 10q-1 3 -2 5q-2 7 1 30q2 22 2 24q-2 2 -2 14q2 10 0 20q-1 8 1 19q2 10 6 16q6 12 6 13q2 5 1 11q-2 5 3 31q1 7 4 24.5l4 23.5q6 30 9 40 q3 17 6 23q5 6 7 16q2 11 -1 15q-1 9 0 13q2 10 7 19q4 11 8 32q2 9 5 24q8 45 6 56q0 10 4 23q4 12 4 19q-2 3 -1 8q1 2 2 5q1 4 5 10q2 1 7 14q3 9 10 14q5 3 8 10q2 1 4 4t3 4q3 2 10 -1q4 -2 27 -2q21 -1 26 -6l6 -4q4 -5 5 -6q5 -3 8 -12q2 -9 -1 -16q-4 -8 -6 -20 l-3 -15q-1 -3 -1 -15t-5 -20q-4 -6 -6 -16q-2 -9 0 -15q1 -11 -3 -26q-6 -22 -9 -25q-3 -8 -5 -17q-2 -8 -1 -16q2 -4 1 -12q-2 -7 -6 -12q-3 -6 -4.5 -14t-0.5 -14q2 -6 0 -13q-1 -8 -5 -12q-3 -4 -4 -12v-7v-6q1 -7 -5 -35q-2 -13 -6 -32l-13 -68q-2 -6 -5 -28 q-2 -19 2 -24q3 -3 5 -8q1 -3 -2 -16q-2 -9 0 -24q2 -14 6 -17q4 -2 4 -11q0 -7 14.5 -25t23 -20t10.5 -5q4 -2 19 -2q16 0 20 -4q8 -3 42 -3q33 0 42 3q7 3 17 2t16 3q6 5 8 5q1 0 9 5q7 6 19 6q11 0 19 4q7 3 13 10q5 8 15 10q11 4 18 13q11 11 12 18q2 8 10 15t9 13 q2 6 6 11q5 9 6 14q5 12 7 14q3 5 9 33t10 35q4 6 14 57t9 55t2 21q1 9 3 23q2 8 7 12q4 5 5 10q6 31 11 61q7 41 7.5 48.5t-3.5 12.5q-4 6 -3 12l2 11q0 2 5 11q3 6 4 12q2 8 1 14q-2 6 -1 12q1 5 6 11q4 5 3 15q1 8 7 15q8 6 13 14q9 8 17 11q2 1 9 3t9 3z" />
<glyph unicode="V" horiz-adv-x="707" d="M751 725q9 3 11 3t11 -4q7 -5 15 -5q12 0 16 1q6 1 12 -1q4 -3 5 -8q2 -5 -1 -23q-4 -19 -5 -21q-4 -6 -9 -11q-8 -8 -9 -11q-1 -2 -4 -7t-4 -7q-13 -16 -16 -19q-8 -10 -8 -17t-7 -21t-14 -22q-6 -7 -9 -14l-7 -12q-3 -6 -4 -12q-2 -8 -3 -11q-2 -5 -8 -8q-4 -2 -9 -11 q-3 -7 -10 -14q-7 -6 -12 -25q-4 -20 -10 -28q-6 -9 -14 -14q-10 -5 -13 -12q-6 -8 -6 -18q-1 -9 -8 -23q-5 -11 -13 -16q-8 -4 -13 -9l-5 -8q-1 -2 -7 -10q-14 -23 -19 -32q-10 -21 -15 -36q-3 -15 -10 -25q-8 -11 -12 -22q-1 -3 -3 -8q-2 -4 -2 -5q-3 -2 -8 -8 q-7 -8 -8 -14q-3 -7 -9 -13l-6 -5q-1 0 -6 -13q-3 -10 -10 -21q-6 -11 -11 -17q-7 -9 -9 -16q-4 -10 -10 -18q-9 -12 -14 -16l-9 -11q-1 -3 -6 -15q-1 -8 -8 -18q-6 -8 -10 -10q-5 -3 -14 -1q-16 0 -26 -2q-10 -1 -14 -1h-4t-10 5q-5 5 -18 4q-13 0 -19 5q-7 5 -9 13 q0 12 -1 18q-1 9 0 16q1 4 -1 14q-3 7 -8 11q-6 3 -9 17q-2 8 -4 20q-1 6 -3 16q-4 11 -9 15q-4 3 -6 8q1 7 4 11q3 8 5 16q2 9 0 16q-2 8 -6 12l-3 10q-2 8 -4 10q-3 5 -2 16q2 10 1.5 16t-8.5 9q-6 5 -5 13q-1 11 -2 13q-1 5 -6 16q-4 8 -4 18q1 4 -3 12q0 2 -6 19 q-3 11 -1 27q3 14 2 18q-1 1 -5 10l-8 14q-3 10 -3 11q-1 7 -3 16q-2 13 -3 27q-3 16 -5 17q-2 3 -3 7q-1 2 0 16q1 10 0 16q-2 2 -2 12q-1 6 -3 19l-7 21q-3 8 -8 13q-4 4 -5 11q0 4 4 26q5 19 1.5 26t-10.5 11q-7 5 -7 11q-1 3 1 11q1 5 4 11q5 6 17 10q12 6 45 6 q34 0 39 -2q5 -3 8 -7q3 -3 6 -19q1 -6 9 -38q6 -22 7 -37t3 -19q1 -5 7 -14q4 -10 1 -25q-2 -15 2 -21q4 -8 7 -18q1 -2 2 -7.5t1 -6.5q-1 -3 4 -9t4 -17q-1 -13 1 -14q3 -4 5 -5q3 -1 1 -14q-2 -11 0 -21q1 -2 1.5 -8t1.5 -8q2 -11 6 -18q5 -9 2 -23q-3 -13 1 -26 q5 -10 7 -29q6 -24 5 -26q1 -8 4 -19t3 -17q-1 -6 4 -12q4 -7 5 -12v-10q-2 -6 1 -18q4 -14 2 -25q-1 -11 4 -20q4 -9 2 -18q-1 -6 1 -14q2 -3 5 -7q2 -2 10 0t9 3l9 12q5 8 8 23t9 21q8 9 11 13l10 12q5 4 9 20q4 17 19 38q13 17 22 27q7 5 8 10t-1 9t-1 10t4 10t5 6 q5 4 10 11q5 8 9 15q4 9 9 15q8 7 11 20q3 9 8 17q5 6 7 18q6 13 10 16q4 2 10 11q4 5 9 21q3 12 7 16q1 1 3.5 4t3.5 4q4 5 8 17q5 14 8 18q3 3 8 9l8 15q1 1 5.5 8.5t5.5 9.5q6 13 9 24q4 15 8 17l10 6q7 4 11 20q1 7 5 17l1 2q1 1 8 9q7 7 8 15q3 9 8 14q4 3 12 13 q5 8 11 12q10 4 12 5z" />
<glyph unicode="W" horiz-adv-x="864" d="M174 741q4 2 10 2q4 0 12 -2q7 -4 28 -4q23 -1 27 -5q4 -2 6 -15q2 -17 -1 -33q-3 -21 1 -28q3 -7 3 -16q0 -10 2 -15q3 -5 -3 -33q-5 -26 -2 -34q3 -6 4 -14q0 -2 1 -13q2 -4 -2 -16q-3 -12 -2 -25q1 -14 4 -25q4 -12 2 -23q0 -12 -1 -15q-1 -4 4 -8q4 -5 3 -11t-5 -11 q-3 -4 -4 -9q0 -3 3 -17q3 -10 4 -18q0 -10 1 -12q1 -5 -2 -32q-4 -29 -3 -35l2 -15q1 -12 0 -19q-1 -14 1 -16q0 -2 -1 -17q-2 -9 1 -24q2 -12 6 -12q3 0 11 10q3 3 7.5 8.5t4.5 6.5q3 5 10 29q6 21 10 28q4 5 8 23q3 18 7 24q4 5 6 11q1 3 11 17q7 12 11 21q1 5 6 14 q4 6 6 16q2 12 7 18q1 2 4 7t4 8q6 10 10 29q4 16 9 26q1 2 4 7t4 7q2 3 4.5 8.5t2.5 6.5q2 8 1 12q-2 5 -1 12q1 5 9 14q5 5 6.5 9t6.5 23q6 25 14 38q11 16 13 23q3 10 3 18q1 9 3 15q5 7 5 8q1 1 7 11q5 12 12 24t9.5 15t9.5 7q2 2 9 5q5 3 7 4q6 3 19 3q8 0 23 -3 q9 -2 21 1q12 4 21 2t10 -4q2 -1 3 -7q-1 -5 3 -7q0 -2 7 -4t7 -6q0 -2 -2 -17q-3 -13 -1 -18q1 -3 0 -19v-20q3 -4 1 -14q-2 -8 0 -14q1 -7 1 -17v-18q0 -1 0.5 -7.5t1.5 -9.5q2 -7 1 -20q-1 -11 3 -17q4 -5 4 -15q-1 -2 -1 -17q2 -7 1 -13q0 -1 0.5 -5.5t0.5 -5.5 q2 -8 -1 -25q-4 -19 -4 -23q1 -9 2 -16q1 -2 1 -5q2 -7 2 -10q2 -9 -2 -26q-2 -23 0 -25q1 -6 -2 -22q-1 -17 -1 -20v-8q-1 -9 -1 -16q-3 -17 -2.5 -21.5t5.5 -13.5q6 -13 6 -18q2 -4 -1 -18q-4 -12 -3 -14q1 -4 4 -4q2 0 11 7q6 5 13 15q7 12 10 21q2 11 12 31t12 32t6 20 l9 18q4 8 7 15q2 2 5 20q2 8 8 26q6 10 8 20q3 8 7 16q3 2 7 13q1 6 6 15q1 2 4 7t4 7q3 4 9 26q4 13 9 23q3 4 9 24q3 17 7 23q3 3 7 16q2 3 10 22q8 11 9 21q-2 8 2 14q1 1 7 18q3 10 12 27q10 16 12 25q3 12 11 18q12 12 13 14q6 5 9 9q4 2 10 2q7 0 14.5 -4t14.5 -6 q10 -2 17 -2t13 -2q1 -1 5 -6q3 -7 2 -17q-1 -19 -1 -20q-1 -6 -4 -12q-3 -5 -9 -11t-9 -15q-2 -8 -7 -14q-3 -6 -4 -11q-1 -3 -7 -15q-5 -10 -9 -31q-5 -21 -11 -27q-1 -1 -4 -5l-6 -8q-3 -4 -4 -7q-8 -12 -9 -18l-6 -15q-5 -8 -8 -24t-8 -22q-5 -11 -7 -20q-3 -8 -11 -25 q-3 -4 -7 -12t-6 -10q-3 -9 -11 -20q-8 -13 -11 -26q-3 -15 -10 -27q0 -2 -8 -16q-4 -7 -4 -12q1 -6 0 -11q0 -3 -4 -12q-2 -2 -7 -17q-2 -11 -12 -25q-8 -13 -14 -25q-3 -9 -6 -21q-1 -9 -5 -14q-7 -6 -10 -18q-5 -13 -15 -30q-11 -16 -12 -21q0 -3 -1 -10q-3 -15 -6 -20 l-9 -18l-8.5 -17t-2 -5t-2.5 -6q-1 -4 -8 -8q-7 -2 -36 -2h-17q-14 0 -20 -2q-5 -3 -16 -3q-9 0 -18.5 7t-12.5 16q-3 10 -2 14q0 2 -3 16q-5 10 -4 19l-1 20q0 11 -2 18q-2 3 0 22q1 11 1 25l-3 15q-1 7 0 21q2 12 1 21t-2 14q0 5 -1 17q0 3 -2 22q-1 16 -2 22q-1 2 -3 14 v19q1 15 -1 21q0 8 3 22q5 13 2 20q-4 6 -2 19q2 9 0 18q-1 3 0 20q3 15 1 21v17q0 3 -0.5 10.5t0.5 10.5q0 12 -2 17q-2 6 1 18q2 10 -1 23q-1 10 -3 13q-1 1 -6 1t-7 -3q-1 -2 -3 -13q-2 -10 -5 -14l-4 -7q-5 -7 -7 -12q-7 -12 -11 -31q-3 -16 -7 -24q-5 -8 -7 -24 q-3 -18 -7 -23q-5 -6 -6 -14q-2 -9 -7 -14t-6.5 -14t-7.5 -19q-5 -9 -5 -18q-1 -9 -5 -22q-6 -12 -7 -19q-1 -5 -8 -11q-8 -8 -8 -12l-6 -15q-7 -12 -9 -24q-4 -15 -13 -26q-9 -15 -10 -22q-2 -10 -6 -16q-3 -5 -10 -30q-4 -22 -10 -30q-5 -9 -7 -14q-4 -10 -10 -16 q-8 -10 -9 -17q-3 -13 -5 -19q-2 -5 -7 -13q-4 -5 -13 -9q-9 -5 -13 -11q-6 -7 -15 -11q-11 -5 -16 -5h-34q-15 1 -31 1q-3 0 -8 6q-2 2 -12 11q-5 2 -5 9q-2 12 -4 20l-6 18q-2 4 2 18q1 5 3 11l1 5q1 5 0 17q2 18 0 24q0 1 -0.5 6.5t0.5 7.5q0 4 -1 10l-3 15q0 3 -1 25 q-1 11 1 27q-1 3 -1.5 9t0.5 7q-2 6 0 15q0 5 -1 18q-2 2 -1 17q2 6 0 26q-2 14 -6 19q-3 5 0 18q2 11 -1 18q-2 4 -2 15v18q-3 5 0 19t1 18q-1 12 1 20q1 16 -1 20q-2 6 -1 13q1 6 1 14q-3 4 -1 21q2 14 -1 28q-3 11 -2 24q1 10 -1 15q-1 2 -1 12q2 7 0 13q-3 4 0 18 q4 18 4 23q0 8 -5 14q-5 5 -3 14t7 14q3 3 13 17q7 11 12 15z" />
<glyph unicode="X" horiz-adv-x="679" d="M671.5 719q2.5 2 6.5 2q5 0 11 -3q1 -1 8.5 -3t9.5 -3q10 -3 24 -3q15 0 21 -3q9 -2 12 -6q4 -3 5 -10q1 -6 -1 -15t-10 -15q-9 -6 -12.5 -9t-13.5 -13l-16 -17q-3 -4 -13 -12q-6 -3 -9 -9q-1 -3 -5 -11q-4 -7 -11 -14q-9 -9 -12 -15q-5 -9 -9 -13q-5 -8 -11 -10 q-4 -2 -9 -9q-3 -4 -16 -16q-15 -12 -19 -18q-11 -13 -14 -17q-9 -11 -14 -14q-8 -7 -14 -16q-10 -12 -12 -13q-1 0 -3 -12q-1 -12 -4 -17q-4 -8 -7 -15q-2 -9 -5 -13q0 -2 -10 -6q-9 -4 -16 -18q-7 -15 -8 -21q0 -7 3 -10l4 -5l9 -17q6 -15 14 -19q6 -6 9 -13q6 -11 9 -24 q6 -15 13 -19q7 -5 7 -11q-1 -8 9 -14q9 -8 13 -20q3 -12 10 -21q5 -7 11 -12q4 -3 4 -9q-1 -7 3 -13q2 -1 6.5 -5t4.5 -5q7 -5 7 -13t3 -12q2 -2 5 -10q0 -6 -1 -11t2 -8q5 -3 8 -4q7 -1 7 -8q0 -5 6 -13q4 -5 3 -10q0 -2 -1 -7q-5 -14 -6 -16q-3 -5 -14 -10l-16 -8 q-3 -2 -12 0q-2 0 -10 0.5t-12 0.5q-9 -1 -26 3q-13 3 -17 8q-4 6 -7 6q-3 2 -4 8t-2 10q0 3 -7 9q-7 3 -8 8q-1 4 -5 7q-6 2 -5 11q1 7 0 11q-3 4 -7 7q-5 3 -9 16q-2 11 -7 17t-4 10q-1 5 -8 16q-9 11 -14 14q-7 5 -7 15q0 11 -4 18q-5 8 -7 12q-1 3 -8 19q-6 12 -8 21 q-1 8 -9 11q-6 4 -8 10q-3 8 -10 14q-7 9 -11 9q-1 0 -12 -4q-7 -4 -18 -17q-7 -9 -16 -16q-3 -1 -9 -9q-5 -8 -13 -11q-8 -5 -16 -20q-9 -16 -26 -30q-16 -12 -22 -20q-4 -6 -12 -14q-7 -6 -9.5 -18t-12.5 -19q-10 -6 -15 -12t-6 -8q0 -1 -4 -9q-4 -6 -11.5 -9t-16 -16 t-15.5 -18q-7 -6 -13 -8q-6 -4 -10 -10q-8 -9 -11 -11q-9 -5 -11 -6q-6 -2 -17 -2q-13 0 -18 -3q-6 -3 -12 -3q-4 0 -26 11q-18 10 -19 15l2 10q3 6 8 10q3 3 9 13q4 9 9 15q7 8 12 10q9 6 13 12q3 3 20 19q13 11 21 21q8 9 16 14q6 3 13 10q1 1 3 4t3 4q4 2 6 5q3 4 4 9 q1 6 4 10q3 6 10 12q6 5 13 9q5 2 6 5q1 1 5 11q5 8 12 11q10 6 11 9q1 1 5.5 5t7.5 7q10 9 24 31q11 17 14 21t11 9q10 5 17 13q6 7 14 12q9 5 11 12l7 12q1 2 2 7q1 4 0 8q-3 8 -6 13q-2 8 -10 15q-4 3 -10 15q-1 8 -6 14q-4 5 -6 13q-4 10 -8 15q-5 6 -6 15q0 9 -6 13 q-6 3 -13 12q-6 7 -10 17l-9 14q-2 1 -5 3.5t-4 2.5q-2 3 -1 13t-14 28q-14 20 -17 24q-3 3 -7 23q-3 18 -9 24q-5 5 -8 20q-3 12 -1 19q1 5 4 11q4 5 16 11q11 5 33 6q17 1 28 -2q5 -3 16 -7q9 -4 13 -11q3 -5 12 -14q9 -6 12 -13q3 -5 8 -17l6 -20q3 -11 5 -11q1 -2 3 -8 q2 -8 15 -23l9 -12.5l8 -11.5q5 -9 5 -14q1 -7 3 -9q1 -1 8.5 -3t11.5 -7q5 -4 6 -16l2 -21q0 -7 6 -24q4 -13 9 -22q5 -6 7 -6q3 -1 9 2q3 2 6.5 10t5 10t10.5 6q7 4 12 9q5 6 6 7q2 4 6 8q7 9 9 16q5 10 5 11q2 2 6 4t9 9q7 10 13 14l8.5 8.5l8.5 8.5q4 4 15 17q6 8 8 10 q1 1 15 19q14 19 19 25q7 6 8 11q3 6 5 6q1 1 9 11q7 10 26 26q22 18 24 24q3 7 5.5 9z" />
<glyph unicode="Y" horiz-adv-x="677" d="M745 735q2 1 18 1q13 0 21 -2q5 -3 13 -5q6 0 13 -6q6 -4 7 -11q2 -6 1 -13t-7 -12q-8 -6 -9 -6q-3 0 -3 -4q-2 -2 -6 -12q-2 -9 -8 -11q-4 -2 -12 -8q-4 -2 -17 -17q-8 -14 -16 -19q-12 -12 -13 -14q-6 -8 -11 -11q-8 -9 -10 -13q-6 -10 -16 -18q-13 -12 -17 -20 q-8 -10 -14 -13q-7 -4 -17 -18l-17 -21q-5 -4 -17 -20q-12 -14 -20 -19t-11 -10q-4 -4 -5 -10q-1 -5 -4 -8q-3 -5 -10 -9q-8 -4 -11 -8q-1 -3 -12 -12q-10 -7 -14 -13q-5 -5 -9 -14q-1 -5 -12 -17q-10 -13 -14 -15q-5 -4 -9 -10q-2 -3 -9 -9q-7 -4 -11.5 -16t-5.5 -18 q-2 -10 -1 -13q0 -4 -4 -15q-4 -7 -3 -19q1 -13 -2 -22q-2 -10 -8 -18q-3 -5 -12 -52q-9 -46 -7 -54q2 -10 0 -18q-2 -10 -11 -25l-6.5 -13l-5.5 -11q-5 -9 -15 -12q-12 -4 -17 -5q-3 -1 -21 -1q-17 1 -27 8q-13 6 -16 10q-1 2 1 20q2 16 -1 27q-3 10 -1 21q2 10 6 18 q6 7 13 46l7 33t5 20l7 38l6 33q3 14 4 24q3 16 -4 26q-4 7 -12 25q-4 14 -5 20q1 5 -2 9q-3 3 -4 3q-5 0 -8 1t-13 10q-6 8 -8 8q-4 3 -8 7q-6 6 -7.5 11t-3.5 10l-2 15q0 11 -8 17q-10 7 -13 16q-5 12 -7 21q-2 5 -5 19q-1 9 -7 12q-4 2 -10 8q-3 4 -3 11q-1 6 -1 10 q1 3 -1 11q-4 4 -6 12q-4 7 -6 7q-5 3 -12 12q-10 12 -12 19q-6 10 -7 11q-4 9 -5 16q-3 11 -8 14q-2 2 -9 13q-5 10 -3 24q2 15 4 18q1 3 5 5q7 3 10 6q7 6 19 7q9 2 19 4q9 3 18 0q3 -1 9.5 -3t8.5 -2q6 -3 15 -5q2 -1 6.5 -3t6.5 -3q5 -4 5 -10q-1 -6 4 -14q3 -7 6 -7 q2 0 5 -6t5 -15q1 -9 7 -12q6 -4 9 -14q4 -12 2 -19v-6t1 -7q1 -6 8 -12q2 -2 6.5 -5.5t5.5 -4.5q5 -3 10 -9q5 -7 12 -26q6 -20 11.5 -27t9.5 -19q1 -10 6 -19q4 -9 5 -18t8 -16l11 -7q2 0 3 -5q2 -4 16 -12q12 -8 19 -8q6 0 9 2q4 6 4 8q2 6 10 11q7 3 14 9t15 18 q9 13 17 18q7 5 13 14q3 8 12 15q11 12 14 19q7 11 19 18q12 6 15 14q3 7 10 16q5 8 13 12q5 2 19 21q13 21 16 27q2 5 9 15l15 15q11 7 11 11q3 4 10 7q10 6 13 10q4 6 12 13q7 6 10 10q6 5 15 9q9 5 12 5z" />
<glyph unicode="Z" horiz-adv-x="652" d="M496 728q10 1 43 1q25 -2 28 -3q4 -1 43 -3q39 0 44 2q8 3 12 2q6 0 12 -2q9 0 14 2q13 3 18 3q9 0 15 -5q5 -4 10 -13q4 -8 2 -17q1 -13 1 -20q1 -12 -1 -18q-1 -2 -5 -11q-4 -3 -5 -7q0 -3 -18 -29q-13 -19 -18 -25t-20 -17l-26 -22q-6 -7 -7 -11q0 -2 -4 -10 q-2 -7 -12 -9q-7 -3 -16 -15q-8 -11 -12 -13q-6 -4 -14 -15q-12 -16 -14 -17q-9 -7 -13 -9q-8 -3 -12 -10q-9 -10 -21 -19q-16 -14 -18 -14t-13 -9q-10 -8 -15 -14q-3 -6 -15 -14q-12 -10 -14 -16q-1 -4 -5 -10q-4 -4 -10 -5q-6 0 -9 -3q-3 -2 -10 -16q-7 -13 -16 -17 q-8 -5 -12 -11q-2 -3 -10 -9q-5 -2 -8 -7l-8 -8q-4 -1 -10 -8q-3 -4 -16 -13q-7 -4 -15 -12q-1 -1 -5 -5.5t-5 -5.5q-7 -6 -14 -9q-8 -5 -9 -8q-2 -2 -10 -7q-6 -4 -9 -11q-4 -9 -12 -16l-15 -15q-3 -7 -14 -14q-11 -11 -11 -13q0 -1 -3.5 -4.5t-4.5 -5.5l-8 -8q-3 0 -7 -5 q-6 -4 -7 -7q-1 -4 2 -5q2 -2 23 -2q25 -2 28 -3q9 0 13 1l21 5q17 4 22 4q8 0 11 -3q4 -2 27 -2q22 0 27 2q7 4 22 4q14 1 25 -3q8 -3 39 -3q30 0 35 3q6 3 17 3t17 -3q3 -3 29 -4q24 0 31 3l6 4q0 1 8 5q8 2 14 0q2 -1 7 -3t7 -3q7 -2 10 -6q4 -5 4 -19q1 -16 0 -24 q-2 -10 -8 -17q-4 -6 -12 -16t-16 -11q-8 -2 -18 -2q-7 0 -20 -3q-9 -3 -17 0q-11 3 -13 3q-8 0 -15 4q-8 4 -20 4q-6 0 -24 -1q-37 -1 -45.5 -4t-46.5 -3q-34 0 -48 -4q-11 -3 -19 -3h-8q-18 2 -22 4q-6 3 -14 2q-8 0 -16 -4q-8 -2 -22 -1q-9 0 -20 3q-9 3 -28 2 q-16 0 -28 -4q-6 -2 -8.5 -2t-7.5 2q-7 4 -35 5q-29 1 -35 5q-9 6 -11 8q-3 5 -1 22q1 5 2.5 18t1.5 18q2 11 2.5 15.5t2.5 6.5q3 6 8 10q4 5 7 14q2 8 8 13q5 6 9 7q6 3 10 11q4 10 11 17q6 10 17 15q9 6 16 14q8 13 9 16q3 6 4.5 7.5t8.5 3.5q7 1 14 9q3 2 9.5 9.5 t8.5 10.5q11 12 24 23t16 17q4 6 12 7q8 2 17 10q8 6 12 13q1 8 3 10q4 5 5 6q2 0 9 4q7 3 12 10q2 4 7 13q3 6 9 10q10 7 15 12q8 5 12 13q2 6 10 9q6 2 10.5 4t9.5 10q3 4 11 13q7 6 8 12q4 7 9 9q9 5 18 14q11 9 16 18q4 9 6 9t11 4q8 4 14 10q5 8 13 10q8 5 13 12 q6 9 17 15q11 8 13 9q1 1 2.5 4l2.5 5q3 6 15 12q12 5 17 13q6 9 13 12q5 4 10 9q3 4 5 12q1 7 -2 11t-15 4q-11 0 -20 -2q-2 -1 -14 -5q-8 -2 -57 -2q-28 -1 -59 -1q-4 1 -38 1q-9 0 -23.5 -0.5t-15.5 -0.5h-27q-18 1 -25 5q-6 4 -23 3q-17 0 -26 -6t-14 -6q-3 -1 -13 1 q-5 2 -14 5q-5 1 -15 11q-7 10 -8 14t3 28q5 23 9 26q3 4 7 4q2 0 19 6q12 4 16 5t15 -1q5 -1 17.5 -2t16.5 -1q21 0 27 2q7 3 19 3t15 -3q6 -2 15 0q10 3 17 1q10 -2 15 0q6 1 20 1h12q25 0 31 -3q4 -2 11 0q3 2 25 4z" />
<glyph unicode="[" horiz-adv-x="409" d="M412 881l7 1h14q16 0 28 -2q10 -2 16 -7q3 -1 7 -5.5t6 -6.5q4 -4 6 -12q1 -5 -2 -9q0 -3 -10 -13q-9 -10 -14 -12q-6 -2 -35 -2t-35.5 -3t-12.5 -3q-10 -2 -12 -4q-3 -2 -11 -16q-7 -13 -6 -25q1 -11 -4 -42q-2 -10 -4.5 -26t-3.5 -19q-2 -15 -5.5 -19t-5.5 -15l-8 -29 q-3 -10 -4 -15q-2 -8 0 -16q0 -4 -1 -13l1 -8q-2 -8 -7 -24q-7 -16 -6 -21q-1 -4 1 -18q-1 -18 -2 -20q-6 -29 -12 -55t-7 -33q-3 -16 -2 -28q1 -14 -3 -29q-5 -14 -7 -27q0 -12 -6 -44q-6 -30 -11 -46q-6 -14 -5 -28q2 -12 -1 -21q-3 -8 -15 -66q-11 -60 -10 -62q1 -5 5 -6 q1 -1 12 -6q14 -3 17 -3q8 0 21 4q10 3 18 3t19 -5q13 -6 15 -11q3 -4 1 -14q-2 -8 -8 -20q-6 -9 -16 -13q-9 -5 -18 -5q-11 0 -27 3q-14 2 -18 2t-13 -2q-12 -4 -37 -4q-26 0 -37 2q-13 3 -18 8q-4 4 -6 10q1 1 1 7v10q0 12 2 19q4 8 8 31q3 14 5 38q-1 12 3 31q5 26 8 38 q5 22 5 28q-3 6 -1 20q2 15 9 27q5 12 7 28q1 4 3 16.5l3 18.5q2 15 6 27q3 8 2 14q-2 6 -1 10q1 6 5 12q4 9 3 16q-2 6 -1 11q0 3 4 13q3 4 5 14v17q-1 11 5 25q3 13 5 25q0 12 10 61q9 48 14 59t4 18q0 5 4 28q3 16 9 57q8 51 8 56q1 17 5 26t3 18q0 6 0.5 9t2.5 9 q6 15 8 21q5 13 6 14l7 10q7 8 11 9q6 3 42 3q34 0 42 3q8 2 10 3z" />
<glyph unicode="\" horiz-adv-x="320" d="M173 873q4 2 9 2t12 -4q7 -5 12 -12q1 -5 10 -12q7 -3 10 -11q2 -8 4 -23q2 -12 2 -24q1 -3 1 -9v-8q0 -1 2 -9t3 -13q4 -13 1 -29q0 -3 -1.5 -11t-0.5 -9q0 -1 4 -9q1 -2 4 -13q0 -11 1 -18q1 -2 2 -8q1 -5 1 -6q2 -8 0 -19q-1 -12 3 -17q3 -5 5 -19q1 -20 1 -22 q-1 -12 3 -23q5 -12 4 -18q-1 -2 -0.5 -7.5t0.5 -6.5q2 -12 1.5 -13t3.5 -15q2 -12 3 -21q0 -8 3 -14q4 -6 2 -15q-2 -11 -2 -23q-1 -12 5 -33q4 -12 10 -27q6 -10 6 -11q0 -3 -4 -23q-3 -18 -2 -30q1 -3 2 -9.5t1 -7.5q1 -3 1 -18q-1 -14 0 -23q0 -9 5 -18t8 -21 q4 -13 4 -21q0 -5 3 -17q1 -7 4 -12l4 -5q3 -1 1 -14q-1 -4 -1 -10q-1 -6 -1 -7q2 -6 4 -10q4 -12 4 -18q1 -7 1 -23q1 -13 4 -19q5 -8 4 -12q0 -4 -5 -17q-3 -3 -7 -10t-5 -9q-6 -9 -10 -10q-3 -2 -8 -2q-4 0 -11 1q-12 1 -26 9q-12 8 -16 15q0 1 -10 16q-3 9 1 21 q3 11 -1 18q-4 6 -1 23t1 27v8.5v6.5q-1 6 -5 11q-4 6 -3 23q3 13 0 27q-4 12 -3 17q0 5 -7 16q-5 7 -5 10t1 15q0 6 2 20.5t3 19.5q2 18 2 21.5t-3 8.5q-4 7 -4 15v12q0 2 -4 5q-1 0 -7 9q-1 5 -1 17q-1 9 -3 23q-2 16 -2 26q1 5 -2 24l-3 21q1 4 -5 36q-7 34 -9 40 q-4 14 -3 17t-1 5q-1 5 -1 10q0 9 4 21q4 9 3.5 11.5t-5.5 7.5q-5 6 -7 12q1 5 1 13q1 5 -3 15q-3 7 -3 23q3 15 0 23q1 2 0.5 7t-0.5 6q1 5 -1 10q-1 5 -8 24t-5 30q3 12 -1 23q-6 13 -4 20q1 4 4 11q6 8 8 22q3 13 6 17q0 3 6 6z" />
<glyph unicode="]" horiz-adv-x="409" d="M294 890q10 2 17 2q6 0 16 -2q7 -3 14 -3t16 -5t12 -5t16 5q11 5 17 5q5 0 14 -5t15 -9q5 -6 4 -14q1 -9 3 -23q0 -14 -4 -23q-4 -10 -3 -19q2 -6 0 -17q-2 -9 -6 -17q-5 -8 -4 -15q0 -12 -2 -26q-4 -21 -6 -25q-5 -8 -3 -21q0 -8 -2 -21q-2 -3 -4.5 -8.5t-2.5 -6.5 q-4 -5 -6 -16q-2 -8 -1 -17q2 -3 0 -22q-3 -18 -8 -26q-6 -12 -6.5 -15t1.5 -13q1 -7 -5 -45q-7 -36 -14 -49q-6 -14 -7 -29q0 -14 -5 -23q-4 -10 -5 -17q-1 -6 0 -15v-26q-3 -19 -7 -29q-2 -9 -6 -31q0 -12 -4 -34q-4 -17 -6 -23q-2 -8 -3 -20q1 -9 -4 -19q-4 -7 -6 -17 l-3 -22q-4 -23 -4 -39q2 -7 1 -13q-1 -4 -3 -9q-2 -11 -7 -19q-4 -6 -7 -29q-1 -12 -5 -28q0 -5 -10 -16q-10 -13 -13 -14q-4 -3 -13 -3t-15.5 -2t-65.5 -2h-67q-5 2 -15 12q-9 11 -8 19q2 7 12 22q7 10 9.5 12.5t10.5 4.5q7 3 23 5q11 1 21 -2q8 -3 18 -3q2 0 20 3 q15 5 18 8q4 3 6 19q0 3 5 43q4 29 4 30l2 7t4 18l4 21q5 24 7 32q2 12 2 18q-2 6 2 31q5 26 10 36q5 13 9 35q4 19 4 31q-1 6 0.5 14t5.5 14q4 8 3 20q-2 13 6 30q5 14 13 53q6 32 6 47q-1 11 2 21q2 5 11 40q5 25 6 41q0 10 6 44q3 16 8 40q15 74 12 78q-2 5 -9 6 q-3 1 -39 1q-30 0 -36 2q-4 1 -13 15q-9 11 -10 18l3 15q4 9 8 16q6 8 16 11q8 2 14 4z" />
<glyph unicode="^" horiz-adv-x="565" d="M404 749h6.5h6.5h4q8 0 9 -2q1 -1 13 -3q11 -2 19 -8q8 -5 10 -11q1 -6 -1 -15q-2 -8 4 -14q5 -6 4 -15q-1 -10 5 -20q8 -9 7 -13q1 -1 0.5 -6t-1.5 -7q-1 -8 2 -14q0 -4 4 -9q3 -6 1 -14q0 -9 3 -21q2 -9 3 -19t1 -11t2.5 -5t3.5 -7q6 -7 6 -13q1 -8 0 -11q0 -4 2 -10 q6 -7 7 -18q3 -14 5 -17q2 -6 0 -17q0 -14 2 -20q3 -10 7 -14q4 -5 3 -8q0 -1 -1 -17q-2 -12 -1.5 -15t7.5 -10q8 -9 7 -13q0 -4 -6 -12q-4 -8 -10 -10q-4 -2 -40 -2t-40 2q-4 1 -6 7q-2 5 0 21q1 12 0.5 14.5t-3.5 6.5q-7 6 -8 7q-4 2 -2 10q0 11 -2 18q0 6 -5 17 q-5 8 -3 22q0 16 -3 23q-4 11 -3 23q-1 16 -1.5 19t-4.5 13q-2 8 -3 14q1 7 -1 15q-1 4 -3 19q0 2 -0.5 9t-0.5 9q-1 9 -4 11q-3 6 -6 6l-6 -3l-6 -9q-1 -2 -9 -13q-7 -7 -13 -21q-1 -4 -5 -12l-5 -10q-5 -12 -8 -16q-1 -2 -4.5 -8t-3.5 -9q-6 -12 -6 -15q-4 -7 -10 -14 q-7 -8 -11 -21q-2 -12 -7 -15q-1 0 -3 -1t-3 -2q-4 -4 -6 -15q-4 -13 -15 -30q-8 -10 -14 -21q-2 -6 -7 -11q-5 -4 -6 -8t-8 -14t-14 -17q-7 -5 -12 -7h-3q-4 0 -9 2q-6 2 -22 1q-18 0 -24 2l-12 4q-1 1 -2 9q2 9 8 22q14 22 15 23q6 11 10 19q1 9 10 17q4 5 26 35 q19 29 22 40q5 14 12 18q6 5 9 15q3 11 25 41q21 30 26 47q4 16 13 25q6 8 10 18q2 2 5.5 8t4.5 8q3 2 6 6l2 3q3 2 4 5q3 5 7 16q5 12 9 17q1 1 5 6t5 7q6 10 10 10q1 1 15 3z" />
<glyph unicode="_" horiz-adv-x="601" d="M277 12q1 1 3.5 1t3.5 -1q1 0 5 -1t5 -2h26h12q11 0 32 -3q18 -3 22.5 -3t11.5 3q13 4 42 4q30 0 41 -4q9 -3 15 -3q1 0 5.5 1.5t6.5 2.5q10 3 22 2q3 0 26 -3q18 -2 19 -3q3 0 12 -5q7 -3 8 -7q0 -1 0.5 -6.5t0.5 -8.5q0 -7 -1 -11q-1 -5 -5 -15q-5 -14 -9 -15 q-4 -2 -16 -2t-22 -3q-6 -2 -20 -5q-10 -2 -21 -1q-17 3 -27 3q-19 1 -25 -2q-8 -4 -13 -4q-6 0 -12 3q-5 2 -13 2t-15 -3q-8 -4 -23 -4q-17 2 -23 4q-8 3 -65 3q-33 -1 -68 -1q-37 0 -71 1q-63 0 -72 -4t-14 -4t-12 3q-7 4 -14 3q-8 -2 -15 -2q-6 -1 -16 7q-8 9 -11 14 q-1 3 -1 17q3 12 8 18q2 3 17 14q16 8 19 9q5 2 14 2q10 0 19 3q11 4 31 3q19 -2 27 -2q7 1 26 1q14 1 21 -2q4 -3 29 -3q26 0 30 2q6 3 25 5q8 0 17 2h2z" />
<glyph unicode="`" horiz-adv-x="326" d="M189 755q6 2 11 2q4 0 16 -2q9 -4 22 -4q15 -4 23 -7q9 -5 12 -14q3 -10 7 -19q1 -2 4 -9t5 -10q3 -4 6 -16q0 -7 3 -11l3 -3l3 -3q5 -2 6 -8q4 -8 6 -11q5 -5 4 -18q-2 -11 0 -19q1 -1 2 -4t2 -4q4 -5 6 -7q3 -2 8 -11q3 -9 3 -16q1 -3 0 -8q0 -3 -2 -6q-2 -5 -13 -14 q-14 -8 -16 -9q-3 -2 -9 -2q-3 0 -7 1q-3 0 -27 3q-12 2 -16 4q-5 6 -7 10q-4 7 -9 11q-6 5 -9 11t-6 15q1 8 -6 14q-5 6 -9 8q-2 1 -7 13q-4 12 -9 15q-6 4 -10 14q-2 2 -8.5 11.5t-10.5 13.5q-12 18 -14 26q-4 8 -4 19q0 7 0.5 10.5t3.5 9.5q6 11 9.5 14t16.5 5q10 2 17 5 z" />
<glyph unicode="a" horiz-adv-x="505" d="M360 247q-10 3 -16 3q-7 0 -21 -5q-17 -6 -34 -6q-17 -2 -33 -6q-18 -6 -26 -12q-10 -4 -19 -14l-15 -18t-12 -20q-1 -6 -6 -15q-4 -3 -6 -13q0 -2 -0.5 -6.5t-0.5 -5.5l3 -10q3 -3 8 -17q4 -12 12 -16q5 -3 22 -9q13 -5 20 -5q3 0 9 1q14 0 25 2q12 2 23 9q14 8 25 17 q14 12 17 14q8 6 8 10q2 7 6 15q5 7 9 18q5 10 7 19q7 14 9 17q0 2 2 6t3 5q1 6 0 18q-1 11 -5 16q-2 5 -14 8zM369 514q1 1 24 1t30 -3q9 -2 14 -5q8 -2 10 -5l21 -14q18 -11 19 -16q3 -6 5 -9t4 -9q1 -2 2.5 -8.5t2.5 -8.5q2 -10 1 -24q0 -13 1 -17q0 -4 -4 -37 q-7 -33 -5 -41q0 -8 -1 -14t-4 -10q-4 -8 -7 -16q-5 -10 -4 -22q-1 -7 -10 -54q-12 -63 -16 -87q-8 -44 -6 -53q1 -7 0 -11l-3 -9q-6 -18 -7 -19q-3 -10 -6 -12q-3 -4 -8 -6q-3 -1 -20 -5q-2 0 -12 -1.5t-12 -1.5t-16 3q-10 2 -13 6q-4 3 -5 14q-2 11 -5 13q-2 3 -5 3 q-4 0 -8 -5q-6 -5 -11 -7q-5 -1 -13 -6q-3 -4 -20 -12q-11 -5 -29 -12q-15 -5 -47 -5q-33 1 -50 7q-11 4 -23 10q-5 4 -10 4q-7 2 -14 10q-5 5 -12 14q-4 4 -4 13q-1 10 -5 13q-3 2 -8 8q-4 3 -3 7q0 3 -2 15q1 1 -0.5 9t-2.5 11q-1 10 3 30q4 21 10 32l7 14t5 11l9 20 q2 4 11 13l18 21q11 12 20 18q4 1 17 9q8 6 23 7q17 3 39 12q21 10 32 10t27 6q17 5 52 5q34 1 42 4q5 4 9 9q4 6 6 18q3 14 7 20q4 8 2 23q0 15 -4 20q-1 1 -1 3q-4 6 -5 9q-2 8 -6 9q-2 1 -9 10q-6 7 -13 10q-9 1 -24 0q-15 -2 -22 -5q-6 -2 -13 -2t-16 -3q-6 -2 -16 -8 q-6 -2 -14 -9q-5 -6 -10 -17q-7 -13 -13 -19q-5 -5 -16 -12q-5 -4 -10 -5t-24 -1h-13q-12 0 -19 2q-9 5 -10 6q-3 3 0.5 20t8.5 24q2 3 10 16q3 7 5.5 9t17.5 8q20 9 26 11q7 2 11 7q5 3 9 9q6 7 13 10q11 6 16 6q7 2 15 4q9 4 21 4q2 0 37 3q26 2 26 3z" />
<glyph unicode="b" horiz-adv-x="614" d="M420 442q-6 5 -16 5q-5 0 -20 -4t-19 -4q-5 0 -13 -4q-7 -3 -21 -11q-16 -11 -20 -17q-5 -5 -16 -14q-9 -6 -15 -16q-9 -12 -11 -21q-5 -13 -7 -15q-2 -3 -8 -24t-7.5 -22t-8.5 -26q-7 -26 -7 -28q-1 -3 -3 -27q-3 -22 -1 -26q0 -2 -1 -20q-2 -17 0 -24q1 -6 12 -22 q9 -12 9 -14t4 -7q4 -6 12 -8q9 -3 15 -10q9 -9 12 -10q4 -3 14 -5q9 -3 24 -3q16 0 25 3q11 2 15 2q5 0 11 2q7 2 12 6t14 7q7 1 19 8q8 4 20 17q11 12 15 18q6 9 9 17q7 12 11 18q5 8 7 19q1 5 7 20q5 11 14 55q9 47 8 57q-1 2 -2 9.5t-1 9.5q0 18 1 21q0 11 -3 17t-5 14 q-4 14 -9 21q-8 13 -16 19q-8 7 -17 7q-6 0 -22 2q-15 5 -21 8zM269 734h3q3 1 5 1q7 0 18 -5q12 -3 17 -9t6 -20q3 -14 -3 -42q-6 -29 -4 -38q2 -11 -2 -20q-2 -5 -10 -18q-4 -8 -5 -22q-1 -10 -8 -49q-6 -21 -7 -26q-1 -8 2 -10q3 -3 12 -3q10 0 31 13q26 14 30 14 q13 3 20 5q13 4 21 6q5 2 24 4q17 2 23 4q8 2 17 -1q8 -3 22 -3q12 0 27 -4q6 -1 15 -3l2 -1q1 -2 7 -4q1 0 7 -3l8 -4q11 -5 19 -14q11 -11 13 -12q4 -5 13 -11q8 -7 10 -13q1 -6 5 -12q4 -2 9 -15q6 -18 6 -21q4 -10 3 -24q-3 -13 0 -19q1 -4 1 -14q-1 -8 0 -20 q1 -11 -1 -24q-1 -6 -4 -17q-9 -39 -11 -44q-7 -21 -8 -27q-5 -16 -10 -22q-3 -8 -4 -13q-2 -11 -2 -15q1 -9 -4 -16l-10 -14q-6 -7 -10 -17q-8 -12 -9 -13q-7 -6 -12 -14q-9 -9 -14 -11q-4 -2 -9 -9q-11 -12 -16 -16q-10 -10 -19 -12q-3 -1 -12 -6q-1 -1 -6 -4t-7 -4 q-8 -4 -12 -7q-5 -4 -14 -6q-10 -2 -14 -5q-14 -4 -20 -5q-11 -2 -18 -2h-5q-10 2 -21 0q-7 -1 -11 -1q-5 0 -13 2q-13 4 -22 4q-11 0 -31 7q-22 7 -27 12q-2 3 -10 9q-8 5 -16 13q-13 9 -17 8q-5 0 -8 -4q-4 -5 -8 -16q-4 -12 -9 -15q-6 -5 -11 -6q-6 -2 -19 -4 q-14 -4 -22 -2q-9 0 -16 4t-11 15q-3 9 -3 14t4 26q6 27 5 33t2 12q1 4 7 14q5 8 5 14v9v8q1 14 7 49q9 46 12 54q2 11 7 45q1 7 2.5 23t2.5 20q1 3 1 7q2 9 5 16q4 12 17 81q16 72 18 78q2 3 5 18q0 13 5 20q2 7 0 18q-2 12 -1 19q1 4 8 30q7 24 11 33q3 7 9 31q4 21 8 24 t11 5q3 1 8 3l4 3q1 1 3 1z" />
<glyph unicode="c" horiz-adv-x="492" d="M327 498q8 3 20 3q6 0 24 -1q32 0 50 -2q26 -3 30 -3q12 -2 22 -6q9 -4 15 -7q4 -3 8 -10q2 -4 10 -11q8 -6 16 -16q9 -11 12 -19q3 -9 3 -18q2 -10 3 -12q2 -5 -2 -15q-1 -3 -2 -11t-1 -12q0 -5 -1 -10t-3 -7q-1 -5 -10 -8q-6 -4 -19 -6q-16 -3 -22 -3q-12 -1 -25 2 q-13 2 -16 5q-3 2 -5 13q-3 12 -2 16q1 3 -1 13q-4 10 -7 11q-5 6 -7 9q-3 5 -8 11q-8 4 -7 7q-1 4 -5 6q-4 3 -19 7q-7 2 -18 6q-4 2 -20 1q-17 -3 -28 -8q-12 -5 -27 -17q-12 -12 -20.5 -16t-11.5 -7q-1 -1 -7 -13q-6 -11 -10 -19q-1 -1 -4 -7.5t-6 -9.5q-6 -9 -9 -26 q-3 -15 -12 -49q-5 -18 -11 -48q-3 -16 -1 -22v-18q0 -10 1 -16q1 -2 1 -16q-1 -8 6 -29q6 -19 18 -34q14 -15 18 -16q5 -3 22 -5q18 -2 22 -5q8 -3 17 -2q12 2 25 7q5 1 21 9q8 3 18 17q11 13 12 13q0 1 5 7t8 10q9 15 14 17q6 3 9 5q2 1 6 4t6 4q7 3 15 5t16 0q3 -1 20 -4 q9 -1 13 -5q3 -7 3 -12q1 -3 0 -6q0 -3 -6 -16q-7 -16 -8 -23q-4 -10 -12 -20q-10 -12 -16 -16q-7 -4 -16 -13q-2 -2 -6 -5t-8 -6.5t-5 -4.5q-17 -12 -26 -16q-16 -8 -25 -10q-12 -2 -18 -6q-12 -4 -25 -5q-19 -2 -28 -2q-4 -1 -13 -1q-14 0 -26 2q-32 2 -55 8q-26 5 -30 8 q-2 0 -12 9q-5 8 -13 14q-3 1 -7.5 4.5t-5.5 3.5q-8 4 -11 13q-9 15 -11 18q-4 5 -10 21q-4 11 -6 19q2 6 -3 14q-3 5 -4 12q-1 3 1 11q0 1 -2 16q-3 10 -2 19q1 4 5 18q6 31 6 46q1 14 2 19.5t5 18.5q7 16 8 28q0 5 2 19q3 12 8 23q4 13 11 17q5 3 10 15q2 3 4.5 9.5 t2.5 7.5q3 6 9 10q7 3 12 7l8 13q6 11 16 20q9 10 19 14q11 5 14 8q8 6 22 11l12 5l6 4q6 4 13 6q7 3 15 5q7 3 17 3q7 0 20 4z" />
<glyph unicode="d" horiz-adv-x="613" d="M427 430q-9 7 -14 8t-28 1q-28 0 -40 -3q-3 -1 -13 -6q-4 -1 -5 -2l-13 -6q-4 0 -17 -9q-9 -7 -14 -9t-18 -17t-20 -29q-9 -19 -11 -22q-1 -5 -11 -21q-7 -12 -9 -20q0 -3 -1 -8q-5 -25 -6 -34q-3 -25 -2 -30v-21q-1 -10 -4 -17q-3 -9 -1.5 -18t-0.5 -18q-1 -7 3 -21 q6 -16 17 -29q16 -19 19 -25q8 -9 16 -12q11 -4 14 -4l15 -3q11 -4 16 -4q6 0 14 2q4 2 25 4q13 1 30 4q13 4 28 15q17 12 22 20q6 10 9 13q3 2 7 7t5 6q4 6 13 22q5 9 12 20q7 9 11 33q6 28 6 33q0 6 5 17l4 8q0 2 -1 10q-2 7 -1 22q2 12 1 21q0 12 1 16q1 5 0 19 q-1 3 -2 9.5t-1 7.5q0 5 -5 10q-3 4 -6 10q-4 9 -6.5 13t-14.5 12q-9 5 -14 11q-1 4 -14 14zM623 719q13 4 17 4q5 0 10 -3q8 -2 10 -5q1 -4 0 -8q0 -1 0.5 -7.5t-0.5 -8.5q2 -9 0 -26q-2 -31 -2 -32q-4 -21 -7 -28q-6 -11 -7 -22q0 -6 -2 -15q0 -2 -6 -24q-7 -20 -7 -29 q0 -4 -2 -18q-2 -9 0 -21q1 -8 0.5 -10.5t-5.5 -11.5q-6 -10 -9 -27q-2 -8 -6 -36q-2 -12 -5 -33t-4 -22q0 -3 -5 -17q-4 -9 -7 -25q-2 -11 -5 -31q-1 -12 -4 -31t-3 -22q-1 -10 -4 -17q-3 -5 -21 -95q-17 -89 -20 -94q-7 -6 -12 -7q-6 -3 -17 -3q-18 0 -28 1q-19 2 -22 6 q-3 2 -8 19q-3 10 -4.5 12.5t-5.5 2.5q-5 2 -18 -4q-13 -4 -15 -7q-4 -3 -13 -6q-9 -5 -13 -9q-7 -7 -30 -15q-24 -9 -35 -11q-12 -3 -21 -3q-17 0 -27 1q-16 2 -23 4q-4 2 -17 2t-26 5q-18 7 -20 8l-16 11q-11 9 -24 27l-20 26q-6 10 -7 16l-8 14q-4 6 -4 13q1 4 -1 16 q-2 10 -0.5 18t0.5 14q-2 7 -1 18q2 11 0 21q0 14 9 57q10 49 14 55q6 8 9 22q5 17 10 27q6 12 16 22q9 7 10.5 10t4.5 14q2 12 10 23q9 9 12 14q7 6 10 7q6 3 17 15q8 10 20 14q10 3 18 10t15 9q2 0 6 0.5t6 0.5q5 0 14 4q11 4 18 4q18 3 19 4q11 2 23 2q15 0 25 4 q10 3 17 2q6 -2 18 -7q16 -5 23 -6q14 -2 26 -9q16 -10 19 -14t6 -12l5 -12q6 -7 6 -12q3 -6 6.5 -8t5.5 -2t5.5 3t5.5 12q1 8 1 16q-2 6 0 17q2 10 5.5 16t5.5 19q4 14 2 26q-2 11 2 30t8 27q5 7 9 31q5 26 5 32q0 12 6 24q5 13 11 20q5 7 11 9q4 2 13 2q10 0 22 3z" />
<glyph unicode="e" horiz-adv-x="491" d="M376 451q-24 8 -39 8h-10q-7 0 -23 -7q-14 -6 -21 -12q-2 -1 -8 -7.5t-10 -9.5q-12 -13 -21 -24q-2 -2 -8.5 -12t-9.5 -15q-8 -18 -10 -26q-1 -9 -1 -15q1 -6 7 -11t19 -5h23q31 0 48 4q13 2 18 1q4 0 13 -3q5 -3 19 -2q5 0 14 -0.5t12 -0.5q5 -1 7 -1q4 0 9 3q7 4 13 12 q5 6 6 9q0 2 -1 8v18q-1 9 -3 23q-3 19 -3 24q-1 10 -6 13l-5 5l-2 3t-3 5q-2 5 -5.5 7.5t-18.5 7.5zM351 522q21 1 41 1q8 0 15 -2q12 -2 16 -4q1 0 5.5 -1.5t6.5 -2.5q8 -2 18 -9q10 -6 17 -13q3 -2 9 -5.5t7 -4.5q9 -6 9 -8l2 -7q2 -6 5 -10q7 -16 9 -19q3 -4 5 -14 q3 -12 3 -17q0 -8 1 -14q2 -6 0 -16q-2 -12 0 -16q1 -8 -5 -44q-7 -39 -10 -44q-3 -7 -9 -10q-8 -5 -12 -9q-3 -3 -10 -6q-4 -2 -28 -4l-36 -3q-10 -1 -13 -1q-6 0 -18 4q-12 3 -16 3t-17 -2q-15 -3 -28 -3q-9 0 -14.5 2t-48.5 2q-24 1 -30 1q-16 0 -23 -5q-11 -7 -12 -9 q-4 -5 -6 -14q-1 -6 0 -18q1 -6 -2 -28q-2 -20 2 -31q3 -11 12 -19q7 -7 10 -17q2 -8 7 -14q2 -3 17 -11q12 -7 27 -11q13 -2 30 -1q16 2 23 5q6 2 13 10q9 9 15 11q8 2 12.5 6t8.5 14q7 11 8 12q1 0 10 10q7 7 15 10q2 0 8 2l9 3q7 3 21 3t17 -3q5 -2 8 -8q3 -4 3 -13 q-2 -11 -7 -20q-6 -11 -12 -18q-7 -7 -12 -16q-2 -2 -5.5 -8t-4.5 -8q-3 -5 -19 -15q-5 -2 -13.5 -7t-11.5 -7l-10 -6q-3 0 -9 -6q-5 -4 -12 -7q-2 -2 -16 -2t-18 -2q-13 -4 -22 -6q-13 -4 -19 -4h-5q-10 2 -19 0q-6 -1 -9 -1q-6 0 -26 7q-24 9 -31 11q-9 3 -20 6 q-12 4 -21 13q-10 10 -10 15q-2 3 -7 9q-7 9 -10 15q-11 24 -13 29q-7 19 -8 28q0 11 -2 25q-1 16 3 37q3 26 3 35t3 26q3 10 6 25q1 6 2 11l6 31q2 8 6 14q5 6 9 15q0 1 8 19q1 6 8 19q8 10 12 11q5 3 17 19q9 14 18 23q9 10 17 21q11 16 14 19q2 3 12 7l19 10q11 6 17 11 q7 5 19 6q3 0 7 1l8 2q5 1 6 1q7 3 45 4z" />
<glyph unicode="f" horiz-adv-x="346" d="M417 732q7 3 18 3q9 0 16 -2q15 -4 16 -4q8 -2 12 -9q0 -4 3 -10q1 -1 1 -2q1 -2 1 -11q1 -6 -4 -13q-4 -6 -11 -8q-2 -1 -7.5 -3t-6.5 -2q-10 -5 -17 -6q-11 -4 -23 -4q-14 -2 -20 -5q-3 -1 -14 -5q-10 -2 -12 -4q-4 -2 -14 -15q-10 -11 -13 -17q-4 -6 -11 -42 q-5 -21 -6 -27q-2 -12 0 -19q3 -4 7 -10q6 -3 17 -6q13 -5 31 -7q13 -3 31 -3q14 1 23 -4q6 -3 10 -8q1 -9 -1 -23q-1 -10 -2 -13q-1 -7 -5 -10q-1 -3 -6 -7q-2 0 -13 -2q-12 -2 -33 -4q-4 0 -21 -1t-23 -2q-20 -1 -26 -5q-6 -5 -10 -11q-6 -8 -8 -22q-3 -12 -3 -24 q0 -5 -2 -16t-7 -32q-6 -25 -7.5 -33t-1.5 -13q2 -6 0 -16q-3 -11 -7 -20q-5 -14 -6 -20v-9q-1 -8 0 -12q0 -15 -14 -85q-10 -54 -12.5 -64.5t-8.5 -19.5q-5 -10 -11 -15t-14 -8q-9 -5 -15 -5q-2 0 -6 1q-15 2 -22 6q-9 4 -13 8t-5 11q0 6 2 16q2 11 1 22q-1 8 6 43 q6 30 5 41q0 15 2 27q3 19 8 29q5 9 15 59q8 46 11 75q2 30 5 48q5 21 2 30q-2 9 -7 11q-13 5 -14 5q-6 2 -19 -1q-8 -3 -27 -3q-17 1 -21 6t-5 11t1 18q4 18 7 24q4 12 6 13l15 7q11 5 18 5q4 0 18 -1q22 -3 31 0q7 2 13 7q5 4 10 12q5 7 11 40l8 46q3 13 8 21t9 20 q3 11 11 20l7 8q0 1 14 13q13 11 27 18q11 8 21 9q11 2 28 0q17 -1 31 4l10 3.5t8 2.5z" />
<glyph unicode="g" horiz-adv-x="532" d="M366 408q-7 3 -16 3t-21 -2q-9 0 -22 -4q-3 0 -10.5 -2t-9.5 -3t-7 -3t-6 -2q-6 -2 -11 -11q-8 -10 -13 -14q-6 -3 -11 -11q-2 -2 -7 -10t-7 -12q-10 -19 -12 -27q-2 -13 -8 -27q-7 -18 -15 -59q-9 -43 -7 -49q1 -6 -1 -17q-3 -12 -1 -18q1 -2 2.5 -4.5t1.5 -3.5 q2 -2 5 -9q2 -6 7 -12q5 -7 8 -7q5 -2 9.5 -5t3.5 -5q0 -2 4 -10q5 -6 11 -8q1 -2 13 -2q8 0 21 1q20 1 35 4l17 10q10 7 23 22q12 13 19 26q2 3 6.5 10.5t7.5 9.5q6 10 9 23q2 11 8 29q5 10 7 25q2 7 4 22q2 10 4.5 27t3.5 20q2 17 0 20q-4 3 -4 13q1 2 -4 15q-5 9 -5 16 q-1 8 -5 13q-3 2 -12 14q-9 11 -15 14zM304 490q7 2 14 2q6 0 13 -2q5 -2 26 -4q15 0 20.5 -1.5t22.5 -11.5q25 -15 26 -16q8 -3 9 -3q5 0 9 5q4 3 9 11q4 6 18 12q13 5 37 5t27 -3q2 -3 5 -9q2 -6 0 -16q-1 -8 -1 -18q2 -6 -1 -17q-1 -8 -5 -16q-3 -7 -4 -20q-1 -14 -5 -23 q-4 -10 -5 -14v-13q2 -6 0 -12q-1 -8 -5 -14q-4 -10 -6 -21q-3 -13 -2 -24q1 -10 0 -16q-1 -3 -2 -7q-1 -8 -7 -23q-5 -9 -17 -66q-9 -46 -18 -76q-4 -19 -4 -28q1 -10 -8 -57q-9 -46 -14 -58q-4 -10 -6 -17q-1 -9 -6 -17q-2 -7 -9 -16q-4 -4 -10 -17q-6 -11 -24 -27 q-20 -16 -28 -21q-11 -6 -18 -9l-16 -9q-8 -5 -21 -7l-27 -3q-26 -3 -27 -3q-10 -2 -57 -2q-49 0 -57 3q-2 1 -9 3t-9 3q-10 2 -20 10q-10 7 -21 20q-12 15 -17 35q-7 23 -5 34q1 12 6 18q6 7 13 9q8 3 35 3q20 0 24 -1t10 -5q2 -2 6.5 -5.5t5.5 -4.5q-1 -1 0 -3q4 -7 5 -12 q3 -12 5.5 -15t11.5 -9t14 -13q5 -6 7.5 -7t11.5 -1q12 0 18 3q4 2 23 4q15 0 30 4q13 4 15 6q5 4 6 8q3 6 11 10q8 6 15 18q9 19 10 22q4 10 7 15q4 4 6 16q2 8 6 20q3 9 6 30q3 22 0 24q-1 4 -6 4q-4 0 -7 -4q-5 -4 -11 -4q-11 -3 -12 -4q-6 -2 -14 -9q-4 -2 -8 -5t-5 -3 q-2 -2 -19 -2q-19 -2 -28 -5q-13 -2 -25 -2h-16q-27 1 -37 6q-9 4 -12 8t-13 8q-8 3 -10 6q0 2 -7 6q-6 3 -9 7q-1 1 -3 6t-2 7q-4 11 -9 15q-6 4 -9 8q-2 2 -6 12q-3 13 -6 29q-3 24 -4 36q-1 17 5 48q2 8 4 17q4 20 8 36q6 19 5 28q0 8 1 16q2 9 6 12q6 12 10 21 q8 18 11 22q3 6 5 17q3 13 7 17q2 6 5 6q1 0 6 8q6 9 9 15q6 9 13 18q2 2 6.5 7t5.5 6q5 4 14 8q11 4 14 8q2 1 7 4t6 4q9 3 9 6l7 4q9 3 19 3q3 0 8 1l10 2t7 1q2 1 9 2.5t8 2.5z" />
<glyph unicode="h" horiz-adv-x="634" d="M266 725q5 4 9 4.5t24 0.5q27 0 30 -3q3 -1 7 -14q1 -12 -4 -23l-4 -12t-3 -11q-3 -15 -1 -20q1 -9 -2 -22q-2 -17 -8 -29q-5 -12 -15 -59q-2 -11 -4.5 -29.5t-2.5 -19.5q1 -3 6 -8q4 -5 10 -5t11 3q5 1 15 8q11 7 17 8q7 0 20 6q2 1 8 3t7 2q3 0 10 4q9 5 26 5 q20 2 28 4q9 3 17 0q4 -3 33 -4q27 0 35 -4q7 -3 14 -12q10 -9 19 -14q14 -7 18 -14q6 -10 7 -15q6 -17 6 -21q3 -16 2 -22q0 -4 3 -14q3 -6 4 -13q0 -3 -6 -24t-6 -26q1 -3 -2 -26q0 -15 -4 -37q-4 -18 -6 -38q-6 -33 -10 -50q-5 -18 -6 -24q-1 -8 0 -13q0 -6 -2 -19 q-3 -16 -10 -29q-5 -11 -5.5 -14.5t0.5 -12.5q-1 -13 -2 -14v-2q-3 -9 -4 -14q-3 -14 -9 -21q-4 -5 -14 -11q-8 -5 -34 -5q-29 0 -33 1q-4 0 -5.5 1.5t-4.5 9.5q-2 15 -2 21q4 18 6 26q3 7 4.5 15t2.5 20q3 25 3 28q2 10 3 13q2 2 22 95q17 89 15 94q-3 4 -1 22q3 16 -1 28 q-5 10 -5 12q-1 5 -3 9q-2 3 -10 17q-3 4 -13 13q-7 4 -33 5q-25 0 -33 2q-11 2 -14 1q-8 -3 -17 -8q-12 -9 -26 -14q-11 -5 -23 -15q-11 -9 -11.5 -11t-11.5 -13q-10 -9 -14 -15q-5 -6 -10 -24q-6 -14 -13 -38q-5 -19 -10 -29q-5 -8 -4 -20q1 -14 0 -19q0 -6 -5 -18 q-4 -7 -6 -16q-1 -6 -2 -18q-3 -24 -2 -25q2 -3 -5 -18q-6 -14 -12 -42q-5 -29 -4 -37q1 -9 -4 -24q-5 -12 -9 -19q-3 -5 -10 -11q-10 -8 -15 -9q-6 -3 -14 -3q-11 0 -23 3l-12 2q-5 1 -6 1q-1 1 -6 9q-4 9 -3 19q1 16 1 18q-1 8 0 12l6 15q6 11 10 31t2 25q0 1 -0.5 4 t-0.5 8v8q-1 9 2 23q2 5 11.5 43t9.5 39q0 2 3 28q4 32 7 52q2 16 3 21q1 9 6 17q4 7 8 25q2 9 7 40q10 56 9 66q0 3 3 29q4 19 10 39q0 4 2.5 10.5t4 11t1.5 7.5q4 12 2 24q-1 10 0 14.5t6 18.5q8 20 10 31q3 14 7 18q3 4 12 10q9 5 16 11zM545 1116q-1 1 0 1h6h7t-1 -1 h-12zM476 1116q-1 1 2.5 1h16.5h15.5t2.5 -1q-4 -2 -19 -2q-16 0 -18 2z" />
<glyph unicode="i" horiz-adv-x="295" d="M224 510q11 5 16 5q6 0 15 -3q4 -2 16 -5q6 -2 8 -6q3 -3 3 -14q-1 -2 -1 -20q1 -11 -6 -23q-4 -12 -4 -21q1 -9 0 -15q-1 -8 0 -18q0 -12 -5 -24q-6 -16 -20 -87q-14 -74 -12 -80v-15q-2 -8 -9 -14q-6 -6 -7 -13q-1 -5 0 -19q2 -13 -1 -29q-5 -25 -7 -34q-6 -18 -10 -37 q-6 -20 -8 -24q-4 -5 -11 -10q-7 -6 -15 -8q-11 0 -17 2q-12 3 -19 5q-9 0 -11 2q-4 2 -6 7q0 2 -2 6l-1 3q-1 4 3 23l5 29q1 2 2 11t2 13q2 17 6 29q7 12 6 19q-1 9 7 51q7 47 7 50q-1 3 0.5 10.5t4.5 18.5q7 24 8 31l15 76l16 80q2 12 7 24q8 12 10 14q2 4 15 10zM277 728 q2 1 32 1q26 0 28 -4q2 -1 3 -9q1 -6 -4 -34q-2 -15 -3 -20q-2 -10 -6 -16q-4 -10 -12 -15q-8 -7 -14 -9t-18 1q-8 3 -31 3q-20 0 -26 2q-4 1 -8 9q-4 6 -4 19q0 14 2 21q2 10 7 22q5 13 10 17t17 5q9 1 18 4q2 1 9 3z" />
<glyph unicode="j" horiz-adv-x="295" d="M233 532q9 2 24 2q14 0 21 -2q6 -2 8 -5q3 -4 0.5 -16.5t-1.5 -23t-1 -17.5q-1 -2 -4 -11.5t-5 -14.5q-6 -22 -8 -31q-2 -10 0 -24q-1 -13 -4 -27q-1 -7 -3 -17q-6 -32 -11 -37q-5 -8 -5 -16q-2 -8 0 -18q1 -7 0 -14q-1 -3 -2 -7q-5 -17 -8 -21q-5 -9 -4 -16q1 -8 -3 -19 q-2 -7 -1 -17q1 -7 -6 -42q-9 -37 -11 -39q-2 -6 -13 -53q-3 -14 -5 -25l-5 -29q1 -3 -1 -22q-1 -9 -3 -20q0 -4 -8 -16q-6 -14 -20 -33q-12 -19 -19 -22q-5 -3 -9 -10q-7 -8 -15 -10q-10 -4 -29 -9q-20 -7 -25 -7q-7 0 -14 -3q-6 -2 -8.5 -2t-8.5 2q-7 3 -22 3q-13 0 -16 2 q-4 1 -9 7q-2 3 -5 9q-1 6 2 22q4 18 7 24q3 7 10 11q6 4 13 7t19.5 5t15.5 5q6 2 10 9q5 6 12 10q5 2 12 10q5 12 7 22q6 18 8 27q1 10 1 20q0 9 4 20q5 9 7 18t1 22q0 15 6 26q7 14 8 21q1 6 0 15q-2 5 3 29q3 18 9 30q4 8 9 33t3 32q-1 4 4 29l6 23v10q0 10 2 20 q3 12 7 21q6 8 9 24q3 14 -2 22q-4 7 -3 14t4 11q4 5 6 16t11 24q11 16 12 20q3 7 7 10q6 5 14 5q13 3 15 4zM264 756q6 5 12 5q5 0 9 -5q3 -4 7 -3q4 0 13 2q8 2 18 -1q9 -4 14 -4q6 0 8 -3q4 -2 4 -12t-2 -21q-2 -9 -8 -21q-7 -14 -8 -21q-2 -10 -5 -16q-5 -5 -9 -7 q-3 -2 -9 -2t-11 -3q-4 -1 -9 -5q-2 -3 -8 -3q-5 0 -13 4q-6 4 -21 4q-17 0 -22 5q-6 4 -7 5q-2 0 -3 3q-4 4 -2 14q1 14 0 22q0 5 -2 14v5q-1 8 3 15q2 4 7 13q3 6 4 7q3 2 11 4q3 0 8.5 0.5t7.5 0.5q7 0 13 4z" />
<glyph unicode="k" horiz-adv-x="554" d="M277 742q5 0 13 0.5t9 0.5q8 0 18 -3q8 -3 15 -6q3 -1 5 -8t-7 -56q-2 -9 -3.5 -19l-2.5 -16.5t-2 -10.5q0 -4 -1 -5l-6 -22q-4 -23 -4 -28q0 -10 -4 -17q-1 -4 -9 -42l-14 -75q-6 -39 -6 -46q2 -5 -4 -23l-3 -18q1 -3 5 -3q5 0 18 5q14 6 27 17q15 11 23 16q13 8 16 11 q8 7 12 13q6 7 17 11q10 3 20 11q9 5 15 11q2 3 10 10q9 10 12 14q4 6 12 12q12 7 13 8q8 4 11 8q1 4 14 9q15 8 19 11q4 5 18 10q11 2 40 4q14 1 22 1q9 0 11 -1q5 -3 6 -6t2 -11q-2 -10 -4 -15q-4 -9 -19 -22l-60 -50q-50 -39 -62 -46q-14 -8 -21 -15t-21 -14 q-15 -7 -23 -14q-8 -8 -12 -8q-2 0 -9 -6t-8 -11t3 -10q4 -7 4 -14q1 -7 6 -14q8 -8 14 -13q4 -3 9 -9q3 -4 6 -11q4 -9 12 -13q9 -4 11 -9q0 -2 8 -14q6 -10 12 -17q5 -6 15 -22q14 -17 18 -20q5 -3 11 -15q5 -10 17 -22q4 -3 14 -16q2 -6 14 -14q11 -6 13 -13q1 -6 -2 -22 q-1 -5 -2 -9q-2 -8 -5.5 -11.5t-14.5 -6.5q-15 -4 -31 -4q-8 -1 -19.5 -1t-19.5 1q-17 2 -26 8q-7 7 -10 11q-2 5 -8.5 9t-13.5 14q-8 12 -9 20q-7 12 -21 29q-17 22 -19 22t-9 12q-2 3 -5.5 10.5t-5.5 9.5q-5 9 -6 9q-3 3 -9 14l-11 25q-7 12 -9 13l-8 4q-5 2 -7 9 q-3 10 -4 13q-4 5 -10 8q-11 3 -12 3q-7 0 -10 -3t-10 -33l-5 -24t-4 -15q-2 -10 -1 -14q1 -6 -3 -21q-3 -8 -4.5 -15t-2.5 -17q0 -9 -3 -25q-2 -2 -4 -8t-3 -8q-1 -3 -8 -28q-6 -20 -12 -25q-8 -5 -18 -8q-13 -4 -23 -4q-12 0 -24 5q-14 4 -15 5q-2 2 -1 16q1 19 0 22 q0 10 2 22q3 13 1 19q-2 5 0 14q2 11 6 15q4 8 7 23q2 8 2 26q-1 11 9 62q4 17 6 29q5 25 13 58q8 25 9 30.5t0 13.5q-1 11 1 22q1 5 3 14q7 26 12.5 55t7.5 49q1 3 1 13t1 12q-1 5 3 16q6 15 9 31q3 10 4 17q2 11 2 21q0 5 0.5 13.5t0.5 10.5q2 11 4 14q3 5 11 37 q7 32 11 37l12 10q8 5 25 6z" />
<glyph unicode="l" horiz-adv-x="315" d="M294 742q3 1 14 1t16 -5q7 -3 11 -10q1 -2 3 -8q1 -2 -5 -41l-6 -33.5t-5 -28.5q-5 -23 -4 -33q-1 -8 -5 -18q-5 -12 -7 -26q-3 -14 -1 -24q2 -8 -4 -19q-7 -12 -8 -17q0 -4 1 -16q1 -9 -6 -45q-9 -38 -15 -68q-6 -31 -11 -39q-5 -7 -5 -19t-3 -23q-2 -12 0 -20 q0 -7 -10 -60q-10 -51 -15 -60q-5 -10 -4 -20q2 -9 -3 -33l-3.5 -20t-2.5 -18q-1 -8 -2 -11q-1 -6 -7 -11q-6 -4 -10 -11q-1 -1 -4 -5t-4 -5q-5 -4 -12 -6q-3 -1 -5 -1q-4 0 -12 3q-11 4 -17 4q-5 0 -10 2q-3 2 -9 9q-4 6 -4 9q1 5 -1 12q-2 9 1 26q4 17 3 26q0 11 4 22 q5 9 23 104q21 109 24 129l9 46q5 26 10 45q7 35 6 42q-2 7 3 28q2 7 3 12q2 11 2 23q0 9 2 18q1 6 4 16q4 21 8 29q3 10 4 24q0 15 5 24q2 4 3 11.5t3 20.5q2 14 3 19q1 7 8 19q8 14 15 19l17 7q13 4 15 4z" />
<glyph unicode="m" horiz-adv-x="910" d="M385 504q12 3 28 3h17h35q5 -3 7 -5t8 -5q2 0 7.5 -1.5t8.5 -1.5q11 -1 27 -10q13 -8 18 -15q4 -8 9 -16q4 -11 9 -13q2 -1 8 -1q1 0 3 1l8 4q1 1 4 3q8 6 11 9q7 8 16 13q3 2 9 7t9 7q8 7 36 16q21 6 29.5 7t36.5 2q40 0 46 -2q8 -3 24 -7q16 -5 22 -5q5 0 10 -3 q12 -4 13 -5q8 -1 9 -6q0 -1 11 -15q11 -13 11 -18q-1 -6 1 -19q1 -3 1.5 -10.5t0.5 -9.5l4 -18q2 -11 6 -17q3 -7 -1 -20q-1 -2 -4.5 -17t-4.5 -24q-6 -27 -7 -45q1 -12 -6 -45q-6 -31 -11 -40q-4 -12 -7 -26q-3 -19 -3 -35q0 -5 -1 -29q0 -5 -1 -9q-1 -6 -5 -15 q-3 -6 -11 -36q-5 -22 -10 -27q-8 -7 -12 -8q-5 -3 -23 -5q-9 -1 -27 -1q-10 0 -17 4q-8 4 -9 11q-2 5 4 28q3 11 4 16q1 8 0 16q-2 9 0 24q4 16 8 25q4 7 5 14t3 26q5 34 5.5 37t5.5 12q3 4 7 25q2 24 2 27q-1 5 3 37q4 19 5 43q1 12 0 19q-2 6 -3 15q-1 11 -3 13 q-2 0 -4 9q-1 7 -12 17q-14 10 -19 12q-8 4 -43 4q-34 0 -40 -5q-10 -8 -22 -12q-17 -9 -23 -14q-8 -6 -16 -18t-8 -13q-1 -4 -10 -16q-8 -11 -12 -28q-3 -12 -8 -22q-4 -7 -3 -17q1 -11 -3 -20q-6 -15 -7 -16q0 -3 1 -15q1 -6 -20 -114q-15 -79 -18 -93t-9 -18 q-6 -6 -18 -8t-19 -5q-8 -2 -19 -2q-12 0 -18 3q-3 2 -7 6l-1 6q-1 6 -2 9q-2 13 0 31q0 19 5 27q6 10 6.5 13t0 11t4.5 32q5 27 3 34q0 9 6 23q7 21 9 33q5 20 4 29q-2 10 3 22q6 13 5 23q-1 15 0 17q1 6 0 20q-2 17 -1 25v17q-3 4 -10 21q-7 16 -16 19l-17 6q-10 2 -30 2 q-19 0 -33 -3q-15 -5 -34 -14q-16 -7 -21 -11t-15 -20q-15 -20 -16 -25t-7 -13t-8 -21q-2 -15 -6 -21q-4 -8 -19 -79l-8 -41q-6 -30 -5 -43t-2 -21q-3 -9 -4 -18q2 -8 -3.5 -20t-4.5 -20q0 -5 -2 -18l-8 -20q-2 -5 -8 -13q-2 -2 -9 -6q-3 -2 -33 -2q-27 0 -33 2q-5 1 -8 18 q-4 11 -3.5 20t8.5 49l16 81q5 27 3 38v7v5q0 1 2.5 6t2.5 7q6 12 13 46t5 43q0 6 2 30q5 23 10 33q6 12 5 18t3 26q5 24 4 30q1 9 3 17l5 6q5 6 7 8t7.5 7t7.5 6q5 6 12 8q3 1 20 1q17 -2 23 -5q8 -3 9 -5.5t3 -13.5q1 -11 5 -20q4 -6 8 -6q2 0 11 6q7 8 8 9q0 2 8 7 q7 4 15 11q7 6 13.5 8t9.5 2t16 4q5 1 24 6z" />
<glyph unicode="n" horiz-adv-x="625" d="M460 515q10 3 14 3q3 -2 14 -2q16 -3 17 -3q5 -2 14 -7q6 -6 20 -10t20 -9q9 -4 12 -11q1 -6 11 -18q10 -11 12 -22q2 -7 6 -25q4 -14 3 -20q-1 -7 0 -14q3 -7 0 -29q0 -5 -1.5 -20.5t-2.5 -20.5q-1 -12 -2 -17.5t-3 -8.5q-4 -6 -5 -15q-2 -7 -1 -15q0 -4 -1 -7 q-1 -6 -6 -17q-4 -9 -11 -31q-5 -15 -4 -25q2 -10 -2 -29q-3 -15 -10 -27q-6 -10 -7 -18q-1 -6 -2 -28q1 -19 -4 -30q-3 -6 -9 -21q-1 -7 -5 -13q-3 -4 -11 -9q-9 -6 -15 -6q-7 -1 -25 6q-4 2 -12 4q-6 3 -7 3q-3 0 -9 3q-5 4 -5 11q-1 5 6 38q6 32 5 44q0 13 2 22q0 4 1 9 q3 8 6 26l15 76q12 67 10 74t2 18q2 9 5 17q3 6 2 20q0 5 -1 18q-2 4 -9 16q-9 14 -15 16q-11 5 -17 6q-11 5 -16 6q-4 2 -19 7q-14 2 -28 -1q-11 -2 -23 -6q-11 -4 -15 -4q-7 -2 -14 -10q-8 -5 -17 -15q-8 -8 -13 -10q-9 -5 -12 -6q-4 -2 -12 -13q-8 -8 -9 -16 q0 -1 -3.5 -9t-5.5 -13l-5 -14.5t-7 -17.5q-6 -20 -14 -61q-5 -21 -6 -29q-3 -17 -1 -21q0 -8 -1 -12q-1 -6 -4 -14q-4 -6 -6 -13q-1 -4 1 -18q1 -11 -4 -29q-3 -15 -9 -25q-4 -10 -4 -17q-2 -8 -2 -20q-1 -9 -11 -25q-9 -14 -15 -18q-5 -3 -28 -4q-25 0 -29 1q-3 1 -11 7 q-3 7 -3 12q-1 8 -2 17q-1 11 15 91l8 44q7 36 7 44q-1 6 1 14q1 6 5 22q8 30 18 82q11 56 9.5 65t0.5 16q0 3 6 15t10 36q5 26 10 30t13.5 6t14.5 5q7 5 15 3q3 0 14 -3q2 0 7 -1t7 -2q6 0 10 -10q1 -3 4 -10.5t4 -8.5q5 -8 9 -11q5 0 13 4q6 3 12 8t13 8q10 3 12 8 q4 5 24 11q16 7 28 9q6 1 19 7q9 5 22 5q10 0 22 2z" />
<glyph unicode="o" horiz-adv-x="612" d="M430 440q-11 3 -28 3h-8q-9 0 -15 -1q-2 0 -10.5 -0.5t-13.5 -0.5q-15 0 -22 -2q-6 -3 -10 -6q-10 -6 -15 -7q-9 -3 -13 -8q-5 -6 -11 -11q-11 -9 -16 -14q-8 -10 -14 -20q-6 -11 -13 -16q-4 -4 -8 -13q-2 -5 -7 -14q-3 -5 -10 -31q-3 -10 -5 -20.5t-2 -15.5 q0 -3 -2 -13.5l-3 -15.5q-3 -18 -1 -25q1 -3 -1 -24q-2 -17 2 -24q4 -5 3 -17q-1 -14 0 -16q1 -5 7 -14q6 -11 15 -16q11 -6 16 -15q8 -10 21 -13q9 -3 32 -5q20 0 25 3q5 2 23 4q16 0 31 7q18 8 19 10l10 6q4 3 11 13q4 6 13 13q7 5 15 15q7 7 16 20q6 11 10 21q6 11 7 19 q2 10 2 14q0 8 5 16q4 7 10 38q6 30 4 36q-2 4 -1 17q1 6 0 26q-2 14 -1 18q0 3 -5 9q-6 2 -10 19l-4.5 12t-3.5 6.5t-11 9.5l-15 14l-3 4q-3 3 -15 5zM396 522q9 2 19 2h5q9 0 16 -5q8 -4 19 -4q14 0 21 -4q2 -1 10.5 -3.5t12.5 -4.5q15 -6 17 -8q5 -4 8 -7q5 -4 13 -7 q10 -3 13 -9q5 -7 8 -8l5 -4q4 -3 6 -5q8 -7 10 -13q3 -6 8 -9t7 -16q3 -16 2 -20q0 -1 1 -7.5t2 -9.5q0 -2 0.5 -7.5t1.5 -10.5t2 -9q2 -18 1 -22q0 -3 1 -19q-1 -2 -1 -11t-1 -11q-1 -7 1 -19q0 -10 -1 -16q-1 -2 -1 -5q-2 -7 -6 -13q-3 -3 -8 -23q-3 -11 -9 -29 q-3 -6 -12 -27l-14 -29q-8 -15 -12 -19q-5 -9 -9 -10q-3 -3 -11 -13q-5 -7 -19 -20.5t-16 -17.5q-5 -7 -22 -14q-19 -7 -31 -15q-10 -7 -19 -10q-3 0 -20 -7q-13 -6 -36 -8q-19 0 -30 -4q-4 -1 -31 -3q-20 0 -35 4t-22 4q-11 0 -19 3q-11 4 -16 4q-11 4 -13 6q-9 4 -18 7 q-8 1 -14 5q-2 1 -4.5 4.5t-4.5 4.5l-8 10q-6 7 -9 12t-14 16q-10 7 -11 13q0 4 -4 11q-4 8 -4 10q-2 3 -1 18q1 10 -1 29q-2 6 -5 27q-3 11 1 34q4 39 7 51q5 28 8 32q3 6 6 21q2 12 9 26q5 9 7 18q1 6 7 16q2 6 7 15q1 5 11 14q11 12 14 15q6 8 9 13q6 9 12 13q10 6 19 16 q11 9 27 19q18 9 25 10l17 4q1 0 14 6q6 5 12 7q3 1 21 1q19 0 23 -1q8 -2 14 3q8 7 11 8z" />
<glyph unicode="p" horiz-adv-x="626" d="M439 425q-18 2 -24 2h-4q-6 0 -14 -1t-33 -12q-3 -1 -14.5 -6t-13.5 -6q-7 -4 -13 -9l-5 -5l-3 -3q-2 -2 -8 -6q-7 -3 -13 -12q-8 -12 -12 -15l-10 -13q-9 -14 -13 -25q-7 -16 -11 -23q-5 -6 -12 -42q-4 -26 -4.5 -31.5t2.5 -10.5q4 -7 0 -34q-3 -20 -3.5 -24t2.5 -9 q5 -8 6.5 -14t4.5 -9q2 -2 5 -9q1 -6 7 -11q3 -3 11 -9q3 -1 12 -10q7 -8 17 -14q9 -5 22 -7q4 0 18 -3q5 -1 8 -1t5 1q6 3 18 3q14 2 25 6q13 4 24 13q14 10 18 16q7 8 13 13q10 8 17 20q6 9 18 29q5 12 6 17q1 3 1 10q1 7 2 17q3 4 8 30q2 8 3 14q3 14 2 21t5 36 q3 13 3 17q2 10 -1 19q-4 13 -4 21q0 10 -3 15q-4 5 -5 11q-1 7 -8 10q-5 3 -11 10q-7 9 -15 14q-11 8 -26 9zM435 505q7 3 16 3t14 -3q8 -3 26 -5q6 -1 16.5 -3t12.5 -2q4 -1 11.5 -4t9.5 -4q10 -7 19 -11q10 -7 15 -16q7 -9 17 -17q10 -7 13 -20q2 -7 7 -23q0 -2 2 -17 q1 -8 4 -12q5 -6 6 -14q2 -11 4 -12q2 -3 3 -5q1 -5 0 -19q-1 -6 -2 -30q-2 -18 -2 -21q-1 -10 -6 -18q-7 -13 -11 -36q-5 -26 -10 -36q-5 -11 -7 -20q-1 -6 -7 -18q-6 -10 -8 -17q-3 -8 -8 -14q-7 -7 -10 -14q-5 -9 -9 -11q-7 -4 -10 -9q-8 -9 -12 -13q-2 -3 -7.5 -8.5 l-6.5 -6.5q-8 -5 -11 -9q-9 -7 -14 -10l-18 -8q-1 -1 -5.5 -3t-5.5 -3q-5 -4 -22 -12q-18 -7 -34 -8q-14 -2 -25 -4q-5 -3 -11 -3t-13 -3q-12 -3 -27 -3q-19 -2 -29 2q-18 8 -31 13q-23 7 -26 11q-1 1 -5 4q-2 1 -3 2q-5 3 -15 5q-11 2 -14 0q-4 -6 -10 -21q-3 -11 -10 -23 q-3 -6 -4 -11q-1 -6 0 -10q2 -9 -8 -57l-11 -59q-3 -7 -14 -17q-11 -11 -18 -14q-8 -4 -13 -4h-3q-1 0 -9.5 1.5t-12.5 2.5q-6 1 -13 2q-6 1 -7 1q-3 2 -5 10q-3 9 -2 18q0 3 0.5 9t0.5 7q-1 3 4 16q4 10 3 19q-2 7 3.5 35t9.5 33q5 12 5 13q1 4 -1 16q-1 8 7.5 51t6.5 49 q-1 8 1 15q1 6 4 12q4 4 17 69q11 61 10 69q-1 2 -1 16q3 15 8 25q5 13 6 24q-1 12 12 81q7 39 9 52q4 20 7 25q8 9 10 11q8 6 13 7q2 1 17 4q7 1 21 -1q9 -1 20 -4q6 -2 12 -8q4 -4 6 -15q0 -5 2 -11q2 -2 4 -2q1 0 9 4q6 5 8 5q3 0 25 14q25 14 28 17q6 4 40.5 5t41.5 4z " />
<glyph unicode="q" horiz-adv-x="625" d="M380 446q-18 3 -25 3q-4 0 -14 -7q-8 -4 -21 -9q-9 -3 -17 -12q-9 -9 -18 -14q-10 -8 -13 -16q-2 -5 -15 -25q-9 -13 -20 -31q-10 -14 -11 -21q-2 -3 -2.5 -7t-0.5 -8q1 -2 0 -9t-1 -9q-2 -9 -6 -19q-2 -6 -3 -9.5t-1 -11.5q1 -10 -4 -35q-5 -24 -2 -34q5 -14 5 -19 q1 -9 5 -12q4 -4 5 -10q1 -7 7 -12q7 -9 10 -14q9 -11 13 -14q7 -5 10 -5q2 0 21 -6q15 -6 21 -6q3 0 13 1q20 4 29 7l21 8q11 4 26 12q18 10 22 18q3 5 18 21q13 12 16 20q2 2 5.5 9.5t4.5 10.5q8 12 12 25q4 11 4 20q3 14 6 23q4 10 5 15t1 11q1 12 4 29q4 18 0 27t-2 21 q1 10 -5 30q-9 21 -15 28q-8 9 -19 14q-2 2 -6 4l-4 2q-1 1 -4 2q-3 2 -3 3q-13 4 -18 5q-4 1 -17.5 3t-16.5 3zM355 530q14 1 31 1l15 -3q14 -3 23 -3q16 -2 22 -2q6 -1 16 -13q11 -13 19 -17q3 -2 8 -5q4 -2 5 -2q6 -2 9 -12q5 -11 7 -11q2 -2 5 -2t7 4q4 5 7 20 q4 17 7 21q6 6 13 7l9 2q8 2 13 3q13 4 32 4q17 0 23 -2q6 -3 6 -9q1 -6 -1 -19q-3 -13 -2 -24q1 -9 0 -17q-1 -3 -2 -8q-6 -22 -9 -27q-3 -7 -5 -17q-2 -6 -3 -18q-1 -8 -3 -20.5t-3 -15.5q0 -1 -3 -15l-7.5 -35.5l-8.5 -40.5q-16 -82 -15 -83t2 -8v-6q-1 -3 -4 -8 q-5 -11 -9 -25q-6 -20 -9 -24q-4 -6 -6 -20q-3 -15 -1 -23q1 -9 -1 -23q-3 -15 -5 -33q0 -12 -5 -27q-4 -11 -3 -18q1 -8 0 -12q-1 -5 -4 -11q-4 -7 -3 -15t0 -13t-5 -13q-5 -7 -5 -21q0 -7 -3 -20q-2 -9 -11 -16q-11 -9 -16 -10q-6 -2 -11 -2t-16 -4q-8 -3 -18 -3 q-9 0 -14 3q-7 3 -13 10q-7 8 -9 18q-2 8 -1 15t7 38q8 43 11 46q4 9 10 38q7 30 13 43q5 9 3 14q0 4 -4 6h-8q-5 -2 -12 -7q-7 -6 -29 -16q-21 -9 -31 -14q-2 -2 -7.5 -4.5t-7.5 -3.5q-6 -3 -18 -3q-14 -2 -23 -6q-10 -4 -36 -4t-42 6q-19 6 -27 9q-10 2 -14 7q-7 6 -11 6 q-4 2 -10 7q-2 1 -5.5 3.5t-5.5 3.5q-9 5 -13 8q-7 6 -15 15q-8 8 -11 20q0 2 -4 10.5l-6 12.5q-6 12 -7 18q1 5 -1 15q-2 12 -2 18q0 7 -4 20q-3 8 -3 13.5t5 30.5q2 9 6.5 35t6.5 36q7 38 13 48q5 8 6 15q1 2 10 18q3 4 8 13t5 10l6 10q1 4 8 12q6 14 7 20q2 8 10 21 q9 13 12 15q4 3 15 7q12 6 14 9q2 1 6 5t7 6q6 6 18 11q7 1 26 8q11 3 27 10q12 6 19 7q8 2 33 2z" />
<glyph unicode="r" horiz-adv-x="407" d="M436 533q5 2 16 2q5 0 17 -5q6 -3 8 -5t2 -8q1 -8 3 -16q2 -7 1 -10q0 -3 -3 -10q-1 -4 -4.5 -11.5t-4.5 -9.5q-3 -6 -10 -16q-2 -4 -10 -8q-4 -3 -25 -7q-22 -4 -27 -4q-8 0 -23 -6q-15 -7 -27 -8q-13 -1 -23 -8q-11 -6 -16 -12q-3 -2 -11 -14q-2 -8 -11 -17 q-7 -9 -9 -16l-8 -15q-3 -4 -9 -37q-6 -29 -14 -48q-5 -13 -5.5 -16.5t0.5 -12.5t0 -14q-1 -3 -5 -17q-9 -22 -10 -30q-2 -9 -1 -25q0 -15 -5 -24l-7 -16q-1 -7 0 -17q2 -9 -1 -28q-4 -19 -8 -25q-2 -3 -13 -14q-7 -6 -10.5 -7t-15.5 -2h-8q-9 0 -19 3q-5 1 -12 5q-3 1 -4 1 q-4 3 -12 13q-4 5 -9 17q-1 6 0 13q1 2 7 17q6 10 6 14q1 5 0 13q-1 9 3 21q4 13 4 17q-1 4 1 13q1 8 4 12q4 5 10 34q6 30 4 34q-1 6 2 26q1 10 3 17q1 8 5 18t5 17q-3 5 0 18q2 15 7 25l8 20q2 4 3 13q2 9 3 21q4 28 3 34q-2 7 4 42l4 20q3 15 12 24q10 11 15 12q4 0 24 2 q17 3 26 1q4 0 16 -5q7 -4 10 -13q3 -8 -1 -27q-1 -5 -3 -13v-8q0 -2 3 -5q6 0 9 2q7 2 12 7q5 6 6 7l2 2l5 5q3 5 11 9q7 3 8 7q3 5 11 6q9 2 11 4q6 3 11 8q6 7 13 9q6 3 21 3q14 0 25 2z" />
<glyph unicode="s" horiz-adv-x="398" d="M275 527q14 5 23 5q13 -2 19 -5q9 -5 34 -5q27 0 36 -3q9 -1 16 -9q3 -3 7.5 -8t5.5 -7l11 -13q4 -7 3 -18q-1 -14 1 -19q2 -8 -1.5 -16t-4.5 -13q-1 -2 -5 -11q-5 -6 -12 -7h-25q-19 0 -24 3q-1 1 -6.5 4t-6.5 4q-9 4 -15 15q0 1 -11 19q-5 9 -13 10q-8 2 -19 0 q-10 0 -22 -6q-9 -4 -20 -13q-10 -10 -13 -16q-6 -9 -10 -29t1 -29q3 -7 11 -13q9 -4 12 -12q1 -1 4 -6t4 -7q4 -5 11 -6q11 -2 22 -7q12 -5 17 -13q6 -11 9 -12q3 -3 14 -7q3 -1 9.5 -3t8.5 -2l14 -3q8 -2 13 -9q7 -9 9 -11q5 -3 6 -8q2 -8 5 -11q3 -4 4 -10t-1 -12 q-1 -7 2 -15q2 -6 0 -17q-1 -5 -5 -20q-5 -29 -12 -42l-7 -21q-1 -8 -5 -14q-3 -7 -11 -14q-10 -10 -17 -16q-12 -12 -14 -15q-6 -8 -13 -11q-4 -3 -26 -12q-19 -6 -31 -8q-15 -2 -18 -5q-9 -2 -22 -2q-17 0 -26 -3q-7 -2 -17 -2q-2 1 -22 3q-17 1 -28 7q-12 7 -22 19 q-18 15 -19 16q-5 3 -9 8q-1 0 -9 23l-5 17l-4 9q-4 7 -2 13q4 12 12 22q11 15 17 17q6 3 43 3q34 0 39 -2q4 -2 6 -5q2 -11 2 -13q0 -7 6 -26q3 -13 9 -24q6 -6 20 -9q16 -2 19 -2q6 0 14 5q9 6 25.5 28t18.5 35q2 10 3 26q-1 17 -2 19q-2 7 -14 14q-9 3 -17 10q-2 5 -11 7 q-5 2 -12 6q0 1 -11 8q-9 4 -9 7l-10 8q-14 9 -16 12q-7 7 -19 7t-15.5 2t-9.5 10q-7 11 -7 15q0 5 -7 10q-8 5 -9 10q0 6 1 12q1 7 -1 17q-3 11 1 35q3 26 2 28q1 5 6 14q2 3 5 9t3 7t17 27q16 22 22 27l19 13q13 8 18 13q6 5 12 6q1 0 8 2t10 3q2 0 8 1.5t8 1.5q6 0 17 5z " />
<glyph unicode="t" horiz-adv-x="393" d="M301 637q4 3 18 3q13 0 21 -5q7 -4 8 -9q0 -2 -4 -23q-4 -22 -9 -31q-6 -12 -5 -21l1 -12q-1 -3 0 -11q-1 -6 6 -9q4 -2 13 -1q12 3 26 3q21 2 34 2q14 0 17 -2q5 0 10 -6q6 -5 5 -15q0 -11 2 -15q1 -8 0 -14q-2 -8 -6 -14t-12 -12q-8 -5 -16 -8q-12 -3 -27 -3 q-16 0 -24 3q-8 2 -22 -1q-10 -1 -18 -5l-9 -7q-4 -5 -7 -24q-5 -26 -6 -35q-1 -13 -6 -27q-5 -12 -5 -14q1 -2 -5 -20q-3 -9 -4.5 -16.5t-1.5 -15.5q0 -6 -1 -26q0 -10 -6 -21q-6 -12 -9 -29q-1 -8 -4 -20q-7 -37 -6 -46q2 -15 3 -17q1 -9 0 -14q0 -8 3 -11t27 -3 q7 0 23 0.5t22 0.5q22 0 27 -2q8 -3 11 -7q3 -8 4 -10q1 -11 0 -22q-1 -8 -2 -12q-1 -6 -5 -12q-1 -2 -13 -14q-9 -6 -12 -9q-9 -2 -20 -2q-15 0 -32 -4q-13 -3 -18 -3q-4 0 -17 2q-11 2 -32 5q-14 0 -19 4q-8 3 -12 4q-7 2 -14 9q-9 8 -12 18q-5 11 -9 14q-2 1 -8 13 q-3 8 -3 31q1 18 0 30q1 9 4 17q5 8 12 38q6 31 4.5 40t0 15t6.5 18q7 13 22 90q15 79 14 82q0 7 -2 11q-4 4 -13 7q-8 2 -17 2t-15 -3q-9 -2 -15 -2q-4 0 -15 4q-6 2 -15 9q-4 4 -5 17q1 10 0 18q2 10 4 15q1 7 7 12q5 5 18 6q15 2 22 5q9 2 24 0q18 -2 22 -2q5 0 11.5 4 t9.5 9q3 6 9 33q6 29 12 40q9 14 12 16q1 2 9 7q5 3 17 5q2 0 17 5z" />
<glyph unicode="u" horiz-adv-x="651" d="M216 530h21q2 0 31 -3q18 -1 21 -5q3 -2 5 -7q1 -6 0 -11q-1 -4 0 -18q1 -13 -2 -30q-3 -16 -9 -24q-5 -8 -15 -62q-10 -51 -9 -63q0 -9 -4 -18q-5 -10 -13 -50q-8 -42 -8 -59q-2 -15 1 -24q3 -6 2 -12q0 -8 4 -13q2 -2 3.5 -5.5t2.5 -4.5q0 -2 8 -12q12 -11 15 -13 q5 -4 32 -5q29 -2 35 -2q9 0 15 4q5 4 15 6q6 0 17 5q3 2 9 4.5t7 3.5q2 1 8.5 5t8.5 5q9 8 11 14l9 13q8 8 14 20q8 14 9 27q3 14 6 18t6 16q0 4 3 24t4 26q3 11 7 19q5 9 6 13q-2 4 4 33q6 30 3.5 39t0.5 17q4 8 13 57q8 37 11 44.5t10 14.5q11 8 24 10q15 2 34 2 q20 0 28 -3q7 -1 15 -8q5 -6 1 -30q-6 -28 -8 -33q-4 -11 -3 -21q-1 -11 -6 -23q-6 -11 -5 -22q0 -10 -3.5 -18t-6.5 -22q-4 -19 -3 -24q-1 -10 -5 -23q-4 -11 -3 -21q1 -7 -1 -20q-1 -3 -2 -11q-1 -4 -3.5 -17t-4.5 -20q-6 -37 -4 -44q1 -9 -2 -20q-3 -10 -3 -20l-3 -17 q-4 -11 -3 -20q0 -10 1 -15q1 -6 0 -12q-1 -4 -6 -13q-3 -6 -11 -19q-5 -10 -18 -21q-8 -7 -13 -8t-28 -1q-31 0 -43 4q-9 4 -11 6.5t-5 12.5q-5 13 -8 15q-1 1 -7 1q-9 -4 -15 -8q-11 -7 -17 -9q-4 -1 -15 -8q-14 -8 -17 -9q-8 -4 -32 -7q-36 -3 -46 -3q-21 0 -31 2 q-6 3 -14 3q-7 0 -18 6q-15 8 -19 8l-16 7q-4 1 -9.5 4t-6.5 3q-2 2 -13 6q-9 3 -13 10q-2 4 -4 11q0 8 -2 11q0 5 -4 9q-2 3 -4 15q-1 15 -3 19l-3 18q0 12 5 39q2 15 17 92q5 34 7 45q5 23 10 34q5 10 7 22q2 6 3 20q4 31 4 35q0 2 1.5 13.5t1.5 17.5l4 33q3 12 8 20 l11 18q6 8 10 9q3 0 11 2z" />
<glyph unicode="v" horiz-adv-x="446" d="M477 505q19 3 25 3q12 0 14 -4q3 -6 6 -10q2 -4 3 -11l-2 -10q-1 -2 -4 -8.5t-5 -9.5q-6 -13 -10 -25q-2 -4 -7 -16t-6 -14q-9 -17 -14 -25q-9 -13 -10 -15q-6 -9 -10 -20q-3 -13 -10 -19q-6 -7 -8 -12q0 -1 -6 -17q-5 -14 -10 -22q-3 -10 -6 -15q-2 -1 -4 -6t-2 -6 q-1 -5 -7 -12q-4 -3 -8 -9q-3 -6 -5 -16q-2 -11 -5 -17l-9 -11q-6 -6 -17 -33l-16 -35q-5 -8 -5 -17q-2 -9 -8 -15t-9 -18q-4 -11 -11 -22q-5 -7 -14 -17q-7 -6 -10.5 -14t-11.5 -14q-9 -8 -27 -10q-10 -1 -29 -1q-13 1 -23 7q-12 7 -20 7q-7 0 -12.5 2t-9.5 17q-4 13 -3 24 q0 13 -4 32q-2 6 -5 29q2 6 -2 18q-5 12 -4 17q-1 11 -1 13q0 1 -0.5 8t-1.5 10q0 12 -5 28q-6 15 -4 33q2 13 0 25q-4 12 -5 18v7.5v5.5q1 5 -1 9q-3 8 -5 23q-2 20 -3 29q-1 10 1 20q1 8 0 14q-1 4 -6 11t-4 17q0 12 -2 18q-1 7 0 22q1 19 3 29q1 6 6 10q6 7 15 10 q9 5 17 5q4 0 26 -2q17 -2 24 -4t6 -5q0 -2 0.5 -10t0.5 -11q2 -3 8 -6q5 -4 6 -9q2 -2 1 -28q-2 -32 -1 -35q1 -9 4 -20q4 -5 6 -15q1 -2 2 -14q-1 -6 2 -14q1 -6 -1 -18q-2 -11 1 -27q1 -4 2 -16t2 -16q2 -15 1 -21q-2 -7 3 -14q3 -9 3 -20q-1 -8 3 -26q1 -12 2 -21 q0 -8 2 -10q3 -4 8 -4q6 0 10 3q4 4 9 14q7 12 12.5 20t8 21t7.5 19q6 8 10 21q7 18 10 24q4 11 13 26l14 25q6 16 9 28q5 15 10 24q6 10 6 12q2 9 10 22q10 20 10.5 23t4.5 11q0 2 4 10q2 5 2 7q2 5 11 23q6 11 17 20q12 11 17 12q6 2 12 2t19 4z" />
<glyph unicode="w" horiz-adv-x="762" d="M168 520q16 2 17 2q2 0 8 -2t11 -10q5 -6 7 -14t5 -14q4 -8 2 -24q-1 -14 0 -23q1 -5 2 -14q0 -1 0.5 -7.5t1.5 -9.5q1 -9 0 -21l1 -16q3 -8 0 -21q-1 -17 0 -18q2 -8 2 -15l3 -18q3 -10 4 -22q2 -14 2 -25v-23q-1 -2 1 -21q0 -2 2 -8l3 -9q4 -14 2 -21q0 -9 3 -16 q3 -4 8 -3q2 2 5 8q5 8 7 16l11 21q9 14 10 16q4 4 7 20q3 15 10 24q5 7 11 22q3 13 8 19q3 6 4 9q0 4 8 19q8 20 13 26q2 2 5 8t5 8q1 3 8 26q6 21 9 27q4 6 7 12q1 4 7 14q4 5 8 17q4 11 11 21q4 7 12 19q4 6 18 11q13 5 54 5q41 -1 45 -6q3 -4 10 -22q5 -15 4 -27 q0 -7 3 -19l4 -20q2 -11 -1 -25q-3 -15 3 -22q5 -10 5 -13q1 -6 0 -12q-1 -4 0 -12l4 -31q4 -25 1 -41q-4 -18 -2 -24q1 -8 0 -23q0 -14 2 -23q2 -15 2 -17q1 -9 1 -11q2 -9 1 -15q-2 -9 -2 -17q1 -6 4 -10q1 -3 6 -3q4 1 6 10q2 10 6 19q1 1 4.5 7.5t4.5 8.5q6 11 10 26 q6 22 9 26q6 13 8 18q2 4 5 11t3 8q1 6 7 11q6 8 11 16q5 6 10 22q2 11 9 25q6 12 11 21q5 8 7 19q2 10 8 20q0 2 4 8.5t5 9.5q8 13 9 17q5 12 8 17l9 24q2 14 10 21q8 8 15 19q6 11 12 14q6 2 10 2q3 0 15 -4t17 -2q2 1 15 5q6 1 13 0q7 -3 8 -10q2 -5 1 -12q-1 -4 -4 -13 q-6 -21 -10 -26q0 -1 -3.5 -7.5t-5.5 -9.5q-6 -10 -7 -18q-2 -9 -7 -17q-6 -10 -6 -13q-1 -6 -6 -15q-6 -10 -7 -13q-1 -5 -9 -16q-8 -12 -13 -18q-7 -10 -8 -14q-7 -16 -12 -26q-2 -6 -7 -15.5t-5 -11.5q-3 -8 -7 -15q-3 -4 -4.5 -13t-5.5 -15q-4 -7 -8 -11q-6 -7 -8 -11 l-3 -7q-4 -8 -7 -13q-4 -10 -19 -36l-20 -37q-12 -22 -15 -28q-7 -14 -12 -21q-4 -6 -10 -20q-6 -11 -14 -20q-12 -10 -17 -12q-6 -3 -40 -4h-22q-13 0 -25 5q-15 7 -17 9q-4 5 -6 11q-1 10 3 22q4 15 0 27q-3 16 -4 18q0 7 -1 15q-2 10 0 20q3 14 2 26v25q0 12 -3.5 16 t-2.5 15q2 10 0 22q-1 7 -1 26q-1 13 0 19q1 4 -2 23l-3 32q-1 14 -2.5 23t-4.5 24q0 8 -4 13q-3 0 -6 -4q-3 -5 -10 -19q-1 -3 -5 -11.5t-5 -11.5q-4 -9 -12 -23q-7 -12 -12 -27q-3 -13 -8 -21q-6 -15 -7 -20q-3 -10 -10 -18q-6 -6 -10 -21q-6 -20 -12 -31q-1 -4 -7 -14 t-8 -14q-4 -7 -11 -23q-2 -8 -7 -16q-3 -3 -9 -20q-3 -15 -10 -21q-7 -10 -8 -13q-4 -8 -5 -15q-2 -11 -7 -18q-4 -9 -12 -15q-4 -4 -17.5 -10t-40.5 -7q-13 -1 -22.5 -1t-12.5 1q-2 1 -6.5 2t-6.5 1q-6 0 -11 6q-1 1 -3.5 5.5t-3.5 5.5q-2 3 -4 15q-1 9 1 32q3 19 -1 31 q-3 10 -3 18q-1 12 -1 17q0 9 -3 18q-3 10 -2 13q1 5 -4 17q-5 16 -3 23q0 4 -3 17q-2 7 -2 19q2 12 -2 24q-3 11 -3 22q2 9 -1 17l-3 24q0 20 -3 32q-2 15 -3.5 29t0.5 21q-1 8 -2 13t-4 12q-5 8 -5 14q-2 7 2 29q4 21 7 27q3 5 8 7q3 3 18 5q5 1 16 2t15 1z" />
<glyph unicode="x" horiz-adv-x="526" d="M512 527q7 2 10 2q2 0 13 -4q8 -3 21 -3t20 -4q7 -3 9.5 -6t0 -16t-6.5 -23q-3 -8 -15 -18q-2 -2 -8.5 -8t-9.5 -8q-8 -7 -11 -15q-5 -10 -10 -12q-3 -3 -17 -13l-12 -9q-2 0 -11 -11q-3 -3 -10.5 -12t-10.5 -13q-13 -14 -31 -29t-25 -19q-5 -5 -9 -17q-5 -14 -7 -17 q-3 -4 -4.5 -11t1.5 -13q2 -7 12 -14q7 -4 8.5 -5t3.5 -4t4 -10q4 -15 15 -27q8 -9 13 -19q4 -9 9 -15q9 -14 10 -20l6 -15q6 -7 12 -19l10 -13q2 0 5 -8q1 -1 3.5 -6.5t4.5 -7.5q2 -3 5 -13q2 -8 -2 -24q-3 -17 -10 -23q-8 -6 -14 -7q-6 -2 -44 -2h-18.5t-15.5 0.5t-7 0.5 q-6 4 -14 12l-14 21q-2 2 -4.5 7t-3.5 6l-2 5q-2 4 -2 7q-2 6 -13 22q-12 18 -13 20q-5 6 -8 18l-8 21q-4 8 -6 18q-3 10 -8 16t-10 9l-12 5q-5 1 -10 -3t-12 -17q-9 -14 -19 -23q-14 -14 -18 -21q-8 -13 -15 -17q-8 -5 -21 -21t-18 -18q-7 -6 -18 -18l-21 -22 q-5 -5 -14 -12q-3 -1 -18 -7q-15 -4 -21 -7q-13 -3 -20 -3q-6 -1 -9 -1q-6 0 -12 3t-13 13q-7 11 -5 20q1 7 11 24q10 12 11 16q0 3 11 12q7 8 17 12q7 3 14 9q3 4 21 26q14 19 22 24q4 2 15 15q7 10 14 16q2 1 14 14q7 9 9 9t9 9l21 21q11 9 18 19q5 8 6 13q1 6 -2 13 q-2 7 -9 16q-2 3 -13 12q-7 7 -13 19q-3 10 -9 17l-6 8q-6 7 -7 10q-3 6 -8 6q-5 3 -7 5q-3 4 -5 11q-2 10 -6 13q-6 4 -5 11q-1 4 -7 15q-5 6 -13 32q-7 26 -6 31q0 7 5 13q4 6 10 8l11 7q5 4 24 4q17 0 25 -2q6 -2 17 1q7 3 15 3l12 -3q5 -3 12 -11q5 -7 6 -15q0 -4 5 -13 q4 -5 5 -11q2 -8 2 -10q1 -6 6.5 -13t10.5 -15q3 -6 5 -11q1 -3 8 -17q7 -13 10 -13q1 -1 7 -11q3 -10 8 -16q6 -5 9 -5q5 0 7 2q2 1 18 16q17 14 21 22q8 9 18 12q7 3 9 5t6 10q6 11 10 16q5 6 11 11q6 7 8 11q1 2 4 5.5t4 5.5q8 9 11 12q9 7 10 13q3 7 8 8q4 4 19 10 q20 9 21 10z" />
<glyph unicode="y" horiz-adv-x="533" d="M565 551q7 4 11 4q6 0 10 -3q8 -2 10 -2q4 0 11 -6q7 -3 8 -10q0 -2 -1 -22q-1 -10 -4 -25q-2 -8 -7 -13l-15 -22q-11 -19 -11 -22q-1 -1 -16 -28q-14 -22 -18 -25q-3 -4 -7 -11q-1 -4 -8 -16q-3 -6 -11 -18q-4 -6 -9 -15q-6 -8 -11 -17q-1 -2 -9 -19l-7 -16 q-5 -10 -10 -16q-3 -4 -9 -16q-9 -21 -10 -23q-9 -16 -14 -20q-7 -6 -9 -14q-2 -11 -4 -14q-2 -4 -7 -8t-16 -27l-10 -17.5t-6 -12.5q-4 -7 -10 -14q-7 -8 -10 -14q-2 -7 -9 -16q-9 -14 -16 -21q-10 -14 -16 -29q-6 -14 -19 -36q-15 -21 -20 -32q-6 -13 -11 -15t-9.5 -11 t-8.5 -19q-5 -11 -9 -18q-1 -3 -3.5 -7.5t-2.5 -5.5q-4 -6 -15 -13q-11 -9 -21 -10l-16 -4q-4 -3 -24 -3q-23 0 -27 1q-9 2 -11 6q-4 3 -4 19q-1 18 0 23q2 7 7 12q7 9 14 19q11 16 16 20q6 5 9.5 13t11.5 24q2 3 12 22q6 8 12 21q7 13 10 26q2 11 -1 19q-1 8 0 14v12 q-1 6 -3 6q-1 0 -5 4q-2 8 -2 13q0 9 -2.5 12t-5.5 24q-4 18 -7 30q-1 2 -4 14.5t-5 19.5q-4 24 -7 28q-2 2 -3 11q-1 2 -2 7t-1 7q-3 9 -3 16q0 9 -4 14q-4 12 -5 18q-3 12 -2 17v11l-3 4q-3 5 -4 8q-7 8 -6 11v8q-1 7 -5 12q-4 10 -5 20q-3 13 -2 17q1 3 -2 13q-4 8 -9 14 q-6 5 -6 10v15q1 6 -1 24q-2 15 0 21q1 6 6 10t11 7q9 3 30 3q22 0 30 -4q7 -3 13 -10q5 -7 12 -15l7 -9q2 0 6 -9q2 -7 8 -16q5 -6 7 -20q1 -19 1 -22q1 -9 4.5 -16t2.5 -10q0 -4 4 -16q1 -3 2.5 -9.5t2.5 -8.5l4 -16q4 -14 3 -21q-1 -8 1 -22q4 -14 5.5 -16t3.5 -8v-10 q-1 -1 0 -6t0 -7q3 -13 6 -20q6 -14 6 -26l6 -20q1 -2 5 -15q1 -9 2.5 -11t5.5 -2t7 3q5 4 8 10q4 5 5 9q1 3 7 13q5 6 13 22q7 16 7 17q1 2 9 14q8 10 9 16t12 23l17 30q5 8 12 16q4 4 7 8q1 1 5 12q1 4 6 13q4 6 5 13q6 13 7 15l6 9q0 1 7 9q6 7 16 26q14 26 18 31 q7 9 14 24q7 13 8 17q0 2 6 7q6 7 11 11q6 6 18 10q12 3 19 9z" />
<glyph unicode="z" horiz-adv-x="476" d="M178 528h2h3h4q7 0 13 -5q5 -4 15 -8q12 -3 22 -1q5 1 18 1t27 -1h16t15 -0.5t7 -0.5t7.5 0.5t16 0.5h18.5q19 1 26 1q11 0 19 -3t19 0q8 3 22 3t24 -3q8 -4 28 -4q18 0 21 -2q4 -4 5 -13t-3 -17q-4 -10 -5 -13q0 -2 -8 -18l-8 -20q-2 -5 -22 -22q-19 -16 -20 -20 q0 -2 -9 -16q-8 -13 -15 -18q-6 -5 -9 -5q-1 0 -6 -4q-4 -3 -6 -11q-2 -12 -4 -15q-6 -8 -11 -12q-8 -5 -11 -5q-2 0 -10 -5q-9 -7 -11 -8l-6 -9q-2 -6 -11 -15q-9 -7 -16 -19q-6 -11 -12 -13t-14 -9q-10 -6 -15 -15l-12 -14q-6 -5 -17 -19q-9 -11 -19 -18q-7 -3 -16 -11 q-5 -4 -16 -17q-7 -9 -8 -12l-10 -10q-10 -10 -11 -13q2 -5 6 -7q6 -5 9 -5q4 -2 15 3q12 4 31 4t26 -3q4 -3 50 -3q47 0 53 3q7 3 28 3q22 0 32 -5q9 -5 10.5 -11t-1.5 -23q-4 -19 -9 -24q-3 -7 -10 -9q-7 -3 -18 -3q-10 0 -23 -4q-11 -3 -22 -3q-13 0 -18 -3q-3 -1 -32 -3 q-26 0 -30 3t-25 4q-19 0 -25 2q-5 1 -17 -2q-12 -2 -21 -6q-9 -2 -20 -2h-14q-26 1 -30 4q-5 3 -22 3q-18 0 -31 -4q-12 -3 -19 -2q-5 2 -12 10q-7 7 -9 11q-1 3 5 34q8 32 10 35q1 1 5 6t5 7q12 10 19 19q8 9 15 15q5 4 5.5 6t7.5 10q7 9 14 10q9 3 12 8q1 1 5 5.5t5 5.5 q5 7 8 13q4 7 20 30l24 32q9 10 17 11q8 2 12 11q4 8 13 14q11 6 13 14q3 7 9 10q4 1 9 10q2 6 9 18q10 12 13 14q5 4 20 10q11 4 14 6t10 12q11 16 16 19q9 7 10 10q3 5 3 9q1 6 -2 8q-2 2 -35 2h-36q-68 0 -76 -3q-7 -2 -20 -4q-12 0 -19 -3q-6 -2 -10 -2t-12 2 q-4 3 -15 3q-10 0 -13 3q-3 4 -4 12q-3 10 -2 13q1 4 14 26q10 18 15 26q4 3 14 13q9 8 14 10z" />
<glyph unicode="{" horiz-adv-x="330" d="M421 769q9 2 30 2q24 0 26.5 -3t-1.5 -22q-4 -21 -8 -26q-6 -8 -8 -9q-2 -2 -16 -6t-24 -9q-11 -5 -14 -5l-10 -6l-9 -10q-2 -3 -10 -7q-6 -2 -18 -11q-12 -10 -18 -22l-10 -21q-4 -8 -1 -19q0 -12 -2 -17q-1 -5 -5 -15q-1 -9 0 -13q2 -4 0 -13q-1 -8 -5 -14 q-5 -9 -7 -17q-2 -10 -8 -20q-4 -9 -3 -21q3 -12 0 -17l-8 -12q-6 -5 -10 -15q-5 -10 -8 -14q-1 -2 -4 -5l-3 -4q-1 0 -5 -2.5t-6 -3.5q-5 -3 -11 -12q-3 -7 -10 -10l-10 -6q-2 -3 -14 -9q-9 -5 -13 -8q0 -3 3 -6t13 -7q8 -2 21 -19q14 -15 14 -22v-8.5t-1 -9.5 q-1 -11 3 -17q4 -5 2 -22q-3 -14 -2 -23q2 -5 -9 -71q-13 -65 -11 -71q0 -2 -0.5 -17t1.5 -22q2 -10 7 -14q5 -5 16 -10q14 -5 18 -6q8 -4 7.5 -5t2.5 -5q3 -3 11 -3t19 -5t11 -9q2 -3 -3 -26q-5 -24 -7 -27q-4 -6 -9 -7q-4 -2 -8 -2t-8 3q-5 2 -5 4q-2 2 -6 4q-7 2 -14 2 q-6 0 -16 4q-5 3 -21 5q-16 3 -27 10q-10 5 -23 17q-10 7 -20 19q-7 15 -7 17q-2 6 -2 16q1 8 -2 20q-2 4 -3.5 13t-2.5 11q-3 12 1 28q5 17 3 22q0 7 5 25q5 16 8 23q4 5 2 16q1 12 4 27q3 17 2 23q0 5 -4 10t-3 16t-5 24q-5 10 -10 13q-1 0 -4 1t-5 1q-5 1 -10 7 q-3 6 -5.5 9t-8.5 2q-6 -2 -12 -2q-7 -1 -14 3t-14 13q-7 10 -4 28q5 19 10 23q4 4 15 8q8 3 17 5l11.5 4l11.5 4l30 12l18 9q4 2 7 11q3 10 14 22q13 11 14 17q0 1 -1 13q-1 8 4 18q5 11 5 16q0 4 2 16q2 9 7 27q6 20 7 24q3 15 4 26q4 20 8 25q5 12 6 16q3 14 4 18 q5 8 7 10q4 1 7 6q4 9 5 13q3 9 9 11q7 4 23 17q22 17 25 18q9 4 18 12q11 8 18 8q13 2 15 3l16 5q12 2 18 5z" />
<glyph unicode="|" horiz-adv-x="278" d="M259 693q4 2 21 2q15 0 23 -2q6 -5 6 -7q3 -4 -2 -30q-2 -6 -4 -19q-2 -7 -5 -24t-5 -25q-10 -43 -12 -50q-4 -6 -3 -19q0 -5 1 -18q2 -4 0 -11q-1 -8 -3 -11q-2 -2 -8 -23q-4 -15 -9 -25q-6 -7 -5 -12q0 -3 3 -13q4 -6 1 -16q-4 -10 -14 -59q-11 -52 -16 -61 q-6 -11 -6 -23t-5 -37l-7 -35l-3 -18q-4 -6 -3 -16q0 -7 -4 -14q-4 -6 -9 -31q-5 -24 -4 -37q2 -10 -2 -18q-6 -10 -8 -20q-4 -13 -6 -14q-3 -3 -13 -9q-16 -6 -19 -6q-6 0 -15 4t-11 9v10q0 3 -1 17q-1 16 -3 22q-1 5 8 47q2 14 4 22q3 18 8 28q5 7 6 14q1 3 -1 15 q-1 8 -1 12q1 2 2 6l7 12q3 6 3 12q0 8 1 13t5 10q5 5 4 14q0 9 -2 14q-1 6 0 10t4 12q5 9 15 59q10 52 8 57q-1 9 0 15q0 2 1 7l6 27q8 27 9 30q2 11 1 16q-1 8 1 17q1 8 6 17q5 10 4 22q0 14 7 48q8 38 14 51q8 15 16 22q11 9 14 10z" />
<glyph unicode="}" horiz-adv-x="337" d="M169 763l11 1h17q21 -1 25 -6q2 -5 20 -12q20 -7 24 -9q3 -1 10 -3t9 -3q6 -2 13 -6q2 -3 3 -8q2 -5 7 -8q5 -4 7 -12q4 -6 8 -19q4 -10 4 -24q-1 -15 2 -28q2 -14 -1 -33q-2 -20 -1 -23q2 -4 1 -10t-5 -11q-4 -8 -6 -18q-2 -11 -8 -21q-5 -10 -8 -28q-4 -19 -2 -27 q2 -6 7 -15q4 -5 4 -11q0 -4 1 -10q4 -5 9 -8l9 -8q4 -4 11 -7q7 -2 8 -6q-1 -2 4 -4q8 -3 13 -3q8 -2 12 -4l8 -6q3 -3 7 -3q3 0 9 -2l5 -7q1 -6 -1 -14q-2 -11 -7 -21q-4 -9 -9 -15q-1 -4 -12 -7q-9 -4 -16 -4q-8 0 -16 -7q-10 -8 -18 -9q-7 0 -16 -4q-9 -2 -12 -6 q-4 -2 -12 -18q-8 -13 -15 -18q-4 -2 -9 -12q-8 -20 -10 -24q-5 -16 -8 -19q-4 -6 -5 -11t2 -15q3 -9 1 -18q-1 -7 -7 -25q-4 -12 -8 -22q-4 -4 -5 -11q-1 -5 0 -9q2 -7 -1 -13q-1 -6 -9 -16q-7 -8 -10 -14q-5 -6 -8 -14q-4 -10 -12 -19q-11 -16 -14 -22q-6 -9 -20 -19 q-15 -11 -24 -14q-16 -6 -20 -7q-6 0 -14 -7q-8 -6 -20 -6q-11 1 -24 -2q-10 -4 -26 -4q-3 0 -9.5 0.5t-7.5 1.5q-5 3 -8 12q-3 11 1 24q2 13 6 19q3 5 8 7q6 3 20 3q15 0 23.5 5t19.5 7q7 1 13 6q5 6 5 7q1 3 9 10l16 20q10 12 11 22l8 16q4 5 6 19q3 13 1 20q-2 4 0 17 q3 11 7 17q4 8 5 15q-1 4 2 16q3 17 6 27q5 18 10 25q5 9 5 12q1 5 5 13q4 6 8 16q4 12 7 15q3 4 11 11q9 8 10 10q5 4 10 5q7 1 21 8q13 5 16 5q1 0 8 3q5 4 5 7q1 4 -1 7q-2 4 -16 11q-15 10 -21 11q-5 3 -8 10l-7 15q-7 9 -9 17q-4 12 -4 15q0 1 -4 13q-5 10 -4 14 q2 7 5 11q5 9 10 34q9 35 11 40q4 11 1 15q-6 4 -7 14q1 2 -1 16q0 7 3 14q6 8 7 14q2 6 0 11q-1 9 -1 13q1 6 -4 14q-4 7 -4 15q1 6 0 12l-8 3q-7 2 -10 4q-1 1 -10 3q-6 1 -8 6q-1 6 -6 6q-4 2 -13 0q-11 0 -14 1l-11 6q-5 5 -6 11q0 8 2 19t5.5 17t10.5 9q2 1 6.5 3.5 t5.5 2.5z" />
<glyph unicode="~" horiz-adv-x="565" d="M241 387q6 2 9.5 2t10.5 -2q13 -4 14 -4q2 0 15 -6q12 -7 22 -7q8 0 16 -2q6 -2 11 -7q8 -7 16 -8q1 -1 7.5 -3.5t9.5 -3.5q1 0 8 -3t9 -4q1 0 7.5 -1.5t10.5 -2.5q9 -2 23 -9q13 -7 22 -7h13q18 1 33 6l15 5q4 2 7 11q5 12 14 24q11 15 14 16q7 3 11 3q4 1 23 1h20 q4 0 7 -4q3 -3 2 -13q-2 -8 -6 -20q-3 -10 -9 -15q-5 -4 -8 -8t-4 -9t-4 -11q-1 -2 -16 -16q-12 -10 -15 -18q-1 -1 -4 -5.5t-6 -6.5q-5 -6 -10 -6q-6 -2 -17 -7q-12 -7 -20 -7q-8 -2 -16 -5q-5 -3 -15 -3q-5 0 -22 1q-30 1 -49 7q-17 5 -25 9q-8 5 -15 6q-6 3 -21 5 q-12 1 -28 9l-15 8q-1 0 -7 5q-7 5 -17 6q-7 0 -21 5q-10 4 -25 4q-14 0 -23 -2q-9 -3 -18 -12q-13 -11 -18 -19q-7 -10 -7 -12q0 -1 -6 -9q-3 -6 -16 -13q-12 -5 -24 -5q-11 0 -21 2q-9 2 -10 5q-1 4 0 13q2 7 10 22q2 5 10 16q6 10 6 13q4 8 9 16q7 8 8 14q2 8 3 10 q3 5 10 6q11 5 14 7q1 1 9 10q1 2 4.5 6t3.5 5q6 5 16 6q9 1 18 4q5 3 23 5q9 0 24 3z" />
<glyph unicode="&#xa1;" horiz-adv-x="450" d="M339 555q2 1 9 1q7 -4 8 -5q3 -3 5 -9q3 -6 0 -25q-3 -20 -8 -30q-8 -12 -7 -19q-1 -5 0 -11q0 -5 -5 -12q-3 -6 -3 -22q1 -11 0.5 -14.5t-5.5 -12.5t-5.5 -12.5t0.5 -15.5q0 -16 -1 -23q0 -2 -1.5 -7.5t-2.5 -8.5q-3 -10 -2 -21q2 -11 -3 -25q-5 -13 -2 -21q2 -6 0 -13 q0 -1 1 -13q1 -5 0 -9q0 -3 -3 -11q-5 -14 -6 -18q-2 -11 -4 -19q-6 -17 -8 -20q-5 -6 -6 -9l1 -9q2 -4 -1 -17q-2 -12 -7 -23q-6 -10 -3 -18q3 -7 1.5 -15t-6.5 -20q-3 -12 -2 -21q3 -8 0 -13q-3 -4 -11 -9q-7 -5 -14 -7q-4 -2 -24 -2q-22 0 -26 -1h-5q-6 0 -18 3 q-18 6 -21 9q-5 5 -4 9q1 5 4 11q2 5 3 15t3 16q3 6 11 34q10 33 12 36q4 8 5 22q1 7 0 19q-2 5 -1 10q1 7 8 15q7 10 9 28q5 23 4 27q2 8 6 18q3 10 0 13q-2 4 1 18q1 8 9 24q4 9 8 19q2 8 2 18q-1 7 5 37q5 27 10 36q4 10 9 24q3 13 3 29q0 12 5 30q7 17 12 25q6 8 14 12 q8 3 26 2q19 0 21 1zM304 707q5 2 38 2q32 0 37 -3q5 -2 6 -5q4 -3 10 -5t11 -8q2 -6 0 -16q-2 -9 -2 -21q0 -4 -1 -7q-1 -4 -6 -14q-4 -9 -5.5 -17t-5.5 -11q-4 -6 -9 -6q-7 -2 -19 -2q-10 -1 -18 2q-10 2 -18 4q-12 2 -17 0q-1 0 -4 -1l-9 -3q-5 -3 -10 -3q-2 0 -3 2 q-3 1 1 22q4 23 6 26q2 6 5 28q3 23 7 28q2 4 6 8z" />
<glyph unicode="&#xa2;" horiz-adv-x="551" d="M381.5 430q-11.5 2 -14.5 2q-2 0 -17 -4q-15 -5 -21 -12q-12 -10 -22 -16q-10 -5 -16 -10q-4 -2 -9 -13q-6 -10 -11 -16l-4.5 -4.5t-5.5 -4.5q-3 -3 -5 -16q0 -7 -2 -17q-1 -6 -8 -13q-5 -8 -7 -19q-1 -3 -2 -9q-2 -9 -5 -31q-4 -30 -2 -38l1 -20q1 -13 -4 -30 q-3 -16 -1 -23q2 -6 3 -12q-1 -5 2.5 -7t8.5 -2q7 0 11 4q5 4 12 16q8 13 12 22q1 8 7 16q3 8 4 14q1 2 3 7.5t3 7.5q0 1 5 9.5t7 13.5q9 17 13 22q6 6 8 17q2 10 10 18q7 10 9 20q1 9 5 17q2 2 10 22q7 17 14 27q4 8 10 15q5 7 8 18q5 14 5 18q1 5 -1 7t-13.5 4zM524 627 q6 2 10 2q6 0 7 -1l6 -8q6 -10 5 -11q2 -4 1 -9q-2 -6 -6 -12q-4 -8 -7 -16q-4 -11 -8 -16l-16 -25q-13 -22 -13 -23q-2 -5 0 -11q0 -2 7 -11q4 -2 7 -9q1 -4 7 -11q5 -8 10 -9q5 -4 8 -8q5 -9 7 -13q4 -8 5 -8q2 -4 4 -9q2 -9 5 -31q4 -20 1 -30q-5 -12 -6 -15q-3 -6 -7 -9 q-8 -4 -18 -6q-12 -3 -17 -3q-3 0 -8 2q-4 3 -22 3q-17 2 -19 3q-2 2 -7 14t-8 16q-5 6 -5 8q1 3 -2 6q-3 4 -6 1q-4 -4 -10 -18q-8 -13 -10 -24q-1 -7 -9 -22q-10 -14 -11 -19q-1 -2 -7 -20q-4 -16 -12 -26q-8 -13 -12 -26q-3 -11 -9 -21q-5 -5 -7 -19q-2 -10 -7 -22 q-7 -12 -13 -17q-8 -8 -11 -17q-1 -3 -9 -20q-2 -3 -9 -19q-3 -6 -1 -11q1 -6 5 -7q2 -2 10 2q9 4 15 4q9 2 14 5l13 4q7 0 15 7l11 6q1 0 6 4t7.5 8t7.5 19q4 15 9 21q5 4 9 15q2 9 6 11q3 3 14.5 5t19.5 -3q9 -4 28 -2q19 1 23 0l7 -9q3 -5 5 -12q-2 -9 -4 -14 q-1 -9 -10 -17q-8 -7 -10 -14q-3 -6 -10 -16l-16 -20q-7 -11 -12 -14q-2 -1 -10 -7t-14 -10l-29 -24q-8 -6 -19 -11q-2 0 -10.5 -1.5t-13.5 -2.5q-17 -1 -31 -8q-13 -5 -22 -7t-25 3q-13 6 -20 3t-11 -9q-3 -6 -4 -10q-1 -5 -8 -17q-7 -10 -8 -17q-1 -6 -11 -18 q-7 -10 -11 -20q0 -4 -8 -16q-4 -6 -11 -14q-6 -6 -10 -8q-1 0 -4.5 -1t-6.5 -2q-10 0 -17 1q-13 2 -14 6q-1 5 4 19q3 8 6 22q-1 7 4 17q3 9 10 21q8 10 14 15q6 6 9 24q1 19 0 22q0 4 -8 8l-8 8q-4 5 -9 9q-5 3 -7 8q1 3 -5.5 11t-14 11t-9.5 10q-3 8 -5 11l-3 5 q1 5 -4 21q-3 21 0 40q2 18 -1 25q0 5 -3 12q-2 8 -1 16q0 2 1 20q-1 7 0 12l2 6q0 1 4 7.5t6 9.5q5 10 5 23q-1 12 4 22l10 20q3 5 5 17q1 6 5 15q6 6 6.5 9t5.5 11q5 6 12 19q6 12 10 15q3 4 10 10q6 5 13 15l11 14q2 1 7.5 4.5l8.5 5.5q8 4 19 11q4 4 17 9q11 4 15 7 q5 5 13 9q12 7 22 6t20 3q9 3 21 2q8 -1 20 3q10 4 18 2q7 -2 16 -2q8 0 14 3q5 2 13 16q8 13 11 25q2 11 5 19l11 12q5 8 8 19q4 12 8 15q6 3 15 5q13 2 16 3z" />
<glyph unicode="&#xa3;" horiz-adv-x="546" d="M483 715h3h5h7q9 0 20 -4q4 -3 18 -5q11 0 22 -5q10 -3 18 -9l10 -8q3 -1 18 -14q14 -14 19 -21q9 -11 11 -15q4 -7 5 -17q1 -9 4 -20q3 -7 0 -19q-2 -13 -5 -17q-1 -1 -5 -6l-3 -3l-8 -7q-1 0 -6.5 -1t-10.5 -2q-12 -2 -21 0q-7 2 -14 2q-5 0 -16 -2q-7 -3 -16 -3 q-7 0 -9 3q-1 2 -2 18q-2 12 1 24q1 6 -1 12q0 4 -10 14q-7 7 -15 11q-8 3 -15 12q-8 8 -12 8t-8.5 -2t-12.5 -2q-6 1 -17 -2q-12 -4 -17 -4t-18 -5q-11 -6 -18 -6q-1 0 -4 -1q-5 -1 -6 -2l-4.5 -4.5l-4.5 -4.5q-8 -9 -12 -11q-8 -4 -9 -7q-5 -7 -9 -16q-7 -11 -11 -35 q-3 -20 -9 -30q-6 -9 -12 -36q-8 -32 -9 -34q-1 -5 2 -11q4 -7 7 -8q8 -3 16 -3q12 -1 25 3q9 3 26 3t22 3q6 2 10 2q5 0 12 -5q8 -6 10 -13q2 -8 1 -16q-3 -11 -11 -28q-8 -20 -9 -22q-1 -3 -9 -6q-9 -2 -17 2q-11 3 -38 3q-15 1 -40 1q-12 0 -18 -3q-2 -1 -13 -8 q-8 -8 -8 -10q-1 -3 4 -11q4 -5 3.5 -8.5t-3.5 -18.5q-5 -20 -5 -27q1 -8 -7 -48q-2 -16 -5 -30t-5 -18q-1 -5 -2.5 -23t-2.5 -23q-4 -8 -5 -13q-2 -6 0 -9t16 -2q15 0 18 -1q5 -1 24 0q17 2 27 4q10 1 18 0q7 -3 27 -3h26q7 2 16 0q13 0 18 1h14q4 -2 10 2q7 1 12 0 q5 -3 11 -5q7 -2 15 1q9 4 26 2q14 0 19 -3q3 -3 1 -13q-1 -5 -6 -24q-7 -34 -11 -37q-5 -2 -12 -4t-22 -7q-17 -6 -18 -6q-2 0 -8 5q-4 4 -20 7q-14 3 -24 0q-9 -1 -22 0q-12 2 -24 0q-11 -3 -17 -3t-13 3q-8 4 -15 3q-7 0 -15.5 -2t-21.5 -2q-29 0 -47 2q-18 1 -25 1 q-10 0 -18 -2q-13 -4 -17 -4q-5 -1 -12.5 2t-15.5 2q-12 -2 -32 -2h-13q-10 0 -22 3q-7 4 -18 4q-5 0 -10 3q-4 1 -8 9q-2 5 -1 20q1 11 8 26q6 11 11 16q4 4 16 4q10 0 18 -2q6 -3 11 -3t10 4t6 10q3 6 4 20q1 15 4 21q0 2 2 6.5t4 6.5q3 6 3 17q-1 3 0 12t1 12q1 4 3 11 t2 9q4 8 6 30q4 17 3 29q-1 8 4 13t6 14v10t1 9q0 9 -3 12q-2 4 -28 6q-24 0 -29 3q-3 1 -5 9q-2 4 0 12q1 5 4 15q5 21 10 28q6 8 8 10q5 2 14 2q2 0 9.5 1t10.5 2q9 1 16 -3q5 -3 9 -2q5 2 8 8q4 4 5 12q1 4 0 22q1 17 5 27q3 6 10 31q4 22 8.5 29t6.5 17q1 9 9 24 q10 18 14 24q10 10 13 12q7 6 10 12q1 6 4 9q2 3 12 8t14 10q5 7 27 17q18 8 32 15q13 6 19 6q1 0 6.5 1t7.5 2q3 1 24 3h32q13 0 22 3z" />
<glyph unicode="&#xa4;" horiz-adv-x="524" d="M352 490q-7 2 -13 2t-19 -7l-9.5 -6.5t-7.5 -5.5t-15 -11q-11 -6 -21 -7q-8 0 -14 -3q-4 -6 -6 -13q-4 -11 -9 -18q-6 -7 -13 -19q-6 -10 -12 -32q-4 -13 -4 -16q-2 -7 1 -19q5 -12 4 -17q-1 -6 -1 -9q-1 -3 5 -12q7 -9 8 -12q6 -7 10 -8q5 -1 12 -8q7 -6 13 -13l8 -8 q3 0 5 -2q3 -4 16 -6q13 -4 20 -4q6 0 27 6q14 4 34 12q15 5 20 9q11 9 17 16q17 19 18 20q6 7 10 17l14 28q10 20 11 25q1 7 -1 17q-3 8 -2 14q1 4 -4 18t-11 20q-6 7 -5 8q0 2 -6.5 10t-13.5 11q-9 4 -11 8q0 3 -15 8t-23 4q-11 0 -17 3zM188 596q4 1 5 1h1l12 -2 q8 -2 23 -20q16 -20 16 -22q3 -6 5 -6q2 -2 14 4t19 6q8 0 15 2q8 4 18 12q12 10 17 11q5 0 19 -2q13 -4 29 -2q17 0 25 -6q10 -6 24 -6q12 -1 14.5 -2t6.5 -5q4 -5 21 -9t20 -3q4 0 6.5 2.5t9.5 13.5q13 16 18 18q11 5 17 7q9 5 17 5t11 -3q2 -2 14 -16q8 -11 10 -17 q-1 -9 -4 -17q-5 -14 -13 -21q-7 -6 -24 -18q-16 -12 -18 -13q-5 -6 -5.5 -7t3.5 -13q5 -12 4 -14q1 -3 8 -15q7 -10 6 -16t-4 -12q-2 -7 -1 -16q2 -9 -2 -15q-3 -6 -6 -18q-1 -11 -5 -20q-4 -10 -5 -19q-1 -8 -5 -16q-8 -9 -12 -12q-6 -7 -11 -16l-5 -10.5t-3 -7.5 q-5 -8 -5 -12q1 -7 3 -11q2 -3 8 -11q1 -1 4 -3.5t5.5 -5t4.5 -3.5q8 -7 9 -13q2 -5 0 -18q-3 -13 -6 -17q-7 -9 -16 -16q-10 -11 -18 -14q-5 -3 -15 -3q-8 0 -12 3l-12 9q-1 2 -4.5 5.5l-4.5 4.5q0 1 -4 11q1 7 -5 14q-6 5 -7 5t-18 -8q-19 -9 -28 -10q-11 0 -28 -7 q-13 -6 -29 -6h-24q-38 0 -45 2t-12 5q0 1 -5 4t-7 4q-5 2 -17 10q-8 7 -12 7q-4 1 -15 -6q-3 -2 -9 -8t-7 -6q-4 -6 -19 -17q-20 -13 -25 -15q-9 -4 -14 -4t-9 6q-2 3 -8 9q-2 3 -3 4q-5 5 -8 12q0 10 3 23q4 19 5 21q3 4 9 10q4 3 10 6q6 0 13 7q3 2 11 11q4 7 5 16 q1 10 -5 18q-6 10 -7 19q-3 11 3 44q5 30 5 36q-2 4 -1 9t6 11q2 2 5 5.5t3 4.5q3 2 3 11q1 3 1.5 8.5t1.5 7.5q1 7 8 20q9 12 13.5 16t6.5 10q1 7 -3 13q-4 5 -11 19q-9 14 -13 17q-4 2 -4.5 4t1.5 11q2 8 2 15v8q1 3 7 7q1 1 8 6.5l11 8.5q10 9 15 11z" />
<glyph unicode="&#xa5;" horiz-adv-x="533" d="M191 708q1 1 3 1t5 -1q2 0 11 -1.5t12 -1.5q18 -3 26 -2q9 1 11 -3q4 -3 4 -5l3 -8q2 -6 3 -12q1 -7 5 -12q4 -6 1 -18q-2 -11 -1 -17q1 -4 7 -11q6 -8 11 -23q5 -18 5 -19q-1 -4 4 -18q4 -15 5 -24q3 -15 5 -22q5 -18 4 -24q0 -10 3 -20q1 -8 8 -17q5 -7 2.5 -19 t2.5 -28q6 -17 9 -18q4 -3 9 0q3 1 8 11q4 9 9 16q9 10 12 17q9 14 14 23q7 14 10 16q6 7 8 16q3 10 10 16l7 7l6 6q6 9 10 17q4 11 8 14q4 9 5 14q4 11 16 24q13 16 16 23q3 8 8 11q5 4 9 6q5 4 9 21q6 20 7.5 22t8.5 8t11 13q6 9 9 10q2 3 7 3t13 5t13 5q2 0 6 -1 q7 0 28 -4q19 -4 33 -4q6 0 15 -1h2q2 -3 0 -11q-2 -10 -12 -23q-9 -14 -18 -21q-7 -5 -16 -21q-7 -13 -17 -25q-9 -11 -15 -22q-4 -11 -16 -26l-21 -30q-12 -16 -22 -24q-9 -8 -13 -20q-3 -6 -8 -18q-1 -1 -6.5 -8.5t-9.5 -11.5q-14 -17 -19 -29q-8 -16 -18 -25 q-9 -8 -18 -24q-7 -14 -5 -18t17 -4q19 0 43.5 3t35.5 3q9 0 14 -3q10 -4 13 -8q3 -5 -1 -22q-2 -14 -2 -22q2 -7 -2 -12q-5 -6 -10 -7q-4 -3 -36 -3q-35 0 -39 1q-8 2 -16 -1q-10 -3 -18 -2q-7 3 -30 3q-21 1 -24 -2l-7 -6q-3 -4 -4 -9l-2 -9q-1 -3 4 -11q9 -7 9 -8 q9 0 15 2q4 2 28 4q5 0 14.5 0.5t11.5 0.5q7 0 18 -4t21 -4q8 0 18 3l13 4q9 0 14 -3q7 -3 11 -7q2 -4 -3 -20q-5 -14 -11 -23q-2 -4 -12 -14q-8 -6 -28 -9q-24 -2 -29 -1q-2 0 -11 1.5t-14 2.5q-16 1 -29 1h-16q-28 -1 -32 -5q-3 -4 -4 -11q0 -8 -8 -20q-8 -11 -9 -29 q-1 -17 -6 -29q-5 -9 -6 -17q-1 -6 0 -14q2 -10 1 -19q-2 -7 -3.5 -9t-7.5 -6q-8 -5 -14 -5q-3 0 -33 2q-17 0 -40 3q-14 2 -16 7q-2 4 0 18q6 29 11 49q10 40 11 47q3 13 1 22q1 11 -4 14q-3 3 -12 3t-15 -3q-7 -3 -18 0q-8 3 -21 3q-10 0 -23 -2q-7 -3 -19 -3 q-10 0 -20 -3q-8 -2 -11 -2t-10 5q-10 6 -13 13q-2 8 -1 13q0 3 6 13q6 8 8 17q0 2 2 5q2 8 4 10q3 6 7 8q7 3 8 3q3 0 14 -6q11 -5 17 -4q5 0 15 2q6 1 13 -2q8 -3 9 -3t11 3q6 4 12 2q3 0 15 -3q8 -2 17 1q12 3 18 3q13 2 15 4q4 3 6 15q0 12 -2 17q-2 4 -11 4h-40h-54 q-12 0 -33 -3q-12 -4 -17 -2l-7 4q-5 3 -6 15q-3 11 0 27q3 14 6 22q4 9 5 10q3 2 11 2q2 -1 8.5 -2t8.5 -1q9 -3 19 -1q6 2 33 2h12q13 0 21 1q12 2 15.5 5t4.5 10q1 5 0 19q0 14 -8.5 21t-11.5 14q-2 6 -1 10v4q-2 3 -2 4q-2 6 -7 12q-6 8 -5 27q0 12 -2 23q-1 4 -5 9 t-6 11q-2 9 -6 11q-2 3 -6 21q-4 17 -5 23q0 5 -8 22l-10 20q-3 6 -3 14q1 9 -11 22q-8 11 -9 14.5t0 14.5q0 8 1 13t3 7q3 6 8 8q7 4 25 4q20 2 22 3z" />
<glyph unicode="&#xa6;" horiz-adv-x="337" d="M198 356q4 3 6 3t7 -3q8 -2 21 1q13 2 24 1q9 -2 14 -2q2 0 8 -3q2 -3 -2 -23q-3 -18 0 -28q2 -7 1 -13q0 -3 -3 -10q-2 -12 -9 -24q-6 -8 -7 -14q-1 -4 -3 -18q-1 -18 -1 -30q0 -4 -2 -11q0 -3 -6 -13l-7 -14q-1 -5 1 -13q2 -10 0 -18q-2 -13 -5 -19q-3 -13 -1 -20 q0 -7 -3 -19q-3 -16 -3 -22l-1.5 -9t-2.5 -8q-3 -7 -10 -13q-6 -5 -12 -7q-1 0 -6 -1.5t-8 -2.5q-11 -2 -24 -2q-18 0 -22 1q-5 1 -12 8q-6 7 -4 17q1 3 3 13q5 23 12 31q5 8 5.5 10t-1.5 10q-2 6 2 20q3 13 1 19q-2 4 1 17q1 8 7 20q5 9 7 20q1 5 3 12l8 44q3 23 2 29t2 15 q3 8 7 14t4 10q1 1 0 4.5t-1 5.5q-1 6 -1 9q3 2 4 12q3 11 7 14zM302 832q13 5 23 5q11 0 16 -3q9 -3 20 -3q3 0 9.5 -0.5t7.5 -1.5q5 0 4 -4q1 -1 1 -3q-1 -3 -7 -12q-7 -11 -8 -23q0 -6 -3 -19q0 -1 -3.5 -17t-5.5 -28q-8 -37 -12 -45q-5 -8 -3 -17q0 -16 -1 -29 q-4 -21 -7 -24q-1 -2 -7 -23q-3 -10 -4 -16q-2 -9 -2 -17v-14v-14q1 -14 -3 -19q-1 -2 -10 -12q-2 -1 -6.5 -4.5t-6.5 -4.5q-4 -2 -23 -4h-10q-9 0 -21 2q-15 5 -16 5q-4 4 -6 11q-2 9 0 20q2 13 8 22q6 11 6 26q-1 16 0 23q1 11 5 19q5 9 7 18q2 10 -1 15q-1 5 -0.5 7.5 t3.5 10.5q7 13 12 19q6 7 7 12q2 8 0 14q0 5 -1 17q0 10 1 14q1 6 5 12q4 8 5 12q1 5 0 11q-2 7 3 26q4 23 7 27q4 5 17 9z" />
<glyph unicode="&#xa7;" horiz-adv-x="556" d="M368 456q-8 3 -12 3h-1q-6 0 -16 -4l-19 -6q-8 -5 -12.5 -13t-11.5 -14l-10 -8q-3 -3 -7 -14q-5 -12 -6 -21q-2 -10 -3 -22q-1 -11 3 -15q2 -3 18 -6q16 -2 20 -7t17 -5t22 3q6 2 22 14q10 8 20 14q9 5 11 11q2 4 11 15q8 9 8 13q-2 6 -4 10q-3 3 -3 14q1 2 1 6v5 q-1 5 -9 6q-10 2 -20 10q-9 7 -19 11zM389.5 740q6.5 3 8.5 3q4 0 7 -1q7 -2 14 0q7 1 13 -1q5 -3 17 0q10 2 14.5 2t11.5 -1q13 -2 19 -5q6 -2 12 -2q7 0 14 -3q10 -2 16 -2q8 0 10 -3q3 -3 2 -10q1 -2 1 -8t-1 -7q-1 -6 -1 -18q1 -9 -3 -19q-3 -9 -10 -17q-6 -10 -10 -10 q-3 -1 -13 2q-12 6 -13 6t-6 2t-6 3q-9 2 -13 1q-9 0 -13 2q-8 4 -16 6q-14 3 -29 3q-21 1 -26 -2q-2 -2 -13 -7l-11 -4q-2 0 -6 -4q-6 -4 -8 -13q-2 -10 -6 -14q-3 -7 -7 -19q-2 -10 -1 -13t7 -10q5 -6 15 -15q4 -5 12 -7q2 -1 7 -4q1 -1 2 -1q2 -3 10 -5t12 -2q2 0 11 -5 q7 -6 17 -7q3 0 8 -0.5t6 -0.5q2 -1 9 -1q5 0 9 -7q8 -7 18 -13q12 -8 19 -18q8 -9 12 -17q2 -6 6 -11q3 -5 1 -20q-1 -18 -1 -21q1 -7 -1 -11l-7 -14q-5 -8 -4 -17q-1 -3 -1.5 -8t-0.5 -6q-1 -5 -8 -11q-8 -7 -10 -12l-12 -15q-7 -9 -15 -12q-10 -5 -20 -12q-12 -9 -14 -12 q-1 -6 0 -8q2 -5 9 -8q5 -3 15 -5q6 -1 13 -6q4 -2 7 -8q1 -6 0 -10q-1 -5 3 -12q3 -7 4 -17q2 -7 2 -22t-2 -30q-1 -4 -2.5 -12t-1.5 -11q-1 -6 -2 -9q-3 -13 -11 -20q-5 -5 -14 -22q-5 -10 -7.5 -12.5t-9.5 -6.5q-10 -6 -19 -14q-6 -6 -21 -14q-20 -8 -21 -8q-9 -2 -16 -7 q-6 -4 -21 -7q-14 -2 -19 -2q-3 -1 -29 -3q-21 -2 -30 -7q-6 -5 -11 -5q-1 0 -5 1q-2 0 -10 1.5t-9 1.5q-9 3 -26 3q-14 0 -19 5q-4 6 -12 6q-11 0 -14 1q-6 3 -13 9q-9 8 -9 10v4q1 3 1 7t1.5 11t2.5 13q7 33 11.5 37t16.5 4q12 1 19 -3q7 -5 19 -5q11 -1 24 -8 q11 -7 20 -7q3 0 18 1q30 2 34 3q2 1 20 6q5 2 14 6q0 1 9 6q4 1 11 7q8 8 14 19q8 13 9 18q1 7 0 16q-3 13 -7 18l-18 16q-14 11 -19 12l-14 6q-9 3 -16 3q-9 0 -16 4t-9 4q-5 0 -11 3t-17 5q-9 2 -20 9q-12 10 -14 13l-8 6q-6 2 -12 2q-5 2 -7 6q-3 8 -2 16q1 13 -6 16 q-7 4 -9 6q-1 4 -2 10q2 10 7 17q8 13 12 36q5 25 9 31t5 11t5 8q2 3 11 7q7 2 15 11q7 8 16 11q6 3 16 11q6 6 13 8q6 0 9 4q3 1 4 5q1 3 -4 6l-10 9q-8 7 -13 8q-6 1 -14 10q-6 9 -5 17q-1 8 -5 20q-6 14 -5 18q0 3 5 22l11 33q2 6 5.5 15.5t3.5 11.5q5 12 19 23 q12 12 18 14q9 4 15 7q9 6 20 10q10 5 15 7q4 3 10 3q4 0 14 4q9 5 15 5t12.5 3z" />
<glyph unicode="&#xa8;" horiz-adv-x="291" d="M218 703q1 1 4 1t8 -1q9 0 11 -3q3 -2 1 -9q-1 -9 1 -13q2 -8 1 -14q-1 -7 -4 -11q-2 -2 -8 -18q-6 -18 -10 -29q-7 -16 -8 -17q-1 -3 -6 -5q-5 -1 -17 -1q-5 1 -25 1q-16 0 -29 4t-17 13q-4 11 -3 16q1 7 6 15q0 2 11 32q6 23 10 27q3 4 11 8q6 2 33 2zM330 702q4 3 8 3 q7 0 13 -2q9 -1 21 0q9 3 18 0q5 -3 15 -3q8 0 10 -4q2 -7 3 -17q1 -15 -3 -30q-5 -19 -4 -27q1 -7 0 -10t-5 -11q-6 -11 -10 -13q-3 -3 -11 -5h-4t-16 6q-11 6 -19 5q-8 -2 -24 -2q-17 -1 -21 3q-4 5 -3 14q1 4 5 19q5 27 9 37q3 4 8 21q6 13 10 16z" />
<glyph unicode="&#xa9;" horiz-adv-x="775" d="M500 577q2 1 31 1q27 0 33 -2q6 -4 11 -8q4 -5 14 -9q5 -2 19 -15q13 -16 16 -21q6 -10 6 -15q1 -11 3 -15q3 -5 1 -13q-2 -11 -4 -18q-4 -12 -11 -17q-7 -4 -14 -6t-17 0q-12 3 -18 5q-9 5 -11 13q-2 7 -2 18q-1 9 -6 14l-8 10q-1 5 -6 9q-6 4 -24 3q-24 0 -31 -1 q-12 -1 -21 -6q-11 -5 -12 -5q-9 -4 -14 -7q-10 -5 -14 -10q-5 -6 -7 -15q-5 -12 -10 -19q-6 -8 -11 -24q-7 -20 -10 -23q-4 -6 -6 -13q-1 -6 -1 -20q0 -8 -1.5 -15.5t-6.5 -24.5t-6 -22q-1 -6 0 -11q3 -4 2 -15q1 -9 4 -20q3 -13 8 -21q2 -2 5.5 -8t4.5 -8q2 -5 8 -8 q6 -4 12 -9q10 -7 18 -7q6 -1 17 1q1 0 8.5 1.5t11.5 2.5q13 4 16 7q6 3 9 9q6 8 15 13q13 9 18.5 17t8.5 9.5t17 4.5q20 5 30 4q10 0 13 -3q3 -2 6 -10q1 -8 0 -12q-1 -6 -6 -16q-3 -7 -17 -17q-15 -12 -17 -16q-1 -2 -2 -5t-1 -4q-1 -5 -6 -9q-3 -3 -14 -7q-9 -3 -24 -14 q-14 -12 -18 -12h-10q-5 0 -22 -2t-25 -5q-6 -2 -14 -2q-4 0 -13 1q-16 2 -28 5q-12 4 -22 6q-11 1 -14 5l-8 18q-6 13 -10 15q-5 0 -9 2t-6 10q-2 9 -5 18q-5 9 -4 15q0 4 -3 10q-3 4 -2 10q2 7 -1 17q-3 12 0 39q6 38 5 41l2 24q2 9 1 15q-1 3 1 9q5 8 6 9q7 7 14 15 q9 9 10 13q0 2 -2 12t-2 12q2 6 7 11q2 3 7 12q4 8 11 13q10 8 13 17q4 10 7 13l10 6q8 2 15 11l13 13q6 3 13 5q4 0 13 5l15 9q8 5 26 5t22 2zM540 667q-4 2 -9 2l-13 -3q-8 -4 -11 -4q-4 0 -13 -4q-7 -3 -17 -1q-8 2 -19 -3q-11 -4 -13 -4q-3 0 -6 2q-4 2 -15 -2 q-7 -2 -19 -10q-8 -7 -12 -9q-7 -2 -14 -2q-9 0 -15 -5l-4 -4l-4 -4q-2 -4 -9 -7q-6 -2 -14 -9q-6 -5 -13 -8l-9 -4q-4 -2 -7 -7t-10 -9q-7 -3 -12 -13q-12 -12 -19 -18q-12 -10 -15 -16t-12.5 -14t-16.5 -21q-1 -4 -8 -17q-3 -6 -10 -16q-4 -7 -9 -19q-4 -10 -9 -14 q-6 -7 -6 -9q-1 -2 0 -10q0 -8 -8 -22q-6 -13 -7 -17q0 -3 -1 -9q1 -3 1 -7v-5l-4 -12q-3 -10 -3 -23q0 -3 0.5 -8t-0.5 -7q4 -9 4 -11q4 -7 2 -24q-3 -28 -3 -29q-1 -10 3 -14q5 -4 11.5 -12t14.5 -32q6 -24 13 -29q7 -4 15 -14q11 -13 19 -20q5 -5 16 -13q8 -6 11 -9 q6 -5 14 -7q4 -1 12 -4q5 -2 7 -5q2 -2 24 -12q19 -9 32 -9q12 0 19 -4q5 -5 18 -3q12 1 17 -1q12 -3 15 -3q6 0 17 5q10 4 25 6q14 2 33 8q7 2 28 10q9 4 21 4q11 1 22 9q2 1 7.5 5t6.5 6q3 3 15 9q11 6 19 13q10 6 12 11q1 2 13 9q9 4 24 17q14 12 21 25l14 18l11 11 q1 2 5 6t4 5q5 6 7 17q5 13 9 18t7 10q2 2 6 11q1 3 6 15q2 3 6.5 12l6.5 13q4 13 5 16t1 8q-2 7 -5 10q-1 2 0.5 9t5.5 13t7 23q2 18 4 28q0 14 -1 22q-1 15 -5 25q-5 16 -6 19q-2 3 -0.5 11t-9.5 20q-9 12 -11 22q0 9 -9 21q-8 10 -13 14q-5 3 -13 7q-7 3 -11 8 q-4 9 -13 21q-13 15 -22 20q-13 5 -14 5q-9 5 -16 8q-4 2 -22 10q-4 1 -16 5q-8 2 -18 2q-2 0 -25 3q-11 1 -18 4zM498 726q11 2 15 2q6 0 12 -3q10 -2 15 -2t19 2q9 2 29 -1q18 -4 24 -7q7 -5 12 -5t9 -2q3 -1 18 -3q15 -1 33 -12q24 -15 28 -18q9 -8 15 -8q7 0 11 -2 q0 -1 2.5 -4.5t3.5 -5.5q3 -7 11 -12q10 -6 15 -10q6 -5 10 -14q1 -5 5 -14q3 -4 10 -10q6 -4 8 -12q0 -2 4 -8.5t4 -8.5q8 -10 7 -17q0 -7 6 -16q6 -8 9 -14q5 -3 5 -10q0 -1 1 -5t0 -6q-1 -8 3 -18q3 -15 1 -27v-21q1 -10 -2 -20q-2 -10 0 -18q1 -8 0 -16q-1 -4 -2 -11 q-6 -20 -5 -26v-6q-1 -2 -4 -12q-7 -14 -11 -20q-6 -11 -9 -27q-4 -20 -9 -28q-1 -1 -6 -10t-8 -13q-8 -14 -11 -17l-8 -12q-3 -10 -4 -14q-1 -5 -7 -13q-3 -7 -11 -12q-7 -6 -14 -16q-11 -13 -19 -19l-22 -21q-3 -3 -8.5 -9t-6.5 -7q-10 -6 -17 -8q-9 -3 -18 -12 q-5 -6 -16 -13q-6 -3 -15 -9l-16 -11q-3 -1 -7.5 -4t-5.5 -3q-3 -3 -23 -9t-25 -10q-2 -1 -22 -9q-23 -6 -28 -8q-15 -4 -21 -4q-7 0 -15 -2q-4 -1 -7 -1q-4 0 -13 2q-11 3 -24 1q-14 -2 -26 -2q-13 0 -21 2q-11 3 -19 3q-15 2 -27 5q-15 2 -19 7q-2 5 -8 7q-5 3 -16 1 q-8 -1 -20 6l-10 7q-2 3 -10 9q-10 8 -21 11q-10 2 -16 11q-5 7 -8 7t-6 4q-2 2 -6 10q-3 7 -9 11q-9 7 -10 9q-3 4 -4.5 12t-5.5 13l-7 4q-1 0 -5 5q-3 4 -5 17q-2 14 -8 23q-8 10 -11 20q-4 8 -3 13t-2 12q-4 8 -3 21q0 13 -2 18q0 1 -1 9t-1 13q0 22 1 32t1.5 14.5 t3.5 10.5q4 9 6 18q0 22 1 23q0 8 1 11q0 3 3 9q5 7 7 21q3 14 7 20q4 8 6 17q2 11 6 16t5 5t4 4q3 6 4 12t9 15q6 6 9 13q2 4 10 16l8 10q1 2 14 13q12 13 14 17q4 8 6 9q3 4 10 4q7 2 9 4q3 2 12 16q6 13 10 18q5 6 14 13q7 6 16 8q8 1 13 7q6 7 9 7q9 3 10 3q9 2 17 10 q16 11 19 12q6 3 17 12q8 7 11 8t11 1q12 0 20 2q9 3 17 3q6 0 27 6l14.5 5t9.5 3q6 3 13 3z" />
<glyph unicode="&#xaa;" horiz-adv-x="342" d="M320 552q-15 0 -18 1q-2 1 -3 1q-3 0 -6 -2q-6 -3 -9 -5q-4 -3 -23 -4h-20q-3 0 -14 -9q-14 -10 -18 -16q-8 -8 -9 -13q-1 -6 0 -12q2 -6 8 -14q9 -11 13 -11q8 -3 12 -5q5 -3 9 -3q5 0 18 6q15 6 19 6q7 0 11 3q7 3 16 11q9 10 13 15q6 8 11 14q5 5 7 14q2 10 0 16 q-3 8 -7 8q-2 0 -10 -1zM316 723q3 1 23 1q25 -2 28 -3q10 -2 14 -5q3 -4 12 -6q9 -4 10 -5q1 0 3 -2q6 -4 9 -5q7 -4 8.5 -6.5t3.5 -12.5q1 -19 0 -29q-1 -11 0 -24q0 -9 -6 -17q-7 -10 -6 -16q0 -7 -4 -22q-6 -13 -13 -51q-1 -8 -4.5 -27t-3.5 -24q0 -13 -1 -25 q2 -10 1 -16q-1 -5 -4 -11q-3 -3 -8 -7q-10 -3 -15 -3q-7 -1 -19 2q-7 2 -21 8q-9 5 -17 5q-7 0 -26 -8q-14 -7 -18 -8t-17 -1q-5 0 -16 -0.5t-14 -0.5q-16 -2 -18 -3q-3 -1 -6 -1q-4 0 -12 2q-11 2 -15 4q-5 2 -9 12q-4 9 -10 12q-8 4 -11 8q-1 1 -3 5.5t-2 5.5q-1 4 -2 14 q0 1 -4 19q-3 10 -2 19q2 10 7 14q6 3 6 6q3 5 7 11l11 18q4 9 12 13q11 7 14 11q5 7 13 10q9 6 16 6q20 4 27 6q18 4 19 5q7 2 15 3q18 2 23 1q7 -2 22 -2q14 0 25 5q9 4 13 10q4 5 5 11q1 5 0 9q-1 5 -5 11q-5 5 -7 10q-1 4 -9 8q-8 2 -23 1q-16 -2 -24 -5q-2 0 -7.5 -1.5 t-7.5 -2.5q-10 -5 -18 -10q-13 -11 -14 -13q-7 -7 -15 -9q-3 -1 -26 -6q-15 -3 -18 0t-5 11q-3 7 0 22q3 13 8 20q5 6 13 11q9 6 16 12q10 7 16 7q7 0 15 7q13 8 23 10q16 2 27 1q16 -2 21 1z" />
<glyph unicode="&#xab;" horiz-adv-x="541" d="M490 465q11 1 25 1h3q4 0 4 -1q1 0 8 -6q3 -5 9 -10q4 -5 3 -15l-1 -6q-1 -5 -4 -7q-6 -5 -10 -7t-12 -14l-10 -14q-1 -4 -10 -16q-8 -12 -24 -30q-15 -17 -17 -23q-5 -10 -9 -16q-6 -9 -10 -17q-1 -8 -7 -16q-4 -7 -3 -11q2 -6 4 -8q4 -5 6 -22q3 -14 4 -25q3 -10 6 -14 q2 -6 11 -17t7 -22t2 -14q6 -7 7 -10q3 -4 -1 -24q-4 -18 -9 -22l-13 -8q-7 -3 -15 -1q-10 2 -19 0q-8 -3 -12 -3q-2 0 -9.5 7t-8.5 11q0 1 -1 11q-1 8 -6 15q-6 9 -8 16q-2 2 -4.5 9t-2.5 8q-1 8 -8 18q-4 10 -5 19q0 9 -2 12q0 1 -6 11q-3 4 -13 31q-7 22 -4 40q4 19 8 22 q1 1 7 8t9 11q13 13 20 25q2 2 6 8.5t6 8.5q2 3 8 14q4 8 8 14q11 9 17 13q11 8 16 16l8 12q4 3 9 13q4 9 10 14q4 5 11 7q6 4 22 4zM303 466q8 1 14 1h5q1 0 8 -0.5t10 -0.5q12 0 14 -3l3 -10q1 -6 -0.5 -14t-4.5 -12l-9 -11q-8 -11 -9 -12q-6 -8 -10 -12q-1 -1 -14 -18 q-6 -10 -6 -11q-1 -3 -5 -9q-2 -2 -8 -14q-1 -7 -6 -13q-6 -8 -12 -13q-2 -2 -7.5 -7t-8.5 -7q-5 -6 -11 -17q-4 -7 -6 -13q0 -3 3 -17q3 -12 11 -22q7 -10 6 -18q-1 -9 5 -23q5 -16 9 -21q5 -7 6 -20q0 -1 2 -12.5t3 -16.5q4 -15 7 -16q3 -3 3 -6q2 -3 1 -13q-2 -9 -8 -14 t-17 -5t-19 5q-5 5 -25 6t-23 4q-1 1 -5.5 5t-6.5 6q-6 5 -6.5 7.5t-0.5 9.5q0 10 -4 25q-3 12 -11 29q-7 12 -6 18q2 7 1 13t-5 11q-6 11 -10 25q-7 22 -10 25l-5 10q-1 8 0 14q2 9 7 12q6 5 11 6l6 3q3 2 4 2q3 2 7 11q4 6 13 22q8 14 13 18l6.5 6.5l8.5 8.5q1 2 6 8.5 t7 8.5q8 15 10 19q5 14 11 21q7 9 13 14q7 6 12 12t11 9q2 1 22 6z" />
<glyph unicode="&#xac;" horiz-adv-x="580" d="M603 527q11 2 13 2q3 0 9 -3q8 -1 11 -6q2 -3 -2 -31q-1 -7 -5.5 -31t-6.5 -36q-8 -39 -6 -48q0 -6 -1 -8q-1 -4 -5 -11q-6 -12 -10 -30q-6 -19 -2 -29q2 -7 1 -14q-1 -4 -4 -13q-4 -19 -9 -24q-6 -7 -9 -8q-3 -2 -13 0q-2 0 -9.5 0.5t-11.5 0.5q-12 0 -22 -2 q-6 -1 -9 -1t-8 2q-5 4 -8 10q-2 6 2 16q7 18 13 50q5 22 6 29q3 12 1 14q-1 2 0 18q1 12 6 24q6 8 9 22q2 11 -1 14q-1 0 -1 1l-6 3q-3 1 -23 3t-27 2q-9 1 -16 -4l-8 -5q0 -1 -37 -1q-42 -2 -47 -3q-10 -1 -20 0q-12 2 -37 2h-14q-13 0 -17 2q-2 1 -12 1q-2 0 -24 -3 q-15 -1 -21 1q-5 2 -12 2q-6 0 -17 -2q-11 -4 -18 -2q-7 0 -23 2q-16 3 -18 6t-2 13q-2 5 -1 19q0 12 1 17q0 2 2 8.5t2 9.5q5 13 6 14q2 2 15 1q14 0 17 1q8 2 21 4q15 1 22 -2q6 -2 66 -2q62 0 67 1q5 2 14 0q5 -2 27 -2q6 0 20.5 -0.5t19.5 -0.5q8 -1 14 -1t20 2 q14 3 27 3q10 0 18 -3q14 -3 20 -2q10 2 18 2t18 -2q9 -1 18 3q8 3 19 5z" />
<glyph unicode="&#xad;" d="M127 325q9 2 19 2q12 0 18 -4q8 -3 17 -3q5 1 32 1h12q14 0 25 2q15 2 20 1q8 -2 16 -2q9 0 12 -3q5 -2 5 -8q1 -7 0 -23q-2 -18 -3 -25q-2 -9 -7 -14q-4 -5 -9 -8q-10 -3 -16 -4q-17 -3 -18 -3q-6 -2 -12 -2t-12 -2q-4 -2 -8 -2t-9 2q-2 0 -11.5 1.5t-14.5 2.5 q-7 1 -10 1q-8 0 -24 -4q-15 -3 -20 -3t-17 3q-17 4 -21 8q-4 3 -4 15q1 11 2 20l2 10q6 20 8 22q2 3 12 11q10 6 16 8z" />
<glyph unicode="&#xae;" horiz-adv-x="774" d="M460 507q-1 0 -5 0.5t-6 0.5q-5 0 -12 -2q-6 -4 -10 -7q-5 -8 -7 -16q-2 -5 -3 -9q-1 -5 0 -11q0 -10 -1 -16t-1 -14q2 -7 -3 -15q-4 -9 -3 -12t10 -7q6 -3 12 -3h6q11 2 20 6q9 5 14 3q1 0 9 -1t13 -2q16 -2 23 3q2 1 7.5 4t7.5 4q9 3 15 11q8 9 12 18q3 8 4 11t0 14 q-3 12 -5 21q-3 5 -9 9q-6 3 -15 3q-11 0 -19 3q-11 3 -20 2q-11 -2 -20 -1q-9 0 -14 3zM507 569q5 2 10 2h6q9 0 20 -4q10 -4 23 -2q14 2 19 2q7 0 9 -7q2 -6 5 -8q2 0 8 -5q4 -4 14 -10q9 -5 12 -11q3 -7 3 -19q-1 -13 5 -22q6 -7 5 -11t-5 -10q-7 -9 -13 -16l-2 -2 q-8 -7 -8 -16q-1 -10 -4 -15q-3 -6 -14 -13q-8 -7 -9 -11q0 -1 -5 -5l-6 -6q-8 -6 -9 -8t-1 -8t8 -16q6 -8 9 -24q2 -17 -2 -29q-3 -9 -3 -11t3 -6t3 -7.5t-3 -18.5q-4 -22 0 -37q2 -18 1 -25q-2 -10 -5 -16q-4 -7 -8 -11q-5 -3 -23 -2q-18 0 -23 5l-11 6q-4 2 -5 12 q0 14 4 25q3 13 2 22q-1 8 0 11l-1 5t-1 8q-3 10 0 27t2 23q1 3 -10 19q-10 15 -18 16q-7 2 -16 -1q-7 -2 -17 -2q-6 0 -22 1q-15 1 -20 1q-10 0 -14 -3t-5 -8q-2 -7 -6 -16q-4 -10 -7 -30q-1 -9 -1 -30q1 -8 0 -17q-2 -3 -7 -29q-3 -20 -8 -30q-4 -6 -11 -12t-12 -6h-23 q-20 2 -23 3q-5 2 -7 7q-2 4 2 13q3 11 3 20q-1 10 7 25q9 18 10 19q0 4 -2 10q-2 5 -1 14q1 4 5 18q7 26 8 27q1 5 1 10q0 8 4 16q5 9 1 17q-2 5 -1 17q0 3 5 12q4 3 8 22q3 15 3 25q-1 6 2 16q4 8 5 18q-1 10 6 31q5 21 3 28q-2 8 -1 13t13 14q13 10 25 12q11 4 20 4 q5 0 15 -1q26 -2 46 -2q23 0 30 3zM519 671q-1 1 -16 1q-11 0 -22 -2q-7 -3 -15 -3t-21 -6q-15 -6 -21 -9q-5 -1 -21 -8q-5 -3 -22 -9q-9 -2 -30 -19q-22 -18 -36 -26q-18 -10 -23 -14q-6 -3 -12 -13q-8 -10 -17 -18q-11 -9 -13 -16q-4 -9 -9 -13l-5 -7l-10 -10 q-11 -10 -14 -18q-1 -8 -9 -16q-6 -6 -8 -15q-1 -8 -11 -22q-8 -13 -15 -31q-3 -10 -4 -14q-1 -5 1 -9q1 -7 -4 -34t-6 -43q-1 -13 0 -20q-1 -3 3 -11q3 -9 3 -16v-15q0 -7 4.5 -12t7.5 -13q6 -11 8 -13q6 -10 7 -13l5 -11q4 -9 5 -13q3 -8 10 -12q8 -3 13 -12q4 -5 8 -15 q0 -4 7 -15q4 -6 16 -11q11 -5 19 -10q6 -5 18 -6q9 -1 17 -4q7 -4 10 -7q15 -7 18 -7q7 -3 16 -3q11 0 18 -3q8 -3 51 -3q31 0 37 0.5t13 4.5q9 4 19 6q13 2 19 2q8 0 11 3l6 4q6 4 8 7q13 9 16 10q7 2 11 2t13 6q7 6 17 8q5 1 16 1q6 0 10 4q2 1 8 11q3 6 12 17l13 15 l16 19q16 15 22 22l18 18q13 12 13 16q1 1 5.5 8.5l7.5 12.5q15 22 15 23q2 4 9.5 22t9.5 32l5 22q-1 2 5 22q3 9 4 15q2 9 1 18q1 15 -1 21v10q1 1 0 5.5t-1 5.5q1 1 0 7.5t-1 9.5q-1 9 -5 14l-5 5l-4 4q-3 4 -1 11q3 6 0 13q-5 6 -3 15q0 7 -5 17q-7 13 -10 14q-5 6 -5 8 q-1 3 -15 19q-14 15 -14 17q1 3 -3 6q0 1 -5 5.5t-7 7.5q-9 9 -12 10q-2 2 -18 6q-18 7 -22 9q-5 4 -13 7q-5 2 -10 8q-7 6 -9 6q-4 0 -10.5 -3t-13.5 2t-35 5q-30 2 -33 3zM533 734q5 1 11.5 1t12.5 -1q2 -1 8 -2t7 -2q1 0 19 -2q17 -1 25 -6t23 -5t21 -4q7 -7 20 -13 q17 -8 25 -11q7 -2 16 -11q5 -9 17 -15q10 -4 14 -10q1 -3 13 -11q9 -7 15 -16q1 -2 8 -11t9 -13q13 -15 14 -24q1 -8 6 -15q4 -4 6 -12q1 -4 5 -9q4 -6 3 -18l-1 -23q2 -13 5 -19q1 -3 3.5 -6.5t2.5 -4.5q2 -2 3 -9q2 -4 1 -10q-1 -3 1 -15q1 -9 -5 -39q-8 -42 -12 -60 q-7 -32 -11 -38q-3 -6 -3 -17q-3 -13 -5 -17q-2 -2 -18 -24q-13 -19 -16 -28q-4 -9 -10 -16q-6 -6 -9 -13q-2 -3 -11 -15q-4 -3 -9 -10q-1 -3 -3 -4q-1 -2 -7 -10q-2 -4 -4 -6q-7 -9 -16 -14q-7 -4 -13 -13q-8 -10 -19 -19q-18 -15 -26 -21l-13 -10.5t-11 -8.5q-9 -6 -15 -8 q-1 0 -7 -3t-9 -4q-4 -3 -19 -8q-9 -2 -19 -8q-10 -5 -17 -6q-8 -2 -30.5 -9t-29.5 -11q-8 -4 -18 -4q-12 0 -20 -4q-7 -4 -11 -4q-3 0 -10 4q-4 3 -11 3q-4 0 -8 -2q-4 -3 -15 -3t-21 6t-30 6h-13q-9 0 -19 5l-20 11q-6 4 -20 6q-8 0 -24 8q-14 8 -22 10q-7 1 -11 8 q-6 7 -11 10q-9 5 -12 12q-2 7 -12 13q-6 2 -13 6q-4 3 -5 13q-1 7 -5 19q-3 7 -13 16q-10 11 -12 15q-1 6 -2 16q1 7 -3 14q0 2 -2.5 6.5t-2.5 6.5q-1 3 -7 13q-7 6 -6 14q-1 8 0 14.5t-1 10.5q-3 7 -4 27q-2 19 2 39q2 23 2 26q-1 4 2 17q5 13 4 17l4 17q3 15 6 21 q4 11 7 18q3 4 11 24q5 18 11 24q4 6 8 10q5 4 10.5 17t8.5 15l6 7q4 6 6 14q2 9 5 13q2 2 11 12q8 7 12 14q9 10 15 12q5 4 15.5 15.5t20.5 18.5q6 4 22 17l22 15q5 4 23 12q14 7 25 15q7 6 25 15q16 7 25 8q13 2 30 9q14 6 31 8q9 0 18 3q7 2 17 2t16 2q7 4 17 4z" />
<glyph unicode="&#xaf;" horiz-adv-x="501" d="M243 721q12 3 28 3q20 0 21 -2q1 -1 29 -3q29 -2 32 -2q1 0 12 0.5t18 0.5q27 0 31 -1q9 -2 20 2q10 4 27 1q4 -1 12.5 -2.5t10.5 -2.5q5 -3 12 -3q5 0 25 6q17 5 25 4q12 0 18 -3q5 -1 21 -1q16 2 23 2q10 1 12 -2q0 -1 2.5 -6t4.5 -7q4 -10 3 -18q-1 -4 -3 -13 q-6 -22 -8 -24q-3 -5 -9 -9t-14 -6q-4 -2 -31 -2q-22 0 -36 2q-8 3 -14 3q-5 0 -12 -4q-9 -4 -21 -4q-5 0 -25 3q-9 3 -25 3q-15 0 -22 -3q-8 -2 -18 0q-11 4 -19 4q-9 1 -22.5 -2t-25.5 -1q-9 3 -20 3q-7 1 -16 -2q-7 -3 -39 -3q-17 1 -52 1h-38q-19 0 -23 2q-6 2 -6 6 q-2 5 0 15q1 9 2 25q1 9 2 11q0 4 4 9q5 6 10 10q6 4 19 4q11 0 39 2q27 0 36 4z" />
<glyph unicode="&#xb0;" horiz-adv-x="257" d="M282 661q-3 3 -16.5 3t-21.5 -4q-6 -4 -8 -5q-4 -4 -11 -7q-13 -8 -14 -9q-3 -3 -9 -16q-3 -8 -4 -12q-1 -3 0 -6q1 -6 13 -20q12 -13 18 -13t13 2q4 2 11 2q7 2 17 10q6 4 17 16q6 7 7 11q1 3 0 7q-3 3 -3 15q-1 13 -3 18q-4 7 -6 8zM268 725h11q8 -1 29 -12 q21 -12 25 -17t7 -13q4 -5 5 -11q1 -4 -1 -23q-3 -18 1 -29q3 -10 1 -16q0 -2 -3 -8.5t-3 -9.5q-7 -13 -15 -21l-11 -11q-3 -2 -11 -6q-10 -5 -17 -11q-2 -2 -19 -14q-13 -6 -19 -8q-10 -2 -15 -2q-6 0 -14 4t-22 4q-16 0 -17 2q-1 1 -6 9q-3 7 -8 11q-6 3 -10 10 q-1 3 -7 11q-6 7 -6 12q-2 6 1 19q1 7 6 26q5 29 7 34.5t8 12.5q2 3 7.5 8.5t6.5 7.5q4 6 13 12l15 10q9 7 14 8q6 2 13 2t20 4q2 1 7.5 2.5t6.5 2.5z" />
<glyph unicode="&#xb1;" horiz-adv-x="577" d="M174 193q11 3 18 3q3 0 20 -4q15 -5 37 -5q12 -1 23 -1q13 0 28 1q28 0 36 -2q9 -2 20 0q8 3 23 3q14 0 20 3q10 2 26 0q19 -3 23 -2q4 2 15 0l14 -6q5 -2 8 -2q5 0 12 4q6 4 13 6q13 0 22 -1q16 -1 24 -6q7 -4 9 -8q4 -4 1 -25q-1 -26 -2 -34q-1 -4 -8 -13q-8 -9 -14 -9 q-4 -1 -29 3q-23 4 -27 4q-5 0 -12 -4q-6 -3 -17 -5q-5 -1 -8 -1q-4 0 -11 3q-9 5 -13 5q-6 1 -20 -3q-12 -4 -15 -4t-11 3q-11 4 -20 2q-10 -3 -17 0q-5 1 -45 1q-9 0 -31 -0.5t-28 -1.5q-20 0 -32 3q-10 3 -27 1q-13 -2 -27 -2h-9q-19 0 -26 2q-9 0 -15 -2q-6 -3 -15 -3 q-4 0 -16 3q-6 4 -7 9q-1 4 1 28q1 5 3 17t1 14q2 6 7 14q3 5 10 7t21 1q24 -3 27 -3q11 -2 19 1q10 4 21 6zM398 621q6 3 11 3q2 0 18 -4l18 -9q6 -4 7 -9q1 -3 1 -14q-1 -15 0 -17q0 -6 -4 -13q-3 -7 -8 -25q-6 -21 -9 -33q-3 -14 -7 -18q-4 -5 -2 -11q1 -4 6 -10 q4 -2 29 -5q24 -2 30 0q2 1 30 1q14 -1 18 -1q9 0 18 4q13 5 20 5q8 0 19 -5q10 -4 16 -4q8 0 10 -3q4 -2 5 -6t-5 -33q-4 -22 -5 -26t-6 -9q-6 -5 -13 -7q-3 0 -23 -2q-18 -1 -25 0t-22 0q-12 -1 -23 -4q-8 -2 -14 2q-6 3 -10 3t-12 -2q-9 -4 -15 -1q-2 1 -8.5 2t-7.5 1 q-13 0 -19 -1q-9 -3 -11 -5q-3 -4 -5 -23q-3 -26 -2 -32q-1 -12 -5 -23q-5 -12 -5 -16q-1 -5 3 -10q3 -6 2 -10q-1 -5 -6 -14q-2 -3 -8 -13q-4 -3 -13 -6q-10 -4 -14 -4t-11 -4q-7 -3 -21 -2q-13 2 -18 6q-5 1 -13 11q-7 7 -6 14q2 8 7 13q6 7 8 13q1 7 -3 15q-2 8 -1 13 q1 6 4 10q1 3 7 23t7 25q2 7 -4 14t-19 7h-19q-24 0 -42 -3q-15 -2 -17 -2q-5 -2 -13 2q-6 4 -19 1q-10 -2 -30 -1q-14 1 -17.5 2t-7.5 6q-6 8 -7 18q-1 9 -1 11t3 8q5 8 7 18q0 1 2 6t3 7l11 9q9 5 16 5q8 0 15 2q4 1 10.5 1t24.5 -1q17 -2 29 -2h6q1 0 17 3q8 1 18 -1 q9 -3 28 -3q20 0 24 3q5 4 7 15q0 3 2 14.5t3 16.5q3 17 8 31q3 12 -1 20q-2 8 -1 12q0 2 6 12q5 7 10 20q4 13 8 15q2 2 10 2q5 0 16 2z" />
<glyph unicode="&#xb2;" horiz-adv-x="342" d="M315 777q4 1 8 1h4q4 -1 26 -1q21 -2 32 -4q14 -3 18 -6l12 -9q7 -6 10 -6t7 -5q7 -5 7 -11q0 -3 5 -18q3 -9 1 -25l-2 -14q-1 -14 -1 -20q-3 -20 -6 -26q-4 -6 -9 -21l-9 -20q-8 -9 -16 -16l-25 -24q-12 -14 -22 -18q-1 0 -19 -10q-11 -8 -16 -16q-8 -10 -20 -20 q-12 -12 -21 -17q-8 -3 -18 -11q-6 -5 -21 -13q-14 -6 -19 -13t-4 -11q2 -4 7 -4q7 0 15 3q10 2 15 2q4 0 14 -2q8 -2 14 -2q4 1 22 -1q13 -3 24 -3t23 3q19 4 20 5q6 0 11 -2q9 -1 12 -8q4 -7 2 -18q-2 -10 -6 -20q-3 -8 -6 -13q-4 -5 -5 -5q-3 -2 -17 2l-23 4q-9 2 -20 -3 q-9 -4 -15 -4q-8 0 -13 3q-7 3 -14 0q-3 -1 -44 -1q-42 2 -47 2q-5 1 -28 -1q-22 -2 -32 -2q-14 0 -19 4q-6 4 -6 10q-2 7 1 23q1 5 1 8q2 8 9 20q8 12 12 14q2 1 10 4q4 2 10 7q4 6 12 11q7 4 12 10q4 5 14 11q6 3 12.5 12t16.5 14t17 14q8 10 18 15q9 4 14 12q4 7 6 10 q3 2 10 4q6 2 14 6q7 2 12 10l16 13q9 5 24 27q16 23 19 34q3 9 7 19q4 4 7 11l2 8q-1 3 -11 6q-17 7 -21 10q-13 7 -31 7q-25 0 -32 -1q-13 -3 -15 -5q-1 -1 -5 -7q0 -1 -1 -4t-2 -5q0 -3 -7 -17q-8 -13 -10 -16q-6 -5 -15 -6q-12 -2 -18 -5t-21 -2q-14 1 -17 6q-4 4 -1 21 q3 15 9 23q4 8 8 17q3 9 10 16q7 6 11 15q4 8 10 12q6 5 10 7q7 3 17 3q10 2 18 4q1 0 7 2.5t9 3.5q9 3 21 3q9 -2 15 0z" />
<glyph unicode="&#xb3;" horiz-adv-x="334" d="M296 766q2 1 21 1q11 0 25.5 -3t21.5 -3q12 0 15 -4q1 -2 3.5 -5.5t3.5 -5.5q4 -5 18 -5q12 0 14 -4l10 -21q8 -19 8 -26q-1 -8 2 -20q3 -9 2 -18l-4 -16q-5 -24 -14 -35q-7 -10 -17 -16q-1 -1 -6.5 -4.5t-7.5 -4.5q-4 -4 -12 -6q-6 0 -11 -4q-4 -1 -5 -6q-1 -4 7 -8 q7 -2 10 -6t7 -6q6 -3 7 -8q3 -6 2 -14q0 -10 7 -19t6 -13q0 -1 1 -5t1 -6q1 -4 0.5 -6.5t-6.5 -15.5q-7 -13 -12 -28q-6 -15 -19 -35q-14 -20 -20 -21q-7 -2 -15 -9q-9 -7 -21 -12q-16 -6 -28 -6q-16 -2 -24 -5q-12 -4 -33 -4h-12q-12 0 -21 3l-23 6q-10 1 -25 6 q-14 4 -23 9q-9 4 -13 13q-7 12 -9 15q-5 6 -7 19q-3 23 -2 26q-1 7 1 16q2 4 8 7q5 3 14 5q3 0 24 5q15 5 21 3q4 0 10 -6q6 -5 8 -14q3 -11 4 -15q1 -3 6 -9l11 -11q7 -5 18 -10q3 -1 8.5 -3.5t6.5 -2.5q3 -2 8 -2q6 0 11 3q4 1 15 8q9 5 19 12q11 8 13 8q4 0 10 3 q7 5 8 10q6 14 7 17q5 10 0 28q-2 6 -10 26q-8 10 -12 11q-6 4 -18 7t-21 0q-6 -2 -24 -2q-16 1 -18.5 4t-0.5 19q3 15 3 25q1 9 5.5 13t13.5 4q7 0 25 -2q16 -1 26 4q16 6 23 9q12 4 19 14q8 11 13 13q6 5 9 11q2 4 4 13l-7 21q-7 14 -13 17q-5 4 -11 4q-9 3 -11 5 q-7 4 -15.5 1t-18.5 -2q-8 2 -16 0q-9 -3 -13 -5q-11 -6 -12 -7q-5 -3 -9 -9q-3 -5 -6 -13q-2 -7 -9 -14q-6 -5 -9 -5q-4 0 -17 -5q-15 -4 -20 -4t-13 3q-8 4 -9 7q-3 3 -2 11q-2 8 4 21q5 18 6 20q2 6 8 11q7 9 10 14q9 9 11 10q3 2 11 5q9 2 15 6q7 3 19 5q12 1 24 7 q7 5 19 8q11 2 14 3z" />
<glyph unicode="&#xb4;" horiz-adv-x="280" d="M301 720q5 3 9 3t15 -5q12 -4 27 -2q13 3 22 3q2 0 6 -0.5t6 -0.5q7 -4 11 -12q7 -8 6 -12q0 -2 -15 -20q-14 -17 -18 -18q-6 -2 -9 -6q-4 -5 -8 -17q-5 -11 -7 -20q-1 -6 -8 -12q-6 -6 -9 -17q-3 -10 -16 -25q-13 -13 -13 -16q-4 -4 -8 -9q-6 -6 -12 -15q-3 -6 -5 -16 l-2 -11q-1 -2 -16 -15q-15 -12 -26 -12q-20 0 -31 -1t-14 -1q-5 0 -7 3q-4 4 -4 14q-1 6 0 9t3 7q5 9 11 15q7 9 7 13q2 10 4 16q5 13 10 17q5 5 6 14q1 10 8 22q9 13 13 31q7 23 8 26q1 5 8 11q6 5 12 17q1 3 4.5 10.5t4.5 9.5q3 9 13 15q6 5 14 7z" />
<glyph unicode="&#xb5;" horiz-adv-x="620" d="M538 510q7 1 17 1q3 0 13 -2t13 -6q9 -7 11 -8q7 -5 9 -12q2 -6 2 -14q0 -6 -5 -14q-4 -7 -7 -23q-1 -7 -4 -19q-6 -34 -6 -42q1 -3 -2 -25q-3 -20 -8 -25q-5 -6 -6 -11q0 -1 -0.5 -7.5t-2.5 -18.5t-4 -20l-6.5 -37.5t-5.5 -33.5q-3 -16 -4 -23q-2 -10 -5 -15 q-5 -8 -5 -22q-1 -14 -5 -37q-5 -25 -3 -35q2 -11 -1 -23q-2 -11 -11 -19q-8 -8 -11.5 -9t-17.5 0q-24 0 -30 -1q-11 -1 -16 1q-6 2 -7 7q-3 6 1 14l3 13q0 3 -3 5q-4 3 -9 0l-6 -5l-14 -13q-16 -12 -23 -15q-9 -4 -18 -4q-10 -2 -14 -4q-6 -3 -15 -5q-11 -2 -17 -5 q-8 -4 -26 -2q-18 0 -25 4q-11 3 -14 3q-7 0 -14 4l-13 12q-8 6 -12 11q-7 5 -9 6q-4 1 -8 0t-7 -7q-3 -13 -4 -23q0 -15 -5 -42q-4 -23 -5 -37q-1 -13 -6 -29q-2 -7 -3 -12t-1 -27q-1 -26 -2 -29q-1 -6 -5 -9q-5 -4 -18 -9q-15 -8 -17 -10q-5 -4 -8 -4t-14.5 4t-12.5 5 q1 2 -8 2t-12.5 2t-5.5 6q-1 8 1 22q1 17 8 26q5 8 7 16q1 5 3 19q1 11 2.5 20t3.5 12q4 9 2 14q-1 8 3 30q7 26 11 33q5 10 4 19q1 1 0.5 6.5t-0.5 7.5q2 8 0 14q-2 10 0 16q4 10 8 16q5 8 6 15q1 5 -1 15q-3 8 0 16q1 7 7 17q5 10 8 24q1 7 4 18q7 40 8 50q2 17 1 24 q0 7 4 20q2 8 8 23q4 10 7 24q1 7 3 18q5 34 2 40q-2 8 -2 10q1 5 8 15q6 12 8 24q0 7 2 18q1 3 7 23q3 18 7 21q1 1 10 3q10 1 18 -2q9 -3 20 1q11 3 20 1q6 -2 13 -6q3 -4 2 -16q-1 -16 0 -18v-9q-1 -4 -7 -11q-6 -5 -7 -8q-1 -4 3 -12q2 -9 -1.5 -18l-8.5 -23 q-4 -16 -8 -19q-1 -1 -3.5 -4t-3.5 -4q-3 -5 -3 -9q2 -8 4 -13q3 -6 5 -14q0 -6 -3 -11q-1 -9 -1 -14q1 -10 -4 -19q-4 -8 -2 -13q0 -7 -5 -19q-5 -11 -7 -30t0 -25q1 -8 -3 -18t-1 -15l3 -15l3 -15q1 -6 16 -22q14 -17 18 -17q6 0 18 -5q14 -5 27 -5q11 0 18 2q2 1 19 6 q11 1 22 9q17 12 25 19q17 12 26 20q12 8 15 14t4 21t7 24q7 10 8 29q3 20 8 28q4 7 7 23q4 17 1 24q-2 9 3 18q6 10 8 22l4 20q1 5 5 19q3 10 0 30q-2 21 2 28q3 8 4 12t4 12q5 6 4 15q0 10 7 20q5 9 10 13q3 3 15 3z" />
<glyph unicode="&#xb6;" horiz-adv-x="806" d="M797 52q3 6 4 6l-6 -30q-6 -31 -10 -31q-2 0 -7 3l-5 6q-2 2 -1 10q1 7 4 11q0 1 10 11q8 8 11 14zM504.5 875q6.5 3 13.5 3q9 0 15 -3q11 -3 33 -5q15 -1 20 -1q6 0 15 2q11 4 17 4q8 0 14 -3q11 -2 17.5 -1t12.5 1q2 0 8 -8q5 -10 7 -15q2 -10 0 -22q-2 -15 -6 -18 q-2 -4 -14 -10q-10 -5 -20 -5q-9 0 -17 -2q-6 -2 -9 -4l-1 -3t-2 -7l-2.5 -10.5t-2.5 -11.5q-8 -33 -10 -36q-2 -5 3 -13q7 -6 6 -13q0 -8 -6 -18q-6 -14 -7 -19q-2 -8 -1 -16q0 -5 -4 -24q-5 -15 -4 -22t-2 -16q-6 -11 -8 -20q-5 -14 -8 -27q-7 -21 -8 -25q-6 -12 -6 -19 q-1 -5 2 -15q4 -6 2 -16q-1 -5 -5 -20q-6 -30 -10 -34q-2 -6 -3 -19q-1 -5 -2 -12.5t-1 -8.5q-2 -10 -7 -20q-6 -12 -4 -20q0 -2 1 -8q1 -5 1 -6q0 -7 -4 -17q-6 -10 -7 -15q-3 -5 -2 -18q1 -8 -4 -33q-1 -7 -3 -18.5t-2 -13.5q-1 -8 -7 -25q-5 -11 -5.5 -14t0.5 -12 q1 -12 -3 -35q-4 -21 -10 -41q-5 -18 -5 -25q2 -6 1 -13q-1 -5 -5 -11q-5 -5 -9 -7q-5 -3 -30 -7q-23 -5 -32 -5q-7 0 -13 3q-5 1 -7 9q0 6 1 21q4 17 8 26q5 15 6 26q3 16 1 26q-1 10 5 40q6 29 7 43q1 11 6 24q4 8 8 29q3 14 10 40q6 24 6 25l3 22q1 6 2 17.5t2 13.5 q1 12 5 22q6 12 7 17q3 7 1 14q-1 7 0 19q0 8 1 13q1 6 6 18q4 13 10 42q7 36 11 50q5 29 11 41q2 8 5 24v17q-1 8 1 15q1 8 2 10q5 6 7 19q3 9 7 28q2 13 1 21v8t-1 11q3 14 5 20q5 9 4 14q0 3 -5 5q-3 2 -41 2t-43 -3q-6 -2 -6.5 -3.5t-1.5 -8.5q0 -5 -3 -23 q-1 -3 -4 -17.5t-4.5 -22.5t-4 -23t-3.5 -19l-6 -31q-2 -5 -5.5 -15t-3.5 -12q-6 -12 -6 -19q1 -10 3 -16t1.5 -9t-6.5 -15q-7 -17 -5 -20q1 -11 -3 -40q-3 -24 -4 -29q-2 -8 -7 -15l-7 -14v-13q1 -11 -4 -36q-5 -26 -9 -34q-2 -4 -3.5 -13.5t-3.5 -24.5q-5 -35 -4 -40 q-1 -10 -5 -19q-4 -14 -12 -54q-7 -33 -8.5 -39.5t-6.5 -13.5q-7 -10 -9 -18t2 -16q2 -8 0 -18q-1 -9 -5 -15t-5 -12q-1 -8 1 -21q3 -18 1 -28q-2 -12 -6 -15q-8 -4 -23 -6q-14 -3 -33 -3q-16 0 -27 7q-10 6 -12 8t3 25q1 13 2 17q2 8 8 18q6 11 8 21q1 5 2 11q3 19 2 34 q0 14 6 23q6 10 6.5 13t-0.5 9q0 2 3 30q4 22 9 34q0 2 1.5 6l3.5 9.5t2 8.5q5 23 6 33q2 22 2 25q0 6 4 11q3 4 9 32q4 19 4 37q0 10 -3 12q-2 3 -15 3q-12 0 -18 2t-19 4q-15 1 -27 9q-14 7 -21 18q-8 10 -9 10t-9 8q-9 11 -13 25q-6 16 -11 25q-6 7 -6 15q-2 8 1 14 q3 7 -1 18q-5 11 -6 18q-1 6 0 8q0 2 2 7q5 7 11 38q1 15 3 21q2 12 7 23t13 24q4 5 9 17q1 7 7 13q7 10 8 14q5 8 10 14q4 6 14 14q11 8 12 8q6 2 11 6q4 2 5 6q0 3 3 7t9 4q6 2 19 11q12 10 27 17q17 7 26 9q10 2 17 6q9 6 14 6q7 2 15 2q7 0 18 4q7 4 26 3q14 -1 24 -4 q7 -4 28 -4q25 0 35 3q15 2 21.5 5z" />
<glyph unicode="&#xb7;" horiz-adv-x="328" d="M253 342q7 2 15 2q9 0 14.5 -2t6.5 -6q2 -5 1 -11q-1 -5 -4 -11q-4 -7 -5 -24q0 -13 -1 -16t-7 -10t-7 -9t0 -6q1 -2 1 -15q-1 -9 -4 -13q-3 -5 -8 -7q-6 -3 -13 -5q-8 -2 -32 -4q-14 -1 -19 -1q-8 0 -14 2q-5 3 -16 3q-9 0 -13 2q-2 3 -2 13q-1 7 4 31q6 21 4 28 q-1 2 1 23q2 8 3 11q1 7 8 13q6 6 12 7t34 2q39 2 41 3z" />
<glyph unicode="&#xb8;" horiz-adv-x="271" d="M123 31q10 3 14 3q7 0 11 -5l6 -12q3 -8 1 -13q-1 -3 -7 -13q-5 -8 -6 -10q0 -3 3 -5q3 -3 13 -3q9 1 13 -4q8 -6 12 -8q9 -3 15 -9q4 -5 11 -11q4 -3 6 -11q2 -5 -2 -15l-5 -31q-1 -13 -2 -18t-3 -9q-1 -2 -8 -10q-6 -5 -10 -13q-6 -8 -16 -14q-9 -6 -17 -8 q-6 -2 -21 -2q-15 -1 -23 -6q-7 -4 -19 -3q-9 0 -18 2q-11 0 -12 -1q-3 -1 -26 -3q-11 -1 -15 -1q-7 0 -13 3q-7 4 -11 9q-6 7 -6 9q-1 4 -1 8q1 3 8 17q5 10 9 17q1 1 10 5q7 3 17 3q11 0 21 -4q14 -5 30 -5q17 0 23 3q7 4 13 9q5 4 8 10q2 6 -1 14q-2 8 -4 11l-4 5 q-6 3 -12 4q-9 2 -15 0q-3 -1 -19 -3q-10 -2 -18 1q-3 1 -8 8q-3 6 -2.5 9t8.5 15q5 11 13 18q7 6 11 15q6 11 13 14q9 6 12 13l6 10q3 4 5 7z" />
<glyph unicode="&#xb9;" horiz-adv-x="375" d="M360 764q8 3 16 3t9 -1q2 0 4 -8q4 -5 3 -11q-1 -5 -5 -13q-4 -10 -5 -15q-2 -8 0 -14q0 -11 -2 -15q0 -2 -2.5 -9t-3.5 -12l-8 -23q-3 -8 -4 -19q0 -12 -7 -47q-9 -43 -9 -51q-4 -19 -6 -27q-5 -10 -9 -27q-2 -8 -6 -29q-3 -16 -2 -27q0 -7 3 -22q4 -7 2 -14 q-1 -5 -6 -11q-6 -7 -7 -11q0 -3 -5 -7q-6 -4 -10 -6q-2 -1 -11 -4h-3q-4 0 -12 4q-5 2 -13 8q-5 3 -9 3q-5 0 -11 2q-1 0 -3 1.5t-3 2.5q-1 2 3 19q5 17 7.5 20t4.5 15q3 11 8 18q4 7 5 16q2 10 -2 17q-2 8 -1 13q1 8 6 17q4 11 2 20t0 18q2 5 6 29l4.5 17.5t5.5 18.5 q6 19 6 24q0 7 6 19q5 12 3 17q-4 5 -6 6q-5 2 -8 0q-7 -3 -12 -8q-7 -5 -13 -7q-8 -4 -19 -12q-13 -11 -22 -15q-7 -3 -14 -3q-5 0 -8 4q-4 5 -5 12v10q1 3 3 11q4 13 5 23q0 7 1 9q0 3 4 9q6 8 11 10t13 0q6 -3 13 -3q5 0 16 9q12 10 18 13q2 2 23 17q15 12 22 14t12 1 q3 -2 12 -2q8 0 15 3z" />
<glyph unicode="&#xba;" horiz-adv-x="369" d="M353 679q-6 2 -14 2t-18 -4q-8 -4 -17 -4q-8 0 -13 -5q-6 -5 -7 -10q-4 -8 -10 -15q-7 -7 -14 -18q-9 -23 -10 -27q-6 -21 -10 -28q-5 -8 -6 -13q0 -2 1 -8q2 -8 2 -13q1 -9 4 -17q4 -7 2 -14q0 -7 4 -10l7 -3q5 -2 9 -3q13 -5 15 -8q6 -5 12 -8q6 -2 19 -2q5 -1 7 -1 q5 0 10 4l9 6q8 5 14 8q17 10 19 15q3 6 12.5 14t12.5 16q0 1 3.5 9t5.5 13t5 13.5t3 9.5q2 8 1 22l-3 18q-2 7 0 12t2 14q0 8 -3 12t-10 6q-5 0 -16 6q-13 7 -16 7q-4 1 -12 4zM341.5 735q5.5 3 9.5 3t10 -3t18 -1q10 3 22 0q20 -3 21 -3q13 -2 14 -4q5 -2 7 -9q3 -8 7 -13 q6 -5 11 -6q6 -2 8.5 -5t3.5 -9q3 -10 5 -14q5 -9 6 -15q0 -2 1.5 -7.5t2.5 -7.5q1 -8 1 -19q0 -15 -2 -24q0 -7 -1 -12.5t-3 -7.5q-3 -6 -7 -27q-4 -22 -11 -37q-5 -9 -13 -22q-6 -7 -17 -18q-9 -9 -17 -12t-21 -14q-11 -11 -18.5 -13t-20 -11t-26.5 -10q-19 0 -25 1l-21 3 q-7 2 -22 2q-15 -1 -24 2q-2 0 -8.5 2.5t-9.5 3.5q-6 4 -18 6q-7 2 -10 5q0 1 -4 10q-2 8 -8 12q-8 7 -10 11q-2 2 -7 15q-1 6 -6 16q-4 7 -3 13q1 5 4 11q3 4 2 13q0 6 -5 17q-3 10 -2.5 12t10.5 22q12 20 13 22q4 6 6 17q3 13 9 20q7 10 8 15q2 8 15 20q4 3 19 17q4 3 9 3 q3 0 7 2q6 4 10 10q4 8 8 10q6 3 12 2q7 -2 13 -2q7 -1 13 3q6 5 11 5q4 0 11 -2q7 -1 12.5 2z" />
<glyph unicode="&#xbb;" horiz-adv-x="541" d="M361 468q2 1 6 1q6 0 15 -3q12 -4 35 -4t27 -4q4 -3 6 -8q3 -3 3 -14q0 -10 4 -16q5 -9 8 -23q5 -18 7 -24q2 -4 4 -15q3 -10 5 -13q1 -1 3.5 -6t4.5 -7q4 -10 8 -24t8 -24q4 -9 2 -20q-4 -11 -10 -21q-8 -11 -12 -14q-8 -5 -11 -9q-4 -3 -9 -11l-21 -30l-22 -34l-12 -20 l-7 -7q-7 -8 -10 -12q-8 -9 -20 -19q-8 -7 -17 -11q-7 -3 -24 -5q-8 -1 -14.5 -1t-14.5 1q-15 3 -17 7q-5 4 -3 14q0 1 0.5 4.5t1.5 4.5q3 8 11 16q6 5 13 17q6 10 17 19q9 8 13 15q3 6 11 11q10 7 12 10q3 5 1 13q0 10 6 16q8 11 9 13q1 1 4.5 6t5.5 7q8 7 11 22t-3 22 q-5 9 -5 13q1 6 -2 14q-1 6 -10 25q-8 16 -5 28q2 13 0 17q-1 6 -4 12l-5 12q-5 6 -7 13q-2 9 -2 18q-1 15 0 18q1 7 5 10zM189 466q9 3 13 3q3 0 12 -3q10 -4 18 -2q9 2 14 2q6 0 11 -3t11 -16q6 -9 6 -18q1 -6 0 -13t5 -15q6 -7 7 -14t5 -12q6 -8 8 -23q4 -17 5 -23t5 -14 q4 -9 4 -15q-1 -6 0 -10q0 -3 5 -10q4 -4 6 -12q-1 -7 -4 -10q-5 -8 -9 -13q-6 -8 -7 -13t-4 -8t-11 -8q-8 -4 -10 -12q-3 -8 -15 -18q-11 -11 -18 -22l-14 -18l-13 -14q-9 -7 -10 -15q-2 -7 -5 -15q-4 -7 -15 -17q-10 -8 -13 -9.5t-9 -0.5q-11 2 -16 0q-5 -1 -25 -3 q-20 0 -21 1q-1 0 -2 6q-1 4 1 12q1 7 10 20l20 31q8 17 15 23t8 10q2 3 5 11q5 9 11 15q7 6 13 16q2 2 4.5 6.5t3.5 5.5q0 4 11 15q11 12 12 17q3 5 0 18q-1 10 -7 23q-7 13 -6 18q0 9 -2 11q0 6 -5 9q-5 4 -4 11q2 9 -3 14q-5 6 -4.5 9t-0.5 5q-4 4 -5 12q-4 10 -6 16 q-4 5 -7 19q-3 12 -2 18q1 2 1 5q3 11 7 12q3 3 16 5z" />
<glyph unicode="&#xbc;" horiz-adv-x="814" d="M709 338q-6 4 -9 4q-1 0 -7 -3q-1 -1 -9 -15q-4 -11 -17 -22q-4 -3 -12 -10t-10 -9q-9 -8 -10 -14q-1 -5 -3 -9q-3 -5 -14 -15q-10 -9 -14 -16q-1 -4 -5 -10q-3 -4 -14 -11q-16 -11 -18 -14q-9 -9 -10 -12q-1 -5 3 -7q4 -3 19 -1q13 2 23 2h10q21 -2 24 -3q2 -2 10 -2 t10 1q7 3 12 7q7 5 10 12q5 10 9 26q5 21 5 29q0 10 3 18q3 6 8 28q3 20 7 27q5 8 4 12zM725 440q11 5 16 5h5q4 -1 17 -1h23q12 1 15 -2q2 -6 1 -11l-7 -14q-4 -5 -6 -17q-1 -6 -4 -27q-7 -37 -4 -43q4 -8 3 -11q0 -5 -3 -11q-5 -7 -10 -9q-3 -3 -7 -9q-3 -5 1 -13 q1 -7 -3 -23q-3 -11 -3 -24q1 -8 -4 -21q-5 -16 -7 -19q-1 -7 -1 -8q3 -3 8 -5q4 -1 26 -1q18 0 22 -2q5 -4 7 -10t1 -21q-1 -6 -2 -9q-1 -5 -7 -11q-6 -7 -13 -9q-8 -2 -11 -2q-5 0 -13 2q-8 1 -18 -3q-8 -4 -10 -6.5t-6 -15.5q-5 -18 -6 -24q-1 -2 -1.5 -9t-1.5 -10 q-1 -12 -5 -18t-16 -6q-14 0 -17 -1h-3q-4 0 -10 2q-1 1 -5.5 3t-5.5 2q-2 0 -11 5q-4 3 -6 8q2 9 5 14q6 15 7 24q3 13 -1 24q-5 9 -9 10h-20q-17 -1 -29 2q-13 4 -23 1q-19 -3 -27 -4q-15 0 -24 -4q-8 -3 -14 -3q-4 0 -8.5 6t-11.5 6q-6 0 -11 3q-3 4 1 25t3 27q0 8 2 17 q2 11 10.5 18t10.5 7l10 10q2 2 7 8t8 8q6 7 7 10q0 4 6 9q4 5 7 5t12 7t14 16q4 7 5 13q1 4 4 6t17 12q12 7 13 11q1 3 12 13q13 11 20 24q6 11 14 17q3 1 7.5 4.5t6 5.5t6.5 6.5t7 5.5q2 2 7.5 9t5.5 8q8 11 9 11q3 2 16 7zM304 713q1 0 5.5 0.5t7.5 0.5q7 0 12 -2 q4 -1 8 -9q1 -6 1 -11q-1 -5 -6.5 -15.5t-7.5 -23.5q-2 -11 -1 -17q0 -6 -3 -14q-5 -8 -3 -16q0 -1 -2 -14t-6 -32.5l-8 -38.5q-15 -78 -16 -80q-4 -5 -7 -30q-5 -26 -5 -40q1 -3 0 -21q-2 -9 -6 -15q-5 -8 -7 -16q-1 -7 -5 -12q-3 -2 -9 -5q-7 -2 -14 -2q-4 0 -15 3 q-9 3 -18 1q-9 -3 -12 -1q-4 2 -2 9q3 15 7 25l3 15q2 8 2 17q2 15 5 26q5 11 5 22q1 10 5 18q3 8 4 14q1 4 -1 16q-1 10 3 26q3 8 7 29q1 3 4 17.5t5 21.5q7 24 12 31q5 8 6.5 14t-2.5 11q-5 6 -10 6q-6 0 -20 -7q-15 -9 -21 -17q-7 -10 -11 -11q-4 -2 -22 -2q-18 -1 -22 3 q-2 3 -2 15t3 24q2 14 6 19q2 2 13 11q6 5 18 9q11 4 18 4t15 7q1 0 24 17q14 10 26 11q14 2 23 5q3 1 9 2.5t7 1.5zM707 730q12 3 18 3q1 0 17 -4q15 -6 15 -7q4 -4 2 -10q0 -4 -10 -20q-10 -12 -11 -17q-1 -4 -10 -12q-14 -13 -15 -16l-14 -18q-8 -11 -11 -12 q-5 -4 -9 -12q-5 -10 -12 -14q-6 -5 -9 -13q-2 -8 -10 -14q-6 -5 -12 -11q-3 -6 -14 -17q-4 -4 -11 -12q-5 -6 -7 -7q-6 -10 -8 -16q-1 -5 -4 -13q-2 -3 -13 -14q-6 -4 -13 -13q-5 -6 -6 -11q-3 -8 -17 -28q-20 -28 -31 -39q-4 -5 -8.5 -10l-8 -9t-4.5 -5q-6 -5 -10 -14 q-5 -9 -13 -16q-7 -6 -13 -16q-6 -11 -13 -18l-6 -6t-6 -7q-6 -5 -12 -15q-3 -6 -9 -14q-4 -6 -5 -11q-2 -7 -12 -15q-8 -7 -11 -11q-5 -9 -12 -19q-6 -10 -13 -24q-10 -14 -17 -20q-11 -12 -18 -18q-1 -2 -6 -7.5t-7 -7.5q-3 -3 -11 -15q-5 -10 -14 -19q-10 -8 -15 -16 q-9 -12 -12 -18q-7 -11 -11 -20q-4 -10 -9 -13l-9 -11l-7 -7q-3 -3 -20 -1q-19 0 -27 -4q-7 -3 -12 -3q-1 1 -4 2.5t-5 1.5q-3 4 -1 11q0 8 8 21q10 19 16 28q8 13 13 19q5 4 10 12q1 2 14 17q13 12 21 16q9 8 10.5 10t3.5 12q1 6 8 18q13 16 16 19l8.5 8.5l6.5 6.5 q7 7 11 17q3 7 5 9.5t8 6.5q8 6 13 14q8 12 12 17q11 12 12 19q4 10 8 13q3 5 7 9q4 1 9 10q9 12 17 19q12 12 18 27q6 13 12 20q6 5 14 15l21 25q7 10 19 25q3 7 13 17q6 5 12 15q6 12 7 16t4 10q3 4 11 11q9 6 15 11q6 4 9 14q2 7 4.5 10t10.5 9q9 8 17 16q4 5 13 15 q7 8 8 13t8 13q6 10 10 19q4 10 10 16q2 3 11 13q5 4 16 20q8 11 14 18q4 3 12 15q8 10 12 13t18 5z" />
</font>
</defs>
</svg>
